<svg width="40" height="40" viewBox="0 0 40 40" fill="none" xmlns="http://www.w3.org/2000/svg">
<g clip-path="url(#clip0)">
<path fill-rule="evenodd" clip-rule="evenodd" d="M14.401 2.4C14.401 1.07452 15.4755 0 16.801 0C25.6376 0 32.801 7.16344 32.801 16C32.801 17.3255 31.7265 18.4 30.401 18.4C29.0756 18.4 28.001 17.3255 28.001 16C28.001 9.81437 22.9867 4.8 16.801 4.8C15.4755 4.8 14.401 3.72548 14.401 2.4Z" fill="white"/>
<path fill-rule="evenodd" clip-rule="evenodd" d="M25.599 37.5996C25.599 38.9251 24.5244 39.9996 23.199 39.9996C14.3624 39.9996 7.19897 32.8362 7.19897 23.9996C7.19897 22.6741 8.27349 21.5996 9.59897 21.5996C10.9244 21.5996 11.999 22.6741 11.999 23.9996C11.999 30.1852 17.0134 35.1996 23.199 35.1996C24.5244 35.1996 25.599 36.2741 25.599 37.5996Z" fill="white"/>
<path fill-rule="evenodd" clip-rule="evenodd" d="M2.4 25.6002C1.07452 25.6002 5.79388e-08 24.5257 0 23.2002C-3.86258e-07 14.3636 7.16344 7.2002 16 7.2002C17.3255 7.2002 18.4 8.27474 18.4 9.60022C18.4 10.9257 17.3255 12.0002 16 12.0002C9.81444 12.0002 4.8 17.0146 4.8 23.2002C4.8 24.5257 3.72548 25.6002 2.4 25.6002Z" fill="white"/>
<path fill-rule="evenodd" clip-rule="evenodd" d="M37.6 14.4004C38.9255 14.4004 40 15.4749 40 16.8004C40 25.637 32.8366 32.8004 24 32.8004C22.6745 32.8004 21.6 31.7259 21.6 30.4004C21.6 29.0749 22.6745 28.0004 24 28.0004C30.1856 28.0004 35.2 22.986 35.2 16.8004C35.2 15.4749 36.2745 14.4004 37.6 14.4004Z" fill="white"/>
</g>
<defs>
<clipPath id="clip0">
<rect width="40" height="40" fill="white"/>
</clipPath>
</defs>
</svg>
