<svg id="Capa_1" enable-background="new 0 0 510 510" height="512" viewBox="0 0 510 510" width="512" xmlns="http://www.w3.org/2000/svg" xmlns:xlink="http://www.w3.org/1999/xlink"><linearGradient id="lg1"><stop offset="0" stop-color="#feb237"/><stop offset="1" stop-color="#fd6930"/></linearGradient><linearGradient id="SVGID_1_" gradientUnits="userSpaceOnUse" x1="306" x2="530.956" xlink:href="#lg1" y1="87.925" y2="87.925"/><linearGradient id="SVGID_2_" gradientUnits="userSpaceOnUse" x1="218" x2="494.212" xlink:href="#lg1" y1="87.925" y2="87.925"/><linearGradient id="SVGID_3_" gradientUnits="userSpaceOnUse" x1="218" x2="494.212" xlink:href="#lg1" y1="94.314" y2="94.314"/><linearGradient id="SVGID_4_" gradientUnits="userSpaceOnUse" x1="218" x2="494.212" xlink:href="#lg1" y1="131.474" y2="131.474"/><linearGradient id="SVGID_5_" gradientUnits="userSpaceOnUse" x1="-19" x2="217.781" xlink:href="#lg1" y1="422.075" y2="422.075"/><linearGradient id="SVGID_6_" gradientUnits="userSpaceOnUse" x1="-49.077" x2="145.434" xlink:href="#lg1" y1="422.075" y2="422.075"/><linearGradient id="SVGID_7_" gradientUnits="userSpaceOnUse" x1="63" x2="464.075" y1="255" y2="255"><stop offset="0" stop-color="#fff9df"/><stop offset=".593" stop-color="#ffe177"/><stop offset="1" stop-color="#feb237"/></linearGradient><linearGradient id="SVGID_8_" gradientUnits="userSpaceOnUse" x1="143.149" x2="437.781" y1="255.005" y2="255.005"><stop offset="0" stop-color="#ffe177"/><stop offset="1" stop-color="#feb237"/></linearGradient><linearGradient id="SVGID_9_" gradientTransform="matrix(.707 -.707 .707 .707 -105.623 255)" gradientUnits="userSpaceOnUse" x1="79" x2="438.093" xlink:href="#lg1" y1="262.115" y2="262.115"/><linearGradient id="SVGID_10_" gradientTransform="matrix(.707 -.707 .707 .707 -105.623 255)" gradientUnits="userSpaceOnUse" x1="79" x2="438.093" xlink:href="#lg1" y1="220.794" y2="220.794"/><linearGradient id="SVGID_11_" gradientUnits="userSpaceOnUse" x1="106" x2="279.367" xlink:href="#lg1" y1="92.693" y2="92.693"/><linearGradient id="SVGID_12_" gradientUnits="userSpaceOnUse" x1="106" x2="279.367" xlink:href="#lg1" y1="335.956" y2="335.956"/><g><path d="m485.79 96.84c-13.371 0-24.21-10.839-24.21-24.21 0-13.371-10.839-24.21-24.21-24.21-13.371 0-24.21-10.839-24.21-24.21 0-13.371-10.839-24.21-24.21-24.21-10.618 0-20.146 6.519-23.992 16.416l-30.808 79.269 80.165 80.165 79.27-30.808c9.896-3.846 16.415-13.374 16.415-23.992 0-13.371-10.839-24.21-24.21-24.21z" fill="url(#SVGID_1_)"/><g><path d="m485.79 96.84c-13.371 0-24.21-10.839-24.21-24.21 0-13.371-10.839-24.21-24.21-24.21-13.371 0-24.21-10.839-24.21-24.21s-10.839-24.21-24.21-24.21c-8.123 0-15.598 3.824-20.389 10.048 2.878 3.983 4.579 8.872 4.579 14.161 0 13.371 10.839 24.21 24.21 24.21 13.371 0 24.21 10.839 24.21 24.21 0 13.371 10.839 24.21 24.21 24.21 13.371 0 24.21 10.839 24.21 24.21 0 10.618-6.519 20.146-16.416 23.992l-50.45 19.608 11.201 11.201 79.269-30.808c9.897-3.846 16.416-13.374 16.416-23.992 0-13.371-10.839-24.21-24.21-24.21z" fill="url(#SVGID_2_)"/><path d="m400.942 64.769c-3.286-2.521-7.994-1.902-10.516 1.386l-37.252 48.556 10.698 10.698 38.455-50.125c2.522-3.285 1.902-7.993-1.385-10.515z" fill="url(#SVGID_3_)"/><path d="m445.231 109.058c-2.522-3.287-7.229-3.907-10.516-1.386l-50.125 38.455 10.698 10.698 48.556-37.252c3.288-2.521 3.908-7.229 1.387-10.515z" fill="url(#SVGID_4_)"/></g><path d="m96.84 485.79c0-13.371-10.839-24.21-24.21-24.21-13.371 0-24.21-10.839-24.21-24.21 0-13.371-10.839-24.21-24.21-24.21-13.371 0-24.21-10.839-24.21-24.21 0-10.618 6.519-20.146 16.416-23.992l79.269-30.808 80.165 80.165-30.808 79.27c-3.846 9.896-13.374 16.415-23.992 16.415-13.371 0-24.21-10.839-24.21-24.21z" fill="url(#SVGID_5_)"/><path d="m95.69 334.15-24.84 9.65c.4 2.32.85 4.62 1.37 6.9 2.185 9.673 5.438 18.917 9.762 27.584l-15.603 11.971c-3.281 2.517-4.124 7.423-1.6 10.7 1.477 1.917 3.699 2.923 5.947 2.923 1.593 0 3.198-.505 4.56-1.55l4.143-3.178c5.437-4.171 13.155-3.309 17.615 1.895 1.819 2.123 3.728 4.186 5.728 6.186 2.357 2.357 4.8 4.587 7.325 6.692 2.873 2.396 5.291 5.177 7.225 8.217l-9.489 12.368c-2.451 3.194-2.155 7.841.902 10.461 1.427 1.223 3.162 1.813 4.884 1.813 2.252 0 4.479-1.01 5.956-2.936 1.052-1.371 3.244-.484 3.05 1.233-.334 2.956-1.048 5.902-2.163 8.77l-15.44 39.732c-.9 2.33-2.12 4.47-3.6 6.38.76 1.05 1.6 2.04 2.51 2.95 4.38 4.38 10.43 7.09 17.12 7.09 10.62 0 20.15-6.52 23.99-16.42l30.81-79.27z" fill="url(#SVGID_6_)"/><path d="m389.733 120.267c56.06 56.06 41.183 161.827-33.228 236.238s-180.179 89.288-236.238 33.228-41.183-161.827 33.228-236.238 180.179-89.288 236.238-33.228z" fill="url(#SVGID_7_)"/><path d="m389.733 120.267c-27.412-27.412-66.71-37.853-108.414-32.676 26.242 3.52 49.995 14.277 68.394 32.676 56.06 56.06 41.183 161.827-33.228 236.238-38.026 38.026-84.239 60.495-127.824 65.905 53.714 7.205 117.855-15.916 167.844-65.905 74.411-74.411 89.288-180.179 33.228-236.238z" fill="url(#SVGID_8_)"/><g><path d="m305.647 86.355c-26.684-.691-55.233 5.56-82.921 18.362 49.207 30.214 83.34 96.325 83.34 173.018 0 53.982-16.916 102.699-44.09 137.357 30.048-9.449 60.043-26.613 86.609-50.995 17.66-31.66 28.101-70.833 28.107-113.252-.006-70.125-28.543-131.408-71.045-164.49z" fill="url(#SVGID_9_)"/><path d="m162.288 145.112c-2.975 2.703-5.908 5.495-8.794 8.381-14.638 14.638-26.967 30.485-36.913 46.935 23.697 33.979 38.176 79.432 38.176 129.389 0 27.434-4.373 53.516-12.241 77.083 15.186 8.895 32.433 14.207 50.801 16.048 20.044-32.757 32.061-74.522 32.061-120.016-.001-65.656-25.021-123.551-63.09-157.82z" fill="url(#SVGID_10_)"/></g><g><path d="m305.647 86.355c-7.959-.206-16.087.22-24.305 1.238 13.679 1.837 26.671 5.66 38.591 11.488-4.559-4.6-9.323-8.863-14.286-12.726z" fill="url(#SVGID_11_)"/><path d="m316.485 356.505c-11.383 11.383-23.503 21.36-36.063 29.915-5.43 10.353-11.612 19.958-18.445 28.672 30.048-9.449 60.043-26.613 86.609-50.995 16.827-30.167 27.093-67.159 28.029-107.277-9.93 34.784-30.214 69.769-60.13 99.685z" fill="url(#SVGID_12_)"/></g></g></svg>