<svg width="370" height="100" viewBox="0 0 370 100" fill="none" xmlns="http://www.w3.org/2000/svg">
<path d="M144.753 31.8535C147.023 33.5412 148.943 35.8619 150.165 39.0264C151.562 42.191 152.261 45.9886 152.261 50.2077C152.261 54.4273 151.562 58.0139 149.991 61.1784C148.594 64.3428 146.499 66.6637 143.879 68.1402C141.26 69.8282 138.117 70.6722 134.8 70.6722C132.879 70.6722 131.133 70.2499 129.387 69.4064C127.641 68.7735 126.069 67.5073 124.847 66.0308V87.9717H114.719V30.1657H123.45L124.323 34.8071C128.165 31.0096 132.355 29.1108 136.72 29.1108C139.689 29.1108 142.482 29.9547 144.753 31.8535ZM139.165 58.014C140.911 56.1153 141.784 53.5833 141.784 50.4188C141.784 47.2544 140.911 44.7228 139.34 42.613C137.768 40.5032 135.673 39.6594 133.403 39.6594C131.482 39.6594 129.736 40.0813 128.339 41.1362C126.942 41.98 125.895 43.4568 125.022 45.3557V54.8491C125.545 56.7482 126.593 58.2246 127.815 59.2797C129.212 60.3344 130.784 60.9673 132.705 60.9673C135.324 60.9673 137.419 59.9126 139.165 58.014Z" fill="#212121"/>
<path d="M158.197 39.2335C159.769 36.2799 161.864 33.7483 164.658 32.0605C167.451 30.3728 170.595 29.3179 174.087 29.3179C177.579 29.3179 180.722 30.1618 183.516 32.0605C186.135 33.7483 188.23 36.2799 189.802 39.4445C191.373 42.609 192.072 45.9846 192.072 49.9931C192.072 54.0015 191.373 57.3771 189.802 60.5415C188.23 63.706 186.31 66.2375 183.516 67.9255C180.896 69.6131 177.579 70.6682 174.087 70.6682C170.595 70.6682 167.451 69.8242 164.658 68.1366C161.864 66.4486 159.769 64.1282 158.197 60.9633C156.8 57.7989 155.927 54.2122 155.927 49.9931C155.927 45.9846 156.8 42.398 158.197 39.2335ZM168.499 57.5877C169.896 59.6975 171.817 60.5415 174.087 60.5415C176.357 60.5415 178.278 59.4869 179.674 57.5877C181.071 55.6891 181.77 52.9464 181.77 49.9931C181.77 46.8286 181.071 44.2968 179.674 42.3981C178.103 40.2884 176.357 39.2335 173.912 39.2335C171.642 39.2335 169.896 40.2884 168.325 42.1871C166.928 44.2968 166.229 46.8286 166.229 49.9931C166.229 52.9464 166.928 55.4784 168.499 57.5877Z" fill="#212121"/>
<path d="M208.487 0.206055V69.6154H198.359V0.206055H208.487Z" fill="#212121"/>
<path d="M250.043 31.2178L229.439 88.1798H219.661L227.343 67.7158L212.676 31.2178H224.2L232.582 54.0024L240.963 31.2178H250.043Z" fill="#212121"/>
<path d="M288.805 31.2166V69.6131C288.805 73.1997 287.932 76.5753 286.186 79.5291C284.44 82.4824 282.169 84.8033 279.201 86.4908C276.233 88.1788 273.09 89.0224 269.598 89.0224C266.978 89.0224 264.709 88.6006 262.788 87.9677C260.867 87.1237 259.296 86.2797 258.073 85.4362C256.677 84.3811 255.28 83.1153 253.708 81.4277L259.645 72.9886C261.042 74.6766 262.613 75.9424 264.01 76.7864C265.407 77.63 267.328 78.2628 269.423 78.2628C272.042 78.2628 274.137 77.4193 275.884 75.9424C277.63 74.4655 278.503 72.1451 278.503 69.4024V63.9171C277.455 65.8157 276.058 67.5037 273.963 68.7695C271.868 70.0353 269.423 70.6682 266.629 70.6682C263.836 70.6682 261.042 69.8242 258.597 67.9255C256.153 66.2375 254.232 63.706 252.66 60.5415C251.264 57.3771 250.391 54.0015 250.391 50.2042C250.391 46.4064 251.089 42.82 252.66 39.6554C254.232 36.4909 256.153 33.9592 258.772 32.0605C261.216 30.1618 263.836 29.3179 266.629 29.3179C269.248 29.3179 271.518 29.7398 273.614 30.5837C275.709 31.4276 277.281 32.6934 278.328 34.1702L279.376 31.2166H288.805ZM278.503 54.8455V45.3517C277.804 43.4529 276.757 41.9761 275.185 40.9212C273.614 39.8664 271.868 39.2335 269.772 39.2335C267.328 39.2335 265.233 40.2884 263.486 42.1871C261.74 44.0858 260.867 46.6175 260.867 49.782C260.867 52.7357 261.74 55.4784 263.486 57.5877C265.233 59.6975 267.328 60.7526 269.772 60.7526C273.788 60.5415 276.757 58.6428 278.503 54.8455Z" fill="#212121"/>
<path d="M297.189 39.2374C298.76 36.0729 300.856 33.7522 303.65 31.8535C306.443 30.1657 309.587 29.1108 313.079 29.1108C316.571 29.1108 319.714 29.9547 322.508 31.8535C325.127 33.5412 327.222 36.0729 328.794 39.2374C330.191 42.402 331.064 45.7775 331.064 49.786C331.064 53.7944 330.365 57.17 328.794 60.3344C327.397 63.4988 325.301 66.0308 322.508 67.7184C319.888 69.4064 316.571 70.4611 313.079 70.4611C309.587 70.4611 306.443 69.6171 303.65 67.9295C300.856 66.2415 298.76 63.9211 297.189 60.7566C295.618 57.5917 294.919 54.0055 294.919 49.5748C294.919 45.9886 295.618 42.402 297.189 39.2374ZM307.317 57.5917C308.714 59.7015 310.634 60.5455 312.904 60.5455C315.174 60.5455 317.095 59.4904 318.492 57.5917C319.888 55.6931 320.587 52.9504 320.587 49.9971C320.587 46.8322 319.888 44.3007 318.492 42.402C317.095 40.5032 315.174 39.4484 312.904 39.4484C310.634 39.4484 308.888 40.5032 307.317 42.402C305.745 44.3007 305.047 47.0433 305.047 49.9971C305.221 52.9504 305.92 55.482 307.317 57.5917Z" fill="#212121"/>
<path d="M366.86 32.4824C368.956 34.5921 369.827 37.3348 370 40.7103V69.6131H359.7V45.3517C359.525 41.5542 357.954 39.6554 354.985 39.6554C352.715 39.6554 350.795 40.9213 349.398 43.6639C348.001 46.4064 347.302 49.782 347.302 53.7904V69.6131H337.175V31.2166H346.429L347.128 37.3348C348.35 34.8031 349.921 32.9044 352.017 31.4276C354.112 29.9508 356.557 29.3179 359.351 29.3179C362.318 29.3179 364.938 30.3728 366.86 32.4824Z" fill="#212121"/>
<path d="M71.4158 30.5883C69.6695 29.3224 67.3996 29.3224 65.4792 30.5883L51.8593 40.2929L42.6049 46.6222L28.9854 56.3266C27.2393 57.5924 24.9693 57.5924 23.0486 56.3266L12.2228 48.7315C10.4766 47.4657 9.25437 45.1453 9.25437 42.6136V27.6347C9.25437 25.103 10.302 22.7823 12.2228 21.5165L22.874 14.1326C24.6201 12.8667 26.89 12.8667 28.8108 14.1326L39.4621 21.5165C41.208 22.7823 42.4304 25.103 42.4304 27.6347V37.3393L51.6847 30.7992V21.0946C51.6847 18.5629 50.6372 16.2423 48.7164 14.9764L28.9854 1.05239C27.2393 -0.213428 24.9693 -0.213428 23.0486 1.05239L2.96838 14.9764C1.04766 16.2423 0 18.5629 0 21.0946V49.1537C0 51.6853 1.04766 54.0062 2.96838 55.2719L23.0486 69.1959C24.7947 70.4617 27.0647 70.4617 28.9854 69.1959L42.6049 59.7022L51.8593 53.1622L65.4792 43.6684C67.2251 42.4026 69.495 42.4026 71.4158 43.6684L82.067 51.0524C83.813 52.3182 85.0353 54.6391 85.0353 57.1706V72.1493C85.0353 74.6813 83.9878 77.0017 82.067 78.2675L71.4158 85.8626C69.6695 87.1284 67.3996 87.1284 65.4792 85.8626L54.8279 78.4786C53.0816 77.2128 51.8593 74.8919 51.8593 72.3604V62.6559L42.6049 69.1959V78.9004C42.6049 81.4319 43.6528 83.7528 45.5732 85.0186L65.6537 98.9426C67.3996 100.208 69.6695 100.208 71.5903 98.9426L91.6708 85.0186C93.4167 83.7528 94.6391 81.4319 94.6391 78.9004V50.8413C94.6391 48.3097 93.5912 45.9893 91.6708 44.7235L71.4158 30.5883Z" fill="#8247E5"/>
</svg>
