<svg width="231" height="233" viewBox="0 0 231 233" fill="none" xmlns="http://www.w3.org/2000/svg">
<path d="M30 174H42.4726V178.024H38.3647V195.457H34.0067V178.024H30V174Z" fill="black"/>
<path d="M57.5706 182.388H60.1247C61.494 182.388 62.4347 182.218 62.9467 181.878C63.2149 181.68 63.4264 181.42 63.5617 181.123C63.6969 180.827 63.7515 180.502 63.7206 180.18C63.735 179.737 63.6016 179.302 63.3396 178.935C63.0895 178.588 62.7313 178.325 62.3156 178.182C61.5384 177.993 60.7355 177.916 59.9342 177.956H57.5528L57.5706 182.388ZM53.2722 174H59.0352C61.5277 174 63.3039 174.211 64.3636 174.633C65.4263 175.064 66.3183 175.803 66.9117 176.745C67.5795 177.793 67.9163 179.001 67.8821 180.226C67.9306 181.483 67.5552 182.723 66.8105 183.763C66.0026 184.782 64.881 185.535 63.6015 185.92L68.9597 195.457H64.2505L59.1721 186.372H57.5706V195.457H53.2722V174Z" fill="black"/>
<path d="M79.8725 174H84.1769V187.878C84.1276 188.735 84.2405 189.594 84.5103 190.414C84.7262 190.911 85.1093 191.327 85.5998 191.597C86.1539 191.908 86.79 192.063 87.4335 192.044C88.1207 192.062 88.7987 191.891 89.3862 191.551C89.899 191.259 90.298 190.816 90.5233 190.289C90.7895 189.335 90.896 188.348 90.8389 187.363V174H95.1492V186.791C95.2149 188.298 95.087 189.808 94.7682 191.285C94.475 192.186 93.9748 193.014 93.3036 193.708C92.6191 194.447 91.7658 195.028 90.8091 195.406C89.7648 195.803 88.6471 195.995 87.5228 195.972C86.0197 196.004 84.5377 195.631 83.2482 194.896C82.1199 194.268 81.2142 193.334 80.6465 192.214C80.1265 191.138 79.8666 189.321 79.8666 186.763L79.8725 174Z" fill="black"/>
<path d="M108.158 174H119.362V177.979H112.426V181.878H119.362V185.801H112.426V195.457H108.158V174Z" fill="black"/>
<path d="M131.251 174H142.456V177.979H135.52V181.878H142.456V185.801H135.52V195.457H131.251V174Z" fill="black"/>
<path d="M154.309 174H158.608V191.563H164.865V195.457H154.309V174Z" fill="black"/>
<path d="M175.682 174H188V177.995H179.945V181.878H188V185.801H179.945V191.449H188V195.457H175.682V174Z" fill="black"/>
<path d="M108.902 153.623C142.098 153.623 169.008 127.74 169.008 95.8117C169.008 63.8832 142.098 38 108.902 38C75.7058 38 48.7952 63.8832 48.7952 95.8117C48.7952 127.74 75.7058 153.623 108.902 153.623Z" fill="#5E464D"/>
<path d="M89.9993 147.074C92.4581 147.873 100.716 150.425 101.067 147.929C101.257 146.559 96.8995 145.156 90.9995 142.184C82.6083 137.968 74.9317 132.576 68.2274 126.189C58.4416 117.067 52.8146 104.656 52.5578 91.6287C52.0577 74.1392 59.2495 60.0004 71.0791 50.8765C63.9361 56.118 58.1131 62.8086 54.0346 70.4608C49.9561 78.1129 47.7248 86.5338 47.5033 95.1097C47.152 107.76 50.8729 118.418 57.8624 128.119C60.0327 130.784 62.5698 133.16 65.4054 135.183C72.1031 139.999 81.8966 144.454 89.9993 147.069" fill="white"/>
<path d="M169.836 82.5615C166.109 65.8984 154.523 54.233 139.026 45.992C150.856 54.0123 167.556 71.066 157.72 86.1104C149.386 98.1606 129.114 95.8004 118.04 90.0724C104.871 83.2803 88.374 67.9982 104.645 53.0557C115.177 43.3884 148.701 54.2274 142.801 68.6774C139.36 77.0826 125.964 75.2148 119.939 71.1056C115.498 68.0718 111.759 62.8589 113.736 57.4762C114.373 55.7499 114.284 53.0727 111.718 55.0424C109.807 56.514 108.842 58.9365 108.509 61.1892C105.705 80.0315 141.015 94.64 151.487 76.4091C156.929 66.9455 148.117 53.2029 137.026 47.5768C128.691 43.3318 120.011 40.3489 109.384 41.0734C92.3807 42.2054 78.1102 52.3369 76.3241 68.8529C74.5381 85.267 86.0819 100.04 99.6738 108.875C113.962 118.158 133.168 124.276 150.743 118.74C166.496 113.777 173.003 96.5871 169.836 82.5559" fill="white"/>
<path d="M147.665 69.7982C149.356 58.9989 139.086 51.5842 129.602 48.2165C118.421 44.2545 103.651 45.9864 95.5064 54.7878C89.5529 61.2516 89.9399 70.6359 93.0119 78.2317C97.6556 89.7046 108.14 97.9966 120.344 101.579C129.013 104.126 139.503 105.236 148.29 102.547C161.108 98.6248 165.281 85.918 162.632 74.2753C162.065 71.7584 161.194 69.3122 160.036 66.9852C158.417 63.7533 153.488 57.2103 160.292 65.1796C161.009 66.0678 161.669 66.9958 162.269 67.9587C163.679 70.1606 164.797 72.5199 165.597 74.9828C169.324 85.8501 166.401 98.5286 156.071 105.089C148.147 110.109 138.074 110.709 128.882 109.452C116.558 107.754 104.943 102.094 96.8698 92.9874C89.4993 84.6841 84.4686 72.7584 87.4989 61.8572C89.7196 53.8822 96.5304 47.9278 104.687 45.4431C115.004 42.2678 126.357 43.7451 135.645 48.9014C140.301 51.4767 144.575 55.0425 146.927 59.7177C148.004 61.8238 148.583 64.1286 148.624 66.4701C148.647 67.4185 148.569 68.3667 148.391 69.3001C148.326 69.6397 147.57 70.5963 147.677 69.8096" fill="#3FE0C5"/>
</svg>
