<svg id="e6OFptLusWE1" xmlns="http://www.w3.org/2000/svg" xmlns:xlink="http://www.w3.org/1999/xlink" viewBox="0 0 200 200" shape-rendering="geometricPrecision" text-rendering="geometricPrecision" width="200" height="200"><g id="e6OFptLusWE2"><ellipse id="e6OFptLusWE3" rx="38.679707" ry="31.676233" transform="matrix(2.585335 0 0 3.156941 100 99.999998)" fill="rgb(23,199,255)" stroke="none" stroke-width="0"/></g><g id="e6OFptLusWE4" display="none" transform="matrix(0.999409 -0.034382 0.034382 0.999409 80.249985 84.523547)"><path id="e6OFptLusWE5" d="M27.667,12.378L27.667,8.417L5,8.417L5,31.083L27.667,31.083L27.667,21.871L32.667,16.763L32.667,33.583C32.667,34.246,32.402,34.882,31.936,35.353C31.466,35.822,30.832,36.083,30.167,36.083L2.5,36.083C1.119,36.083,0,34.964,0,33.583L0,5.917C0,4.536,1.119,3.417,2.5,3.417L30.167,3.417C31.548,3.417,32.667,4.536,32.667,5.917L32.667,7.27L35.214,4.668C36.18,3.682,37.764,3.665,38.75,4.63C39.734,5.596,39.753,7.179,38.788,8.166L18.949,28.435C18.482,28.913,17.844,29.183,17.176,29.187C17.172,29.187,17.167,29.187,17.163,29.187C16.5,29.187,15.864,28.922,15.395,28.455L7.205,20.264C6.229,19.286,6.229,17.703,7.205,16.727C8.181,15.751,9.764,15.75,10.741,16.727L17.145,23.132L27.667,12.378Z" transform="matrix(3.038855 0.107744 -0.101537 2.863771 -27.411616 -42.14907)" fill="rgb(255,254,254)" stroke="none" stroke-width="1"/></g><g id="e6OFptLusWE6" transform="matrix(2.008546 0 0 2.048172 -0.427009 -2.411377)"><polyline id="e6OFptLusWE7" points="38.09,46.13 49.18,57.22 74.999999,33.160703" fill="none" stroke="rgb(68,244,71)" stroke-width="7" stroke-linecap="round" stroke-linejoin="round"/><path id="e6OFptLusWE8" d="M75,50C75.000359,61.171924,67.588335,70.987999,56.843084,74.046016C46.097833,77.104032,34.627947,72.661605,28.7458,63.163593C22.863654,53.665581,23.997237,41.417788,31.522689,33.160703C39.048142,24.903619,51.138534,22.641791,61.14,27.62" fill="none" stroke="rgb(255,255,255)" stroke-width="7" stroke-linejoin="round"/></g></svg>