<svg id="eA61GBeSMOy1" xmlns="http://www.w3.org/2000/svg" xmlns:xlink="http://www.w3.org/1999/xlink" viewBox="0 0 200 200" shape-rendering="geometricPrecision" text-rendering="geometricPrecision" width="200" height="200"><defs><filter id="eA61GBeSMOy4-filter" x="-400%" width="600%" y="-400%" height="600%"><feComponentTransfer id="eA61GBeSMOy4-filter-contrast-0" result="result"><feFuncR id="eA61GBeSMOy4-filter-contrast-0-R" type="linear" slope="1" intercept="0"/><feFuncG id="eA61GBeSMOy4-filter-contrast-0-G" type="linear" slope="1" intercept="0"/><feFuncB id="eA61GBeSMOy4-filter-contrast-0-B" type="linear" slope="1" intercept="0"/></feComponentTransfer></filter></defs><g id="eA61GBeSMOy2"><ellipse id="eA61GBeSMOy3" rx="38.679707" ry="31.676233" transform="matrix(2.585335 0 0 3.156941 100 100.000001)" fill="rgb(47,255,193)" stroke="none" stroke-width="0"/></g><g id="eA61GBeSMOy4" style="isolation:isolate" transform="matrix(6.081076 0 0 5.856381 36.317578 30.966761)" paint-order="fill markers stroke" filter="url(#eA61GBeSMOy4-filter)"><path id="eA61GBeSMOy5" d="M10,3.25C7.65279,3.25,5.75,5.15279,5.75,7.5C5.75,9.84721,7.65279,11.75,10,11.75C12.3472,11.75,14.25,9.84721,14.25,7.5C14.25,5.15279,12.3472,3.25,10,3.25ZM7.25,7.5C7.25,5.98122,8.48122,4.75,10,4.75C11.5188,4.75,12.75,5.98122,12.75,7.5C12.75,9.01878,11.5188,10.25,10,10.25C8.48122,10.25,7.25,9.01878,7.25,7.5Z" clip-rule="evenodd" fill="rgb(4,0,0)" fill-rule="evenodd" stroke="none" stroke-width="1"/><path id="eA61GBeSMOy6" d="M3.75,17C3.75,15.7574,4.75736,14.75,6,14.75L6.34087,14.75C6.36722,14.75,6.39342,14.7542,6.41847,14.7623L7.28398,15.045C8.28046,15.3703,9.32078,15.512,10.3554,15.4699C10.4934,15.4643,10.6063,15.3614,10.6354,15.2264C10.7089,14.8864,10.8113,14.5571,10.9397,14.2412C11.0003,14.0921,10.8773,13.9257,10.7171,13.9416C9.72187,14.0405,8.71109,13.933,7.74959,13.6191L6.88407,13.3364C6.70869,13.2792,6.52536,13.25,6.34087,13.25L6,13.25C3.92893,13.25,2.25,14.9289,2.25,17L2.25,18.1883C2.25,18.9415,2.79588,19.5837,3.53927,19.7051C6.1345,20.1288,8.76099,20.2955,11.3808,20.2053C11.5433,20.1997,11.6313,20.0111,11.5397,19.8768C11.3458,19.5925,11.1757,19.2906,11.0322,18.9741C10.9632,18.8217,10.8123,18.7209,10.645,18.7237C8.35042,18.762,6.05324,18.5957,3.78097,18.2247C3.76311,18.2218,3.75,18.2064,3.75,18.1883L3.75,17Z" fill="rgb(4,0,0)" stroke="none" stroke-width="1"/><path id="eA61GBeSMOy7" d="M12,16.5C12,17.4719,12.3081,18.3718,12.8319,19.1074C13.1238,19.5173,13.4827,19.8762,13.8926,20.1681C14.6282,20.6919,15.5281,21,16.5,21C18.9853,21,21,18.9853,21,16.5C21,15.5281,20.6919,14.6282,20.1681,13.8926C19.8762,13.4827,19.5173,13.1238,19.1074,12.8319C18.3718,12.3081,17.4719,12,16.5,12C14.0147,12,12,14.0147,12,16.5ZM16.5,19.5C15.9436,19.5,15.4227,19.3486,14.976,19.0846L19.0846,14.976C19.3486,15.4227,19.5,15.9436,19.5,16.5C19.5,18.1569,18.1569,19.5,16.5,19.5ZM13.9154,18.024L18.024,13.9154C17.5773,13.6514,17.0564,13.5,16.5,13.5C14.8431,13.5,13.5,14.8431,13.5,16.5C13.5,17.0564,13.6514,17.5773,13.9154,18.024Z" clip-rule="evenodd" fill="rgb(204,0,255)" fill-rule="evenodd" stroke="none" stroke-width="1"/></g></svg>