<svg width="36" height="36" viewBox="0 0 36 36" fill="none" xmlns="http://www.w3.org/2000/svg">
<path d="M33.5852 9.40519C31.9756 6.64733 29.7923 4.46393 27.0347 2.8545C24.2766 1.24498 21.2657 0.44043 17.9997 0.44043C14.7341 0.44043 11.7222 1.24523 8.96476 2.8545C6.2069 4.46385 4.02367 6.64733 2.41407 9.40519C0.804717 12.163 0 15.1745 0 18.4396C0 22.3619 1.14432 25.8888 3.43353 29.0214C5.7225 32.1542 8.6795 34.322 12.3043 35.5251C12.7262 35.6034 13.0386 35.5483 13.2417 35.3612C13.4448 35.1739 13.5463 34.9393 13.5463 34.6584C13.5463 34.6115 13.5423 34.1898 13.5345 33.3928C13.5264 32.5958 13.5227 31.9005 13.5227 31.3072L12.9836 31.4005C12.6399 31.4635 12.2063 31.4901 11.6828 31.4826C11.1596 31.4753 10.6164 31.4204 10.054 31.3185C9.49136 31.2174 8.96805 30.9831 8.48364 30.6159C7.99948 30.2487 7.65577 29.7681 7.4526 29.1747L7.21824 28.6354C7.06202 28.2764 6.81609 27.8775 6.4801 27.4403C6.14411 27.0027 5.80434 26.706 5.46064 26.5498L5.29654 26.4323C5.1872 26.3543 5.08574 26.2601 4.99191 26.1508C4.89816 26.0416 4.82798 25.9322 4.7811 25.8227C4.73415 25.7131 4.77306 25.6232 4.89824 25.5527C5.02343 25.4822 5.24967 25.448 5.57794 25.448L6.0465 25.518C6.35902 25.5806 6.74557 25.7677 7.20667 26.0804C7.66751 26.3928 8.04635 26.799 8.34327 27.2988C8.70282 27.9396 9.136 28.4278 9.64405 28.7638C10.1517 29.0998 10.6635 29.2675 11.179 29.2675C11.6945 29.2675 12.1398 29.2284 12.5149 29.1507C12.8897 29.0725 13.2413 28.9551 13.5695 28.7989C13.7102 27.7516 14.093 26.9471 14.7178 26.3847C13.8273 26.2911 13.0267 26.1502 12.3155 25.9628C11.6048 25.7751 10.8704 25.4706 10.1127 25.0483C9.3546 24.6266 8.72572 24.103 8.22588 23.4783C7.72596 22.8532 7.31568 22.0327 6.99562 21.0173C6.67539 20.0016 6.51523 18.8298 6.51523 17.5018C6.51523 15.6109 7.13254 14.0018 8.36691 12.6736C7.78868 11.2519 7.84326 9.65827 8.53084 7.89271C8.98397 7.75192 9.65595 7.85757 10.5465 8.20899C11.4371 8.56058 12.0892 8.86176 12.5035 9.11148C12.9177 9.36111 13.2496 9.57265 13.4996 9.74422C14.953 9.33813 16.4528 9.13504 17.9995 9.13504C19.5463 9.13504 21.0464 9.33813 22.4999 9.74422L23.3905 9.18199C23.9995 8.80685 24.7187 8.46306 25.5463 8.15055C26.3744 7.8382 27.0077 7.75217 27.4454 7.89295C28.1482 9.6586 28.2108 11.2522 27.6324 12.6738C28.8667 14.002 29.4843 15.6115 29.4843 17.502C29.4843 18.8301 29.3235 20.0055 29.0038 21.0291C28.6837 22.0528 28.2699 22.8725 27.7622 23.49C27.254 24.1074 26.6211 24.6269 25.8634 25.0485C25.1056 25.4705 24.3709 25.775 23.6602 25.9627C22.9491 26.1503 22.1485 26.2914 21.258 26.3851C22.0702 27.088 22.4763 28.1974 22.4763 29.7129V34.6577C22.4763 34.9386 22.574 35.1731 22.7696 35.3606C22.9649 35.5476 23.2733 35.6027 23.6952 35.5243C27.3205 34.3215 30.2775 32.1536 32.5664 29.0207C34.855 25.8882 35.9998 22.3612 35.9998 18.439C35.9989 15.1742 35.1938 12.163 33.5852 9.40519Z" fill="#393939"/>
</svg>
