<?xml version="1.0" encoding="iso-8859-1"?>
<!-- Generator: Adobe Illustrator 19.0.0, SVG Export Plug-In . SVG Version: 6.00 Build 0)  -->
<svg version="1.1" id="Capa_1" xmlns="http://www.w3.org/2000/svg" xmlns:xlink="http://www.w3.org/1999/xlink" x="0px" y="0px"
	 viewBox="0 0 472 472" style="enable-background:new 0 0 472 472;" xml:space="preserve">
<g>
	<path style="fill:#A1D4DB;" d="M60,368h16v104H60V368z"/>
	<path style="fill:#A1D4DB;" d="M220,216h32v104h-32V216z"/>
</g>
<circle style="fill:#75C9C1;" cx="236" cy="112" r="112"/>
<path style="fill:#FFD33F;" d="M236,104c-13.255,0-24-10.745-24-24s10.745-24,24-24c13.255,0,24,10.745,24,24h16
	c-0.024-19.001-13.389-35.373-32-39.2V24h-16v16.8c-21.65,4.396-35.636,25.51-31.24,47.16c3.789,18.657,20.202,32.059,39.24,32.04
	c13.255,0,24,10.745,24,24s-10.745,24-24,24c-13.255,0-24-10.745-24-24h-16c0.024,19.001,13.389,35.373,32,39.2V200h16v-16.8
	c21.65-4.396,35.636-25.51,31.24-47.16C271.452,117.383,255.038,103.981,236,104z"/>
<circle style="fill:#75C9C1;" cx="68" cy="312" r="64"/>
<path style="fill:#A1D4DB;" d="M396,368h16v104h-16V368z"/>
<path style="fill:#F2CBA7;" d="M252,320h-48l-72,64v80h136V336C268,327.163,260.837,320,252,320z"/>
<circle style="fill:#75C9C1;" cx="404" cy="312" r="64"/>
<g>
	<path style="fill:#FFD33F;" d="M68,304c-4.418,0-8-3.582-8-8s3.582-8,8-8s8,3.582,8,8h16c-0.042-10.134-6.445-19.15-16-22.528V264
		H60v9.472c-12.473,4.393-19.023,18.066-14.629,30.539C48.751,313.607,57.826,320.019,68,320c4.418,0,8,3.582,8,8s-3.582,8-8,8
		s-8-3.582-8-8H44c0.042,10.134,6.445,19.15,16,22.528V360h16v-9.472c12.473-4.393,19.023-18.066,14.629-30.539
		C87.249,310.393,78.174,303.981,68,304z"/>
	<path style="fill:#FFD33F;" d="M404,304c-4.418,0-8-3.582-8-8s3.582-8,8-8s8,3.582,8,8h16c-0.042-10.134-6.445-19.15-16-22.528V264
		h-16v9.472c-12.473,4.393-19.023,18.066-14.629,30.539c3.38,9.596,12.455,16.009,22.629,15.989c4.418,0,8,3.582,8,8s-3.582,8-8,8
		s-8-3.582-8-8h-16c0.042,10.134,6.445,19.15,16,22.528V360h16v-9.472c12.473-4.393,19.023-18.066,14.629-30.539
		C423.249,310.393,414.174,303.981,404,304z"/>
</g>
<g>
	<path style="fill:#F2CBA7;" d="M252,368h32c8.837,0,16,7.163,16,16l0,0c0,8.837-7.163,16-16,16h-32c-8.837,0-16-7.163-16-16l0,0
		C236,375.163,243.163,368,252,368z"/>
	<path style="fill:#F2CBA7;" d="M252,400h32c8.837,0,16,7.163,16,16l0,0c0,8.837-7.163,16-16,16h-32c-8.837,0-16-7.163-16-16l0,0
		C236,407.163,243.163,400,252,400z"/>
	<path style="fill:#F2CBA7;" d="M252,432h32c8.837,0,16,7.163,16,16l0,0c0,8.837-7.163,16-16,16h-32c-8.837,0-16-7.163-16-16l0,0
		C236,439.163,243.163,432,252,432z"/>
	<path style="fill:#F2CBA7;" d="M252,336h32c8.837,0,16,7.163,16,16l0,0c0,8.837-7.163,16-16,16h-32c-8.837,0-16-7.163-16-16l0,0
		C236,343.163,243.163,336,252,336z"/>
</g>
<g>
	<path style="fill:#E1B494;" d="M236,448c0,8.837,7.163,16,16,16h32c0-8.837-7.163-16-16-16H236z"/>
	<path style="fill:#E1B494;" d="M236,416c0,8.837,7.163,16,16,16h32c0-8.837-7.163-16-16-16H236z"/>
	<path style="fill:#E1B494;" d="M236,352c0,8.837,7.163,16,16,16h32c0-8.837-7.163-16-16-16H236z"/>
	<path style="fill:#E1B494;" d="M236,384c0,8.837,7.163,16,16,16h32c0-8.837-7.163-16-16-16H236z"/>
</g>
<path style="fill:#F2CBA7;" d="M228,360v20c0,11.046,8.954,20,20,20s20-8.954,20-20v-44c0-8.837-7.163-16-16-16h-48L228,360z"/>
<path style="fill:#E1B494;" d="M248,400v-20c0-11.046-8.954-20-20-20v20C228,391.046,236.954,400,248,400z"/>
<g>
</g>
<g>
</g>
<g>
</g>
<g>
</g>
<g>
</g>
<g>
</g>
<g>
</g>
<g>
</g>
<g>
</g>
<g>
</g>
<g>
</g>
<g>
</g>
<g>
</g>
<g>
</g>
<g>
</g>
</svg>
