<svg id="eORb1xtsemi1" xmlns="http://www.w3.org/2000/svg" xmlns:xlink="http://www.w3.org/1999/xlink" viewBox="0 0 570 480" shape-rendering="geometricPrecision" text-rendering="geometricPrecision"><style><![CDATA[#eORb1xtsemi11_to {animation: eORb1xtsemi11_to__to 6000ms linear infinite normal forwards}@keyframes eORb1xtsemi11_to__to { 0% {transform: translate(41.079744px,1205.841659px)} 16.666667% {transform: translate(58.046201px,69.969906px)} 33.333333% {transform: translate(58.046201px,69.969906px)} 50% {transform: translate(62.899230px,69.969906px)} 66.666667% {transform: translate(58.046201px,69.969906px)} 81.666667% {transform: translate(58.046201px,69.969906px)} 90% {transform: translate(39.464437px,1210.078196px)} 98.333333% {transform: translate(50.685356px,1418.872450px)} 100% {transform: translate(92.109190px,1448.079994px)}} #eORb1xtsemi12_to {animation: eORb1xtsemi12_to__to 6000ms linear infinite normal forwards}@keyframes eORb1xtsemi12_to__to { 0% {transform: translate(60.669664px,1217.253572px)} 16.666667% {transform: translate(77.636121px,81.381819px)} 33.333333% {transform: translate(77.636121px,81.381819px)} 50% {transform: translate(82.489150px,81.381819px)} 66.666667% {transform: translate(77.636121px,81.381819px)} 81.666667% {transform: translate(77.636121px,81.381819px)} 90% {transform: translate(59.054357px,1221.490109px)} 98.333333% {transform: translate(70.275276px,1430.284363px)} 100% {transform: translate(111.699110px,1459.491907px)}} #eORb1xtsemi13_to {animation: eORb1xtsemi13_to__to 6000ms linear infinite normal forwards}@keyframes eORb1xtsemi13_to__to { 0% {transform: translate(60.731248px,1219.808424px)} 16.666667% {transform: translate(77.697705px,83.936671px)} 33.333333% {transform: translate(77.697705px,83.936671px)} 50% {transform: translate(82.550734px,83.936671px)} 66.666667% {transform: translate(77.697705px,83.936671px)} 81.666667% {transform: translate(77.697705px,83.936671px)} 90% {transform: translate(59.115941px,1224.044960px)} 98.333333% {transform: translate(70.336860px,1432.839215px)} 100% {transform: translate(111.760694px,1462.046759px)}} #eORb1xtsemi16_to {animation: eORb1xtsemi16_to__to 6000ms linear infinite normal forwards}@keyframes eORb1xtsemi16_to__to { 0% {transform: translate(8.173401px,861.461900px)} 16.666667% {transform: translate(26.611301px,863.294759px)} 33.333333% {transform: translate(28.759410px,401.704771px)} 50% {transform: translate(28.759410px,403.537630px)} 66.666667% {transform: translate(28.759410px,404.648910px)} 100% {transform: translate(27.670234px,948.207019px)}} #eORb1xtsemi17_to {animation: eORb1xtsemi17_to__to 6000ms linear infinite normal forwards}@keyframes eORb1xtsemi17_to__to { 0% {transform: translate(202.313632px,721.442840px)} 16.666667% {transform: translate(208.784835px,256.025901px)} 33.333333% {transform: translate(208.784835px,256.025901px)} 50% {transform: translate(210.635836px,256.025901px)} 66.666667% {transform: translate(208.784835px,256.025901px)} 81.666667% {transform: translate(208.784835px,256.025901px)} 90% {transform: translate(201.697535px,723.178737px)} 98.333333% {transform: translate(205.977324px,808.730986px)} 100% {transform: translate(221.776853px,820.698610px)}} #eORb1xtsemi18_to {animation: eORb1xtsemi18_to__to 6000ms linear infinite normal forwards}@keyframes eORb1xtsemi18_to__to { 0% {transform: translate(8.173401px,854.327482px)} 16.666667% {transform: translate(26.611301px,856.160340px)} 33.333333% {transform: translate(28.759410px,394.570352px)} 50% {transform: translate(28.759410px,396.403211px)} 66.666667% {transform: translate(28.759410px,397.514491px)} 100% {transform: translate(27.670234px,941.072600px)}} #eORb1xtsemi19_to {animation: eORb1xtsemi19_to__to 6000ms linear infinite normal forwards}@keyframes eORb1xtsemi19_to__to { 0% {transform: translate(204.313632px,736.576540px)} 16.666667% {transform: translate(210.784835px,271.159600px)} 33.333333% {transform: translate(210.784835px,271.159600px)} 50% {transform: translate(212.635836px,271.159600px)} 66.666667% {transform: translate(210.784835px,271.159600px)} 81.666667% {transform: translate(210.784835px,271.159600px)} 90% {transform: translate(203.697535px,738.312437px)} 98.333333% {transform: translate(207.977324px,823.864685px)} 100% {transform: translate(223.776853px,835.832309px)}} #eORb1xtsemi22_to {animation: eORb1xtsemi22_to__to 6000ms linear infinite normal forwards}@keyframes eORb1xtsemi22_to__to { 0% {transform: translate(159.820776px,654.417027px)} 16.666667% {transform: translate(167.281266px,129.026056px)} 33.333333% {transform: translate(167.281266px,129.026056px)} 50% {transform: translate(169.415240px,129.026056px)} 66.666667% {transform: translate(167.281266px,129.026056px)} 81.666667% {transform: translate(167.281266px,129.026056px)} 90% {transform: translate(159.110493px,656.376612px)} 98.333333% {transform: translate(164.044556px,752.953198px)} 100% {transform: translate(182.259444px,766.462981px)}} #eORb1xtsemi23_to {animation: eORb1xtsemi23_to__to 6000ms linear infinite normal forwards}@keyframes eORb1xtsemi23_to__to { 0% {transform: translate(161.163824px,648.893879px)} 16.666667% {transform: translate(168.624314px,123.502908px)} 33.333333% {transform: translate(168.624314px,123.502908px)} 50% {transform: translate(170.758288px,123.502908px)} 66.666667% {transform: translate(168.624314px,123.502908px)} 81.666667% {transform: translate(168.624314px,123.502908px)} 90% {transform: translate(160.453541px,650.853465px)} 98.333333% {transform: translate(165.387604px,747.430051px)} 100% {transform: translate(183.602492px,760.939833px)}} #eORb1xtsemi24_to {animation: eORb1xtsemi24_to__to 6000ms linear infinite normal forwards}@keyframes eORb1xtsemi24_to__to { 0% {transform: translate(161.938856px,649.078915px)} 16.666667% {transform: translate(169.399346px,123.687944px)} 33.333333% {transform: translate(169.399346px,123.687944px)} 50% {transform: translate(171.533320px,123.687944px)} 66.666667% {transform: translate(169.399346px,123.687944px)} 81.666667% {transform: translate(169.399346px,123.687944px)} 90% {transform: translate(161.228573px,651.038501px)} 98.333333% {transform: translate(166.162636px,747.615086px)} 100% {transform: translate(184.377524px,761.124869px)}} #eORb1xtsemi26_to {animation: eORb1xtsemi26_to__to 6000ms linear infinite normal forwards}@keyframes eORb1xtsemi26_to__to { 0% {transform: translate(99.224942px,762.385074px)} 16.666667% {transform: translate(126.230703px,764.975844px)} 33.333333% {transform: translate(129.377011px,112.512432px)} 50% {transform: translate(129.377011px,115.103202px)} 66.666667% {transform: translate(129.377011px,116.674010px)} 100% {transform: translate(127.781709px,885.000421px)}} #eORb1xtsemi29_to {animation: eORb1xtsemi29_to__to 6000ms linear infinite normal forwards}@keyframes eORb1xtsemi29_to__to { 0% {transform: translate(370.313632px,883.743999px)} 33.333333% {transform: translate(388.751532px,885.576858px)} 50% {transform: translate(394.197413px,412.005930px)} 66.666667% {transform: translate(395.286589px,412.005930px)} 81.666667% {transform: translate(395.983500px,434.275137px)} 88.333333% {transform: translate(394.263115px,418.591175px)} 100% {transform: translate(388.751531px,972.790092px)}} #eORb1xtsemi30_to {animation: eORb1xtsemi30_to__to 6000ms linear infinite normal forwards}@keyframes eORb1xtsemi30_to__to { 0% {transform: translate(371.752676px,892.360650px)} 33.333333% {transform: translate(390.190576px,894.193508px)} 50% {transform: translate(395.636457px,420.622580px)} 66.666667% {transform: translate(396.725633px,420.622580px)} 81.666667% {transform: translate(397.422544px,442.891787px)} 88.333333% {transform: translate(395.702159px,427.207825px)} 100% {transform: translate(390.190575px,981.406743px)}} #eORb1xtsemi31_to {animation: eORb1xtsemi31_to__to 6000ms linear infinite normal forwards}@keyframes eORb1xtsemi31_to__to { 0% {transform: translate(166.313632px,845.442840px)} 16.666667% {transform: translate(172.784835px,380.025901px)} 33.333333% {transform: translate(172.784835px,380.025901px)} 50% {transform: translate(174.635836px,380.025901px)} 66.666667% {transform: translate(172.784835px,380.025901px)} 81.666667% {transform: translate(172.784835px,380.025901px)} 90% {transform: translate(165.697535px,847.178737px)} 98.333333% {transform: translate(169.977324px,932.730986px)} 100% {transform: translate(185.776853px,944.698610px)}} #eORb1xtsemi33_to {animation: eORb1xtsemi33_to__to 6000ms linear infinite normal forwards}@keyframes eORb1xtsemi33_to__to { 0% {transform: translate(149.316958px,779.021135px)} 33.333333% {transform: translate(176.322719px,781.611905px)} 50% {transform: translate(184.299233px,112.213280px)} 66.666667% {transform: translate(185.894536px,112.213280px)} 81.666667% {transform: translate(186.915292px,143.691091px)} 88.333333% {transform: translate(184.395466px,121.521608px)} 100% {transform: translate(176.322718px,904.888938px)}} #eORb1xtsemi37_to {animation: eORb1xtsemi37_to__to 6000ms linear infinite normal forwards}@keyframes eORb1xtsemi37_to__to { 0% {transform: translate(234.313632px,837.442840px)} 16.666667% {transform: translate(240.784835px,372.025901px)} 33.333333% {transform: translate(240.784835px,372.025901px)} 50% {transform: translate(242.635836px,372.025901px)} 66.666667% {transform: translate(240.784835px,372.025901px)} 81.666667% {transform: translate(240.784835px,372.025901px)} 90% {transform: translate(233.697535px,839.178737px)} 98.333333% {transform: translate(237.977324px,924.730986px)} 100% {transform: translate(253.776853px,936.698610px)}} #eORb1xtsemi38_to {animation: eORb1xtsemi38_to__to 6000ms linear infinite normal forwards}@keyframes eORb1xtsemi38_to__to { 0% {transform: translate(234.313632px,869.442840px)} 16.666667% {transform: translate(240.784835px,404.025901px)} 33.333333% {transform: translate(240.784835px,404.025901px)} 50% {transform: translate(242.635836px,404.025901px)} 66.666667% {transform: translate(240.784835px,404.025901px)} 81.666667% {transform: translate(240.784835px,404.025901px)} 90% {transform: translate(233.697535px,871.178737px)} 98.333333% {transform: translate(237.977324px,956.730986px)} 100% {transform: translate(253.776853px,968.698610px)}} #eORb1xtsemi39_to {animation: eORb1xtsemi39_to__to 6000ms linear infinite normal forwards}@keyframes eORb1xtsemi39_to__to { 0% {transform: translate(234.313632px,901.442840px)} 16.666667% {transform: translate(240.784835px,436.025901px)} 33.333333% {transform: translate(240.784835px,436.025901px)} 50% {transform: translate(242.635836px,436.025901px)} 66.666667% {transform: translate(240.784835px,436.025901px)} 81.666667% {transform: translate(240.784835px,436.025901px)} 90% {transform: translate(233.697535px,903.178737px)} 98.333333% {transform: translate(237.977324px,988.730986px)} 100% {transform: translate(253.776853px,1000.698610px)}} #eORb1xtsemi40_to {animation: eORb1xtsemi40_to__to 6000ms linear infinite normal forwards}@keyframes eORb1xtsemi40_to__to { 0% {transform: translate(234.313632px,805.442840px)} 16.666667% {transform: translate(240.784835px,340.025901px)} 33.333333% {transform: translate(240.784835px,340.025901px)} 50% {transform: translate(242.635836px,340.025901px)} 66.666667% {transform: translate(240.784835px,340.025901px)} 81.666667% {transform: translate(240.784835px,340.025901px)} 90% {transform: translate(233.697535px,807.178737px)} 98.333333% {transform: translate(237.977324px,892.730986px)} 100% {transform: translate(253.776853px,904.698610px)}} #eORb1xtsemi42_to {animation: eORb1xtsemi42_to__to 6000ms linear infinite normal forwards}@keyframes eORb1xtsemi42_to__to { 0% {transform: translate(226.313632px,909.442840px)} 16.666667% {transform: translate(232.784835px,444.025901px)} 33.333333% {transform: translate(232.784835px,444.025901px)} 50% {transform: translate(234.635836px,444.025901px)} 66.666667% {transform: translate(232.784835px,444.025901px)} 81.666667% {transform: translate(232.784835px,444.025901px)} 90% {transform: translate(225.697535px,911.178737px)} 98.333333% {transform: translate(229.977324px,996.730986px)} 100% {transform: translate(245.776853px,1008.698610px)}} #eORb1xtsemi43_to {animation: eORb1xtsemi43_to__to 6000ms linear infinite normal forwards}@keyframes eORb1xtsemi43_to__to { 0% {transform: translate(226.313632px,877.442840px)} 16.666667% {transform: translate(232.784835px,412.025901px)} 33.333333% {transform: translate(232.784835px,412.025901px)} 50% {transform: translate(234.635836px,412.025901px)} 66.666667% {transform: translate(232.784835px,412.025901px)} 81.666667% {transform: translate(232.784835px,412.025901px)} 90% {transform: translate(225.697535px,879.178737px)} 98.333333% {transform: translate(229.977324px,964.730986px)} 100% {transform: translate(245.776853px,976.698610px)}} #eORb1xtsemi44_to {animation: eORb1xtsemi44_to__to 6000ms linear infinite normal forwards}@keyframes eORb1xtsemi44_to__to { 0% {transform: translate(226.313632px,813.442840px)} 16.666667% {transform: translate(232.784835px,348.025901px)} 33.333333% {transform: translate(232.784835px,348.025901px)} 50% {transform: translate(234.635836px,348.025901px)} 66.666667% {transform: translate(232.784835px,348.025901px)} 81.666667% {transform: translate(232.784835px,348.025901px)} 90% {transform: translate(225.697535px,815.178737px)} 98.333333% {transform: translate(229.977324px,900.730986px)} 100% {transform: translate(245.776853px,912.698610px)}} #eORb1xtsemi45_to {animation: eORb1xtsemi45_to__to 6000ms linear infinite normal forwards}@keyframes eORb1xtsemi45_to__to { 0% {transform: translate(226.313632px,845.442840px)} 16.666667% {transform: translate(232.784835px,380.025901px)} 33.333333% {transform: translate(232.784835px,380.025901px)} 50% {transform: translate(234.635836px,380.025901px)} 66.666667% {transform: translate(232.784835px,380.025901px)} 81.666667% {transform: translate(232.784835px,380.025901px)} 90% {transform: translate(225.697535px,847.178737px)} 98.333333% {transform: translate(229.977324px,932.730986px)} 100% {transform: translate(245.776853px,944.698610px)}} #eORb1xtsemi46_to {animation: eORb1xtsemi46_to__to 6000ms linear infinite normal forwards}@keyframes eORb1xtsemi46_to__to { 0% {transform: translate(202.313632px,813.442840px)} 16.666667% {transform: translate(208.784835px,348.025901px)} 33.333333% {transform: translate(208.784835px,348.025901px)} 50% {transform: translate(210.635836px,348.025901px)} 66.666667% {transform: translate(208.784835px,348.025901px)} 81.666667% {transform: translate(208.784835px,348.025901px)} 90% {transform: translate(201.697535px,815.178737px)} 98.333333% {transform: translate(205.977324px,900.730986px)} 100% {transform: translate(221.776853px,912.698610px)}} #eORb1xtsemi47_to {animation: eORb1xtsemi47_to__to 6000ms linear infinite normal forwards}@keyframes eORb1xtsemi47_to__to { 0% {transform: translate(204.313632px,833.442840px)} 16.666667% {transform: translate(210.784835px,368.025901px)} 33.333333% {transform: translate(210.784835px,368.025901px)} 50% {transform: translate(212.635836px,368.025901px)} 66.666667% {transform: translate(210.784835px,368.025901px)} 81.666667% {transform: translate(210.784835px,368.025901px)} 90% {transform: translate(203.697535px,835.178737px)} 98.333333% {transform: translate(207.977324px,920.730986px)} 100% {transform: translate(223.776853px,932.698610px)}} #eORb1xtsemi51_to {animation: eORb1xtsemi51_to__to 6000ms linear infinite normal forwards}@keyframes eORb1xtsemi51_to__to { 0% {transform: translate(-117.050114px,4666.697597px)} 16.666667% {transform: translate(98.948809px,4684.241218px)} 33.333333% {transform: translate(124.113778px,266.028061px)} 50% {transform: translate(124.113778px,283.571682px)} 66.666667% {transform: translate(124.113778px,294.208549px)} 100% {transform: translate(111.354145px,5496.998157px)}} #eORb1xtsemi52_to {animation: eORb1xtsemi52_to__to 6000ms linear infinite normal forwards}@keyframes eORb1xtsemi52_to__to { 0% {transform: translate(-504.830112px,4666.697597px)} 16.666667% {transform: translate(-288.831190px,4684.241218px)} 33.333333% {transform: translate(-263.666221px,266.028061px)} 50% {transform: translate(-263.666221px,283.571682px)} 66.666667% {transform: translate(-263.666221px,294.208549px)} 100% {transform: translate(-276.425854px,5496.998157px)}} #eORb1xtsemi53_to {animation: eORb1xtsemi53_to__to 6000ms linear infinite normal forwards}@keyframes eORb1xtsemi53_to__to { 0% {transform: translate(-115.060123px,5226.687618px)} 16.666667% {transform: translate(100.938799px,5244.231239px)} 33.333333% {transform: translate(126.103768px,826.018081px)} 50% {transform: translate(126.103768px,843.561703px)} 66.666667% {transform: translate(126.103768px,854.198570px)} 100% {transform: translate(113.344135px,6056.988177px)}} #eORb1xtsemi54_to {animation: eORb1xtsemi54_to__to 6000ms linear infinite normal forwards}@keyframes eORb1xtsemi54_to__to { 0% {transform: translate(-504.830112px,5226.687618px)} 16.666667% {transform: translate(-288.831190px,5244.231239px)} 33.333333% {transform: translate(-263.666221px,826.018081px)} 50% {transform: translate(-263.666221px,843.561703px)} 66.666667% {transform: translate(-263.666221px,854.198570px)} 100% {transform: translate(-276.425854px,6056.988177px)}} #eORb1xtsemi55_to {animation: eORb1xtsemi55_to__to 6000ms linear infinite normal forwards}@keyframes eORb1xtsemi55_to__to { 0% {transform: translate(-112.765110px,4902.862590px)} 16.666667% {transform: translate(103.233813px,4920.406212px)} 33.333333% {transform: translate(128.398782px,502.193054px)} 50% {transform: translate(128.398782px,519.736675px)} 66.666667% {transform: translate(128.398782px,530.373542px)} 100% {transform: translate(115.639148px,5733.163150px)}} #eORb1xtsemi56_to {animation: eORb1xtsemi56_to__to 6000ms linear infinite normal forwards}@keyframes eORb1xtsemi56_to__to { 0% {transform: translate(-504.830112px,4902.862590px)} 16.666667% {transform: translate(-288.831190px,4920.406212px)} 33.333333% {transform: translate(-263.666221px,502.193054px)} 50% {transform: translate(-263.666221px,519.736675px)} 66.666667% {transform: translate(-263.666221px,530.373542px)} 100% {transform: translate(-276.425854px,5733.163150px)}} #eORb1xtsemi59_to {animation: eORb1xtsemi59_to__to 6000ms linear infinite normal forwards}@keyframes eORb1xtsemi59_to__to { 0% {transform: translate(378.172071px,12945.055827px)} 33.333333% {transform: translate(855.358456px,12992.328342px)} 50% {transform: translate(996.301853px,778.135183px)} 66.666667% {transform: translate(1024.490528px,778.135183px)} 81.666667% {transform: translate(1042.527093px,1352.495600px)} 88.333333% {transform: translate(998.002270px,947.979759px)} 100% {transform: translate(855.358430px,15241.704787px)}} #eORb1xtsemi60_to {animation: eORb1xtsemi60_to__to 6000ms linear infinite normal forwards}@keyframes eORb1xtsemi60_to__to { 0% {transform: translate(378.167066px,12945.055857px)} 33.333333% {transform: translate(855.353451px,12992.328372px)} 50% {transform: translate(996.296849px,778.135213px)} 66.666667% {transform: translate(1024.485523px,778.135213px)} 81.666667% {transform: translate(1042.522088px,1352.495631px)} 88.333333% {transform: translate(997.997265px,947.979789px)} 100% {transform: translate(855.353425px,15241.704818px)}}]]></style><defs><filter id="eORb1xtsemi5-filter" x="-400%" width="600%" y="-400%" height="600%"><feColorMatrix id="eORb1xtsemi5-filter-hue-rotate-0" type="hueRotate" values="0" result="result"/></filter><filter id="eORb1xtsemi18-filter" x="-400%" width="600%" y="-400%" height="600%"><feColorMatrix id="eORb1xtsemi18-filter-hue-rotate-0" type="hueRotate" values="0" result="result"/></filter><filter id="eORb1xtsemi19-filter" x="-400%" width="600%" y="-400%" height="600%"><feColorMatrix id="eORb1xtsemi19-filter-hue-rotate-0" type="hueRotate" values="0" result="result"/></filter><filter id="eORb1xtsemi30-filter" x="-400%" width="600%" y="-400%" height="600%"><feColorMatrix id="eORb1xtsemi30-filter-hue-rotate-0" type="hueRotate" values="0" result="result"/></filter></defs><circle id="eORb1xtsemi2" r="27.500000" transform="matrix(8.47153321619960 0 0 8.66062332383928 292.08729970999968 238.16714141000000)" fill="rgb(217,208,255)" stroke="none" stroke-width="1"/><g id="eORb1xtsemi3" display="none" transform="matrix(-0.17520509509288 -0.76894018928055 0.76016099218765 -0.17320473136766 245.91451279916586 407.02775062391026)"><path id="eORb1xtsemi4" d="M209.460000,264.440000L209.460000,365.540000C209.460000,370.764614,205.224614,375,200,375C194.775386,375,190.540000,370.764614,190.540000,365.540000L190.540000,264.440000C193.660000,264.690000,196.820000,264.810000,200,264.810000C203.180000,264.810000,206.340000,264.690000,209.460000,264.440000Z" transform="matrix(1 0 0 1.44967694959968 0 -143.77071487493066)" fill="rgb(206,246,219)" fill-rule="evenodd" stroke="none" stroke-width="1"/><path id="eORb1xtsemi5" d="M50,28.420000C23.110000,3.600000,-10.830000,46.930000,50,78.940000C110.830000,46.930000,76.890000,3.600000,50,28.420000Z" transform="matrix(1 0 0 1 150.77504253999984 269.64558105999902)" filter="url(#eORb1xtsemi5-filter)" fill="rgb(255,137,241)" stroke="none" stroke-width="1"/><g id="eORb1xtsemi6" transform="matrix(0.99220831147603 0 0 1.01979693860195 1.55833764534910 -2.86877436978739)"><path id="eORb1xtsemi7" d="M200,25C157.766274,25.010883,118.650868,47.233390,97.018657,83.506453C75.386445,119.779517,74.425985,164.756536,94.490000,201.920000C128.032247,257.750088,200.002595,276.604290,256.609774,244.390810C313.216953,212.177329,333.766721,140.672651,302.900000,83.320000C281.246495,47.133087,242.170686,24.986331,200,25Z" fill="rgb(255,15,214)" fill-rule="evenodd" stroke="none" stroke-width="1"/><path id="eORb1xtsemi8" d="M275.530000,51.780000C261.204637,35.555870,239.527800,24.107540,217.410000,26.260000C233.603087,32.049233,248.163659,41.653380,259.860000,54.260000C279.490000,75.200000,291.640000,104.170000,291.640000,136.210000C291.807419,161.997362,282.153974,186.881799,264.640000,205.810000C248.070000,223.480000,225.200000,234.410000,199.970000,234.410000C174.740000,234.410000,151.870000,223.480000,135.300000,205.810000C117.786026,186.881799,108.132581,161.997362,108.300000,136.210000C108.156512,115.013553,116.082657,94.556448,130.470000,78.990000C144.070000,64.480000,162.840000,55.510000,183.550000,55.510000C204.260000,55.510000,223.020000,64.510000,236.620000,78.990000C251.011680,94.553742,258.938517,115.012631,258.790000,136.210000C258.905016,152.794234,252.717968,168.803355,241.480000,181C230.864383,192.716746,215.790549,199.400133,199.980000,199.400133C184.169451,199.400133,169.095617,192.716746,158.480000,181C147.201262,168.792334,140.990962,152.749954,141.110000,136.130000C141.016001,124.095589,145.510898,112.477514,153.680000,103.640000C161.330099,95.208662,172.185296,90.400426,183.570000,90.400426C194.954704,90.400426,205.809901,95.208662,213.460000,103.640000C221.624758,112.480222,226.118963,124.096510,226.030000,136.130000C226.093511,143.586811,223.315290,150.788019,218.260000,156.270000C213.581170,161.440647,206.933309,164.390640,199.960000,164.390640C192.986691,164.390640,186.338830,161.440647,181.660000,156.270000C176.604710,150.788019,173.826489,143.586811,173.890000,136.130000C173.868208,133.253227,174.940613,130.475700,176.890000,128.360000C178.597428,126.449886,181.038000,125.357991,183.600000,125.357991C186.162000,125.357991,188.602572,126.449886,190.310000,128.360000C192.260254,130.475161,193.332796,133.253044,193.310000,136.130000C193.310000,139.841353,196.318647,142.850000,200.030000,142.850000C203.741353,142.850000,206.750000,139.841353,206.750000,136.130000C206.783077,129.824380,204.408116,123.743907,200.110000,119.130000C195.877263,114.492764,189.888537,111.850730,183.610000,111.850730C177.331463,111.850730,171.342737,114.492764,167.110000,119.130000C162.814654,123.744903,160.443199,129.825559,160.480000,136.130000C160.427580,147.005205,164.518027,157.492339,171.920000,165.460000C179.119569,173.343729,189.303531,177.835082,199.980000,177.835082C210.656469,177.835082,220.840431,173.343729,228.040000,165.460000C235.441973,157.492339,239.532420,147.005205,239.480000,136.130000C239.561901,120.677374,233.754915,105.773732,223.240000,94.450000C213.065800,83.307861,198.673460,76.960095,183.585000,76.960095C168.496540,76.960095,154.104200,83.307861,143.930000,94.450000C133.418554,105.775906,127.612125,120.678120,127.690000,136.130000C127.569707,156.160190,135.078034,175.485193,148.690000,190.180000C161.837235,204.583366,180.438546,212.789560,199.940000,212.789560C219.441454,212.789560,238.042765,204.583366,251.190000,190.180000C264.801966,175.485193,272.310293,156.160190,272.190000,136.130000C272.322400,111.515168,263.084033,87.772136,246.350000,69.720000C230.380000,52.620000,208.170000,42,183.610000,42C159.050000,42,136.830000,52.600000,120.770000,69.730000C104.031633,87.779423,94.792572,111.524239,94.930000,136.140000C94.764038,165.338961,105.719156,193.506199,125.570000,214.920000C144.570000,235.220000,170.910000,247.780000,200,247.780000C229.090000,247.780000,255.400000,235.220000,274.430000,214.920000C294.280844,193.506199,305.235962,165.338961,305.070000,136.140000C305.214819,105.460134,293.483593,69.671569,275.530000,51.780000Z" transform="matrix(1.10000000000000 0 0 1 -20.00000076293946 0)" fill="rgb(0,235,248)" fill-rule="evenodd" stroke="none" stroke-width="6"/><path id="eORb1xtsemi9" d="M275.530000,51.780000C260.514753,39.573128,244.213457,26.442612,223.790000,27.370000C238.056525,33.271637,250.886700,42.172955,261.410000,53.470000C281.050000,74.410000,293.190000,103.390000,293.190000,135.470000C293.358898,161.254655,283.705074,186.136493,266.190000,205.060000C258.138919,213.690432,248.499754,220.688079,237.800000,225.670000C226.022340,231.396583,213.096066,234.368258,200,234.360000C174.770000,234.360000,151.900000,223.430000,135.330000,205.760000C117.816026,186.831799,108.162581,161.947362,108.330000,136.160000C108.186512,114.963553,116.112657,94.506448,130.500000,78.940000C137.163414,71.825929,145.144336,66.072873,154,62C163.701541,57.241293,174.364206,54.768048,185.170000,54.770000C205.880000,54.770000,224.640000,63.770000,238.240000,78.250000C252.633183,93.816809,260.560057,114.279369,260.410000,135.480000C260.506919,152.085456,254.282545,168.105800,243,180.290000C237.758631,185.919851,231.462888,190.465832,224.470000,193.670000C216.851165,197.433398,208.467635,199.390696,199.970000,199.390000C184.197613,199.288742,169.179393,192.625653,158.520000,181C147.241262,168.792334,141.030962,152.749954,141.150000,136.130000C141.056001,124.095589,145.550898,112.477514,153.720000,103.640000C157.548208,99.524911,162.157939,96.213791,167.280000,93.900000C172.827794,91.111649,178.950900,89.659637,185.160000,89.660000C196.530877,89.725311,207.361023,94.522605,215.050000,102.900000C223.215393,111.743830,227.709498,123.363432,227.620000,135.400000C227.682505,142.856628,224.904421,150.057479,219.850000,155.540000C217.419973,158.143727,214.483139,160.222993,211.220000,161.650000C207.755505,163.457767,203.907761,164.407700,200,164.420000C193.036524,164.374588,186.406205,161.432610,181.700000,156.300000C176.644710,150.818019,173.866489,143.616811,173.930000,136.160000C173.908208,133.283227,174.980613,130.505700,176.930000,128.390000C177.951789,127.289350,179.219725,126.446343,180.630000,125.930000C182.006693,125.100949,183.582951,124.661947,185.190000,124.660000C187.746070,124.685503,190.176568,125.772164,191.900000,127.660000C193.851992,129.774079,194.924810,132.552677,194.900000,135.430000C194.900000,139.141354,197.908646,142.150000,201.620000,142.150000C202.326186,142.147717,203.027785,142.036405,203.700000,141.820000C205.629902,140.585672,206.795371,138.450864,206.790000,136.160000C206.823077,129.854380,204.448116,123.773907,200.150000,119.160000C195.875165,114.572950,189.880147,111.977766,183.610000,112C180.615788,111.994432,177.651953,112.600130,174.900000,113.780000C172.575180,114.995276,170.472280,116.594427,168.680000,118.510000C164.388135,123.127088,162.017240,129.206308,162.050000,135.510000C161.999119,146.381943,166.089529,156.865406,173.490000,164.830000C180.715291,172.677222,190.883131,177.159624,201.550000,177.200000C206.842871,177.201192,212.076585,176.086984,216.910000,173.930000C221.089637,171.821139,224.864213,168.991053,228.060000,165.570000C235.461973,157.602339,239.552420,147.115205,239.500000,136.240000C239.581901,120.787374,233.774915,105.883732,223.260000,94.560000C213.064961,83.441097,198.695188,77.077081,183.610000,77C176.019707,76.996312,168.517166,78.623000,161.610000,81.770000C155.564163,84.767299,150.109830,88.832641,145.510000,93.770000C134.998554,105.095906,129.192125,119.998120,129.270000,135.450000C129.164433,155.462581,136.671605,174.766738,150.270000,189.450000C163.465362,203.786317,182.035622,211.978972,201.520000,212.060000C211.410064,212.067289,221.184287,209.931630,230.170000,205.800000C238.073601,201.909264,245.205759,196.616897,251.220000,190.180000C264.831966,175.485193,272.340293,156.160190,272.220000,136.130000C272.352400,111.515168,263.114033,87.772136,246.380000,69.720000C230.380000,52.620000,208.170000,42,183.610000,42C171.416279,41.993147,159.367254,44.641134,148.300000,49.760000C138.530922,54.531447,129.718760,61.052447,122.300000,69C105.559898,87.048337,96.320560,110.793867,96.460000,135.410000C96.296050,164.608590,107.250890,192.775114,127.100000,214.190000C146.100000,234.490000,172.440000,247.040000,201.530000,247.040000C216.038084,247.056043,230.373747,243.895371,243.530000,237.780000C255.149453,232.117527,265.630006,224.368968,274.450000,214.920000C294.300844,193.506199,305.255962,165.338961,305.090000,136.140000C305.239424,105.453279,296.626786,76.010283,275.550000,51.760000Z" transform="matrix(1.00317093730386 0 0 1.00142679840141 -0.63664506298292 -0.19576392626274)" fill="rgb(0,255,255)" fill-rule="evenodd" stroke="none" stroke-width="1"/></g></g><g id="eORb1xtsemi10" transform="matrix(0.38141156802502 0 0 0.40974426785441 271.64776437201232 145.09658598088103)"><g id="eORb1xtsemi11_to" transform="translate(41.079744,1205.841659)"><path id="eORb1xtsemi11" d="M129.150000,10.570000C86.550000,35.160000,52.150000,94.760000,52.300000,143.710000C52.450000,192.660000,87,212.390000,129.650000,187.800000C172.300000,163.210000,206.650000,103.610000,206.500000,54.680000C206.350000,5.750000,171.720000,-14,129.150000,10.570000" transform="translate(-129.400002,-99.193254)" fill="rgb(255,198,61)" stroke="none" stroke-width="1"/></g><g id="eORb1xtsemi12_to" transform="translate(60.669664,1217.253572)"><path id="eORb1xtsemi12" d="M146.780000,115.900000C144.780000,117.050000,142.780000,118.260000,140.780000,119.420000L140.580000,144C142.310000,143,143.870000,142.180000,145.430000,141.280000C151.090000,137.940000,156.680000,134.710000,162.010000,128.880000C165.530000,125.050000,167.660000,120.880000,167.730000,116.240000C167.800000,111.600000,165.660000,109.670000,162.110000,109.930000C157.170000,110.260000,152.020000,112.880000,146.780000,115.930000M145.970000,82.930000C144.300000,83.930000,142.610000,84.930000,140.910000,85.930000C140.910000,93.620000,140.800000,100.840000,140.740000,108.050000C142.430000,107.160000,144.110000,106.260000,145.740000,105.300000C149.856277,102.993814,153.677533,100.196709,157.120000,96.970000C160.725294,93.769053,162.950919,89.296299,163.330000,84.490000C163.550000,80.310000,161.750000,77.960000,158.140000,78.250000C154.250000,78.450000,150.140000,80.530000,145.940000,82.960000M158.130000,44.910000C158.130000,50.750000,158.130000,58.060000,158.130000,63.340000C160.760000,62.340000,163.300000,61.340000,165.840000,60.510000C169.029168,59.376827,172.470420,59.151795,175.780000,59.860000C183.270000,61.780000,184.220000,79.470000,173.990000,91.420000C173.820000,91.620000,173.650000,91.890000,173.410000,92.220000C175.419545,91.926897,177.449469,91.796473,179.480000,91.830000C183.590000,92.190000,185.910000,95,186.580000,100.020000C188.282243,113.815777,182.908029,127.539015,172.290000,136.510000C167.850000,140.300000,163.180000,143.510000,158.590000,146.980000C158.360000,147.190000,158.100000,147.340000,157.780000,147.620000C157.710000,153.140000,157.730000,160.130000,157.660000,166.120000L148.050000,171.670000C148.050000,165.900000,148.050000,158.980000,148.050000,153.320000C145.510000,154.690000,143.050000,156.010000,140.340000,157.500000C140.270000,163.090000,140.340000,170.090000,140.220000,176.070000L130.610000,181.620000C130.610000,175.680000,130.610000,168.470000,130.610000,162.800000C124.050000,166.490000,117.610000,170.090000,111.160000,173.800000C111.810000,168.980000,112.460000,164.350000,113.110000,159.530000L119.490000,155.840000C122.490000,154.130000,123.760000,152.050000,123.750000,148.570000C123.750000,132.770000,123.920000,116.840000,124.020000,101.010000C124.020000,97.230000,122.290000,96.010000,118.920000,97.710000C117.770000,98.280000,116.550000,98.980000,115.310000,99.710000C114.070000,100.440000,112.940000,100.980000,111.530000,101.790000C111.530000,97.790000,111.590000,94.010000,111.580000,89.960000C118.160000,86.260000,124.480000,82.610000,131.030000,78.960000C131.100000,73.710000,131.080000,66.450000,131.150000,60.560000L140.670000,55.060000C140.670000,60.800000,140.670000,67.940000,140.670000,73.120000L148.380000,68.670000C148.450000,63.440000,148.430000,56.350000,148.500000,50.560000L158.110000,45.010000M148.720000,22C106.140000,46.580000,71.720000,106.170000,71.870000,155.120000C72.020000,204.070000,106.650000,223.790000,149.230000,199.200000C191.810000,174.610000,226.230000,115,226.110000,66.070000C225.990000,17.140000,191.320000,-2.570000,148.720000,22" transform="translate(-148.989922,-110.605167)" fill="rgb(248,216,80)" stroke="none" stroke-width="1"/></g><g id="eORb1xtsemi13_to" transform="translate(60.731248,1219.808424)"><path id="eORb1xtsemi13" d="M145.430000,141.280000C143.870000,142.180000,142.310000,143.010000,140.580000,144L140.770000,119.410000C142.770000,118.250000,144.770000,117.040000,146.770000,115.890000C152.010000,112.890000,157.160000,110.240000,162.100000,109.890000C165.650000,109.630000,167.710000,111.570000,167.720000,116.200000C167.730000,120.830000,165.520000,125.010000,162,128.840000C156.670000,134.670000,151.070000,137.900000,145.420000,141.240000M145.760000,105.240000C144.100000,106.240000,142.420000,107.100000,140.760000,107.990000C140.830000,100.780000,140.890000,93.560000,140.930000,85.870000C142.630000,84.870000,144.320000,83.870000,145.990000,82.870000C150.200000,80.440000,154.300000,78.360000,158.190000,78.160000C161.800000,77.870000,163.610000,80.220000,163.380000,84.400000C163.000919,89.206299,160.775294,93.679053,157.170000,96.880000C153.727533,100.106709,149.906277,102.903814,145.790000,105.210000M158.180000,44.820000L148.570000,50.370000C148.500000,56.160000,148.570000,63.250000,148.450000,68.480000L140.720000,73C140.720000,67.820000,140.770000,60.680000,140.720000,54.940000L131.200000,60.440000C131.130000,66.330000,131.200000,73.590000,131.080000,78.840000C124.520000,82.530000,118.200000,86.180000,111.630000,89.840000C111.630000,93.840000,111.570000,97.720000,111.580000,101.670000C112.990000,100.860000,114.210000,100.150000,115.360000,99.590000C116.510000,99.030000,117.820000,98.170000,118.970000,97.590000C122.340000,95.940000,124.060000,97.110000,124.070000,100.890000C123.970000,116.730000,123.840000,132.650000,123.800000,148.450000C123.800000,151.930000,122.510000,154.010000,119.540000,155.720000L113.160000,159.410000C112.510000,164.230000,111.860000,168.860000,111.210000,173.680000C117.700000,170.010000,124.110000,166.410000,130.660000,162.680000C130.660000,168.350000,130.660000,175.560000,130.660000,181.500000L140.270000,175.950000C140.340000,169.950000,140.270000,162.950000,140.390000,157.380000C143.100000,155.890000,145.560000,154.570000,148.100000,153.200000C148.100000,158.870000,148.100000,165.790000,148.100000,171.550000L157.710000,166C157.780000,160,157.710000,153,157.830000,147.500000C158.150000,147.220000,158.410000,147.070000,158.640000,146.860000C163.230000,143.350000,167.900000,140.180000,172.340000,136.390000C182.911383,127.431095,188.266754,113.755167,186.590000,100C185.910000,95,183.590000,92.170000,179.490000,91.810000C177.459469,91.776473,175.429545,91.906897,173.420000,92.200000C173.650000,91.870000,173.820000,91.600000,174,91.400000C184.230000,79.400000,183.280000,61.760000,175.790000,59.840000C172.480420,59.131795,169.039168,59.356827,165.850000,60.490000C163.310000,61.290000,160.760000,62.300000,158.140000,63.320000C158.140000,58.040000,158.140000,50.730000,158.140000,44.890000" transform="translate(-149.051506,-113.160019)" fill="rgb(255,255,255)" stroke="none" stroke-width="1"/></g></g><g id="eORb1xtsemi14" transform="matrix(1 0 0 1 84 4)"><g id="eORb1xtsemi15"><g id="eORb1xtsemi16_to" transform="translate(8.173401,861.461900)"><path id="eORb1xtsemi16" d="M60,368L76,368L76,472L60,472L60,368Z" transform="scale(1,1.393507) translate(-68,-420)" fill="rgb(0,255,235)" stroke="none" stroke-width="1"/></g><g id="eORb1xtsemi17_to" transform="translate(202.313632,721.442840)"><path id="eORb1xtsemi17" d="M220,216L252,216L252,320L220,320L220,216Z" transform="translate(-236,-268)" fill="rgb(0,255,235)" stroke="none" stroke-width="1"/></g><g id="eORb1xtsemi18_to" transform="translate(8.173401,854.327482)"><path id="eORb1xtsemi18" d="M50,28.420000C23.110000,3.600000,-10.830000,46.930000,50,78.940000C110.830000,46.930000,76.890000,3.600000,50,28.420000Z" transform="scale(0.904837,0.852476) translate(-49.999997,-50.074419)" filter="url(#eORb1xtsemi18-filter)" fill="rgb(255,137,241)" stroke="none" stroke-width="1"/></g><g id="eORb1xtsemi19_to" transform="translate(204.313632,736.576540)"><path id="eORb1xtsemi19" d="M50,28.420000C23.110000,3.600000,-10.830000,46.930000,50,78.940000C110.830000,46.930000,76.890000,3.600000,50,28.420000Z" transform="scale(1.245258,1.110762) translate(-49.999997,-50.074419)" filter="url(#eORb1xtsemi19-filter)" fill="rgb(255,137,241)" stroke="none" stroke-width="1"/></g></g><circle id="eORb1xtsemi20" display="none" r="112" transform="matrix(1 0 0 1 236 112)" fill="rgb(117,201,193)" stroke="none" stroke-width="1"/><g id="eORb1xtsemi21" transform="matrix(0.86739645296099 0 0 0.88584875954563 63.43060476111756 6.13626276682450)"><g id="eORb1xtsemi22_to" transform="translate(159.820776,654.417027)"><path id="eORb1xtsemi22" d="M200,25C157.766274,25.010883,118.650868,47.233390,97.018657,83.506453C75.386445,119.779517,74.425985,164.756536,94.490000,201.920000C128.032247,257.750088,200.002595,276.604290,256.609774,244.390810C313.216953,212.177329,333.766721,140.672651,302.900000,83.320000C281.246495,47.133087,242.170686,24.986331,200,25Z" transform="rotate(361.435384) translate(-198.656960,-142.543148)" fill="rgb(255,15,214)" fill-rule="evenodd" stroke="none" stroke-width="1"/></g><g id="eORb1xtsemi23_to" transform="translate(161.163824,648.893879)"><path id="eORb1xtsemi23" d="M275.530000,51.780000C261.204637,35.555870,246.991943,24.328963,224.874142,26.481423C241.067229,32.270656,236.075281,27.509388,247.771622,40.116008C267.401622,61.056008,291.640000,104.170000,291.640000,136.210000C291.807419,161.997362,282.153974,186.881799,264.640000,205.810000C248.070000,223.480000,225.200000,234.410000,199.970000,234.410000C174.740000,234.410000,151.870000,223.480000,135.300000,205.810000C117.786026,186.881799,108.132581,161.997362,108.300000,136.210000C108.156512,115.013553,116.082657,94.556448,130.470000,78.990000C144.070000,64.480000,162.840000,55.510000,183.550000,55.510000C204.260000,55.510000,223.020000,64.510000,236.620000,78.990000C251.011680,94.553742,258.938517,115.012631,258.790000,136.210000C258.905016,152.794234,252.717968,168.803355,241.480000,181C230.864383,192.716746,215.790549,199.400133,199.980000,199.400133C184.169451,199.400133,169.095617,192.716746,158.480000,181C147.201262,168.792334,140.990962,152.749954,141.110000,136.130000C141.016001,124.095589,145.510898,112.477514,153.680000,103.640000C161.330099,95.208662,172.185296,90.400426,183.570000,90.400426C194.954704,90.400426,205.809901,95.208662,213.460000,103.640000C221.624758,112.480222,226.118963,124.096510,226.030000,136.130000C226.093511,143.586811,223.315290,150.788019,218.260000,156.270000C213.581170,161.440647,206.933309,164.390640,199.960000,164.390640C192.986691,164.390640,186.338830,161.440647,181.660000,156.270000C176.604710,150.788019,173.826489,143.586811,173.890000,136.130000C173.868208,133.253227,174.940613,130.475700,176.890000,128.360000C178.597428,126.449886,181.038000,125.357991,183.600000,125.357991C186.162000,125.357991,188.602572,126.449886,190.310000,128.360000C192.260254,130.475161,193.332796,133.253044,193.310000,136.130000C193.310000,139.841353,196.318647,142.850000,200.030000,142.850000C203.741353,142.850000,206.750000,139.841353,206.750000,136.130000C206.783077,129.824380,204.408116,123.743907,200.110000,119.130000C195.877263,114.492764,189.888537,111.850730,183.610000,111.850730C177.331463,111.850730,171.342737,114.492764,167.110000,119.130000C162.814654,123.744903,160.443199,129.825559,160.480000,136.130000C160.427580,147.005205,164.518027,157.492339,171.920000,165.460000C179.119569,173.343729,189.303531,177.835082,199.980000,177.835082C210.656469,177.835082,220.840431,173.343729,228.040000,165.460000C235.441973,157.492339,239.532420,147.005205,239.480000,136.130000C239.561901,120.677374,233.754915,105.773732,223.240000,94.450000C213.065800,83.307861,198.673460,76.960095,183.585000,76.960095C168.496540,76.960095,154.104200,83.307861,143.930000,94.450000C133.418554,105.775906,127.612125,120.678120,127.690000,136.130000C127.569707,156.160190,135.078034,175.485193,148.690000,190.180000C161.837235,204.583366,180.438546,212.789560,199.940000,212.789560C219.441454,212.789560,238.042765,204.583366,251.190000,190.180000C264.801966,175.485193,272.310293,156.160190,272.190000,136.130000C272.322400,111.515168,263.084033,87.772136,246.350000,69.720000C230.380000,52.620000,208.170000,42,183.610000,42C159.050000,42,136.830000,52.600000,120.770000,69.730000C104.031633,87.779423,94.792572,111.524239,94.930000,136.140000C94.764038,165.338961,105.719156,193.506199,125.570000,214.920000C144.570000,235.220000,170.910000,247.780000,200,247.780000C229.090000,247.780000,255.400000,235.220000,274.430000,214.920000C294.280844,193.506199,305.235962,165.338961,305.070000,136.140000C305.214819,105.460134,293.483593,69.671569,275.530000,51.780000Z" transform="rotate(361.435384) scale(1.100000,1) translate(-200.000008,-137.020000)" fill="rgb(0,177,248)" fill-rule="evenodd" stroke="none" stroke-width="6"/></g><g id="eORb1xtsemi24_to" transform="translate(161.938856,649.078915)"><path id="eORb1xtsemi24" d="M275.530000,51.780000C260.514753,39.573128,244.213457,26.442612,223.790000,27.370000C238.056525,33.271637,250.886700,42.172955,261.410000,53.470000C281.050000,74.410000,293.190000,103.390000,293.190000,135.470000C293.358898,161.254655,283.705074,186.136493,266.190000,205.060000C258.138919,213.690432,248.499754,220.688079,237.800000,225.670000C226.022340,231.396583,213.096066,234.368258,200,234.360000C174.770000,234.360000,151.900000,223.430000,135.330000,205.760000C117.816026,186.831799,108.162581,161.947362,108.330000,136.160000C108.186512,114.963553,116.112657,94.506448,130.500000,78.940000C137.163414,71.825929,145.144336,66.072873,154,62C163.701541,57.241293,174.364206,54.768048,185.170000,54.770000C205.880000,54.770000,224.640000,63.770000,238.240000,78.250000C252.633183,93.816809,260.560057,114.279369,260.410000,135.480000C260.506919,152.085456,254.282545,168.105800,243,180.290000C237.758631,185.919851,231.462888,190.465832,224.470000,193.670000C216.851165,197.433398,208.467635,199.390696,199.970000,199.390000C184.197613,199.288742,169.179393,192.625653,158.520000,181C147.241262,168.792334,141.030962,152.749954,141.150000,136.130000C141.056001,124.095589,145.550898,112.477514,153.720000,103.640000C157.548208,99.524911,162.157939,96.213791,167.280000,93.900000C172.827794,91.111649,178.950900,89.659637,185.160000,89.660000C196.530877,89.725311,207.361023,94.522605,215.050000,102.900000C223.215393,111.743830,227.709498,123.363432,227.620000,135.400000C227.682505,142.856628,224.904421,150.057479,219.850000,155.540000C217.419973,158.143727,214.483139,160.222993,211.220000,161.650000C207.755505,163.457767,203.907761,164.407700,200,164.420000C193.036524,164.374588,186.406205,161.432610,181.700000,156.300000C176.644710,150.818019,173.866489,143.616811,173.930000,136.160000C173.908208,133.283227,174.980613,130.505700,176.930000,128.390000C177.951789,127.289350,179.219725,126.446343,180.630000,125.930000C182.006693,125.100949,183.582951,124.661947,185.190000,124.660000C187.746070,124.685503,190.176568,125.772164,191.900000,127.660000C193.851992,129.774079,194.924810,132.552677,194.900000,135.430000C194.900000,139.141354,197.908646,142.150000,201.620000,142.150000C202.326186,142.147717,203.027785,142.036405,203.700000,141.820000C205.629902,140.585672,206.795371,138.450864,206.790000,136.160000C206.823077,129.854380,204.448116,123.773907,200.150000,119.160000C195.875165,114.572950,189.880147,111.977766,183.610000,112C180.615788,111.994432,177.651953,112.600130,174.900000,113.780000C172.575180,114.995276,170.472280,116.594427,168.680000,118.510000C164.388135,123.127088,162.017240,129.206308,162.050000,135.510000C161.999119,146.381943,166.089529,156.865406,173.490000,164.830000C180.715291,172.677222,190.883131,177.159624,201.550000,177.200000C206.842871,177.201192,212.076585,176.086984,216.910000,173.930000C221.089637,171.821139,224.864213,168.991053,228.060000,165.570000C235.461973,157.602339,239.552420,147.115205,239.500000,136.240000C239.581901,120.787374,233.774915,105.883732,223.260000,94.560000C213.064961,83.441097,198.695188,77.077081,183.610000,77C176.019707,76.996312,168.517166,78.623000,161.610000,81.770000C155.564163,84.767299,150.109830,88.832641,145.510000,93.770000C134.998554,105.095906,129.192125,119.998120,129.270000,135.450000C129.164433,155.462581,136.671605,174.766738,150.270000,189.450000C163.465362,203.786317,182.035622,211.978972,201.520000,212.060000C211.410064,212.067289,221.184287,209.931630,230.170000,205.800000C238.073601,201.909264,245.205759,196.616897,251.220000,190.180000C264.831966,175.485193,272.340293,156.160190,272.220000,136.130000C272.352400,111.515168,263.114033,87.772136,246.380000,69.720000C230.380000,52.620000,208.170000,42,183.610000,42C171.416279,41.993147,159.367254,44.641134,148.300000,49.760000C138.530922,54.531447,129.718760,61.052447,122.300000,69C105.559898,87.048337,96.320560,110.793867,96.460000,135.410000C96.296050,164.608590,107.250890,192.775114,127.100000,214.190000C146.100000,234.490000,172.440000,247.040000,201.530000,247.040000C216.038084,247.056043,230.373747,243.895371,243.530000,237.780000C255.149453,232.117527,265.630006,224.368968,274.450000,214.920000C294.300844,193.506199,305.255962,165.338961,305.090000,136.140000C305.239424,105.453279,296.626786,76.010283,275.550000,51.760000Z" transform="rotate(361.435384) scale(1.003171,1.001427) translate(-200.775040,-137.205036)" fill="rgb(0,255,255)" fill-rule="evenodd" stroke="none" stroke-width="1"/></g></g><g id="eORb1xtsemi25" transform="matrix(0.68273950397920 0 0 0.70745727611878 -59.57790838634608 178.93863456298820)"><g id="eORb1xtsemi26_to" transform="translate(99.224942,762.385074)"><path id="eORb1xtsemi26" d="M200,25C157.766274,25.010883,118.650868,47.233390,97.018657,83.506453C75.386445,119.779517,74.425985,164.756536,94.490000,201.920000C128.032247,257.750088,200.002595,276.604290,256.609774,244.390810C313.216953,212.177329,333.766721,140.672651,302.900000,83.320000C281.246495,47.133087,242.170686,24.986331,200,25Z" transform="translate(-198.656960,-142.543148)" fill="rgb(178,255,15)" fill-rule="evenodd" stroke="none" stroke-width="1"/></g><path id="eORb1xtsemi27" display="none" d="M275.530000,51.780000C261.204637,35.555870,239.527800,24.107540,217.410000,26.260000C233.603087,32.049233,248.163659,41.653380,259.860000,54.260000C279.490000,75.200000,291.640000,104.170000,291.640000,136.210000C291.807419,161.997362,282.153974,186.881799,264.640000,205.810000C248.070000,223.480000,225.200000,234.410000,199.970000,234.410000C174.740000,234.410000,151.870000,223.480000,135.300000,205.810000C117.786026,186.881799,108.132581,161.997362,108.300000,136.210000C108.156512,115.013553,116.082657,94.556448,130.470000,78.990000C144.070000,64.480000,162.840000,55.510000,183.550000,55.510000C204.260000,55.510000,223.020000,64.510000,236.620000,78.990000C251.011680,94.553742,258.938517,115.012631,258.790000,136.210000C258.905016,152.794234,252.717968,168.803355,241.480000,181C230.864383,192.716746,215.790549,199.400133,199.980000,199.400133C184.169451,199.400133,169.095617,192.716746,158.480000,181C147.201262,168.792334,140.990962,152.749954,141.110000,136.130000C141.016001,124.095589,145.510898,112.477514,153.680000,103.640000C161.330099,95.208662,172.185296,90.400426,183.570000,90.400426C194.954704,90.400426,205.809901,95.208662,213.460000,103.640000C221.624758,112.480222,226.118963,124.096510,226.030000,136.130000C226.093511,143.586811,223.315290,150.788019,218.260000,156.270000C213.581170,161.440647,206.933309,164.390640,199.960000,164.390640C192.986691,164.390640,186.338830,161.440647,181.660000,156.270000C176.604710,150.788019,173.826489,143.586811,173.890000,136.130000C173.868208,133.253227,174.940613,130.475700,176.890000,128.360000C178.597428,126.449886,181.038000,125.357991,183.600000,125.357991C186.162000,125.357991,188.602572,126.449886,190.310000,128.360000C192.260254,130.475161,193.332796,133.253044,193.310000,136.130000C193.310000,139.841353,196.318647,142.850000,200.030000,142.850000C203.741353,142.850000,206.750000,139.841353,206.750000,136.130000C206.783077,129.824380,204.408116,123.743907,200.110000,119.130000C195.877263,114.492764,189.888537,111.850730,183.610000,111.850730C177.331463,111.850730,171.342737,114.492764,167.110000,119.130000C162.814654,123.744903,160.443199,129.825559,160.480000,136.130000C160.427580,147.005205,164.518027,157.492339,171.920000,165.460000C179.119569,173.343729,189.303531,177.835082,199.980000,177.835082C210.656469,177.835082,220.840431,173.343729,228.040000,165.460000C235.441973,157.492339,239.532420,147.005205,239.480000,136.130000C239.561901,120.677374,233.754915,105.773732,223.240000,94.450000C213.065800,83.307861,198.673460,76.960095,183.585000,76.960095C168.496540,76.960095,154.104200,83.307861,143.930000,94.450000C133.418554,105.775906,127.612125,120.678120,127.690000,136.130000C127.569707,156.160190,135.078034,175.485193,148.690000,190.180000C161.837235,204.583366,180.438546,212.789560,199.940000,212.789560C219.441454,212.789560,238.042765,204.583366,251.190000,190.180000C264.801966,175.485193,272.310293,156.160190,272.190000,136.130000C272.322400,111.515168,263.084033,87.772136,246.350000,69.720000C230.380000,52.620000,208.170000,42,183.610000,42C159.050000,42,136.830000,52.600000,120.770000,69.730000C104.031633,87.779423,94.792572,111.524239,94.930000,136.140000C94.764038,165.338961,105.719156,193.506199,125.570000,214.920000C144.570000,235.220000,170.910000,247.780000,200,247.780000C229.090000,247.780000,255.400000,235.220000,274.430000,214.920000C294.280844,193.506199,305.235962,165.338961,305.070000,136.140000C305.214819,105.460134,293.483593,69.671569,275.530000,51.780000Z" transform="matrix(1.10000000000000 0 0 1 -20.00000076293946 0)" fill="rgb(21,248,0)" fill-rule="evenodd" stroke="none" stroke-width="6"/><path id="eORb1xtsemi28" display="none" d="M275.530000,51.780000C260.514753,39.573128,244.213457,26.442612,223.790000,27.370000C238.056525,33.271637,250.886700,42.172955,261.410000,53.470000C281.050000,74.410000,293.190000,103.390000,293.190000,135.470000C293.358898,161.254655,283.705074,186.136493,266.190000,205.060000C258.138919,213.690432,248.499754,220.688079,237.800000,225.670000C226.022340,231.396583,213.096066,234.368258,200,234.360000C174.770000,234.360000,151.900000,223.430000,135.330000,205.760000C117.816026,186.831799,108.162581,161.947362,108.330000,136.160000C108.186512,114.963553,116.112657,94.506448,130.500000,78.940000C137.163414,71.825929,145.144336,66.072873,154,62C163.701541,57.241293,174.364206,54.768048,185.170000,54.770000C205.880000,54.770000,224.640000,63.770000,238.240000,78.250000C252.633183,93.816809,260.560057,114.279369,260.410000,135.480000C260.506919,152.085456,254.282545,168.105800,243,180.290000C237.758631,185.919851,231.462888,190.465832,224.470000,193.670000C216.851165,197.433398,208.467635,199.390696,199.970000,199.390000C184.197613,199.288742,169.179393,192.625653,158.520000,181C147.241262,168.792334,141.030962,152.749954,141.150000,136.130000C141.056001,124.095589,145.550898,112.477514,153.720000,103.640000C157.548208,99.524911,162.157939,96.213791,167.280000,93.900000C172.827794,91.111649,178.950900,89.659637,185.160000,89.660000C196.530877,89.725311,207.361023,94.522605,215.050000,102.900000C223.215393,111.743830,227.709498,123.363432,227.620000,135.400000C227.682505,142.856628,224.904421,150.057479,219.850000,155.540000C217.419973,158.143727,214.483139,160.222993,211.220000,161.650000C207.755505,163.457767,203.907761,164.407700,200,164.420000C193.036524,164.374588,186.406205,161.432610,181.700000,156.300000C176.644710,150.818019,173.866489,143.616811,173.930000,136.160000C173.908208,133.283227,174.980613,130.505700,176.930000,128.390000C177.951789,127.289350,179.219725,126.446343,180.630000,125.930000C182.006693,125.100949,183.582951,124.661947,185.190000,124.660000C187.746070,124.685503,190.176568,125.772164,191.900000,127.660000C193.851992,129.774079,194.924810,132.552677,194.900000,135.430000C194.900000,139.141354,197.908646,142.150000,201.620000,142.150000C202.326186,142.147717,203.027785,142.036405,203.700000,141.820000C205.629902,140.585672,206.795371,138.450864,206.790000,136.160000C206.823077,129.854380,204.448116,123.773907,200.150000,119.160000C195.875165,114.572950,189.880147,111.977766,183.610000,112C180.615788,111.994432,177.651953,112.600130,174.900000,113.780000C172.575180,114.995276,170.472280,116.594427,168.680000,118.510000C164.388135,123.127088,162.017240,129.206308,162.050000,135.510000C161.999119,146.381943,166.089529,156.865406,173.490000,164.830000C180.715291,172.677222,190.883131,177.159624,201.550000,177.200000C206.842871,177.201192,212.076585,176.086984,216.910000,173.930000C221.089637,171.821139,224.864213,168.991053,228.060000,165.570000C235.461973,157.602339,239.552420,147.115205,239.500000,136.240000C239.581901,120.787374,233.774915,105.883732,223.260000,94.560000C213.064961,83.441097,198.695188,77.077081,183.610000,77C176.019707,76.996312,168.517166,78.623000,161.610000,81.770000C155.564163,84.767299,150.109830,88.832641,145.510000,93.770000C134.998554,105.095906,129.192125,119.998120,129.270000,135.450000C129.164433,155.462581,136.671605,174.766738,150.270000,189.450000C163.465362,203.786317,182.035622,211.978972,201.520000,212.060000C211.410064,212.067289,221.184287,209.931630,230.170000,205.800000C238.073601,201.909264,245.205759,196.616897,251.220000,190.180000C264.831966,175.485193,272.340293,156.160190,272.220000,136.130000C272.352400,111.515168,263.114033,87.772136,246.380000,69.720000C230.380000,52.620000,208.170000,42,183.610000,42C171.416279,41.993147,159.367254,44.641134,148.300000,49.760000C138.530922,54.531447,129.718760,61.052447,122.300000,69C105.559898,87.048337,96.320560,110.793867,96.460000,135.410000C96.296050,164.608590,107.250890,192.775114,127.100000,214.190000C146.100000,234.490000,172.440000,247.040000,201.530000,247.040000C216.038084,247.056043,230.373747,243.895371,243.530000,237.780000C255.149453,232.117527,265.630006,224.368968,274.450000,214.920000C294.300844,193.506199,305.255962,165.338961,305.090000,136.140000C305.239424,105.453279,296.626786,76.010283,275.550000,51.760000Z" transform="matrix(1.00317093730386 0 0 1.00142679840141 -0.63664506298292 -0.19576392626274)" fill="rgb(0,255,255)" fill-rule="evenodd" stroke="none" stroke-width="1"/></g><g id="eORb1xtsemi29_to" transform="translate(370.313632,883.743999)"><path id="eORb1xtsemi29" d="M396,368L412,368L412,472L396,472L396,368Z" transform="scale(1,1.195408) translate(-404,-420)" fill="rgb(0,255,235)" stroke="none" stroke-width="1"/></g><g id="eORb1xtsemi30_to" transform="translate(371.752676,892.360650)"><path id="eORb1xtsemi30" d="M50,28.420000C23.110000,3.600000,-10.830000,46.930000,50,78.940000C110.830000,46.930000,76.890000,3.600000,50,28.420000Z" transform="scale(0.857760,0.793949) translate(-49.999997,-50.074419)" filter="url(#eORb1xtsemi30-filter)" fill="rgb(255,137,241)" stroke="none" stroke-width="1"/></g><g id="eORb1xtsemi31_to" transform="translate(166.313632,845.442840)"><path id="eORb1xtsemi31" d="M252,320L204,320L132,384L132,464L268,464L268,336C268,327.163000,260.837000,320,252,320Z" transform="translate(-200,-392)" fill="rgb(242,203,167)" stroke="none" stroke-width="1"/></g><g id="eORb1xtsemi32" transform="matrix(0.68273950397920 0 0 0.70745727611878 268.36199314865382 211.15027237298827)"><g id="eORb1xtsemi33_to" transform="translate(149.316958,779.021135)"><path id="eORb1xtsemi33" d="M200,25C157.766274,25.010883,118.650868,47.233390,97.018657,83.506453C75.386445,119.779517,74.425985,164.756536,94.490000,201.920000C128.032247,257.750088,200.002595,276.604290,256.609774,244.390810C313.216953,212.177329,333.766721,140.672651,302.900000,83.320000C281.246495,47.133087,242.170686,24.986331,200,25Z" transform="translate(-198.656960,-142.543148)" fill="rgb(247,15,255)" fill-rule="evenodd" stroke="none" stroke-width="1"/></g><path id="eORb1xtsemi34" display="none" d="M275.530000,51.780000C261.204637,35.555870,239.527800,24.107540,217.410000,26.260000C233.603087,32.049233,248.163659,41.653380,259.860000,54.260000C279.490000,75.200000,291.640000,104.170000,291.640000,136.210000C291.807419,161.997362,282.153974,186.881799,264.640000,205.810000C248.070000,223.480000,225.200000,234.410000,199.970000,234.410000C174.740000,234.410000,151.870000,223.480000,135.300000,205.810000C117.786026,186.881799,108.132581,161.997362,108.300000,136.210000C108.156512,115.013553,116.082657,94.556448,130.470000,78.990000C144.070000,64.480000,162.840000,55.510000,183.550000,55.510000C204.260000,55.510000,223.020000,64.510000,236.620000,78.990000C251.011680,94.553742,258.938517,115.012631,258.790000,136.210000C258.905016,152.794234,252.717968,168.803355,241.480000,181C230.864383,192.716746,215.790549,199.400133,199.980000,199.400133C184.169451,199.400133,169.095617,192.716746,158.480000,181C147.201262,168.792334,140.990962,152.749954,141.110000,136.130000C141.016001,124.095589,145.510898,112.477514,153.680000,103.640000C161.330099,95.208662,172.185296,90.400426,183.570000,90.400426C194.954704,90.400426,205.809901,95.208662,213.460000,103.640000C221.624758,112.480222,226.118963,124.096510,226.030000,136.130000C226.093511,143.586811,223.315290,150.788019,218.260000,156.270000C213.581170,161.440647,206.933309,164.390640,199.960000,164.390640C192.986691,164.390640,186.338830,161.440647,181.660000,156.270000C176.604710,150.788019,173.826489,143.586811,173.890000,136.130000C173.868208,133.253227,174.940613,130.475700,176.890000,128.360000C178.597428,126.449886,181.038000,125.357991,183.600000,125.357991C186.162000,125.357991,188.602572,126.449886,190.310000,128.360000C192.260254,130.475161,193.332796,133.253044,193.310000,136.130000C193.310000,139.841353,196.318647,142.850000,200.030000,142.850000C203.741353,142.850000,206.750000,139.841353,206.750000,136.130000C206.783077,129.824380,204.408116,123.743907,200.110000,119.130000C195.877263,114.492764,189.888537,111.850730,183.610000,111.850730C177.331463,111.850730,171.342737,114.492764,167.110000,119.130000C162.814654,123.744903,160.443199,129.825559,160.480000,136.130000C160.427580,147.005205,164.518027,157.492339,171.920000,165.460000C179.119569,173.343729,189.303531,177.835082,199.980000,177.835082C210.656469,177.835082,220.840431,173.343729,228.040000,165.460000C235.441973,157.492339,239.532420,147.005205,239.480000,136.130000C239.561901,120.677374,233.754915,105.773732,223.240000,94.450000C213.065800,83.307861,198.673460,76.960095,183.585000,76.960095C168.496540,76.960095,154.104200,83.307861,143.930000,94.450000C133.418554,105.775906,127.612125,120.678120,127.690000,136.130000C127.569707,156.160190,135.078034,175.485193,148.690000,190.180000C161.837235,204.583366,180.438546,212.789560,199.940000,212.789560C219.441454,212.789560,238.042765,204.583366,251.190000,190.180000C264.801966,175.485193,272.310293,156.160190,272.190000,136.130000C272.322400,111.515168,263.084033,87.772136,246.350000,69.720000C230.380000,52.620000,208.170000,42,183.610000,42C159.050000,42,136.830000,52.600000,120.770000,69.730000C104.031633,87.779423,94.792572,111.524239,94.930000,136.140000C94.764038,165.338961,105.719156,193.506199,125.570000,214.920000C144.570000,235.220000,170.910000,247.780000,200,247.780000C229.090000,247.780000,255.400000,235.220000,274.430000,214.920000C294.280844,193.506199,305.235962,165.338961,305.070000,136.140000C305.214819,105.460134,293.483593,69.671569,275.530000,51.780000Z" transform="matrix(1.10000000000000 0 0 1 -20.00000076293946 0)" fill="rgb(188,0,248)" fill-rule="evenodd" stroke="none" stroke-width="6"/><path id="eORb1xtsemi35" display="none" d="M275.530000,51.780000C260.514753,39.573128,244.213457,26.442612,223.790000,27.370000C238.056525,33.271637,250.886700,42.172955,261.410000,53.470000C281.050000,74.410000,293.190000,103.390000,293.190000,135.470000C293.358898,161.254655,283.705074,186.136493,266.190000,205.060000C258.138919,213.690432,248.499754,220.688079,237.800000,225.670000C226.022340,231.396583,213.096066,234.368258,200,234.360000C174.770000,234.360000,151.900000,223.430000,135.330000,205.760000C117.816026,186.831799,108.162581,161.947362,108.330000,136.160000C108.186512,114.963553,116.112657,94.506448,130.500000,78.940000C137.163414,71.825929,145.144336,66.072873,154,62C163.701541,57.241293,174.364206,54.768048,185.170000,54.770000C205.880000,54.770000,224.640000,63.770000,238.240000,78.250000C252.633183,93.816809,260.560057,114.279369,260.410000,135.480000C260.506919,152.085456,254.282545,168.105800,243,180.290000C237.758631,185.919851,231.462888,190.465832,224.470000,193.670000C216.851165,197.433398,208.467635,199.390696,199.970000,199.390000C184.197613,199.288742,169.179393,192.625653,158.520000,181C147.241262,168.792334,141.030962,152.749954,141.150000,136.130000C141.056001,124.095589,145.550898,112.477514,153.720000,103.640000C157.548208,99.524911,162.157939,96.213791,167.280000,93.900000C172.827794,91.111649,178.950900,89.659637,185.160000,89.660000C196.530877,89.725311,207.361023,94.522605,215.050000,102.900000C223.215393,111.743830,227.709498,123.363432,227.620000,135.400000C227.682505,142.856628,224.904421,150.057479,219.850000,155.540000C217.419973,158.143727,214.483139,160.222993,211.220000,161.650000C207.755505,163.457767,203.907761,164.407700,200,164.420000C193.036524,164.374588,186.406205,161.432610,181.700000,156.300000C176.644710,150.818019,173.866489,143.616811,173.930000,136.160000C173.908208,133.283227,174.980613,130.505700,176.930000,128.390000C177.951789,127.289350,179.219725,126.446343,180.630000,125.930000C182.006693,125.100949,183.582951,124.661947,185.190000,124.660000C187.746070,124.685503,190.176568,125.772164,191.900000,127.660000C193.851992,129.774079,194.924810,132.552677,194.900000,135.430000C194.900000,139.141354,197.908646,142.150000,201.620000,142.150000C202.326186,142.147717,203.027785,142.036405,203.700000,141.820000C205.629902,140.585672,206.795371,138.450864,206.790000,136.160000C206.823077,129.854380,204.448116,123.773907,200.150000,119.160000C195.875165,114.572950,189.880147,111.977766,183.610000,112C180.615788,111.994432,177.651953,112.600130,174.900000,113.780000C172.575180,114.995276,170.472280,116.594427,168.680000,118.510000C164.388135,123.127088,162.017240,129.206308,162.050000,135.510000C161.999119,146.381943,166.089529,156.865406,173.490000,164.830000C180.715291,172.677222,190.883131,177.159624,201.550000,177.200000C206.842871,177.201192,212.076585,176.086984,216.910000,173.930000C221.089637,171.821139,224.864213,168.991053,228.060000,165.570000C235.461973,157.602339,239.552420,147.115205,239.500000,136.240000C239.581901,120.787374,233.774915,105.883732,223.260000,94.560000C213.064961,83.441097,198.695188,77.077081,183.610000,77C176.019707,76.996312,168.517166,78.623000,161.610000,81.770000C155.564163,84.767299,150.109830,88.832641,145.510000,93.770000C134.998554,105.095906,129.192125,119.998120,129.270000,135.450000C129.164433,155.462581,136.671605,174.766738,150.270000,189.450000C163.465362,203.786317,182.035622,211.978972,201.520000,212.060000C211.410064,212.067289,221.184287,209.931630,230.170000,205.800000C238.073601,201.909264,245.205759,196.616897,251.220000,190.180000C264.831966,175.485193,272.340293,156.160190,272.220000,136.130000C272.352400,111.515168,263.114033,87.772136,246.380000,69.720000C230.380000,52.620000,208.170000,42,183.610000,42C171.416279,41.993147,159.367254,44.641134,148.300000,49.760000C138.530922,54.531447,129.718760,61.052447,122.300000,69C105.559898,87.048337,96.320560,110.793867,96.460000,135.410000C96.296050,164.608590,107.250890,192.775114,127.100000,214.190000C146.100000,234.490000,172.440000,247.040000,201.530000,247.040000C216.038084,247.056043,230.373747,243.895371,243.530000,237.780000C255.149453,232.117527,265.630006,224.368968,274.450000,214.920000C294.300844,193.506199,305.255962,165.338961,305.090000,136.140000C305.239424,105.453279,296.626786,76.010283,275.550000,51.760000Z" transform="matrix(1.00317093730386 0 0 1.00142679840141 -0.63664506298292 -0.19576392626274)" fill="rgb(154,0,255)" fill-rule="evenodd" stroke="none" stroke-width="1"/></g><g id="eORb1xtsemi36"><g id="eORb1xtsemi37_to" transform="translate(234.313632,837.442840)"><path id="eORb1xtsemi37" d="M252,368L284,368C292.837000,368,300,375.163000,300,384L300,384C300,392.837000,292.837000,400,284,400L252,400C243.163000,400,236,392.837000,236,384L236,384C236,375.163000,243.163000,368,252,368Z" transform="translate(-268,-384)" fill="rgb(242,203,167)" stroke="none" stroke-width="1"/></g><g id="eORb1xtsemi38_to" transform="translate(234.313632,869.442840)"><path id="eORb1xtsemi38" d="M252,400L284,400C292.837000,400,300,407.163000,300,416L300,416C300,424.837000,292.837000,432,284,432L252,432C243.163000,432,236,424.837000,236,416L236,416C236,407.163000,243.163000,400,252,400Z" transform="translate(-268,-416)" fill="rgb(242,203,167)" stroke="none" stroke-width="1"/></g><g id="eORb1xtsemi39_to" transform="translate(234.313632,901.442840)"><path id="eORb1xtsemi39" d="M252,432L284,432C292.837000,432,300,439.163000,300,448L300,448C300,456.837000,292.837000,464,284,464L252,464C243.163000,464,236,456.837000,236,448L236,448C236,439.163000,243.163000,432,252,432Z" transform="translate(-268,-448)" fill="rgb(242,203,167)" stroke="none" stroke-width="1"/></g><g id="eORb1xtsemi40_to" transform="translate(234.313632,805.442840)"><path id="eORb1xtsemi40" d="M252,336L284,336C292.837000,336,300,343.163000,300,352L300,352C300,360.837000,292.837000,368,284,368L252,368C243.163000,368,236,360.837000,236,352L236,352C236,343.163000,243.163000,336,252,336Z" transform="translate(-268,-352)" fill="rgb(242,203,167)" stroke="none" stroke-width="1"/></g></g><g id="eORb1xtsemi41"><g id="eORb1xtsemi42_to" transform="translate(226.313632,909.442840)"><path id="eORb1xtsemi42" d="M236,448C236,456.837000,243.163000,464,252,464L284,464C284,455.163000,276.837000,448,268,448L236,448Z" transform="translate(-260,-456)" fill="rgb(225,180,148)" stroke="none" stroke-width="1"/></g><g id="eORb1xtsemi43_to" transform="translate(226.313632,877.442840)"><path id="eORb1xtsemi43" d="M236,416C236,424.837000,243.163000,432,252,432L284,432C284,423.163000,276.837000,416,268,416L236,416Z" transform="translate(-260,-424)" fill="rgb(225,180,148)" stroke="none" stroke-width="1"/></g><g id="eORb1xtsemi44_to" transform="translate(226.313632,813.442840)"><path id="eORb1xtsemi44" d="M236,352C236,360.837000,243.163000,368,252,368L284,368C284,359.163000,276.837000,352,268,352L236,352Z" transform="translate(-260,-360)" fill="rgb(225,180,148)" stroke="none" stroke-width="1"/></g><g id="eORb1xtsemi45_to" transform="translate(226.313632,845.442840)"><path id="eORb1xtsemi45" d="M236,384C236,392.837000,243.163000,400,252,400L284,400C284,391.163000,276.837000,384,268,384L236,384Z" transform="translate(-260,-392)" fill="rgb(225,180,148)" stroke="none" stroke-width="1"/></g></g><g id="eORb1xtsemi46_to" transform="translate(202.313632,813.442840)"><path id="eORb1xtsemi46" d="M228,360L228,380C228,391.046000,236.954000,400,248,400C259.046000,400,268,391.046000,268,380L268,336C268,327.163000,260.837000,320,252,320L204,320L228,360Z" transform="translate(-236,-360)" fill="rgb(242,203,167)" stroke="none" stroke-width="1"/></g><g id="eORb1xtsemi47_to" transform="translate(204.313632,833.442840)"><path id="eORb1xtsemi47" d="M248,400L248,380C248,368.954000,239.046000,360,228,360L228,380C228,391.046000,236.954000,400,248,400Z" transform="translate(-238,-380)" fill="rgb(225,180,148)" stroke="none" stroke-width="1"/></g></g><g id="eORb1xtsemi48" transform="matrix(0.08536107395560 0 0 0.10447435906569 118.52266741900445 214.11069483841993)" clip-rule="evenodd"><g id="eORb1xtsemi49" clip-rule="evenodd"><g id="eORb1xtsemi50" clip-rule="evenodd"><g id="eORb1xtsemi51_to" transform="translate(-117.050114,4666.697597)"><polygon id="eORb1xtsemi51" points="392.070000,0 383.500000,29.110000 383.500000,873.740000 392.070000,882.290000 784.130000,650.540000" transform="translate(-583.815002,-441.144989)" clip-rule="evenodd" fill="rgb(52,52,52)" stroke="none" stroke-width="1"/></g><g id="eORb1xtsemi52_to" transform="translate(-504.830112,4666.697597)"><polygon id="eORb1xtsemi52" points="392.070000,0 0,650.540000 392.070000,882.290000 392.070000,472.330000" transform="translate(-196.035004,-441.144989)" clip-rule="evenodd" fill="rgba(57,57,57,0.84)" stroke="none" stroke-width="1"/></g><g id="eORb1xtsemi53_to" transform="translate(-115.060123,5226.687618)"><polygon id="eORb1xtsemi53" points="392.070000,956.520000 387.240000,962.410000 387.240000,1263.280000 392.070000,1277.380000 784.370000,724.890000" transform="translate(-585.804993,-1001.135010)" clip-rule="evenodd" fill="rgb(60,60,59)" stroke="none" stroke-width="1"/></g><g id="eORb1xtsemi54_to" transform="translate(-504.830112,5226.687618)"><polygon id="eORb1xtsemi54" points="392.070000,1277.380000 392.070000,956.520000 0,724.890000" transform="translate(-196.035004,-1001.135010)" clip-rule="evenodd" fill="rgb(140,140,140)" stroke="none" stroke-width="1"/></g><g id="eORb1xtsemi55_to" transform="translate(-112.765110,4902.862590)"><polygon id="eORb1xtsemi55" points="392.070000,882.290000 784.130000,650.540000 392.070000,472.330000" transform="translate(-588.100006,-677.309982)" clip-rule="evenodd" fill="rgb(20,20,20)" stroke="none" stroke-width="1"/></g><g id="eORb1xtsemi56_to" transform="translate(-504.830112,4902.862590)"><polygon id="eORb1xtsemi56" points="0,650.540000 392.070000,882.290000 392.070000,472.330000" transform="translate(-196.035004,-677.309982)" clip-rule="evenodd" fill="rgba(57,57,57,0.44)" stroke="none" stroke-width="1"/></g></g></g></g><g id="eORb1xtsemi57" transform="matrix(0.03863878050719 0 0 0.03877218263298 439.70152436601734 263.45706885877252)"><g id="eORb1xtsemi58"><g id="eORb1xtsemi59_to" transform="translate(378.172071,12945.055827)"><path id="eORb1xtsemi59" d="M764.480000,1050.520000L1250,565L1735.750000,1050.730000L2018.250000,768.230000L1250,0L482,768L764.490000,1050.500000M0,1250L282.510000,967.450000L565,1249.940000L282.490000,1532.450000ZM764.480000,1449.510000L1250,1935L1735.740000,1449.280000L2018.390000,1731.630000L2018.250000,1731.780000L1250,2500L482,1732L481.600000,1731.600000L764.510000,1449.480000M1935,1250.120000L2217.510000,967.610000L2500,1250.100000L2217.500000,1532.610000Z" transform="translate(-1250,-1250)" fill="rgb(243,186,47)" stroke="none" stroke-width="1"/></g><g id="eORb1xtsemi60_to" transform="translate(378.167066,12945.055857)"><path id="eORb1xtsemi60" d="M1536.520000,1249.850000L1536.640000,1249.850000L1250,963.190000L1038.130000,1175L1038.130000,1175L1013.790000,1199.350000L963.590000,1249.560000L963.190000,1249.950000L963.590000,1250.360000L1250,1536.810000L1536.660000,1250.150000L1536.800000,1249.990000L1536.540000,1249.850000" transform="translate(-1249.994995,-1250.000031)" fill="rgb(243,186,47)" stroke="none" stroke-width="1"/></g></g></g></svg>