<?xml version="1.0" encoding="iso-8859-1"?>
<!-- Generator: Adobe Illustrator 19.0.0, SVG Export Plug-In . SVG Version: 6.00 Build 0)  -->
<svg version="1.1" id="Layer_1" xmlns="http://www.w3.org/2000/svg" xmlns:xlink="http://www.w3.org/1999/xlink" x="0px" y="0px"
	 viewBox="0 0 421.602 421.602" style="enable-background:new 0 0 421.602 421.602;" xml:space="preserve">
<g>
	<rect x="32.67" y="94.642" style="fill:#FC88B8;" width="356.72" height="318.315"/>
	<path style="opacity:0.34;fill:#2D4151;enable-background:new    ;" d="M32.67,119.696v38.976v17.6
		c5.717-3.758,9.486-10.234,9.49-17.59c0.007,11.644,9.44,21.073,21.073,21.073c11.649,0,21.084-9.435,21.085-21.083l0,0
		c0.002,11.648,9.437,21.083,21.086,21.083c11.636,0,21.071-9.435,21.073-21.083l0,0c0.002,11.648,9.437,21.083,21.085,21.083
		c11.636,0,21.071-9.435,21.073-21.083l0,0c0.002,11.648,9.437,21.083,21.086,21.083c11.636,0,21.071-9.435,21.073-21.083l0,0
		c0.002,11.648,9.449,21.083,21.086,21.083s21.084-9.435,21.085-21.083l0,0c0.002,11.648,9.437,21.083,21.073,21.083
		c11.649,0,21.084-9.435,21.086-21.083l0,0c0.002,11.648,9.437,21.083,21.073,21.083c11.649,0,21.084-9.435,21.085-21.083l0,0
		c0.002,11.648,9.437,21.083,21.073,21.083c11.64,0,21.067-9.42,21.084-21.055c0.01,7.548,3.976,14.157,9.949,17.873v-17.9v-38.976
		H32.67V119.696z"/>
	<g>
		<path style="fill:#E877AA;" d="M42.159,147.336c0,11.65-9.436,21.086-21.086,21.086C9.436,168.422,0,158.986,0,147.336
			l28.304-11.266"/>
		<path style="fill:#D1D1D1;" d="M84.318,147.336c0,11.65-9.436,21.086-21.086,21.086c-11.637,0-21.073-9.436-21.073-21.086"/>
		<path style="fill:#E877AA;" d="M126.477,147.336c0,11.65-9.436,21.086-21.073,21.086c-11.65,0-21.086-9.436-21.086-21.086"/>
		<path style="fill:#D1D1D1;" d="M168.636,147.336c0,11.65-9.436,21.086-21.073,21.086c-11.65,0-21.086-9.436-21.086-21.086"/>
		<path style="fill:#E877AA;" d="M210.795,147.336c0,11.65-9.436,21.086-21.073,21.086c-11.65,0-21.086-9.436-21.086-21.086"/>
		<path style="fill:#D1D1D1;" d="M252.966,147.336c0,11.65-9.448,21.086-21.086,21.086c-11.637,0-21.086-9.436-21.086-21.086"/>
		<path style="fill:#E877AA;" d="M295.125,147.336c0,11.65-9.436,21.086-21.086,21.086c-11.637,0-21.073-9.436-21.073-21.086"/>
		<path style="fill:#D1D1D1;" d="M337.284,147.336c0,11.65-9.436,21.086-21.086,21.086c-11.637,0-21.073-9.436-21.073-21.086"/>
		<path style="fill:#E877AA;" d="M379.443,147.336c0,11.65-9.436,21.086-21.086,21.086c-11.637,0-21.073-9.436-21.073-21.086"/>
		<path style="fill:#D1D1D1;" d="M379.443,147.336c0,11.65,9.436,21.086,21.086,21.086c11.637,0,21.073-9.436,21.073-21.086
			l-21.798-8.766"/>
	</g>
	<polygon style="fill:#E6E6E6;" points="103.918,82.639 68.292,82.639 42.159,147.336 84.318,147.336 	"/>
	<polygon style="fill:#E6E6E6;" points="175.17,82.639 139.544,82.639 126.477,147.336 168.636,147.336 	"/>
	<polygon style="fill:#E6E6E6;" points="246.421,82.639 210.796,82.639 210.795,147.336 252.954,147.336 	"/>
	<polygon style="fill:#E6E6E6;" points="317.673,82.639 282.047,82.639 295.113,147.336 337.272,147.336 	"/>
	<polygon style="fill:#E6E6E6;" points="388.935,82.639 353.309,82.639 379.443,147.336 421.601,147.336 	"/>
	<polygon style="fill:#FC88B8;" points="388.935,8.644 32.666,8.644 32.666,82.639 0,147.336 42.159,147.336 68.292,82.639 
		103.918,82.639 84.318,147.336 126.477,147.336 139.544,82.639 175.17,82.639 168.636,147.336 210.795,147.336 210.796,82.639 
		246.422,82.639 252.954,147.336 295.113,147.336 282.047,82.639 317.683,82.639 337.284,147.336 379.443,147.336 353.309,82.639 
		388.935,82.639 	"/>
	<rect x="47.367" y="199.336" style="fill:#E877AA;" width="207.333" height="179.333"/>
	<polygon style="fill:#2D4151;" points="224.651,206.335 77.751,206.335 71.461,206.335 65.641,206.335 62.281,206.335 
		54.371,206.335 54.371,209.245 54.371,217.165 54.371,226.605 54.371,234.525 54.371,371.665 247.701,371.665 247.701,234.575 
		247.701,226.655 247.701,217.215 247.701,209.295 247.701,206.335 240.071,206.335 236.241,206.335 230.561,206.335 	"/>
	<rect x="275.367" y="185.014" style="fill:#E877AA;" width="101.994" height="227.943"/>
	<rect x="281.821" y="191.188" style="fill:#CE6599;" width="89.369" height="152.148"/>
	<rect x="286.911" y="197.498" style="fill:#E877AA;" width="79.188" height="139.527"/>
	<rect x="291.7" y="202.017" style="fill:#2D4151;" width="69.607" height="130.489"/>
	<rect x="281.433" y="348.697" style="fill:#CE6599;" width="89.368" height="58.072"/>
	<rect x="286.521" y="353.582" style="fill:#E877AA;" width="79.188" height="48.299"/>
	<rect x="292.521" y="359.582" style="fill:#2D4151;" width="67.188" height="36.299"/>
	<circle style="fill:#D8D4D5;" cx="326.083" cy="252.963" r="2.469"/>
	<g>
		<polygon style="fill:#C1B9BC;" points="338.033,262.319 326.122,253.301 314.76,262.098 314.424,261.664 326.12,252.61 
			338.365,261.882 		"/>
	</g>
	<path style="fill:#B17EE8;" d="M343.245,269.86c0,2.201-1.8,4-4,4h-25.763c-2.2,0-4-1.799-4-4v-5.293c0-2.199,1.8-4,4-4h25.763
		c2.2,0,4,1.801,4,4V269.86z"/>
	<g>
		<path style="fill:#FAFCFC;" d="M318.309,262.957c0.601,0,1.112,0.213,1.533,0.636s0.631,0.933,0.631,1.529v4.935
			c0,0.602-0.212,1.112-0.635,1.533s-0.933,0.631-1.529,0.631c-0.601,0-1.111-0.211-1.529-0.635
			c-0.418-0.423-0.628-0.933-0.628-1.529v-4.935c0-0.601,0.212-1.112,0.635-1.533C317.208,263.168,317.716,262.957,318.309,262.957z
			 M319.051,265.094c0-0.217-0.076-0.4-0.227-0.553c-0.152-0.151-0.335-0.227-0.552-0.227c-0.216,0-0.401,0.075-0.555,0.227
			s-0.231,0.336-0.231,0.553v4.949c0,0.216,0.077,0.4,0.231,0.551c0.154,0.152,0.339,0.228,0.555,0.228
			c0.217,0,0.4-0.075,0.552-0.228c0.151-0.15,0.227-0.335,0.227-0.551V265.094z"/>
		<path style="fill:#FAFCFC;" d="M323.827,263.073c0.664,0,1.193,0.209,1.587,0.628c0.365,0.398,0.548,0.908,0.548,1.529v1.313
			c0,0.597-0.208,1.106-0.624,1.529c-0.416,0.424-0.92,0.635-1.512,0.635h-0.786v3.406h-1.364v-9.04L323.827,263.073
			L323.827,263.073z M324.642,265.253c0-0.236-0.071-0.426-0.213-0.57s-0.331-0.217-0.566-0.217h-0.822v2.894h0.822
			c0.217,0,0.4-0.077,0.552-0.231c0.151-0.153,0.227-0.338,0.227-0.555L324.642,265.253L324.642,265.253z"/>
		<path style="fill:#FAFCFC;" d="M327.051,272.115v-9.047h3.881v1.37h-2.518v2.468h1.84v1.371h-1.84v2.467h2.518v1.371H327.051z"/>
		<path style="fill:#FAFCFC;" d="M333.401,263.067l1.81,6.08v-6.08h1.364v9.047h-1.465l-1.875-5.793v5.793h-1.364v-9.047H333.401z"
			/>
	</g>
	<path style="opacity:0.2;fill:#FCFAFA;enable-background:new    ;" d="M357.004,237.594v91h-52.057
		C304.947,328.594,350.627,313.981,357.004,237.594z"/>
	<path style="opacity:0.2;fill:#FCFAFA;enable-background:new    ;" d="M305.336,393.623h51.668v-29.557
		C357.004,364.066,348.706,390.003,305.336,393.623z"/>
	<circle style="fill:#CE6599;" cx="297.201" cy="313.645" r="8.5"/>
	<circle style="fill:#6EBEFF;" cx="176.201" cy="295.27" r="6.625"/>
	<circle style="fill:#6EBEFF;" cx="203.718" cy="295.27" r="6.625"/>
	<circle style="fill:#6EBEFF;" cx="216.701" cy="295.27" r="6.625"/>
	<circle style="fill:#6EBEFF;" cx="190.388" cy="295.27" r="6.625"/>
	<circle style="fill:#ED4C58;" cx="169.076" cy="300.145" r="6.625"/>
	<circle style="fill:#ED4C58;" cx="211.701" cy="300.145" r="6.625"/>
	<circle style="fill:#ED4C58;" cx="197.263" cy="300.145" r="6.625"/>
	<circle style="fill:#ED4C58;" cx="182.701" cy="300.145" r="6.625"/>
	<rect x="66.034" y="307.645" style="fill:#FC88B8;" width="170" height="44"/>
	<rect x="66.034" y="347.145" style="fill:#E877AA;" width="170" height="10.5"/>
	<path style="fill:#F9C032;" d="M157.903,300.145c0,19.882,16.118,36,36,36s36-16.118,36-36"/>
	<path style="opacity:0.2;fill:#FCFAFA;enable-background:new    ;" d="M75.16,366.51h167.591v-95.871
		C242.75,270.638,215.837,354.766,75.16,366.51z"/>
	<polygon style="fill:#ED4C58;" points="269.974,412.957 211.428,412.957 217.701,331.311 263.701,331.311 	"/>
	<path style="fill:#F2F2F2;" d="M276.201,324.145c0,6.36-1.67,12.34-4.6,17.5c-2.23,3.92-5.18,7.38-8.67,10.18
		c-6.08,4.89-13.82,7.82-22.23,7.82s-16.15-2.93-22.23-7.82c-0.03-0.03-0.07-0.05-0.1-0.09c-3.45-2.78-6.36-6.21-8.57-10.09
		c-2.93-5.16-4.6-11.14-4.6-17.5c0-19.61,15.89-35.5,35.5-35.5c9.79,0,18.66,3.96,25.08,10.38
		C272.221,305.444,276.201,314.326,276.201,324.145z"/>
	<rect x="247.034" y="367.311" style="fill:#E6E6E6;" width="8" height="22"/>
	<rect x="250.034" y="370.311" style="fill:#2D4151;" width="2" height="16"/>
	<circle style="fill:#6EBEFF;" cx="222.076" cy="337.52" r="6.625"/>
	<circle style="fill:#F9C032;" cx="237.829" cy="331.819" r="6.625"/>
	<circle style="fill:#76DD91;" cx="228.626" cy="323.262" r="6.625"/>
	<circle style="fill:#ED4C58;" cx="214.391" cy="325.092" r="6.625"/>
	<circle style="fill:#ED4C58;" cx="249.034" cy="342.104" r="6.625"/>
	<circle style="fill:#6EBEFF;" cx="252.229" cy="327.602" r="6.625"/>
	<circle style="fill:#76DD91;" cx="265.033" cy="337.297" r="6.625"/>
	<circle style="fill:#F9C032;" cx="266.577" cy="321.796" r="6.625"/>
	<circle style="fill:#ED4C58;" cx="242.861" cy="315.368" r="6.625"/>
	<circle style="fill:#6EBEFF;" cx="257.611" cy="308.868" r="6.625"/>
	<circle style="fill:#F9C032;" cx="231.137" cy="308.589" r="6.625"/>
	<path style="opacity:0.58;fill:#FCFAFA;enable-background:new    ;" d="M276.201,324.145c0,6.36-1.67,12.34-4.6,17.5
		c-2.23,3.92-5.18,7.38-8.67,10.18h-44.82c0,0,0.09-0.03,0.26-0.09c2.98-1.06,30.89-11.91,47.41-52.71
		C272.221,305.444,276.201,314.326,276.201,324.145z"/>
	<rect x="80.26" y="321.145" style="fill:#DDA62C;" width="67.75" height="14.25"/>
	<rect x="80.26" y="317.395" style="fill:#F9C032;" width="67.75" height="14.25"/>
	<path style="fill:#2D4151;" d="M271.601,341.645c-6.11,10.75-17.66,18-30.9,18s-24.79-7.25-30.9-18H271.601z"/>
	<g>
		<rect x="89.851" y="297.024" style="fill:#E6E6E6;" width="3.2" height="27.37"/>
		<path style="fill:#CCCCCC;" d="M93.051,297.024v9.28c-0.53,0.06-1.06,0.09-1.6,0.09s-1.07-0.03-1.6-0.09v-9.28H93.051z"/>
		<path style="fill:#FFFFFF;" d="M76.701,287.395c0-8.15,6.6-14.75,14.75-14.75s14.75,6.6,14.75,14.75
			c0,7.16-5.09,13.12-11.85,14.46c-0.94,0.19-1.91,0.29-2.9,0.29c-3.71,0-7.11-1.37-9.7-3.64
			C78.651,295.805,76.701,291.826,76.701,287.395z"/>
		<path style="fill:#ED4C58;" d="M80.601,285.734c0.19-0.59,0.5-1.12,0.75-1.69l0.03-0.05l0.07-0.13l0.05-0.09l0.11-0.17l0.21-0.36
			c0.12-0.21,0.35-0.52,0.56-0.8c0.84-1.11,1.77-2.01,2.91-2.77c2.25-1.5,5.07-2.23,7.85-1.91c1.38,0.15,2.74,0.55,3.97,1.2
			l0.12,0.06l0.06,0.02l0.09,0.05l0.02,0.02l0.2,0.12l0.39,0.24c0.28,0.18,0.62,0.43,0.91,0.66c0.54,0.47,1.05,0.97,1.47,1.55
			c0.86,1.13,1.45,2.45,1.72,3.82c0.27,1.38,0.22,2.79-0.13,4.12c-0.17,0.66-0.43,1.29-0.73,1.89c-0.2,0.38-0.29,0.53-0.51,0.84
			c-0.21,0.3-0.43,0.59-0.66,0.82c-0.92,1.01-2.11,1.69-3.35,2.06c-1.25,0.35-2.56,0.37-3.75,0.06c-0.61-0.15-1.13-0.37-1.71-0.67
			c-0.44-0.24-1.01-0.68-1.4-1.08c-1.65-1.72-1.94-4.24-1.16-6.07c0.37-0.93,1.01-1.69,1.78-2.18c0.76-0.49,1.61-0.71,2.41-0.71
			c1.59,0.01,2.89,0.85,3.41,1.84c0.57,0.979,0.51,1.91,0.37,2.46c-0.06,0.29-0.15,0.49-0.21,0.63c-0.02,0.03-0.03,0.05-0.05,0.08
			c0.01-0.02,0.02-0.05,0.03-0.09c0.06-0.13,0.13-0.34,0.18-0.63c0.09-0.55,0.09-1.46-0.5-2.34c-0.55-0.89-1.79-1.57-3.22-1.49
			c-1.42,0.06-2.96,1.05-3.47,2.71c-0.57,1.61-0.16,3.68,1.25,4.97c0.38,0.33,0.67,0.54,1.2,0.8c0.4,0.17,0.91,0.36,1.39,0.43
			c0.98,0.19,2.01,0.1,2.97-0.23c0.95-0.35,1.84-0.94,2.47-1.74c0.18-0.2,0.3-0.4,0.43-0.59c0.12-0.18,0.31-0.56,0.38-0.72
			c0.2-0.49,0.38-0.99,0.47-1.521c0.2-1.04,0.17-2.12-0.1-3.15c-0.27-1.02-0.78-1.97-1.46-2.76c-0.33-0.4-0.73-0.74-1.14-1.06
			c-0.21-0.12-0.36-0.25-0.6-0.38l-0.41-0.22l-0.2-0.1l-0.03-0.02h-0.01l-0.1-0.03c-0.97-0.44-2.01-0.67-3.05-0.71
			c-2.07-0.1-4.09,0.58-5.62,1.74c-0.76,0.57-1.42,1.33-1.87,2.02c-0.12,0.18-0.22,0.3-0.36,0.58l-0.19,0.36l-0.09,0.18l-0.06,0.12
			l0.02-0.02c-0.16,0.44-0.38,0.84-0.48,1.28c-0.51,1.73-0.59,3.45-0.31,4.97s0.86,2.83,1.52,3.86c0.66,1.05,1.43,1.81,2.1,2.36
			c0.17,0.14,0.33,0.27,0.49,0.39c0.14,0.1,0.28,0.19,0.4,0.27c0.13,0.08,0.24,0.16,0.34,0.23c0.12,0.07,0.29,0.15,0.41,0.22
			c0.51,0.27,0.79,0.41,0.79,0.41l4.38,2.16c-0.94,0.19-1.91,0.29-2.9,0.29c-3.71,0-7.11-1.37-9.7-3.64
			c-0.07-0.12-0.14-0.25-0.21-0.38c-0.86-1.54-1.55-3.45-1.8-5.59C79.501,290.395,79.751,288.016,80.601,285.734z"/>
	</g>
	<g>
		<rect x="112.535" y="297.024" style="fill:#E6E6E6;" width="3.2" height="27.37"/>
		<path style="fill:#CCCCCC;" d="M115.735,297.024v9.28c-0.53,0.06-1.06,0.09-1.6,0.09s-1.07-0.03-1.6-0.09v-9.28H115.735z"/>
		<path style="fill:#F9C032;" d="M99.385,287.395c0-8.15,6.6-14.75,14.75-14.75s14.75,6.6,14.75,14.75
			c0,7.16-5.09,13.12-11.85,14.46c-0.94,0.19-1.91,0.29-2.9,0.29c-3.71,0-7.11-1.37-9.7-3.64
			C101.335,295.805,99.385,291.826,99.385,287.395z"/>
		<path style="fill:#6EBEFF;" d="M103.285,285.734c0.19-0.59,0.5-1.12,0.75-1.69l0.03-0.05l0.07-0.13l0.05-0.09l0.11-0.17l0.21-0.36
			c0.12-0.21,0.35-0.52,0.56-0.8c0.84-1.11,1.77-2.01,2.91-2.77c2.25-1.5,5.07-2.23,7.85-1.91c1.38,0.15,2.74,0.55,3.97,1.2
			l0.12,0.06l0.06,0.02l0.09,0.05l0.02,0.02l0.2,0.12l0.39,0.24c0.28,0.18,0.62,0.43,0.91,0.66c0.54,0.47,1.05,0.97,1.47,1.55
			c0.86,1.13,1.45,2.45,1.72,3.82c0.27,1.38,0.22,2.79-0.13,4.12c-0.17,0.66-0.43,1.29-0.73,1.89c-0.2,0.38-0.29,0.53-0.51,0.84
			c-0.21,0.3-0.43,0.59-0.66,0.82c-0.92,1.01-2.11,1.69-3.35,2.06c-1.25,0.35-2.56,0.37-3.75,0.06c-0.61-0.15-1.13-0.37-1.71-0.67
			c-0.44-0.24-1.01-0.68-1.4-1.08c-1.65-1.72-1.94-4.24-1.16-6.07c0.37-0.93,1.01-1.69,1.78-2.18c0.76-0.49,1.61-0.71,2.41-0.71
			c1.59,0.01,2.89,0.85,3.41,1.84c0.57,0.979,0.51,1.91,0.37,2.46c-0.06,0.29-0.15,0.49-0.21,0.63c-0.02,0.03-0.03,0.05-0.05,0.08
			c0.01-0.02,0.02-0.05,0.03-0.09c0.06-0.13,0.13-0.34,0.18-0.63c0.09-0.55,0.09-1.46-0.5-2.34c-0.55-0.89-1.79-1.57-3.22-1.49
			c-1.42,0.06-2.96,1.05-3.47,2.71c-0.57,1.61-0.16,3.68,1.25,4.97c0.38,0.33,0.67,0.54,1.2,0.8c0.4,0.17,0.91,0.36,1.39,0.43
			c0.98,0.19,2.01,0.1,2.97-0.23c0.95-0.35,1.84-0.94,2.47-1.74c0.18-0.2,0.3-0.4,0.43-0.59c0.12-0.18,0.31-0.56,0.38-0.72
			c0.2-0.49,0.38-0.99,0.47-1.521c0.2-1.04,0.17-2.12-0.1-3.15c-0.27-1.02-0.78-1.97-1.46-2.76c-0.33-0.4-0.73-0.74-1.14-1.06
			c-0.21-0.12-0.36-0.25-0.6-0.38l-0.41-0.22l-0.2-0.1l-0.03-0.02h-0.01l-0.1-0.03c-0.97-0.44-2.01-0.67-3.05-0.71
			c-2.07-0.1-4.09,0.58-5.62,1.74c-0.76,0.57-1.42,1.33-1.87,2.02c-0.12,0.18-0.22,0.3-0.36,0.58l-0.19,0.36l-0.09,0.18l-0.06,0.12
			l0.02-0.02c-0.16,0.44-0.38,0.84-0.48,1.28c-0.51,1.73-0.59,3.45-0.31,4.97s0.86,2.83,1.52,3.86c0.66,1.05,1.43,1.81,2.1,2.36
			c0.17,0.14,0.33,0.27,0.49,0.39c0.14,0.1,0.28,0.19,0.4,0.27c0.13,0.08,0.24,0.16,0.34,0.23c0.12,0.07,0.29,0.15,0.41,0.22
			c0.51,0.27,0.79,0.41,0.79,0.41l4.38,2.16c-0.94,0.19-1.91,0.29-2.9,0.29c-3.71,0-7.11-1.37-9.7-3.64
			c-0.07-0.12-0.14-0.25-0.21-0.38c-0.86-1.54-1.55-3.45-1.8-5.59C102.185,290.395,102.435,288.016,103.285,285.734z"/>
	</g>
	<g>
		<rect x="135.22" y="297.024" style="fill:#E6E6E6;" width="3.2" height="27.37"/>
		<path style="fill:#CCCCCC;" d="M138.42,297.024v9.28c-0.53,0.06-1.06,0.09-1.6,0.09s-1.07-0.03-1.6-0.09v-9.28H138.42z"/>
		<path style="fill:#FC88B8;" d="M122.07,287.395c0-8.15,6.6-14.75,14.75-14.75s14.75,6.6,14.75,14.75
			c0,7.16-5.09,13.12-11.85,14.46c-0.94,0.19-1.91,0.29-2.9,0.29c-3.71,0-7.11-1.37-9.7-3.64
			C124.02,295.805,122.07,291.826,122.07,287.395z"/>
		<path style="fill:#FFFFFF;" d="M125.97,285.734c0.19-0.59,0.5-1.12,0.75-1.69l0.03-0.05l0.07-0.13l0.05-0.09l0.11-0.17l0.21-0.36
			c0.12-0.21,0.35-0.52,0.56-0.8c0.84-1.11,1.77-2.01,2.91-2.77c2.25-1.5,5.07-2.23,7.85-1.91c1.38,0.15,2.74,0.55,3.97,1.2
			l0.12,0.06l0.06,0.02l0.09,0.05l0.02,0.02l0.2,0.12l0.39,0.24c0.28,0.18,0.62,0.43,0.91,0.66c0.54,0.47,1.05,0.97,1.47,1.55
			c0.86,1.13,1.45,2.45,1.72,3.82c0.27,1.38,0.22,2.79-0.13,4.12c-0.17,0.66-0.43,1.29-0.73,1.89c-0.2,0.38-0.29,0.53-0.51,0.84
			c-0.21,0.3-0.43,0.59-0.66,0.82c-0.92,1.01-2.11,1.69-3.35,2.06c-1.25,0.35-2.56,0.37-3.75,0.06c-0.61-0.15-1.13-0.37-1.71-0.67
			c-0.44-0.24-1.01-0.68-1.4-1.08c-1.65-1.72-1.94-4.24-1.16-6.07c0.37-0.93,1.01-1.69,1.78-2.18c0.76-0.49,1.61-0.71,2.41-0.71
			c1.59,0.01,2.89,0.85,3.41,1.84c0.57,0.979,0.51,1.91,0.37,2.46c-0.06,0.29-0.15,0.49-0.21,0.63c-0.02,0.03-0.03,0.05-0.05,0.08
			c0.01-0.02,0.02-0.05,0.03-0.09c0.06-0.13,0.13-0.34,0.18-0.63c0.09-0.55,0.09-1.46-0.5-2.34c-0.55-0.89-1.79-1.57-3.22-1.49
			c-1.42,0.06-2.96,1.05-3.47,2.71c-0.57,1.61-0.16,3.68,1.25,4.97c0.38,0.33,0.67,0.54,1.2,0.8c0.4,0.17,0.91,0.36,1.39,0.43
			c0.98,0.19,2.01,0.1,2.97-0.23c0.95-0.35,1.84-0.94,2.47-1.74c0.18-0.2,0.3-0.4,0.43-0.59c0.12-0.18,0.31-0.56,0.38-0.72
			c0.2-0.49,0.38-0.99,0.47-1.521c0.2-1.04,0.17-2.12-0.1-3.15c-0.27-1.02-0.78-1.97-1.46-2.76c-0.33-0.4-0.73-0.74-1.14-1.06
			c-0.21-0.12-0.36-0.25-0.6-0.38l-0.41-0.22l-0.2-0.1l-0.03-0.02h-0.01l-0.1-0.03c-0.97-0.44-2.01-0.67-3.05-0.71
			c-2.07-0.1-4.09,0.58-5.62,1.74c-0.76,0.57-1.42,1.33-1.87,2.02c-0.12,0.18-0.22,0.3-0.36,0.58l-0.19,0.36l-0.09,0.18l-0.06,0.12
			l0.02-0.02c-0.16,0.44-0.38,0.84-0.48,1.28c-0.51,1.73-0.59,3.45-0.31,4.97s0.86,2.83,1.52,3.86c0.66,1.05,1.43,1.81,2.1,2.36
			c0.17,0.14,0.33,0.27,0.49,0.39c0.14,0.1,0.28,0.19,0.4,0.27c0.13,0.08,0.24,0.16,0.34,0.23c0.12,0.07,0.29,0.15,0.41,0.22
			c0.51,0.27,0.79,0.41,0.79,0.41l4.38,2.16c-0.94,0.19-1.91,0.29-2.9,0.29c-3.71,0-7.11-1.37-9.7-3.64
			c-0.07-0.12-0.14-0.25-0.21-0.38c-0.86-1.54-1.55-3.45-1.8-5.59C124.87,290.395,125.12,288.016,125.97,285.734z"/>
	</g>
	<path style="fill:#FFFFFF;" d="M157.291,258.516h-0.09c-2.21,0.04-3.96,1.88-3.91,4.08c0.03,1.09,0.48,2.07,1.21,2.77
		c0.72,0.71,1.7,1.14,2.79,1.14h0.09c2.16-0.05,3.9-1.82,3.9-3.98v-0.11C161.231,260.234,159.451,258.516,157.291,258.516z"/>
	<path style="fill:#76DD91;" d="M145.241,258.335c-0.07,0-0.14-0.01-0.2-0.01c-2.12,0-3.88,1.67-3.99,3.81
		c-0.11,2.21,1.59,4.08,3.8,4.19c0.06,0.01,0.13,0.01,0.19,0.01c1.06,0,2.04-0.42,2.76-1.1c0.72-0.69,1.18-1.64,1.24-2.71
		c0-0.07,0.01-0.14,0.01-0.2C149.051,260.205,147.381,258.444,145.241,258.335z"/>
	<path style="fill:#76DD91;" d="M173.481,261.326c-0.22-2.06-1.95-3.59-3.97-3.59c-0.14,0-0.28,0.01-0.42,0.02
		c-2.2,0.23-3.8,2.2-3.57,4.4c0.11,1.03,0.6,1.92,1.31,2.56c0.71,0.64,1.65,1.02,2.67,1.02c0.14,0,0.28-0.01,0.42-0.02
		c2.05-0.22,3.58-1.95,3.58-3.97C173.501,261.604,173.491,261.464,173.481,261.326z"/>
	<path style="fill:#FFFFFF;" d="M133.311,257.345c-0.16-0.02-0.32-0.03-0.47-0.03c-2,0-3.73,1.5-3.97,3.53
		c-0.26,2.2,1.31,4.18,3.5,4.44c0.16,0.02,0.32,0.03,0.48,0.03c1,0,1.93-0.37,2.65-1c0.71-0.63,1.2-1.51,1.32-2.53
		c0.02-0.15,0.03-0.31,0.03-0.46C136.851,259.326,135.351,257.585,133.311,257.345z"/>
	<path style="fill:#FFFFFF;" d="M185.551,259.254c-0.36-1.92-2.03-3.27-3.92-3.27c-0.24,0-0.49,0.02-0.74,0.07
		c-2.18,0.4-3.61,2.49-3.21,4.66c0.18,0.97,0.69,1.78,1.39,2.36c0.7,0.57,1.59,0.91,2.54,0.91c0.25,0,0.49-0.02,0.74-0.07
		c1.92-0.35,3.27-2.04,3.27-3.93C185.621,259.745,185.601,259.504,185.551,259.254z"/>
	<path style="fill:#76DD91;" d="M121.491,255.524c0,0.01,0,0.01,0,0.01c-0.26-0.05-0.51-0.07-0.76-0.07c-1.89,0-3.56,1.34-3.92,3.25
		c-0.41,2.17,1.02,4.26,3.19,4.68c0.25,0.04,0.5,0.07,0.75,0.07c0.94,0,1.83-0.34,2.53-0.91s1.21-1.39,1.39-2.35
		c0.05-0.25,0.07-0.5,0.07-0.75C124.741,257.576,123.411,255.885,121.491,255.524z"/>
	<path style="fill:#76DD91;" d="M197.421,256.234c-0.49-1.78-2.1-2.96-3.87-2.96c-0.34,0-0.69,0.05-1.04,0.14
		c-2.13,0.57-3.39,2.77-2.82,4.9c0.24,0.89,0.77,1.63,1.45,2.15s1.53,0.81,2.41,0.81c0.34,0,0.69-0.04,1.04-0.13
		c1.79-0.49,2.97-2.1,2.97-3.87C197.561,256.924,197.511,256.585,197.421,256.234z"/>
	<path style="fill:#FFFFFF;" d="M109.821,252.885c-0.34-0.09-0.68-0.13-1.02-0.13c-1.77,0-3.39,1.18-3.87,2.98
		c-0.56,2.13,0.71,4.32,2.85,4.89c0.34,0.09,0.68,0.13,1.02,0.13c0.88,0,1.73-0.3,2.42-0.82c0.68-0.52,1.21-1.27,1.45-2.16
		c0.09-0.34,0.13-0.68,0.13-1.02C112.801,254.984,111.621,253.364,109.821,252.885z"/>
	<path style="fill:#FFFFFF;" d="M209.011,252.305c-0.58-1.64-2.12-2.66-3.77-2.66c-0.44,0-0.9,0.07-1.34,0.23
		c-2.08,0.74-3.17,3.02-2.43,5.1c0.29,0.83,0.82,1.49,1.48,1.95c0.67,0.46,1.47,0.72,2.29,0.72c0.44,0,0.89-0.07,1.33-0.23
		c1.65-0.58,2.67-2.12,2.67-3.77C209.241,253.205,209.171,252.745,209.011,252.305z"/>
	<path style="fill:#76DD91;" d="M98.391,249.415c-0.43-0.15-0.87-0.22-1.3-0.22c-1.67,0-3.22,1.04-3.79,2.7
		c-0.72,2.09,0.39,4.36,2.48,5.08c0.43,0.15,0.87,0.22,1.3,0.22c0.84,0,1.64-0.26,2.31-0.73c0.67-0.46,1.19-1.14,1.48-1.97
		c0.15-0.43,0.22-0.87,0.22-1.3C101.091,251.535,100.051,249.984,98.391,249.415z"/>
	<path style="fill:#76DD91;" d="M220.271,247.504c-0.67-1.49-2.13-2.39-3.66-2.39c-0.54,0-1.09,0.12-1.62,0.35
		c-2.02,0.89-2.93,3.25-2.04,5.27c0.33,0.75,0.86,1.35,1.5,1.76c0.65,0.41,1.39,0.63,2.16,0.63c0.54,0,1.09-0.11,1.62-0.35
		c1.49-0.66,2.38-2.12,2.38-3.66C220.611,248.575,220.501,248.035,220.271,247.504z"/>
	<path style="fill:#FFFFFF;" d="M87.241,245.105c-0.51-0.22-1.05-0.32-1.57-0.32c-1.55,0-3.03,0.9-3.68,2.42
		c-0.88,2.03,0.06,4.38,2.09,5.25c0.52,0.22,1.05,0.33,1.58,0.33c0.78,0,1.53-0.23,2.18-0.64c0.64-0.42,1.18-1.02,1.5-1.78
		c0.22-0.51,0.32-1.05,0.32-1.57C89.661,247.234,88.761,245.765,87.241,245.105z"/>
	<path style="fill:#FFFFFF;" d="M231.131,241.855c-0.73-1.34-2.11-2.11-3.53-2.11c-0.64,0-1.29,0.16-1.89,0.48
		c-1.94,1.04-2.67,3.47-1.63,5.41c0.72,1.35,2.1,2.11,3.53,2.11c0.64,0,1.28-0.15,1.89-0.47c1.34-0.73,2.1-2.11,2.1-3.53
		C231.601,243.105,231.451,242.455,231.131,241.855z"/>
	<path style="fill:#76DD91;" d="M76.451,239.984c-0.59-0.31-1.22-0.46-1.84-0.46c-1.45,0-2.84,0.78-3.55,2.15
		c-1.03,1.96-0.27,4.38,1.69,5.4c0.59,0.31,1.23,0.45,1.85,0.45c1.44,0,2.83-0.78,3.55-2.14c0.31-0.59,0.45-1.22,0.45-1.85
		C78.601,242.095,77.821,240.694,76.451,239.984z"/>
	<path style="fill:#76DD91;" d="M241.541,235.415c-0.77-1.2-2.06-1.85-3.38-1.85c-0.74,0-1.48,0.2-2.14,0.62c0,0.01,0,0.01,0,0.01
		c-1.87,1.18-2.42,3.65-1.23,5.52c0.76,1.19,2.06,1.85,3.38,1.85c0.73,0,1.48-0.2,2.14-0.63c1.2-0.76,1.85-2.06,1.85-3.38
		C242.161,236.814,241.961,236.075,241.541,235.415z"/>
	<path style="fill:#FFFFFF;" d="M66.091,234.055c-0.66-0.41-1.39-0.61-2.11-0.61c-1.34,0-2.64,0.67-3.4,1.89
		c-1.17,1.87-0.6,4.33,1.27,5.51c0.66,0.41,1.4,0.6,2.12,0.6c1.33,0,2.64-0.66,3.4-1.88c0.41-0.66,0.61-1.38,0.61-2.11
		C67.981,236.125,67.301,234.814,66.091,234.055z"/>
	<path style="fill:#FFFFFF;" d="M245.851,227.415c-1.78,1.31-2.14,3.82-0.82,5.59c0.67,0.9,1.64,1.44,2.67,1.57v-7.92
		C247.051,226.745,246.411,226.995,245.851,227.415z"/>
	<path style="fill:#76DD91;" d="M56.211,227.345c-0.56-0.42-1.19-0.66-1.84-0.74v7.92c1.03-0.13,2.02-0.67,2.69-1.58
		c0.53-0.71,0.78-1.55,0.78-2.37C57.841,229.345,57.281,228.125,56.211,227.345z"/>
	<path style="fill:#6EBEFF;" d="M157.291,241.145h-0.09c-2.21,0.05-3.96,1.88-3.91,4.09c0.03,1.09,0.48,2.07,1.21,2.77
		c0.72,0.71,1.7,1.14,2.79,1.14h0.09c2.17-0.05,3.9-1.83,3.9-4v-0.09C161.231,242.875,159.451,241.145,157.291,241.145z"/>
	<path style="fill:#F9C032;" d="M145.241,240.964h-0.19c-2.12,0-3.89,1.66-4,3.8c-0.11,2.21,1.59,4.09,3.8,4.19
		c0.07,0.01,0.13,0.01,0.2,0.01c1.06,0,2.03-0.42,2.75-1.1c0.72-0.68,1.18-1.64,1.24-2.7c0-0.07,0.01-0.14,0.01-0.2
		C149.051,242.845,147.381,241.075,145.241,240.964z"/>
	<path style="fill:#F9C032;" d="M173.481,243.955c-0.22-2.06-1.94-3.58-3.97-3.58c-0.14,0-0.28,0.01-0.42,0.02
		c-2.2,0.22-3.8,2.19-3.57,4.39c0.11,1.03,0.6,1.93,1.31,2.57s1.65,1.02,2.67,1.02c0.14,0,0.28-0.01,0.42-0.03
		c2.05-0.21,3.58-1.94,3.58-3.97C173.501,244.234,173.491,244.095,173.481,243.955z"/>
	<path style="fill:#6EBEFF;" d="M133.311,239.975c-0.16-0.02-0.32-0.03-0.47-0.03c-2,0-3.73,1.5-3.97,3.54
		c-0.26,2.19,1.31,4.18,3.5,4.44c0.16,0.02,0.32,0.02,0.48,0.02c1,0,1.93-0.37,2.64-1s1.21-1.51,1.33-2.53
		c0.02-0.15,0.03-0.31,0.03-0.46C136.851,241.955,135.351,240.214,133.311,239.975z"/>
	<path style="fill:#6EBEFF;" d="M185.551,241.885c-0.36-1.92-2.04-3.271-3.93-3.271c-0.24,0-0.48,0.021-0.73,0.07
		c-2.18,0.4-3.61,2.49-3.21,4.66c0.18,0.96,0.69,1.78,1.39,2.36s1.59,0.91,2.54,0.91c0.24,0,0.49-0.02,0.74-0.06
		c1.92-0.36,3.27-2.04,3.27-3.94C185.621,242.375,185.601,242.135,185.551,241.885z"/>
	<path style="fill:#F9C032;" d="M121.481,238.165c-0.25-0.05-0.5-0.07-0.75-0.07c-1.88,0-3.56,1.33-3.92,3.25
		c-0.41,2.17,1.02,4.27,3.19,4.68c0.25,0.05,0.5,0.07,0.74,0.07c0.94,0,1.84-0.33,2.54-0.91s1.21-1.39,1.39-2.35
		c0.05-0.25,0.07-0.5,0.07-0.75C124.741,240.205,123.411,238.524,121.481,238.165z"/>
	<path style="fill:#F9C032;" d="M197.421,238.875c-0.49-1.79-2.1-2.97-3.87-2.97c-0.34,0-0.69,0.05-1.04,0.14
		c-2.13,0.58-3.39,2.77-2.82,4.9c0.24,0.9,0.76,1.64,1.45,2.16c0.68,0.52,1.52,0.81,2.41,0.81c0.34,0,0.69-0.05,1.04-0.14
		c1.79-0.48,2.97-2.1,2.97-3.87C197.561,239.564,197.511,239.214,197.421,238.875z"/>
	<path style="fill:#6EBEFF;" d="M109.821,235.515c-0.34-0.09-0.68-0.13-1.02-0.13c-1.77,0-3.39,1.18-3.87,2.979
		c-0.56,2.13,0.71,4.32,2.85,4.89c0.34,0.09,0.68,0.13,1.02,0.13c0.88,0,1.73-0.3,2.42-0.81c0.68-0.52,1.21-1.27,1.45-2.16
		c0.09-0.34,0.13-0.68,0.13-1.02C112.801,237.614,111.621,235.995,109.821,235.515z"/>
	<path style="fill:#6EBEFF;" d="M209.011,234.944c-0.58-1.65-2.12-2.67-3.77-2.67c-0.44,0-0.9,0.07-1.34,0.23
		c-2.08,0.74-3.17,3.02-2.43,5.11c0.29,0.82,0.82,1.49,1.48,1.95c0.67,0.46,1.47,0.71,2.29,0.71c0.44,0,0.89-0.07,1.33-0.23
		c1.64-0.58,2.67-2.12,2.67-3.77C209.241,235.834,209.171,235.385,209.011,234.944z"/>
	<path style="fill:#F9C032;" d="M98.391,232.044c-0.43-0.15-0.87-0.22-1.3-0.22c-1.67,0-3.22,1.04-3.79,2.7
		c-0.72,2.09,0.4,4.37,2.48,5.09c0.43,0.14,0.87,0.21,1.31,0.21c0.83,0,1.63-0.26,2.3-0.73c0.67-0.46,1.19-1.13,1.48-1.96
		c0.15-0.43,0.22-0.87,0.22-1.3C101.091,234.165,100.051,232.614,98.391,232.044z"/>
	<path style="fill:#F9C032;" d="M220.271,230.135c-0.67-1.49-2.13-2.38-3.67-2.38c-0.54,0-1.08,0.11-1.61,0.34
		c-2.02,0.9-2.93,3.26-2.04,5.28c0.33,0.75,0.86,1.34,1.5,1.75c0.65,0.41,1.39,0.63,2.16,0.63c0.54,0,1.09-0.11,1.62-0.34
		c1.49-0.67,2.38-2.13,2.38-3.67C220.611,231.205,220.501,230.665,220.271,230.135z"/>
	<path style="fill:#6EBEFF;" d="M87.241,227.745c-0.52-0.22-1.06-0.33-1.58-0.33c-1.55,0-3.02,0.91-3.67,2.42
		c-0.88,2.03,0.06,4.38,2.09,5.26c0.52,0.22,1.05,0.32,1.58,0.32c0.78,0,1.53-0.23,2.18-0.64c0.64-0.41,1.18-1.02,1.5-1.78
		c0.22-0.51,0.32-1.05,0.32-1.57C89.661,229.875,88.761,228.395,87.241,227.745z"/>
	<path style="fill:#6EBEFF;" d="M231.131,224.484c-0.72-1.34-2.1-2.1-3.53-2.1c-0.64,0-1.29,0.15-1.89,0.47
		c-1.94,1.04-2.68,3.47-1.63,5.42c0.72,1.34,2.1,2.11,3.53,2.11c0.64,0,1.28-0.16,1.89-0.48c1.34-0.73,2.1-2.1,2.1-3.53
		C231.601,225.734,231.451,225.084,231.131,224.484z"/>
	<path style="fill:#F9C032;" d="M76.451,222.614c-0.59-0.31-1.21-0.45-1.84-0.45c-1.44,0-2.84,0.78-3.55,2.15
		c-1.03,1.95-0.27,4.37,1.69,5.39c0.59,0.31,1.23,0.46,1.85,0.46c1.44,0,2.83-0.78,3.55-2.15c0.31-0.59,0.45-1.22,0.45-1.85
		C78.601,224.725,77.821,223.325,76.451,222.614z"/>
	<path style="fill:#F9C032;" d="M241.541,218.044c-0.76-1.19-2.06-1.85-3.38-1.85c-0.73,0-1.47,0.2-2.14,0.63
		c-1.87,1.18-2.42,3.66-1.23,5.52c0.76,1.2,2.06,1.85,3.38,1.85c0.73,0,1.48-0.2,2.14-0.62c1.2-0.76,1.85-2.06,1.85-3.38
		C242.161,219.455,241.961,218.714,241.541,218.044z"/>
	<path style="fill:#6EBEFF;" d="M66.091,216.685c-0.66-0.41-1.39-0.61-2.11-0.61c-1.34,0-2.64,0.67-3.4,1.89
		c-1.17,1.87-0.6,4.33,1.27,5.51c0.66,0.41,1.4,0.61,2.12,0.61c1.33,0,2.64-0.67,3.4-1.89c0.41-0.66,0.61-1.39,0.61-2.11
		C67.981,218.745,67.311,217.444,66.091,216.685z"/>
	<path style="fill:#6EBEFF;" d="M245.851,210.044c-1.77,1.32-2.14,3.82-0.82,5.6c0.67,0.9,1.64,1.43,2.67,1.57v-7.92
		C247.051,209.375,246.411,209.625,245.851,210.044z"/>
	<path style="fill:#F9C032;" d="M56.211,209.984c-0.57-0.42-1.2-0.66-1.84-0.74v7.92c1.04-0.13,2.02-0.68,2.69-1.59
		c0.53-0.71,0.78-1.54,0.78-2.37C57.841,211.975,57.281,210.765,56.211,209.984z"/>
	<path style="fill:#FFFFFF;" d="M231.131,207.125c-0.16-0.29-0.35-0.56-0.57-0.79h-5.91c-1.11,1.21-1.39,3.04-0.57,4.57
		c0.72,1.34,2.1,2.11,3.53,2.11c0.64,0,1.28-0.15,1.88-0.48c1.35-0.72,2.11-2.1,2.11-3.53
		C231.601,208.364,231.451,207.725,231.131,207.125z"/>
	<path style="fill:#FFFFFF;" d="M157.291,223.774h-0.09c-2.21,0.05-3.96,1.88-3.91,4.09c0.03,1.09,0.48,2.07,1.21,2.771
		c0.72,0.71,1.7,1.14,2.79,1.14h0.09c2.17-0.05,3.9-1.83,3.9-4v-0.09C161.231,225.504,159.451,223.774,157.291,223.774z"/>
	<path style="fill:#ED4C58;" d="M145.241,223.605c-0.07,0-0.14-0.01-0.2-0.01c-2.12,0-3.88,1.67-3.99,3.81
		c-0.11,2.2,1.59,4.08,3.8,4.19h0.2c1.06,0,2.03-0.41,2.75-1.1c0.72-0.68,1.19-1.63,1.24-2.7c0-0.07,0.01-0.14,0.01-0.2
		C149.051,225.475,147.381,223.714,145.241,223.605z"/>
	<path style="fill:#ED4C58;" d="M173.481,226.595c-0.22-2.06-1.95-3.59-3.97-3.59c-0.14,0-0.28,0.01-0.42,0.02
		c-2.2,0.23-3.8,2.19-3.57,4.39c0.11,1.03,0.6,1.93,1.31,2.57c0.71,0.64,1.65,1.02,2.67,1.02c0.14,0,0.28-0.01,0.42-0.02
		c2.05-0.22,3.58-1.95,3.58-3.97C173.501,226.875,173.491,226.734,173.481,226.595z"/>
	<path style="fill:#FFFFFF;" d="M133.311,222.605c-0.15-0.02-0.31-0.03-0.46-0.03c-2,0-3.74,1.5-3.98,3.54
		c-0.26,2.19,1.31,4.18,3.5,4.44c0.16,0.02,0.32,0.03,0.48,0.03c1,0,1.93-0.38,2.64-1c0.71-0.63,1.21-1.52,1.33-2.53
		c0.02-0.16,0.03-0.32,0.03-0.48C136.851,224.575,135.351,222.845,133.311,222.605z"/>
	<path style="fill:#FFFFFF;" d="M185.551,224.524c-0.35-1.93-2.04-3.28-3.93-3.28c-0.24,0-0.48,0.02-0.73,0.07
		c-2.18,0.41-3.61,2.49-3.21,4.67c0.18,0.96,0.69,1.78,1.39,2.36c0.7,0.57,1.59,0.91,2.54,0.91c0.24,0,0.49-0.02,0.74-0.07
		c1.92-0.35,3.27-2.04,3.27-3.93C185.621,225.015,185.601,224.774,185.551,224.524z"/>
	<path style="fill:#ED4C58;" d="M121.481,220.794c-0.25-0.05-0.5-0.07-0.74-0.07c-1.88,0-3.57,1.34-3.93,3.26
		c-0.41,2.17,1.02,4.26,3.19,4.67c0.25,0.05,0.5,0.07,0.75,0.07c0.94,0,1.83-0.34,2.53-0.91s1.21-1.39,1.39-2.34
		c0.05-0.25,0.07-0.5,0.07-0.75C124.741,222.834,123.411,221.154,121.481,220.794z"/>
	<path style="fill:#ED4C58;" d="M197.421,221.504c-0.49-1.79-2.1-2.97-3.87-2.97c-0.35,0-0.69,0.05-1.04,0.14c0,0.01,0,0.01,0,0.01
		c-2.13,0.57-3.39,2.76-2.82,4.9c0.24,0.89,0.76,1.63,1.45,2.15c0.68,0.51,1.52,0.81,2.41,0.81c0.34,0,0.69-0.05,1.04-0.14
		c1.79-0.48,2.97-2.09,2.97-3.86C197.561,222.194,197.511,221.855,197.421,221.504z"/>
	<path style="fill:#FFFFFF;" d="M109.821,218.154c-0.34-0.09-0.69-0.14-1.03-0.14c-1.76,0-3.38,1.19-3.86,2.98
		c-0.56,2.14,0.71,4.33,2.85,4.89c0.34,0.09,0.68,0.14,1.02,0.14c0.88,0,1.73-0.3,2.42-0.82c0.68-0.52,1.21-1.26,1.45-2.16
		c0.09-0.34,0.13-0.68,0.13-1.02C112.801,220.245,111.621,218.625,109.821,218.154z"/>
	<path style="fill:#FFFFFF;" d="M209.011,217.575c-0.58-1.64-2.12-2.66-3.76-2.66c-0.45,0-0.9,0.07-1.34,0.23
		c-2.09,0.73-3.18,3.02-2.44,5.1c0.29,0.82,0.82,1.49,1.48,1.95c0.67,0.46,1.47,0.72,2.29,0.72c0.44,0,0.89-0.08,1.33-0.23
		c1.65-0.58,2.67-2.13,2.67-3.77C209.241,218.464,209.171,218.015,209.011,217.575z"/>
	<path style="fill:#ED4C58;" d="M98.391,214.674c0,0.01,0,0.01,0,0.01c-0.43-0.15-0.87-0.22-1.3-0.22c-1.67,0-3.22,1.04-3.79,2.7
		c-0.72,2.08,0.4,4.36,2.48,5.08c0.43,0.15,0.87,0.22,1.31,0.22c0.83,0,1.63-0.26,2.3-0.73c0.67-0.47,1.19-1.14,1.48-1.97
		c0.15-0.43,0.22-0.87,0.22-1.3C101.091,216.794,100.051,215.245,98.391,214.674z"/>
	<path style="fill:#ED4C58;" d="M220.271,212.765c-0.66-1.49-2.12-2.38-3.66-2.38c-0.54,0-1.09,0.11-1.62,0.35
		c-2.02,0.89-2.93,3.25-2.04,5.27c0.33,0.75,0.86,1.34,1.5,1.75c0.65,0.41,1.39,0.63,2.16,0.63c0.54,0,1.09-0.11,1.62-0.34
		c1.49-0.66,2.38-2.13,2.38-3.66C220.611,213.834,220.501,213.294,220.271,212.765z"/>
	<path style="fill:#FFFFFF;" d="M87.241,210.375c-0.51-0.22-1.05-0.32-1.57-0.32c-1.55,0-3.03,0.9-3.68,2.42
		c-0.87,2.03,0.06,4.38,2.09,5.25c0.52,0.22,1.05,0.33,1.58,0.33c0.78,0,1.53-0.23,2.18-0.65c0.64-0.41,1.18-1.02,1.5-1.78
		c0.22-0.51,0.32-1.04,0.32-1.57C89.661,212.504,88.761,211.024,87.241,210.375z"/>
	<path style="fill:#ED4C58;" d="M236.241,206.334c0.59,0.33,1.26,0.5,1.93,0.5c0.64,0,1.3-0.16,1.9-0.5H236.241z"/>
	<path style="fill:#ED4C58;" d="M62.281,206.334c0.54,0.26,1.12,0.38,1.69,0.38c0.58,0,1.15-0.13,1.67-0.38H62.281z"/>
	<path style="fill:#ED4C58;" d="M77.751,206.335c0.55,0.7,0.85,1.57,0.85,2.46c0,0.63-0.14,1.26-0.45,1.85
		c-0.72,1.37-2.11,2.15-3.55,2.15c-0.63,0-1.26-0.15-1.85-0.45c-1.96-1.03-2.72-3.44-1.69-5.4c0.11-0.22,0.25-0.43,0.4-0.61
		L77.751,206.335L77.751,206.335z"/>
	<path style="fill:#FFFFFF;" d="M42.666,56.538V34.746c0-8.893,7.209-16.102,16.102-16.102h304.066
		c8.893,0,16.102,7.209,16.102,16.102v21.792c0,8.893-7.209,16.102-16.102,16.102H58.768C49.875,72.639,42.666,65.43,42.666,56.538z
		"/>
	<g>
		<path style="fill:#B17EE8;" d="M117.668,60.693c0,1.685-0.582,3.111-1.746,4.274c-1.165,1.165-2.589,1.746-4.274,1.746h-7.525
			c-1.686,0-3.111-0.581-4.275-1.746c-1.165-1.164-1.746-2.589-1.746-4.274V30.591c0-1.685,0.581-3.11,1.746-4.274
			c1.164-1.163,2.589-1.746,4.275-1.746h7.525c1.685,0,3.11,0.582,4.274,1.746c1.164,1.165,1.746,2.589,1.746,4.274v5.298h-4.515
			v-5.298c0-1.003-0.502-1.505-1.505-1.505h-7.525c-1.004,0-1.505,0.502-1.505,1.505v30.102c0,1.004,0.501,1.505,1.505,1.505h7.525
			c1.003,0,1.505-0.502,1.505-1.505v-5.298h4.515V60.693z"/>
		<path style="fill:#B17EE8;" d="M139.582,59.91h-11.619l-1.385,6.803h-4.575l9.03-42.142h5.479l9.03,42.142h-4.575L139.582,59.91z
			 M128.866,55.395h9.753l-4.877-23.78L128.866,55.395z"/>
		<path style="fill:#B17EE8;" d="M169.442,66.713h-3.793l-11.258-31.185v31.185h-4.515V24.571h4.997l10.054,28.416V24.571h4.515
			V66.713z"/>
		<path style="fill:#B17EE8;" d="M195.63,60.693c0,1.685-0.582,3.111-1.746,4.274c-1.165,1.165-2.589,1.746-4.274,1.746h-13.546
			V24.571h13.546c1.685,0,3.11,0.582,4.274,1.746c1.164,1.165,1.746,2.589,1.746,4.274V60.693z M191.115,30.591
			c0-1.003-0.502-1.505-1.505-1.505h-9.03v33.112h9.03c1.003,0,1.505-0.502,1.505-1.505V30.591z"/>
		<path style="fill:#B17EE8;" d="M221.758,24.571l-9.09,25.887v16.255h-4.455V50.458l-8.97-25.887h4.756l6.502,20.77l6.562-20.77
			C217.063,24.571,221.758,24.571,221.758,24.571z"/>
		<path style="fill:#B17EE8;" d="M240.42,54.672c0-0.843-0.241-1.505-0.723-1.987l-12.281-12.221
			c-0.642-0.602-1.144-1.364-1.505-2.288c-0.361-0.923-0.542-1.906-0.542-2.95V30.59c0-1.685,0.581-3.11,1.746-4.274
			c1.164-1.163,2.589-1.746,4.275-1.746h7.525c1.685,0,3.11,0.582,4.274,1.746c1.164,1.165,1.746,2.589,1.746,4.274v6.021h-4.515
			V30.59c0-1.003-0.502-1.505-1.505-1.505h-7.525c-1.004,0-1.505,0.502-1.505,1.505v4.636c0,0.803,0.241,1.445,0.722,1.927
			l12.281,12.221c0.642,0.602,1.144,1.375,1.505,2.318c0.361,0.944,0.542,1.937,0.542,2.98v6.021c0,1.685-0.582,3.111-1.746,4.274
			c-1.165,1.165-2.589,1.746-4.274,1.746h-7.525c-1.686,0-3.111-0.581-4.275-1.746c-1.165-1.164-1.746-2.589-1.746-4.274v-6.021
			h4.515v6.021c0,0.442,0.14,0.803,0.421,1.084c0.28,0.281,0.641,0.421,1.084,0.421h7.525c1.003,0,1.505-0.502,1.505-1.505v-6.021
			H240.42z"/>
		<path style="fill:#B17EE8;" d="M271.123,66.713h-4.515V46.665h-10.536v20.048h-4.515V24.571h4.515V42.15h10.536V24.571h4.515
			V66.713z"/>
		<path style="fill:#B17EE8;" d="M297.311,60.693c0,1.685-0.582,3.111-1.746,4.274c-1.165,1.165-2.589,1.746-4.274,1.746h-7.525
			c-1.686,0-3.111-0.581-4.275-1.746c-1.165-1.164-1.746-2.589-1.746-4.274V30.591c0-1.685,0.581-3.11,1.746-4.274
			c1.164-1.163,2.589-1.746,4.275-1.746h7.525c1.685,0,3.11,0.582,4.274,1.746c1.164,1.165,1.746,2.589,1.746,4.274V60.693z
			 M292.796,30.591c0-1.003-0.502-1.505-1.505-1.505h-7.525c-1.004,0-1.505,0.502-1.505,1.505v30.102
			c0,1.004,0.501,1.505,1.505,1.505h7.525c1.003,0,1.505-0.502,1.505-1.505V30.591z"/>
		<path style="fill:#B17EE8;" d="M323.5,44.558c0,0.843-0.161,1.626-0.481,2.348c-0.322,0.723-0.753,1.355-1.294,1.897
			c-0.542,0.542-1.174,0.974-1.897,1.294c-0.722,0.322-1.505,0.482-2.348,0.482h-9.03v16.134h-4.515V24.571h13.546
			c1.685,0,3.11,0.582,4.274,1.746c1.164,1.165,1.746,2.589,1.746,4.274L323.5,44.558L323.5,44.558z M318.985,30.591
			c0-1.003-0.502-1.505-1.505-1.505h-9.03v16.977h9.03c1.003,0,1.505-0.501,1.505-1.505V30.591z"/>
	</g>
	<g>
		<path style="fill:#F9C032;" d="M84.051,49.142h-24c-1.933,0-3.5-1.567-3.5-3.5l0,0c0-1.933,1.567-3.5,3.5-3.5h24
			c1.933,0,3.5,1.567,3.5,3.5l0,0C87.551,47.575,85.984,49.142,84.051,49.142z"/>
		<path style="fill:#F9C032;" d="M361.551,49.142h-24c-1.933,0-3.5-1.567-3.5-3.5l0,0c0-1.933,1.567-3.5,3.5-3.5h24
			c1.933,0,3.5,1.567,3.5,3.5l0,0C365.051,47.575,363.484,49.142,361.551,49.142z"/>
	</g>
</g>
<g>
</g>
<g>
</g>
<g>
</g>
<g>
</g>
<g>
</g>
<g>
</g>
<g>
</g>
<g>
</g>
<g>
</g>
<g>
</g>
<g>
</g>
<g>
</g>
<g>
</g>
<g>
</g>
<g>
</g>
</svg>
