<svg width="333" height="90" viewBox="0 0 333 90" fill="none" xmlns="http://www.w3.org/2000/svg">
<g filter="url(#filter0_d)">
<path d="M92.7363 33.6133C92.7363 35.543 92.6009 37.4219 92.3301 39.25C92.0931 41.0443 91.7376 42.8724 91.2637 44.7344C90.8236 45.0729 90.5527 45.4961 90.4512 46.0039C90.3496 46.5117 90.1803 46.9857 89.9434 47.4258C89.7402 47.7982 89.4694 48.2044 89.1309 48.6445C88.7923 49.0508 88.4199 49.4909 88.0137 49.9648C87.6074 50.4049 87.2012 50.862 86.7949 51.3359C86.3887 51.8099 86.0501 52.2839 85.7793 52.7578C84.7637 53.0964 84.0358 53.8242 83.5957 54.9414C83.054 55.1445 82.4954 55.3815 81.9199 55.6523C81.3444 55.8893 80.9382 56.3125 80.7012 56.9219C79.4486 57.5651 78.2637 58.3099 77.1465 59.1562C76.0632 59.9688 74.8783 60.6797 73.5918 61.2891C73.4225 61.4583 73.2194 61.5938 72.9824 61.6953C72.7793 61.763 72.5592 61.8477 72.3223 61.9492C72.1191 62.0508 71.916 62.1693 71.7129 62.3047C71.5436 62.474 71.4421 62.6771 71.4082 62.9141C71.2728 62.9141 71.1712 62.8802 71.1035 62.8125C71.0697 62.7786 70.9681 62.7448 70.7988 62.7109C70.4264 62.9141 70.2572 63.2357 70.291 63.6758C70.1556 63.6081 69.9694 63.5742 69.7324 63.5742C69.3262 63.5742 68.9199 63.6927 68.5137 63.9297C68.1413 64.2005 67.8197 64.4714 67.5488 64.7422C67.1426 64.9453 66.6686 65.1484 66.127 65.3516C65.6191 65.5547 65.2467 65.8932 65.0098 66.3672C64.8743 66.2318 64.6712 66.1641 64.4004 66.1641C64.0957 66.1641 63.7741 66.2487 63.4355 66.418C63.097 66.6211 62.8431 66.8411 62.6738 67.0781C62.1999 67.0781 61.7428 67.1458 61.3027 67.2812C60.8965 67.4505 60.4733 67.6029 60.0332 67.7383C59.5931 67.9076 59.153 68.0599 58.7129 68.1953C58.3066 68.3307 57.8665 68.3984 57.3926 68.3984C57.1217 68.3984 56.9186 68.3307 56.7832 68.1953C56.6478 68.0599 56.4785 67.9414 56.2754 67.8398C56.1061 67.9753 55.8014 68.1276 55.3613 68.2969C54.9551 68.4661 54.6504 68.5508 54.4473 68.5508C54.0749 68.5508 53.7025 68.5 53.3301 68.3984C52.9915 68.2969 52.6361 68.1784 52.2637 68.043L51.1973 67.6875C50.8587 67.5859 50.4863 67.5182 50.0801 67.4844C49.7754 67.2135 49.403 66.9258 48.9629 66.6211C48.5566 66.3503 48.1504 66.2656 47.7441 66.3672C47.5749 65.8594 47.321 65.4193 46.9824 65.0469C46.6439 64.6745 46.2546 64.3359 45.8145 64.0312C45.7129 63.9635 45.5944 63.8958 45.459 63.8281C45.3574 63.7943 45.2728 63.7435 45.2051 63.6758C45.0358 63.5742 44.8835 63.3711 44.748 63.0664C44.6126 62.7617 44.4603 62.6094 44.291 62.6094C44.2572 62.6094 44.2064 62.6263 44.1387 62.6602C44.1048 62.694 44.071 62.7109 44.0371 62.7109C43.9694 62.4062 43.8678 62.1185 43.7324 61.8477C43.597 61.543 43.36 61.3568 43.0215 61.2891C42.7507 60.4089 42.5645 59.5286 42.4629 58.6484C42.3613 57.7682 42.2259 56.888 42.0566 56.0078C41.9889 55.737 41.9043 55.4154 41.8027 55.043C41.735 54.6367 41.7012 54.2812 41.7012 53.9766C41.7012 53.4688 41.7689 52.8594 41.9043 52.1484C42.0736 51.4375 42.209 50.8112 42.3105 50.2695C42.7168 48.306 43.2585 46.4102 43.9355 44.582C44.6126 42.7201 45.3405 40.875 46.1191 39.0469C46.9316 37.2188 47.7611 35.4076 48.6074 33.6133C49.4538 31.819 50.2493 29.9909 50.9941 28.1289C51.1296 28.1289 51.2142 28.0951 51.248 28.0273L51.4004 27.7734C51.4681 27.6719 51.5189 27.5872 51.5527 27.5195C51.6204 27.4518 51.7389 27.418 51.9082 27.418V27.2656C51.8743 27.0625 51.9082 26.8932 52.0098 26.7578C52.1452 26.6224 52.179 26.4023 52.1113 26.0977C52.653 25.4883 53.11 24.8112 53.4824 24.0664C53.8548 23.2878 54.2272 22.526 54.5996 21.7812C55.0059 21.0365 55.429 20.3086 55.8691 19.5977C56.3092 18.8867 56.8678 18.2773 57.5449 17.7695V17.4141C57.5111 17.2448 57.5111 17.0755 57.5449 16.9062C57.6126 16.7031 57.7311 16.5677 57.9004 16.5C58.5098 15.8906 59.0176 15.2812 59.4238 14.6719C59.8301 14.0625 60.2363 13.4701 60.6426 12.8945C61.0827 12.2852 61.5566 11.7266 62.0645 11.2188C62.6061 10.6771 63.2832 10.1862 64.0957 9.74609C64.4681 9.57682 64.7389 9.32292 64.9082 8.98438C65.0775 8.64583 65.2975 8.40885 65.5684 8.27344C65.7038 8.20573 65.8392 8.17188 65.9746 8.17188C66.1439 8.13802 66.2962 8.08724 66.4316 8.01953C67.0072 7.85026 67.5827 7.64714 68.1582 7.41016C68.7337 7.13932 69.3431 7.00391 69.9863 7.00391C70.7988 7.00391 71.4082 7.24089 71.8145 7.71484C72.2546 8.15495 72.5931 8.69661 72.8301 9.33984C73.1009 9.98307 73.321 10.6602 73.4902 11.3711C73.6595 12.082 73.9303 12.6914 74.3027 13.1992C75.3184 13.2669 76.3509 13.3854 77.4004 13.5547C78.4499 13.6901 79.3639 14.1133 80.1426 14.8242C80.2103 14.8581 80.2949 14.875 80.3965 14.875C80.5658 14.875 80.6504 14.8073 80.6504 14.6719C80.6504 14.5365 80.735 14.4688 80.9043 14.4688H81.0566C82.0723 15.0781 83.0371 15.7552 83.9512 16.5C84.8991 17.2109 85.8301 17.9557 86.7441 18.7344C86.9134 18.8698 87.0827 19.0052 87.252 19.1406C87.4551 19.2422 87.6243 19.3776 87.7598 19.5469C87.929 19.75 88.0814 19.987 88.2168 20.2578C88.3861 20.5286 88.5384 20.7656 88.6738 20.9688C90.3665 23.9141 91.5007 27.0794 92.0762 30.4648C92.1439 30.8372 92.1947 31.1927 92.2285 31.5312C92.2962 31.8698 92.3301 32.1914 92.3301 32.4961C92.3301 32.8008 92.3978 33.0039 92.5332 33.1055C92.6686 33.1732 92.7363 33.3424 92.7363 33.6133ZM88.8262 36.2031C88.8262 34.849 88.6569 33.5456 88.3184 32.293C88.4876 32.2253 88.5892 32.1237 88.623 31.9883C88.6908 31.819 88.7246 31.6497 88.7246 31.4805V31.2266L88.1152 30.1094C88.0814 29.6354 87.9798 29.1953 87.8105 28.7891C87.6751 28.3828 87.5059 27.9766 87.3027 27.5703C87.0996 27.1641 86.8965 26.7578 86.6934 26.3516C86.5241 25.9453 86.4056 25.5052 86.3379 25.0312C85.7962 24.625 85.3053 24.168 84.8652 23.6602C84.459 23.1185 84.0866 22.5599 83.748 21.9844C83.5111 21.8828 83.291 21.8151 83.0879 21.7812C82.8848 21.7474 82.8171 21.5612 82.8848 21.2227C82.2754 21.0534 81.7168 20.8164 81.209 20.5117C80.735 20.1732 80.2611 19.8008 79.7871 19.3945C79.0085 19.2253 78.2298 19.0221 77.4512 18.7852C76.7064 18.5143 75.9447 18.3789 75.166 18.3789C74.6243 18.3789 74.0996 18.4805 73.5918 18.6836C73.7611 18.9544 73.8457 19.2591 73.8457 19.5977C73.8457 19.9023 73.8796 20.207 73.9473 20.5117C75.0306 20.7826 75.6908 21.4427 75.9277 22.4922C75.7585 22.5938 75.6061 22.7292 75.4707 22.8984C75.3353 23.0339 75.1999 23.1693 75.0645 23.3047C74.9629 23.4062 74.8275 23.5078 74.6582 23.6094C74.4889 23.7109 74.2858 23.7617 74.0488 23.7617C73.5749 23.7617 73.2025 23.6771 72.9316 23.5078C72.6947 23.3385 72.3053 23.3047 71.7637 23.4062C71.1882 22.8984 70.6296 22.3737 70.0879 21.832C69.5462 21.2565 68.9368 20.7487 68.2598 20.3086C68.1582 19.9701 67.9889 19.6654 67.752 19.3945C67.5488 19.1237 67.3288 18.8698 67.0918 18.6328C66.8887 18.362 66.6855 18.0911 66.4824 17.8203C66.3132 17.5156 66.2285 17.1771 66.2285 16.8047C66.2285 16.5677 66.2454 16.3984 66.2793 16.2969C66.0762 16.2292 65.9238 16.1953 65.8223 16.1953C65.5514 16.1953 65.2975 16.2969 65.0605 16.5C64.8236 16.6693 64.5527 16.7878 64.248 16.8555C63.9772 17.668 63.5879 18.3789 63.0801 18.9883C62.5723 19.5977 62.0475 20.1901 61.5059 20.7656C60.9642 21.3411 60.4564 21.9505 59.9824 22.5938C59.5423 23.2031 59.2207 23.9648 59.0176 24.8789C57.9342 26.2331 56.9355 27.7734 56.0215 29.5C55.1074 31.1927 54.4134 32.8516 53.9395 34.4766C53.1608 35.3568 52.5514 36.2878 52.1113 37.2695C51.6712 38.2513 51.4173 39.3346 51.3496 40.5195C51.1803 40.6211 51.0449 40.7565 50.9434 40.9258L50.4355 41.9414C50.3678 42.1107 50.2493 42.2461 50.0801 42.3477V42.6016C50.0801 42.8724 50.0293 43.1263 49.9277 43.3633C49.8262 43.5664 49.7077 43.7695 49.5723 43.9727C49.4707 44.1758 49.3691 44.3789 49.2676 44.582C49.166 44.7513 49.1152 44.9544 49.1152 45.1914C49.1152 45.4622 49.1829 45.7331 49.3184 46.0039C48.946 46.0716 48.6921 46.2747 48.5566 46.6133C48.4551 46.918 48.3027 47.1888 48.0996 47.4258C47.9642 48.5091 47.8288 49.6094 47.6934 50.7266C47.5579 51.8438 47.4902 52.944 47.4902 54.0273C47.4902 55.2799 47.6257 56.5495 47.8965 57.8359C48.2012 58.1406 48.472 58.4792 48.709 58.8516C48.946 59.224 49.1829 59.5794 49.4199 59.918C49.6908 60.2565 49.9785 60.5612 50.2832 60.832C50.5879 61.069 50.9941 61.2214 51.502 61.2891C51.502 61.526 51.5527 61.6953 51.6543 61.7969C51.7559 61.8984 51.8405 62.0339 51.9082 62.2031C52.6191 62.4401 53.3639 62.6263 54.1426 62.7617C54.9212 62.931 55.6999 63.0156 56.4785 63.0156C57.0202 63.0156 57.5618 62.9479 58.1035 62.8125C58.679 62.6771 59.153 62.4062 59.5254 62C61.252 61.9323 62.9616 61.526 64.6543 60.7812C66.3809 60.0365 67.9551 59.224 69.377 58.3438H70.4434C70.8158 57.8359 71.2728 57.4297 71.8145 57.125C72.3561 56.7865 72.9147 56.4818 73.4902 56.2109C73.5918 56.1432 73.7272 56.0755 73.8965 56.0078C74.0658 55.9401 74.2012 55.8724 74.3027 55.8047C74.6751 55.5339 75.0475 55.2292 75.4199 54.8906C75.8262 54.5521 76.2324 54.2305 76.6387 53.9258C77.3158 53.418 78.0098 52.9271 78.7207 52.4531C79.4316 51.9792 80.1087 51.4714 80.752 50.9297C81.429 50.388 82.0553 49.8125 82.6309 49.2031C83.2402 48.5599 83.748 47.849 84.1543 47.0703C84.3574 47.0703 84.5098 47.0195 84.6113 46.918C84.7467 46.7826 84.8483 46.6471 84.916 46.5117C85.0176 46.3763 85.1191 46.2578 85.2207 46.1562C85.3561 46.0547 85.5423 46.0039 85.7793 46.0039C85.7793 45.6992 85.8301 45.4453 85.9316 45.2422C86.0671 45.0052 86.2025 44.8021 86.3379 44.6328C86.5072 44.4297 86.6595 44.2435 86.7949 44.0742C86.9642 43.9049 87.1165 43.6849 87.252 43.4141V41.9922C87.7936 41.112 88.1829 40.181 88.4199 39.1992C88.6908 38.2174 88.8262 37.2188 88.8262 36.2031ZM138.947 29.5508H138.744C138.676 29.5169 138.609 29.5169 138.541 29.5508C138.473 29.5846 138.439 29.6354 138.439 29.7031C138.507 29.974 138.541 30.1602 138.541 30.2617C138.541 30.668 138.406 31.0234 138.135 31.3281C137.898 31.599 137.779 31.8359 137.779 32.0391C137.779 32.1406 137.83 32.2253 137.932 32.293C138.067 32.3607 138.169 32.4115 138.236 32.4453C138.067 32.6484 137.915 32.8685 137.779 33.1055C137.644 33.3424 137.492 33.5456 137.322 33.7148C137.39 34.8997 137.525 36.0677 137.729 37.2188C137.965 38.3359 138.084 39.4701 138.084 40.6211C138.084 41.1966 138.016 41.7721 137.881 42.3477C137.779 42.8893 137.661 43.4479 137.525 44.0234C137.39 44.5651 137.255 45.1237 137.119 45.6992C137.018 46.2409 136.967 46.7995 136.967 47.375C136.527 48.2552 136.053 49.1016 135.545 49.9141C135.037 50.6927 134.665 51.556 134.428 52.5039C133.649 52.9779 132.972 53.5703 132.396 54.2812C131.855 54.9583 131.313 55.6354 130.771 56.3125C129.587 56.7188 128.503 57.2604 127.521 57.9375C127.352 57.9714 127.2 57.9883 127.064 57.9883H126.658C125.372 57.9883 124.271 57.7513 123.357 57.2773C122.443 56.8034 121.648 56.194 120.971 55.4492C120.327 54.6706 119.769 53.7904 119.295 52.8086C118.821 51.8268 118.381 50.8112 117.975 49.7617C117.196 50.3372 116.485 50.9974 115.842 51.7422C115.232 52.4531 114.606 53.1641 113.963 53.875C113.76 54.1458 113.506 54.4674 113.201 54.8398C112.93 55.1784 112.66 55.4323 112.389 55.6016C112.253 55.6693 112.101 55.737 111.932 55.8047C111.796 55.8385 111.644 55.8893 111.475 55.957C110.527 56.4987 109.782 57.2266 109.24 58.1406C108.563 58.4115 107.903 58.7161 107.26 59.0547C106.65 59.3932 106.058 59.7487 105.482 60.1211C104.839 60.1549 104.196 60.2057 103.553 60.2734C102.943 60.3073 102.334 60.3242 101.725 60.3242C100.777 60.3242 100.1 60.2734 99.6934 60.1719C99.321 60.0365 99.0163 59.8841 98.7793 59.7148C98.5762 59.5117 98.3561 59.2747 98.1191 59.0039C97.916 58.7331 97.5098 58.4453 96.9004 58.1406C96.7311 57.7005 96.5618 57.2604 96.3926 56.8203C96.2572 56.3802 96.054 55.974 95.7832 55.6016V54.8906C95.7832 54.5859 95.7663 54.2982 95.7324 54.0273C95.7324 53.7565 95.6816 53.5195 95.5801 53.3164C95.4785 53.0794 95.3092 52.9271 95.0723 52.8594C95.0723 51.6068 95.2246 50.3711 95.5293 49.1523C95.834 47.9336 96.0879 46.6979 96.291 45.4453C96.4603 44.7344 96.5618 44.0065 96.5957 43.2617C96.6296 43.0924 96.6465 42.9062 96.6465 42.7031C96.6465 42.5 96.6803 42.2969 96.748 42.0938C96.8158 41.8906 96.9342 41.7214 97.1035 41.5859C97.2728 41.4505 97.3913 41.2474 97.459 40.9766C97.6283 40.5026 97.7298 39.9779 97.7637 39.4023C97.7975 38.8268 97.8483 38.2852 97.916 37.7773C98.0853 36.7617 98.2715 35.7461 98.4746 34.7305C98.7116 33.7148 98.9824 32.7161 99.2871 31.7344C99.2533 31.5651 99.2363 31.4128 99.2363 31.2773V30.7695C99.2363 29.4831 99.321 28.2305 99.4902 27.0117C99.6934 25.793 99.7949 24.5404 99.7949 23.2539C99.7949 22.6445 99.7441 22.0013 99.6426 21.3242C99.8118 20.9857 99.998 20.681 100.201 20.4102C100.438 20.1055 100.743 19.8685 101.115 19.6992C101.826 20.0716 102.52 20.4779 103.197 20.918C103.908 21.3242 104.585 21.7812 105.229 22.2891V23.5078C105.229 24.4896 105.195 25.5391 105.127 26.6562C105.093 27.7396 104.992 28.8398 104.822 29.957C104.687 31.0742 104.501 32.1576 104.264 33.207C104.027 34.2565 103.705 35.2214 103.299 36.1016V37.7266C102.689 38.8099 102.283 39.944 102.08 41.1289C101.877 42.3138 101.64 43.4987 101.369 44.6836C101.301 45.056 101.166 45.4961 100.963 46.0039C100.76 46.5117 100.658 46.9518 100.658 47.3242C100.658 47.4935 100.675 47.6628 100.709 47.832C100.777 48.0013 100.827 48.1706 100.861 48.3398C100.59 48.9492 100.438 49.6094 100.404 50.3203C100.404 50.9974 100.32 51.6745 100.15 52.3516C100.421 52.7917 100.658 53.2656 100.861 53.7734C101.098 54.2474 101.352 54.7383 101.623 55.2461L102.131 55.1953C102.436 55.1953 102.757 55.2292 103.096 55.2969C103.434 55.3307 103.756 55.3477 104.061 55.3477C104.23 55.3477 104.399 55.3477 104.568 55.3477C104.738 55.3138 104.907 55.2799 105.076 55.2461C105.279 54.8737 105.55 54.5859 105.889 54.3828C106.227 54.1458 106.566 53.9427 106.904 53.7734C107.277 53.6042 107.615 53.418 107.92 53.2148C108.258 53.0117 108.529 52.724 108.732 52.3516H109.443C109.511 52.25 109.63 52.1146 109.799 51.9453C110.002 51.776 110.188 51.6068 110.357 51.4375C110.527 51.2682 110.662 51.099 110.764 50.9297C110.899 50.7604 110.95 50.625 110.916 50.5234C111.322 50.3542 111.661 50.1341 111.932 49.8633C112.236 49.5586 112.524 49.2539 112.795 48.9492C113.066 48.6107 113.337 48.2891 113.607 47.9844C113.878 47.6797 114.2 47.4258 114.572 47.2227C114.538 47.1549 114.521 47.0703 114.521 46.9688C114.521 46.6641 114.606 46.4271 114.775 46.2578C114.979 46.0885 115.029 45.7839 114.928 45.3438L115.08 45.3945C115.249 45.3945 115.368 45.3438 115.436 45.2422C115.503 45.1406 115.554 45.0221 115.588 44.8867C115.656 44.7513 115.723 44.6328 115.791 44.5312C115.893 44.3958 116.028 44.3112 116.197 44.2773V44.1758C116.197 43.5664 116.316 42.9909 116.553 42.4492C116.824 41.9076 116.959 41.332 116.959 40.7227C116.959 40.5534 116.942 40.401 116.908 40.2656C116.874 40.0964 116.824 39.9271 116.756 39.7578C117.061 39.4193 117.247 39.0299 117.314 38.5898C117.416 38.1497 117.467 37.6927 117.467 37.2188C117.501 36.7448 117.535 36.2708 117.568 35.7969C117.602 35.3229 117.738 34.8659 117.975 34.4258C117.975 34.0872 117.856 33.8503 117.619 33.7148L118.229 32.9023C118.432 32.6315 118.669 32.4115 118.939 32.2422H119.041C119.413 32.2422 119.735 32.3438 120.006 32.5469C120.311 32.7161 120.581 32.9193 120.818 33.1562C121.089 33.3594 121.36 33.5794 121.631 33.8164C121.902 34.0195 122.206 34.1719 122.545 34.2734V35.3906C122.883 35.526 123.137 35.763 123.307 36.1016C123.273 37.0156 123.239 37.9297 123.205 38.8438C123.205 39.7578 123.205 40.6549 123.205 41.5352C123.205 42.8893 123.239 44.2435 123.307 45.5977C123.374 46.918 123.544 48.2383 123.814 49.5586C124.187 49.931 124.559 50.3034 124.932 50.6758C125.338 51.0482 125.643 51.4714 125.846 51.9453H126.455C127.64 51.9453 128.554 51.5729 129.197 50.8281C129.84 50.0495 130.298 49.1523 130.568 48.1367C131.076 47.8997 131.449 47.5781 131.686 47.1719C131.956 46.7318 132.16 46.2578 132.295 45.75C132.464 45.2422 132.6 44.7344 132.701 44.2266C132.837 43.6849 133.04 43.2109 133.311 42.8047C133.344 42.3984 133.361 41.9922 133.361 41.5859V40.3164C133.361 38.3529 133.26 36.4062 133.057 34.4766C132.887 32.513 132.786 30.5664 132.752 28.6367C132.617 28.3659 132.515 28.0443 132.447 27.6719L132.295 26.5547C132.261 26.1823 132.176 25.8438 132.041 25.5391C131.939 25.2005 131.77 24.9635 131.533 24.8281C131.635 24.4896 131.686 24.0833 131.686 23.6094C131.686 23.1693 131.635 22.7292 131.533 22.2891C131.465 21.849 131.381 21.4089 131.279 20.9688C131.55 20.7318 131.77 20.4948 131.939 20.2578C132.109 20.0208 132.396 19.9023 132.803 19.9023C133.04 19.9023 133.243 19.9701 133.412 20.1055C133.615 20.2409 133.801 20.3932 133.971 20.5625C134.14 20.7318 134.309 20.8841 134.479 21.0195C134.682 21.1549 134.919 21.2227 135.189 21.2227C135.257 21.2227 135.325 21.2227 135.393 21.2227C135.494 21.1888 135.596 21.1719 135.697 21.1719C136.036 21.5104 136.307 21.9336 136.51 22.4414C136.747 22.9492 136.95 23.4909 137.119 24.0664C137.322 24.6081 137.525 25.1497 137.729 25.6914C137.965 26.2331 138.253 26.724 138.592 27.1641C138.592 27.2656 138.575 27.3672 138.541 27.4688C138.541 27.5365 138.541 27.6211 138.541 27.7227C138.541 28.0273 138.592 28.332 138.693 28.6367C138.795 28.9414 138.88 29.2461 138.947 29.5508ZM175.611 28.6367C175.544 29.043 175.442 29.3984 175.307 29.7031C175.205 29.974 175.188 30.3464 175.256 30.8203C174.917 30.8542 174.646 30.9727 174.443 31.1758C174.274 31.3451 174.122 31.5482 173.986 31.7852C173.885 32.0221 173.766 32.276 173.631 32.5469C173.529 32.7839 173.394 33.0039 173.225 33.207C173.495 34.4258 173.648 35.6615 173.682 36.9141C173.715 38.1667 173.8 39.4023 173.936 40.6211C174.105 42.1784 174.359 43.7188 174.697 45.2422C175.07 46.7318 175.256 48.2552 175.256 49.8125C175.256 50.2865 175.239 50.7266 175.205 51.1328C175.205 51.5391 175.205 51.9622 175.205 52.4023C175.205 52.6732 175.205 52.9609 175.205 53.2656C175.239 53.5365 175.256 53.8073 175.256 54.0781C175.256 55.0599 175.12 56.0417 174.85 57.0234C174.613 58.0052 174.426 58.987 174.291 59.9688C173.885 60.3411 173.529 60.7474 173.225 61.1875C172.954 61.6276 172.666 62.0339 172.361 62.4062C172.057 62.7786 171.701 63.1003 171.295 63.3711C170.889 63.6758 170.381 63.8789 169.771 63.9805C169.67 64.319 169.467 64.5729 169.162 64.7422C168.891 64.9115 168.654 65.1484 168.451 65.4531H168.35C167.503 65.4531 166.775 65.3346 166.166 65.0977C165.557 64.8607 164.981 64.5898 164.439 64.2852C163.932 63.9805 163.407 63.6589 162.865 63.3203C162.324 62.9818 161.697 62.7109 160.986 62.5078C160.038 61.7292 159.175 60.8828 158.396 59.9688C157.618 59.0208 156.738 58.1745 155.756 57.4297C155.519 56.7526 155.197 56.194 154.791 55.7539C154.419 55.3138 154.046 54.806 153.674 54.2305C153.505 53.9935 153.369 53.7734 153.268 53.5703C153.2 53.3672 153.098 53.1302 152.963 52.8594C152.861 52.5885 152.692 52.4023 152.455 52.3008C152.252 52.1992 152.066 52.0807 151.896 51.9453C151.626 50.8958 151.236 49.931 150.729 49.0508C150.221 48.1706 149.628 47.3242 148.951 46.5117C148.748 46.8841 148.579 47.2904 148.443 47.7305C148.342 48.1367 148.24 48.5599 148.139 49C148.037 49.4062 147.902 49.8294 147.732 50.2695C147.597 50.6758 147.411 51.0482 147.174 51.3867V51.5391C147.174 51.7083 147.242 51.8099 147.377 51.8438C147.512 51.8776 147.58 51.9792 147.58 52.1484C147.58 52.1823 147.563 52.2161 147.529 52.25C147.529 52.2839 147.529 52.3177 147.529 52.3516C147.36 52.487 147.225 52.6562 147.123 52.8594C147.055 53.0625 146.886 53.181 146.615 53.2148C146.649 53.3841 146.666 53.5534 146.666 53.7227V54.1797C146.666 55.1615 146.548 56.1432 146.311 57.125C146.107 58.1068 146.006 59.1055 146.006 60.1211V60.7812C146.006 61.0182 146.023 61.2383 146.057 61.4414C146.124 61.6445 146.226 61.8477 146.361 62.0508C146.497 62.2539 146.564 62.4401 146.564 62.6094C146.564 62.8464 146.463 63.0664 146.26 63.2695C146.497 63.4388 146.768 63.625 147.072 63.8281C147.377 64.0312 147.648 64.2513 147.885 64.4883C148.156 64.7591 148.376 65.0299 148.545 65.3008C148.714 65.6055 148.799 65.9271 148.799 66.2656C148.799 66.8411 148.613 67.2474 148.24 67.4844C147.868 67.7214 147.411 67.9076 146.869 68.043C146.361 68.1784 145.82 68.2969 145.244 68.3984C144.702 68.5339 144.245 68.7539 143.873 69.0586H143.721C143.314 69.0586 143.01 68.9401 142.807 68.7031C142.604 68.4661 142.299 68.3477 141.893 68.3477C141.249 67.2982 140.809 66.1133 140.572 64.793C140.335 63.5065 140.217 62.2708 140.217 61.0859C140.217 59.6302 140.352 58.1745 140.623 56.7188C140.86 55.263 141.165 53.8242 141.537 52.4023C141.876 50.9805 142.248 49.5755 142.654 48.1875C143.094 46.7656 143.501 45.3438 143.873 43.9219L143.924 43.7695C143.924 43.6003 143.873 43.4818 143.771 43.4141C143.704 43.3464 143.67 43.2448 143.67 43.1094C143.67 43.0417 143.687 43.0078 143.721 43.0078C143.822 42.6693 143.924 42.3477 144.025 42.043C144.161 41.7383 144.262 41.3997 144.33 41.0273C144.533 40.0794 144.669 39.1146 144.736 38.1328C144.838 37.1172 144.889 36.1185 144.889 35.1367C144.923 34.1549 144.956 33.1732 144.99 32.1914C145.058 31.1758 145.176 30.1771 145.346 29.1953C145.617 28.9245 145.87 28.6367 146.107 28.332C146.344 28.0273 146.649 27.7565 147.021 27.5195C147.699 27.5534 148.376 27.6549 149.053 27.8242C149.73 27.9935 150.373 28.2643 150.982 28.6367C151.389 30.0924 151.66 31.5482 151.795 33.0039C151.964 34.4596 152.235 35.9154 152.607 37.3711V37.5234C152.607 37.6927 152.692 37.7773 152.861 37.7773C153.064 37.7435 153.217 37.7943 153.318 37.9297C153.251 38.0312 153.2 38.1497 153.166 38.2852C153.166 38.4206 153.166 38.556 153.166 38.6914V39.5547C153.234 39.8255 153.318 40.1133 153.42 40.418C153.521 40.7227 153.742 40.9089 154.08 40.9766C154.249 42.0599 154.503 43.0586 154.842 43.9727C155.18 44.8867 155.57 45.7669 156.01 46.6133C156.45 47.4596 156.924 48.306 157.432 49.1523C157.939 49.9648 158.464 50.8281 159.006 51.7422C159.852 52.3854 160.58 53.1302 161.189 53.9766C161.799 54.7891 162.408 55.5846 163.018 56.3633C163.661 57.1081 164.372 57.7682 165.15 58.3438C165.963 58.9193 167.012 59.2747 168.299 59.4102C168.468 59.2747 168.587 59.0885 168.654 58.8516L168.908 58.1406C169.01 57.9036 169.111 57.7005 169.213 57.5312C169.348 57.3281 169.535 57.1758 169.771 57.0742C169.839 56.1263 169.907 55.1615 169.975 54.1797C170.076 53.1979 170.296 52.2669 170.635 51.3867C170.465 51.082 170.381 50.7096 170.381 50.2695C170.381 49.931 170.398 49.6094 170.432 49.3047C170.499 49 170.533 48.6953 170.533 48.3906C170.533 47.7474 170.398 47.2227 170.127 46.8164C170.127 46.5794 170.144 46.3424 170.178 46.1055C170.212 45.8346 170.313 45.5807 170.482 45.3438C170.212 44.6667 169.992 43.9557 169.822 43.2109C169.687 42.4661 169.619 41.7044 169.619 40.9258C169.619 40.4857 169.67 40.0286 169.771 39.5547C169.568 39.0469 169.433 38.4544 169.365 37.7773L169.162 35.6953C169.094 34.9844 168.993 34.3242 168.857 33.7148C168.722 33.1055 168.468 32.6146 168.096 32.2422C168.299 31.9375 168.4 31.582 168.4 31.1758C168.4 30.4987 168.299 29.8555 168.096 29.2461C167.893 28.6367 167.791 27.9935 167.791 27.3164C167.791 26.8424 167.893 26.3685 168.096 25.8945C168.84 25.9284 169.568 26.013 170.279 26.1484C171.024 26.25 171.752 26.3008 172.463 26.3008C172.666 26.5716 172.903 26.7917 173.174 26.9609C173.445 27.1302 173.732 27.2995 174.037 27.4688C174.342 27.6042 174.63 27.7565 174.9 27.9258C175.205 28.0951 175.442 28.332 175.611 28.6367ZM255.592 75.1523C255.592 75.457 255.473 75.7279 255.236 75.9648C255.033 76.2018 254.779 76.388 254.475 76.5234C254.17 76.6927 253.848 76.8451 253.51 76.9805C253.205 77.1159 252.934 77.2344 252.697 77.3359C252.325 77.1328 251.936 76.9974 251.529 76.9297C251.157 76.862 250.818 76.6927 250.514 76.4219H250.158C249.617 76.4219 249.193 76.4896 248.889 76.625C248.415 76.4557 248.025 76.2018 247.721 75.8633C247.416 75.5586 247.128 75.2201 246.857 74.8477C246.587 74.5091 246.316 74.1706 246.045 73.832C245.774 73.4935 245.436 73.2057 245.029 72.9688C244.42 71.276 243.878 69.5664 243.404 67.8398C242.93 66.1133 242.575 64.3529 242.338 62.5586C242.406 62.3893 242.456 62.2031 242.49 62C242.524 61.7969 242.541 61.6107 242.541 61.4414C242.541 61.306 242.507 61.1706 242.439 61.0352C242.406 60.8659 242.304 60.7643 242.135 60.7305C242.304 60.4596 242.406 60.1549 242.439 59.8164C242.507 59.444 242.541 59.1055 242.541 58.8008C242.541 58.1237 242.473 57.5651 242.338 57.125C242.541 56.9557 242.626 56.6849 242.592 56.3125C242.558 55.9062 242.643 55.6185 242.846 55.4492C242.676 54.8737 242.592 54.3151 242.592 53.7734C242.592 53.0286 242.676 52.3008 242.846 51.5898C243.049 50.8789 243.15 50.151 243.15 49.4062C243.15 49.237 243.133 49.0677 243.1 48.8984C243.1 48.7292 243.083 48.5599 243.049 48.3906C243.218 47.849 243.37 47.3073 243.506 46.7656C243.675 46.1901 243.76 45.6146 243.76 45.0391C243.76 44.6328 243.692 44.2943 243.557 44.0234C243.997 42.4661 244.301 40.9258 244.471 39.4023C244.674 37.8451 244.86 36.2708 245.029 34.6797C244.995 34.612 244.962 34.5612 244.928 34.5273C244.894 34.4935 244.877 34.4427 244.877 34.375C244.877 34.2057 244.962 34.0703 245.131 33.9688C245.334 33.8672 245.419 33.681 245.385 33.4102C244.979 33.8164 244.64 34.2904 244.369 34.832C244.132 35.3737 243.895 35.9154 243.658 36.457C243.455 36.9987 243.218 37.5404 242.947 38.082C242.71 38.5898 242.389 39.0469 241.982 39.4531C241.949 39.8255 241.83 40.181 241.627 40.5195C241.458 40.8581 241.373 41.2305 241.373 41.6367C241.339 41.6367 241.305 41.6367 241.271 41.6367C241.238 41.6029 241.187 41.5859 241.119 41.5859C240.984 41.5859 240.882 41.6706 240.814 41.8398C240.781 42.0091 240.679 42.0599 240.51 41.9922C239.731 43.5156 238.868 45.0052 237.92 46.4609C237.006 47.9167 235.804 49.0846 234.314 49.9648C234.044 49.8633 233.79 49.8125 233.553 49.8125C233.113 49.8125 232.673 49.9479 232.232 50.2188C231.826 50.4557 231.555 50.5742 231.42 50.5742C231.081 50.5742 230.658 50.4049 230.15 50.0664C229.676 49.694 229.186 49.4909 228.678 49.457C228.136 49.0846 227.679 48.7122 227.307 48.3398C226.968 47.9336 226.443 47.6966 225.732 47.6289C225.258 46.918 224.785 46.2409 224.311 45.5977C223.87 44.9544 223.43 44.3281 222.99 43.7188C222.584 43.0755 222.212 42.3984 221.873 41.6875C221.568 40.9766 221.331 40.181 221.162 39.3008C221.196 39.2331 221.213 39.1654 221.213 39.0977C221.213 38.8945 221.111 38.8099 220.908 38.8438C220.739 38.8776 220.654 38.776 220.654 38.5391V38.1836C220.654 37.9128 220.604 37.6758 220.502 37.4727C220.434 37.2357 220.417 36.9818 220.451 36.7109C220.214 36.3385 220.028 35.9492 219.893 35.543C219.757 35.1367 219.52 34.7812 219.182 34.4766V34.0195C219.182 33.8164 219.165 33.6302 219.131 33.4609C219.131 33.2578 219.08 33.0885 218.979 32.9531C218.911 32.7839 218.792 32.6823 218.623 32.6484C218.589 31.4297 218.335 30.194 217.861 28.9414C217.421 27.6549 217.015 26.4193 216.643 25.2344C216.372 26.1146 216.169 27.0117 216.033 27.9258C215.898 28.806 215.83 29.7031 215.83 30.6172V31.4805C215.83 31.7513 215.864 32.0221 215.932 32.293C215.83 32.4622 215.678 32.5807 215.475 32.6484C215.305 32.7161 215.204 32.8516 215.17 33.0547C215.136 33.224 215.119 33.3932 215.119 33.5625C215.153 33.7318 215.153 33.901 215.119 34.0703C215.051 34.8828 214.95 35.6615 214.814 36.4062C214.611 37.5234 214.374 38.6576 214.104 39.8086C213.833 40.9258 213.697 42.0768 213.697 43.2617C213.697 43.3294 213.697 43.431 213.697 43.5664C213.731 43.668 213.748 43.7526 213.748 43.8203C213.206 44.2943 212.919 44.8867 212.885 45.5977C212.851 46.3086 212.766 46.9857 212.631 47.6289C212.462 48.5768 212.258 49.5247 212.021 50.4727C211.785 51.3867 211.581 52.3346 211.412 53.3164C211.311 53.8581 211.226 54.3997 211.158 54.9414C211.09 55.4492 211.023 55.974 210.955 56.5156C210.921 56.8203 210.803 57.0742 210.6 57.2773C210.43 57.4805 210.312 57.7174 210.244 57.9883C210.21 58.2253 210.193 58.4961 210.193 58.8008C210.227 59.0716 210.244 59.3255 210.244 59.5625C210.244 59.9688 210.21 60.3581 210.143 60.7305C210.075 61.069 209.872 61.3737 209.533 61.6445C209.601 62.5247 209.753 63.2695 209.99 63.8789C210.227 64.5221 210.498 65.2331 210.803 66.0117H212.072V66.2148C212.072 66.5534 212.123 66.8581 212.225 67.1289C212.36 67.3997 212.614 67.5182 212.986 67.4844C212.952 67.6198 212.936 67.7891 212.936 67.9922C212.936 68.2969 212.986 68.5677 213.088 68.8047C213.223 69.0755 213.325 69.3633 213.393 69.668C212.715 70.7852 211.988 71.6146 211.209 72.1562C210.43 72.6979 209.364 72.9688 208.01 72.9688H207.197C207.028 72.4271 206.825 71.9023 206.588 71.3945C206.351 70.8867 206.114 70.3789 205.877 69.8711C205.674 69.3633 205.488 68.8385 205.318 68.2969C205.183 67.7891 205.115 67.2474 205.115 66.6719C205.115 66.5365 205.132 66.401 205.166 66.2656C205.2 66.1641 205.217 66.0456 205.217 65.9102C205.217 65.7409 205.149 65.6393 205.014 65.6055C204.878 65.5716 204.811 65.4023 204.811 65.0977C204.811 64.8607 204.794 64.6406 204.76 64.4375C204.76 64.2344 204.76 64.0143 204.76 63.7773C204.76 62.6602 204.844 61.5599 205.014 60.4766C205.183 59.3594 205.301 58.2422 205.369 57.125C205.538 56.9557 205.623 56.7357 205.623 56.4648C205.623 56.194 205.708 55.974 205.877 55.8047V55.4492C205.877 54.8398 205.945 54.2305 206.08 53.6211C206.215 53.0117 206.368 52.4193 206.537 51.8438C206.706 51.2682 206.859 50.6758 206.994 50.0664C207.13 49.457 207.197 48.8477 207.197 48.2383V47.4258C207.197 47.1888 207.299 47.0872 207.502 47.1211C207.739 47.1211 207.874 46.9857 207.908 46.7148C207.976 46.2409 208.01 45.7839 208.01 45.3438C208.044 44.8698 208.094 44.3958 208.162 43.9219C208.331 43.0078 208.518 42.0938 208.721 41.1797C208.924 40.2318 209.025 39.2839 209.025 38.3359V38.1836C209.025 38.082 209.11 37.8789 209.279 37.5742C209.449 37.2357 209.533 36.9141 209.533 36.6094C209.533 36.3724 209.482 36.1523 209.381 35.9492C209.415 35.9831 209.482 36 209.584 36C209.719 36 209.804 35.9661 209.838 35.8984C209.906 35.7969 209.99 35.7122 210.092 35.6445C209.99 35.5091 209.939 35.3737 209.939 35.2383C209.939 35.069 209.956 34.9167 209.99 34.7812C210.058 34.612 210.092 34.4427 210.092 34.2734C210.092 34.0365 209.973 33.8672 209.736 33.7656C210.143 33.0208 210.43 32.2253 210.6 31.3789C210.803 30.5326 210.938 29.6693 211.006 28.7891C211.107 27.9089 211.192 27.0286 211.26 26.1484C211.327 25.2344 211.48 24.3711 211.717 23.5586C211.649 23.3555 211.598 23.1354 211.564 22.8984C211.564 22.6615 211.564 22.4414 211.564 22.2383C211.564 22.1029 211.548 21.9674 211.514 21.832C211.48 21.6628 211.497 21.5104 211.564 21.375C211.564 21.3073 211.581 21.2227 211.615 21.1211L211.717 20.8164C211.785 20.5794 211.818 20.3424 211.818 20.1055C211.852 19.8346 211.886 19.5638 211.92 19.293C211.988 18.5143 212.005 17.7188 211.971 16.9062C211.971 16.0938 212.005 15.2812 212.072 14.4688C211.971 14.3333 211.869 14.2318 211.768 14.1641C211.666 14.0625 211.598 13.9271 211.564 13.7578C211.835 13.2839 212.123 12.8438 212.428 12.4375C212.766 11.9974 213.206 11.6589 213.748 11.4219C213.85 11.7943 214.12 11.9805 214.561 11.9805C214.764 11.9805 215.018 11.9297 215.322 11.8281C215.627 11.7266 215.83 11.5911 215.932 11.4219C216.507 11.625 217.083 11.7266 217.658 11.7266C218.268 11.6927 218.826 11.8281 219.334 12.1328C219.436 12.6406 219.571 13.1654 219.74 13.707C219.91 14.2487 220.146 14.7396 220.451 15.1797C220.519 15.6198 220.587 16.1615 220.654 16.8047C220.722 17.4141 220.79 18.0573 220.857 18.7344C220.925 19.3776 221.027 20.0039 221.162 20.6133C221.298 21.1888 221.484 21.6458 221.721 21.9844C221.755 22.5938 221.856 23.2031 222.025 23.8125C222.195 24.4219 222.381 25.0143 222.584 25.5898C222.787 26.1315 222.956 26.6393 223.092 27.1133C223.261 27.5872 223.346 27.9766 223.346 28.2812C223.346 28.5521 223.295 28.7383 223.193 28.8398C223.126 28.9076 223.058 29.043 222.99 29.2461C223.126 29.6185 223.312 29.9401 223.549 30.2109C223.786 30.4479 224.04 30.7357 224.311 31.0742C224.818 33.0039 225.479 34.8828 226.291 36.7109C227.104 38.5391 228.085 40.2995 229.236 41.9922C229.541 42.026 229.778 42.1107 229.947 42.2461C230.15 42.3815 230.455 42.4154 230.861 42.3477V42.7031C230.861 43.0417 230.929 43.2786 231.064 43.4141C231.369 43.6172 231.725 43.7188 232.131 43.7188C232.571 43.7188 232.91 43.6003 233.146 43.3633C233.417 43.0924 233.671 42.7878 233.908 42.4492C234.145 42.1107 234.382 41.7891 234.619 41.4844C234.856 41.1797 235.178 40.9766 235.584 40.875V40.7734C235.584 40.5026 235.635 40.2826 235.736 40.1133C235.872 39.9102 235.939 39.6901 235.939 39.4531C236.312 39.1823 236.6 38.8438 236.803 38.4375C237.006 38.0312 237.192 37.625 237.361 37.2188C237.531 36.7786 237.717 36.3724 237.92 36C238.157 35.6276 238.462 35.3229 238.834 35.0859C239.308 33.6302 239.883 32.276 240.561 31.0234C241.238 29.7708 241.949 28.5013 242.693 27.2148C242.693 27.1133 242.676 27.0117 242.643 26.9102C242.609 26.7747 242.592 26.6562 242.592 26.5547C242.592 26.5208 242.626 26.3685 242.693 26.0977C242.863 25.7591 243.015 25.4375 243.15 25.1328C243.286 24.8281 243.404 24.4896 243.506 24.1172C243.844 23.0677 244.149 22.0352 244.42 21.0195C244.725 20.0039 245.165 19.0391 245.74 18.125V16.8555C246.35 15.6367 246.773 14.3503 247.01 12.9961C247.281 11.6419 247.602 10.3216 247.975 9.03516C248.042 8.66276 248.161 8.29036 248.33 7.91797C248.533 7.51172 248.77 7.22396 249.041 7.05469C248.939 6.85156 248.889 6.64844 248.889 6.44531C248.889 6.17448 248.923 5.9375 248.99 5.73438C249.092 5.4974 249.176 5.26042 249.244 5.02344C249.143 4.78646 249.092 4.48177 249.092 4.10938C249.092 3.63542 249.227 3.19531 249.498 2.78906C249.769 2.34896 250.175 2.0612 250.717 1.92578C251.055 2.02734 251.343 2.19661 251.58 2.43359C251.817 2.67057 252.037 2.92448 252.24 3.19531C252.477 3.43229 252.714 3.63542 252.951 3.80469C253.222 3.9401 253.561 3.97396 253.967 3.90625C254.238 4.41406 254.424 4.95573 254.525 5.53125C254.627 6.07292 254.678 6.63151 254.678 7.20703C254.678 7.98568 254.61 8.79818 254.475 9.64453C254.339 10.457 254.288 11.2865 254.322 12.1328C254.051 12.6745 253.848 13.2669 253.713 13.9102C253.611 14.5195 253.51 15.1458 253.408 15.7891C253.307 16.4323 253.188 17.0586 253.053 17.668C252.917 18.2773 252.68 18.8529 252.342 19.3945C252.24 20.918 252.122 22.4076 251.986 23.8633C251.885 25.319 251.715 26.7747 251.479 28.2305L251.021 31.125C250.954 31.362 250.886 31.6328 250.818 31.9375C250.751 32.2083 250.717 32.4453 250.717 32.6484C250.717 32.8516 250.734 33.0716 250.768 33.3086C250.801 33.5117 250.903 33.6641 251.072 33.7656C250.835 34.1042 250.666 34.5104 250.564 34.9844C250.463 35.4583 250.361 35.9661 250.26 36.5078L250.006 38.082C249.938 38.5898 249.803 39.0469 249.6 39.4531V40.0117C249.6 41.3659 249.363 42.7539 248.889 44.1758V44.4297C248.889 44.599 248.872 44.7513 248.838 44.8867C248.838 44.9883 248.838 45.1237 248.838 45.293C248.838 45.5299 248.906 45.7161 249.041 45.8516C248.77 46.7318 248.516 47.6458 248.279 48.5938C248.042 49.5078 247.873 50.4557 247.771 51.4375C247.67 52.7578 247.653 54.112 247.721 55.5C247.788 56.8542 247.619 58.1745 247.213 59.4609C247.416 60.0703 247.551 60.7305 247.619 61.4414L247.822 63.5742C247.89 64.2852 247.992 64.9622 248.127 65.6055C248.296 66.2826 248.601 66.8411 249.041 67.2812C249.075 67.349 249.092 67.4505 249.092 67.5859C249.092 67.8568 249.024 68.0599 248.889 68.1953C248.956 68.5339 249.075 68.8216 249.244 69.0586C249.413 69.2956 249.583 69.5156 249.752 69.7188C249.921 69.9557 250.057 70.2096 250.158 70.4805C250.294 70.7513 250.361 71.0898 250.361 71.4961C250.632 71.8685 251.055 72.1562 251.631 72.3594C252.206 72.5625 252.782 72.7656 253.357 72.9688C253.967 73.1719 254.492 73.4258 254.932 73.7305C255.372 74.069 255.592 74.543 255.592 75.1523ZM290.479 29.7031V29.9062C290.242 29.974 290.123 30.1432 290.123 30.4141C289.751 30.5833 289.361 30.7188 288.955 30.8203C288.549 30.888 288.16 31.0065 287.787 31.1758C287.415 31.1419 287.025 31.125 286.619 31.125C286.247 31.0911 285.874 31.0742 285.502 31.0742C284.486 31.0742 283.471 31.1081 282.455 31.1758C281.439 31.2435 280.424 31.2435 279.408 31.1758C278.934 31.4466 278.41 31.6667 277.834 31.8359C277.292 31.9714 276.768 32.0391 276.26 32.0391C275.854 32.0391 275.498 31.9883 275.193 31.8867C274.381 32.293 273.484 32.6315 272.502 32.9023C271.554 33.1732 270.589 33.444 269.607 33.7148C268.626 33.9518 267.678 34.2396 266.764 34.5781C265.883 34.8828 265.105 35.3229 264.428 35.8984C264.36 36.3724 264.309 36.8464 264.275 37.3203C264.242 37.7604 264.225 38.2005 264.225 38.6406C264.225 39.1146 264.242 39.5547 264.275 39.9609C264.343 40.3672 264.462 40.7734 264.631 41.1797C264.8 41.2474 264.986 41.2982 265.189 41.332C265.426 41.3659 265.63 41.3828 265.799 41.3828C265.968 41.3828 266.137 41.3659 266.307 41.332C266.476 41.2643 266.594 41.1458 266.662 40.9766C267.17 40.9089 267.678 40.8919 268.186 40.9258C268.693 40.9258 269.201 40.9258 269.709 40.9258C270.217 40.9258 270.708 40.9089 271.182 40.875C271.689 40.8411 272.18 40.7565 272.654 40.6211C273.196 40.4857 273.721 40.401 274.229 40.3672C274.77 40.3333 275.295 40.2995 275.803 40.2656C276.311 40.2318 276.835 40.181 277.377 40.1133C277.919 40.0117 278.477 39.8255 279.053 39.5547C279.493 39.724 279.933 39.8086 280.373 39.8086C280.847 39.8086 281.304 39.8424 281.744 39.9102C281.981 40.0794 282.167 40.2656 282.303 40.4688C282.472 40.6719 282.557 40.9089 282.557 41.1797C282.557 41.6536 282.387 42.1276 282.049 42.6016C281.71 43.0755 281.439 43.5156 281.236 43.9219H280.678C279.865 43.9219 279.07 44.0404 278.291 44.2773C277.546 44.4805 276.785 44.7344 276.006 45.0391C275.261 45.3099 274.499 45.5638 273.721 45.8008C272.976 46.0039 272.197 46.1055 271.385 46.1055C271.249 46.1055 271.165 46.1901 271.131 46.3594C271.131 46.4948 271.097 46.5964 271.029 46.6641C270.86 46.6302 270.606 46.6133 270.268 46.6133C269.489 46.6133 268.744 46.6979 268.033 46.8672C267.322 47.0365 266.594 47.1211 265.85 47.1211C265.646 47.1211 265.443 47.1211 265.24 47.1211C265.037 47.0872 264.834 47.0534 264.631 47.0195C264.462 47.2904 264.242 47.4766 263.971 47.5781C263.7 47.6458 263.446 47.7812 263.209 47.9844C263.107 48.2891 263.04 48.6615 263.006 49.1016C263.006 49.5417 262.989 49.9987 262.955 50.4727C262.955 50.9128 262.921 51.3359 262.854 51.7422C262.786 52.1484 262.65 52.4701 262.447 52.707C262.481 52.8763 262.617 52.944 262.854 52.9102C263.09 52.8424 263.209 52.944 263.209 53.2148C263.209 53.5195 263.175 53.8411 263.107 54.1797C263.04 54.5182 263.006 54.8568 263.006 55.1953C263.006 55.8385 263.074 56.5495 263.209 57.3281C263.378 58.0729 263.615 58.7669 263.92 59.4102C264.258 60.0534 264.699 60.5951 265.24 61.0352C265.782 61.4414 266.459 61.6445 267.271 61.6445C267.813 61.6445 268.321 61.543 268.795 61.3398C269.269 61.1367 269.658 60.7982 269.963 60.3242L270.217 60.2734C270.352 60.2734 270.471 60.2904 270.572 60.3242C270.708 60.3581 270.843 60.375 270.979 60.375C271.182 60.375 271.436 60.2565 271.74 60.0195C272.079 59.7487 272.434 59.444 272.807 59.1055C273.213 58.7669 273.619 58.4453 274.025 58.1406C274.432 57.8021 274.821 57.5651 275.193 57.4297C275.43 56.9557 275.65 56.4818 275.854 56.0078C276.09 55.5339 276.429 55.1615 276.869 54.8906V53.418C277.208 53.0456 277.563 52.707 277.936 52.4023C278.342 52.0977 278.646 51.7083 278.85 51.2344C279.019 51.3021 279.171 51.3529 279.307 51.3867C279.476 51.4206 279.645 51.4375 279.814 51.4375C279.984 51.4375 280.153 51.4206 280.322 51.3867C280.525 51.3529 280.712 51.3021 280.881 51.2344C281.152 51.6068 281.355 52.0299 281.49 52.5039C281.66 52.944 281.863 53.3672 282.1 53.7734C281.795 54.3828 281.439 55.1107 281.033 55.957C280.627 56.8034 280.187 57.6497 279.713 58.4961C279.239 59.3424 278.731 60.1549 278.189 60.9336C277.682 61.6784 277.174 62.2539 276.666 62.6602C276.564 62.7617 276.344 62.8802 276.006 63.0156C275.633 63.2865 275.295 63.5404 274.99 63.7773C274.686 64.0482 274.398 64.3529 274.127 64.6914C273.145 64.9961 272.197 65.4023 271.283 65.9102C270.403 66.418 269.523 66.9089 268.643 67.3828C268.236 67.2812 267.796 67.2305 267.322 67.2305C266.916 67.2305 266.51 67.2474 266.104 67.2812C265.697 67.349 265.257 67.3828 264.783 67.3828C264.648 67.2135 264.445 67.0951 264.174 67.0273C263.937 66.9935 263.852 66.8242 263.92 66.5195C262.769 66.4518 261.838 66.1302 261.127 65.5547C260.416 65.013 259.807 64.3359 259.299 63.5234C258.825 62.7109 258.436 61.8307 258.131 60.8828C257.826 59.9349 257.505 59.0208 257.166 58.1406V57.9883C257.166 57.819 257.234 57.7174 257.369 57.6836C257.505 57.6497 257.572 57.5482 257.572 57.3789C257.572 57.3112 257.555 57.2604 257.521 57.2266C257.42 56.8542 257.335 56.5326 257.268 56.2617C257.2 55.9909 257.166 55.6693 257.166 55.2969C257.166 54.7552 257.2 54.2305 257.268 53.7227C257.335 53.181 257.369 52.6393 257.369 52.0977C257.369 51.556 257.301 51.082 257.166 50.6758C257.301 50.5065 257.42 50.2865 257.521 50.0156C257.589 49.7109 257.64 49.4062 257.674 49.1016C257.708 48.7969 257.725 48.4922 257.725 48.1875C257.758 47.8828 257.809 47.612 257.877 47.375C257.742 47.0026 257.623 46.681 257.521 46.4102C257.42 46.1055 257.369 45.75 257.369 45.3438V44.9883C257.708 44.4128 257.995 43.8203 258.232 43.2109C258.469 42.6016 258.723 41.9753 258.994 41.332V41.1797C258.994 40.1979 258.96 39.2161 258.893 38.2344C258.825 37.2526 258.791 36.2708 258.791 35.2891V34.3242C258.791 33.9857 258.808 33.6641 258.842 33.3594C259.113 33.224 259.316 33.0378 259.451 32.8008C259.587 32.5638 259.79 32.3776 260.061 32.2422H261.736L262.041 31.7344C262.143 31.5651 262.21 31.3789 262.244 31.1758C262.617 31.0742 262.972 30.9388 263.311 30.7695C263.683 30.5664 264.021 30.3633 264.326 30.1602C264.8 29.8893 265.223 29.6523 265.596 29.4492C266.002 29.2122 266.391 29.026 266.764 28.8906C267.17 28.7214 267.593 28.5859 268.033 28.4844C268.473 28.3828 268.981 28.2982 269.557 28.2305C269.827 28.2305 269.997 28.1797 270.064 28.0781C270.166 27.9766 270.301 27.8581 270.471 27.7227C270.877 27.7904 271.283 27.8581 271.689 27.9258C272.096 27.9596 272.502 27.9766 272.908 27.9766C273.721 27.9766 274.482 27.8242 275.193 27.5195C276.209 27.5195 277.208 27.5026 278.189 27.4688C279.205 27.4349 280.221 27.418 281.236 27.418C282.117 27.418 282.997 27.4518 283.877 27.5195C284.757 27.5872 285.62 27.7057 286.467 27.875C286.771 27.7734 287.11 27.7227 287.482 27.7227C287.889 27.7227 288.295 27.7734 288.701 27.875C289.141 27.9427 289.564 27.9427 289.971 27.875C290.005 28.2474 290.089 28.569 290.225 28.8398C290.394 29.0768 290.479 29.3646 290.479 29.7031Z" fill="#D842FE"/>
</g>
<g clip-path="url(#clip0)">
<path d="M305.183 71.0665L293.172 83.0405C291.609 84.6297 291.609 87.2186 293.172 88.8076C294.735 90.3967 297.282 90.3967 298.845 88.8076L310.931 76.761C308.492 75.504 306.481 73.5091 305.183 71.0665Z" fill="#E0E0E2"/>
<path d="M307.506 74.2351L293.172 88.8078C294.735 90.3969 297.282 90.3969 298.845 88.8078L310.931 76.7611C309.66 76.1057 308.504 75.2505 307.506 74.2351Z" fill="#C6C5CA"/>
<path d="M300.911 64.6281C300.911 73.6222 308.109 80.9401 316.956 80.9401C325.802 80.9401 333 73.6222 333 64.6281C333 55.634 325.802 48.3162 316.956 48.3162C308.109 48.3162 300.911 55.6341 300.911 64.6281Z" fill="#ED539D"/>
<path d="M328.294 53.098C331.2 56.0518 333 60.1303 333 64.6281C333 73.6222 325.802 80.94 316.956 80.94C312.532 80.94 308.52 79.1099 305.615 76.1554L328.294 53.098Z" fill="#EA348B"/>
<path d="M303.687 61.909C303.687 61.1576 304.285 60.5474 305.023 60.5474C305.024 60.5474 305.024 60.5474 305.024 60.5474C305.762 60.5474 306.361 61.1569 306.361 61.9073C306.363 67.1455 309.68 72.7835 316.956 72.7835C322.411 72.7835 324.896 68.5562 324.896 64.6279C324.895 60.6994 322.41 56.4721 316.956 56.4721C315.302 56.4721 313.929 57.0475 312.986 58.1359C312.145 59.1049 311.663 60.4803 311.664 61.9095C311.665 64.6157 313.301 67.3468 316.956 67.3468C318.904 67.3468 319.595 65.8822 319.595 64.629C319.594 63.3741 318.903 61.9095 316.956 61.9095C316.217 61.9095 315.619 61.3006 315.619 60.5502C315.619 59.7997 316.218 59.1909 316.956 59.1909C320.443 59.1909 322.268 61.9255 322.269 64.6282C322.269 67.3301 320.444 70.0656 316.956 70.0656C311.728 70.0656 308.991 65.9629 308.99 61.9105C308.989 59.798 309.695 57.8192 310.979 56.3377C312.445 54.6475 314.511 53.7535 316.956 53.7535C323.923 53.7535 327.569 59.2236 327.57 64.6282C327.57 70.032 323.924 75.5022 316.956 75.5022C308.249 75.5021 303.689 68.6631 303.687 61.909Z" fill="#FFCCE4"/>
<path d="M319.595 64.629C319.595 65.8821 318.904 67.3468 316.956 67.3468C316.091 67.3468 315.34 67.1922 314.696 66.9227L312.711 68.9409C313.866 69.6449 315.283 70.0655 316.956 70.0655C320.444 70.0655 322.269 67.33 322.269 64.6282C322.269 63.2067 321.763 61.7772 320.777 60.7405L318.887 62.6623C319.388 63.1998 319.595 63.9453 319.595 64.629Z" fill="#F7AFD1"/>
<path d="M327.57 64.6282C327.57 61.7884 326.562 58.9309 324.596 56.858L322.706 58.7794C324.19 60.3577 324.895 62.5353 324.896 64.6283C324.896 68.5567 322.411 72.7843 316.956 72.7843C314.4 72.7843 312.333 72.088 310.726 70.9585L308.82 72.8969C310.912 74.5053 313.631 75.5029 316.956 75.5029C323.924 75.5029 327.57 70.0318 327.57 64.6282Z" fill="#F7AFD1"/>
</g>
<defs>
<filter id="filter0_d" x="37.7012" y="1.92578" width="256.777" height="83.4102" filterUnits="userSpaceOnUse" color-interpolation-filters="sRGB">
<feFlood flood-opacity="0" result="BackgroundImageFix"/>
<feColorMatrix in="SourceAlpha" type="matrix" values="0 0 0 0 0 0 0 0 0 0 0 0 0 0 0 0 0 0 127 0"/>
<feOffset dy="4"/>
<feGaussianBlur stdDeviation="2"/>
<feColorMatrix type="matrix" values="0 0 0 0 0 0 0 0 0 0 0 0 0 0 0 0 0 0 0.25 0"/>
<feBlend mode="normal" in2="BackgroundImageFix" result="effect1_dropShadow"/>
<feBlend mode="normal" in="SourceGraphic" in2="effect1_dropShadow" result="shape"/>
</filter>
<clipPath id="clip0">
<rect width="41" height="41.6842" fill="white" transform="translate(292 48.3158)"/>
</clipPath>
</defs>
</svg>
