<svg height="512pt" viewBox="0 0 512.00012 512" width="512pt" xmlns="http://www.w3.org/2000/svg"><path d="m511.71875 255.859375c0 23.652344-3.207031 46.566406-9.222656 68.308594-.917969 3.34375-1.910156 6.652343-2.964844 9.941406-3.015625 9.410156-6.566406 18.589844-10.621094 27.5-2.433594 5.367187-5.054687 10.640625-7.851562 15.800781-3.96875 7.351563-8.292969 14.484375-12.949219 21.375-1.828125 2.714844-3.707031 5.378906-5.640625 8.019532-.878906 1.214843-1.773438 2.414062-2.683594 3.605468-46.722656 61.550782-120.683594 101.308594-203.925781 101.308594-22.984375 0-45.261719-3.027344-66.441406-8.71875-34.910157-9.359375-66.867188-25.910156-94.195313-47.976562-2.582031-2.078126-5.117187-4.210938-7.613281-6.390626-7.019531-6.132812-13.691406-12.636718-20-19.488281-2.828125-3.058593-5.566406-6.191406-8.238281-9.386719-2.550782-3.050781-5.035156-6.175781-7.445313-9.347656 0-.011718 0-.011718-.011719-.023437-3.792968-4.992188-7.40625-10.128907-10.808593-15.402344-1.808594-2.757813-3.550781-5.554687-5.234375-8.394531-22.785156-38.253906-35.871094-82.960938-35.871094-130.730469 0-141.308594 114.550781-255.859375 255.859375-255.859375s255.859375 114.550781 255.859375 255.859375zm0 0" fill="#f974ac"/><path d="m2.621094 143.523438c34.945312 39.992187 75.78125 74.425781 121.097656 102.113281 5.070312 3.09375 11.691406 1.429687 14.683594-3.703125 11.652344-19.988282 23.304687-39.976563 34.953125-59.960938 2.894531-4.964844 1.304687-11.335937-3.589844-14.347656-36.605469-22.527344-69.648437-50.386719-98.03125-82.660156-3.796875-4.316406-10.34375-4.804688-14.746094-1.117188-17.734375 14.859375-35.464843 29.71875-53.199219 44.582032-4.554687 3.8125-5.078124 10.621093-1.167968 15.09375zm0 0" fill="#36b990"/><g fill="#77d9a5"><path d="m22.175781 125.789062 28.96875-24.273437c.605469.71875 1.28125 1.398437 2.023438 2.027344 6.449219 5.433593 15.824219 5.121093 21.886719-.414063 11.449218 12.113282 23.597656 23.59375 36.300781 34.304688 12.707031 10.710937 26.074219 20.746094 39.945312 29.984375-4.433593 6.914062-3.160156 16.207031 3.285157 21.640625.746093.628906 1.53125 1.179687 2.34375 1.65625l-19.035157 32.648437c-6.84375-4-15.773437-2.621093-21.058593 3.644531-.496094.589844-.945313 1.207032-1.34375 1.839844-17.367188-11.359375-34.078126-23.792968-49.902344-37.136718-15.824219-13.34375-30.902344-27.714844-45.03125-42.914063.558594-.5 1.085937-1.046875 1.585937-1.636719 5.285157-6.265625 5.132813-15.296875.03125-21.371094zm0 0"/><path d="m9.445312 136.457031 5.359376-4.492187c2.152343 2.554687 2.21875 6.359375-.007813 9.003906-.226563.265625-.464844.507812-.71875.730469-1.554687-1.734375-3.097656-3.484375-4.632813-5.242188zm0 0"/><path d="m58.515625 95.339844 5.359375-4.492188c1.539062 1.753906 3.085938 3.496094 4.65625 5.222656-2.554688 2.285157-6.46875 2.402344-9.167969.125-.3125-.261718-.59375-.546874-.847656-.855468zm0 0"/><path d="m159.359375 172.660156c1.964844 1.25 3.945313 2.484375 5.933594 3.703125l-3.523438 6.042969c-.34375-.199219-.675781-.429688-.988281-.695312-2.695312-2.273438-3.242188-6.148438-1.421875-9.050782zm0 0"/><path d="m124.183594 233.203125c2.226562-2.636719 5.988281-3.214844 8.867187-1.53125l-3.519531 6.042969c-1.988281-1.210938-3.972656-2.4375-5.949219-3.679688.179688-.285156.378907-.566406.601563-.832031zm0 0"/></g><path d="m66.425781 146.1875c-11.507812 13.648438-11.007812 32.992188 1.109375 43.210938 12.121094 10.21875 31.269532 7.441406 42.777344-6.207032 11.503906-13.644531 11.007812-32.988281-1.113281-43.207031-12.117188-10.21875-31.269531-7.441406-42.773438 6.203125zm0 0" fill="#36b990"/><path d="m72.0625 181.269531c-5.777344-5.207031-8.042969-12.371093-5.367188-15.539062 1.417969-1.683594 4.992188-2.910157 6.875-1.320313 2.078126 1.753906 1.296876 6.09375 4.421876 9.828125l6.761718-8.023437c-3.09375-5.574219-6.644531-12.214844-1.300781-18.550782 5.304687-6.289062 12.503906-5.386718 18.382813-1.703124l1.167968-1.386719c.585938-.695313 1.917969-.667969 3.007813.25.941406.792969 1.339843 2.230469.757812 2.921875l-1.046875 1.242187c2.988282 2.6875 8.113282 8.363281 5.234375 11.78125-1.128906 1.335938-4.316406 3.308594-6.496093 1.472657-1.632813-1.378907-1.238282-3.757813-4.25-6.71875l-6.097657 7.230468c3.089844 5.484375 6.375 12.238282.738281 18.921875-5.179687 6.140625-12.273437 6.515625-18.859374 2.570313l-1.210938 1.4375c-.585938.691406-2.070312.542968-3.011719-.25-1.089843-.917969-1.339843-2.230469-.753906-2.925782zm19.785156-22.460937 4.96875-5.894532c-2.605468-1.433593-4.503906-1.085937-5.507812.101563-1.210938 1.4375-.671875 3.414063.539062 5.792969zm-4.953125 11.5-5.59375 6.636718c2.019531 1.023438 4.148438 1.210938 5.652344-.574218 1.378906-1.632813 1.015625-3.71875-.058594-6.0625zm0 0" fill="#77d9a5"/><path d="m133.773438 194.328125c0 4.933594-4 8.929687-8.929688 8.929687-4.933594 0-8.929688-3.996093-8.929688-8.929687 0-4.929687 3.996094-8.929687 8.929688-8.929687 4.929688 0 8.929688 4 8.929688 8.929687zm0 0" fill="#36b990"/><path d="m61.929688 133.75c0 4.933594-4 8.929688-8.929688 8.929688-4.933594 0-8.929688-3.996094-8.929688-8.929688s3.996094-8.929688 8.929688-8.929688c4.929688 0 8.929688 3.996094 8.929688 8.929688zm0 0" fill="#36b990"/><path d="m183.109375 163.722656c48.199219-22.304687 92.71875-51.816406 132.023437-87.53125 4.398438-3.996094 4.660157-10.820312.574219-15.132812-15.910156-16.796875-31.816406-33.59375-47.726562-50.394532-3.949219-4.171874-10.511719-4.4375-14.777344-.585937-31.902344 28.804687-67.925781 52.6875-106.875 70.859375-5.207031 2.429688-7.519531 8.574219-5.214844 13.839844 9.277344 21.191406 18.558594 42.386718 27.835938 63.578125 2.382812 5.445312 8.769531 7.859375 14.160156 5.367187zm0 0" fill="#36b990"/><path d="m171.585938 139.96875-15.160157-34.621094c.863281-.378906 1.707031-.835937 2.515625-1.371094 7.027344-4.660156 9.363282-13.746093 5.753906-21.125 14.839844-7.582031 29.273438-16.015624 43.121094-25.199218 13.851563-9.183594 27.238282-19.191406 40-29.910156 5.390625 6.195312 14.667969 7.585937 21.695313 2.925781.8125-.535157 1.5625-1.136719 2.246093-1.78125l25.984376 27.441406c-5.757813 5.445313-6.945313 14.402344-2.417969 21.234375.425781.640625.890625 1.246094 1.386719 1.804688-15.78125 13.480468-32.40625 26.019531-49.660157 37.460937-17.253906 11.4375-35.28125 21.871094-53.839843 31.160156-.320313-.675781-.699219-1.339843-1.125-1.980469-4.53125-6.832031-13.242188-9.226562-20.5-6.039062zm0 0" fill="#77d9a5"/><path d="m178.246094 155.183594-2.804688-6.40625c3.054688-1.347656 6.726563-.339844 8.636719 2.539062.191406.289063.359375.589844.503906.894532-2.105469 1.007812-4.21875 1.996093-6.335937 2.972656zm0 0" fill="#77d9a5"/><path d="m152.570312 96.539062-2.804687-6.40625c2.117187-.980468 4.222656-1.980468 6.324219-3 1.476562 3.09375.484375 6.882813-2.457032 8.832032-.339843.226562-.695312.417968-1.0625.574218zm0 0" fill="#77d9a5"/><path d="m255.109375 21.484375c1.757813-1.535156 3.496094-3.089844 5.222656-4.652344l4.8125 5.074219c-.289062.273438-.601562.527344-.945312.753906-2.9375 1.949219-6.8125 1.386719-9.089844-1.175781zm0 0" fill="#77d9a5"/><path d="m303.335938 72.253906c-1.910157-2.878906-1.40625-6.652344 1.019531-8.941406l4.8125 5.074219c-1.726563 1.570312-3.457031 3.128906-5.207031 4.675781-.222657-.25-.433594-.523438-.625-.808594zm0 0" fill="#77d9a5"/><path d="m203.582031 103.234375c9.863281 14.878906 28.570313 19.835937 41.785157 11.074219 13.210937-8.757813 15.925781-27.917969 6.0625-42.796875-9.863282-14.875-28.570313-19.835938-41.78125-11.074219-13.214844 8.757812-15.929688 27.921875-6.066407 42.796875zm0 0" fill="#36b990"/><path d="m238.847656 107.683594c-6.621094 4.078125-14.132812 4.238281-16.421875.785156-1.21875-1.835938-1.386719-5.609375.664063-6.96875 2.265625-1.503906 6.214844.464844 10.675781-1.484375l-5.800781-8.746094c-6.21875 1.40625-13.589844 2.949219-18.171875-3.960937-4.546875-6.859375-1.652344-13.515625 3.53125-18.121094l-1-1.511719c-.503907-.753906-.105469-2.03125 1.082031-2.816406 1.027344-.679687 2.519531-.660156 3.019531.097656l.894531 1.347657c3.417969-2.109376 10.308594-5.433594 12.777344-1.710938.96875 1.457031 1.964844 5.070312-.410156 6.648438-1.78125 1.179687-3.953125.132812-7.640625 2.1875l5.222656 7.882812c6.132813-1.421875 13.539063-2.679688 18.371094 4.613281 4.4375 6.691407 2.800781 13.605469-2.835937 18.820313l1.039062 1.566406c.5.753906-.058594 2.136719-1.085938 2.816406-1.1875.789063-2.515624.65625-3.015624-.097656zm-16-25.300782-4.257812-6.425781c-2.109375 2.097657-2.308594 4.019531-1.449219 5.316407 1.035156 1.5625 3.085937 1.605468 5.707031 1.109374zm9.648438 7.984376 4.796875 7.234374c1.546875-1.648437 2.324219-3.640624 1.035156-5.585937-1.179687-1.78125-3.28125-2.019531-5.832031-1.648437zm0 0" fill="#77d9a5"/><path d="m275.140625 60.695312c0 4.933594-4 8.933594-8.929687 8.933594-4.933594 0-8.929688-4-8.929688-8.933594 0-4.929687 3.996094-8.929687 8.929688-8.929687 4.929687 0 8.929687 4 8.929687 8.929687zm0 0" fill="#36b990"/><path d="m196.816406 112.625c0 4.933594-4 8.929688-8.933594 8.929688-4.929687 0-8.929687-3.996094-8.929687-8.929688 0-4.929688 4-8.929688 8.929687-8.929688 4.933594 0 8.933594 4 8.933594 8.929688zm0 0" fill="#36b990"/><path d="m325.242188 314.683594c52.199218-9.792969 102.597656-27.484375 149.464843-52.460938 5.242188-2.792968 7.167969-9.347656 4.265625-14.53125-11.300781-20.1875-22.601562-40.375-33.902344-60.558594-2.808593-5.015624-9.101562-6.882812-14.183593-4.195312-37.992188 20.09375-78.773438 34.410156-120.992188 42.46875-5.644531 1.078125-9.394531 6.472656-8.449219 12.140625 3.792969 22.820313 7.589844 45.644531 11.382813 68.464844.976563 5.859375 6.578125 9.769531 12.414063 8.671875zm0 0" fill="#36b990"/><path d="m319.898438 288.832031-6.203126-37.28125c.929688-.15625 1.859376-.394531 2.777344-.714843 7.953125-2.792969 12.445313-11.03125 10.757813-19.066407 16.246093-3.710937 32.308593-8.34375 47.988281-13.847656s31.113281-11.925781 46.113281-19.183594c3.703125 7.328125 12.355469 10.953125 20.3125 8.160157.921875-.324219 1.792969-.71875 2.617188-1.179688l18.457031 32.980469c-6.917969 3.863281-10.265625 12.257812-7.550781 19.992187.253906.726563.554687 1.425782.898437 2.089844-18.605468 9.195312-37.800781 17.273438-57.332031 24.128906-19.535156 6.855469-39.570313 12.546875-59.839844 17-.144531-.734375-.347656-1.46875-.601562-2.195312-2.71875-7.734375-10.578125-12.191406-18.394531-10.882813zm0 0" fill="#77d9a5"/><path d="m322.621094 305.214844-1.148438-6.898438c3.292969-.554687 6.605469 1.320313 7.75 4.582032.117188.328124.203125.65625.269532.988281-2.289063.460937-4.578126.902343-6.871094 1.328125zm0 0" fill="#77d9a5"/><path d="m312.121094 242.0625-1.148438-6.894531c2.289063-.4375 4.578125-.886719 6.863282-1.359375.671874 3.359375-1.214844 6.789062-4.546876 7.957031-.386718.136719-.777343.238281-1.167968.296875zm0 0" fill="#77d9a5"/><path d="m429.9375 194.460938c2.078125-1.058594 4.148438-2.136719 6.207031-3.230469l3.417969 6.101562c-.347656.195313-.714844.363281-1.101562.5-3.328126 1.167969-6.945313-.328125-8.523438-3.371093zm0 0" fill="#77d9a5"/><path d="m464.234375 255.507812c-1.144531-3.257812.269531-6.792968 3.183594-8.417968l3.417969 6.101562c-2.058594 1.097656-4.121094 2.1875-6.191407 3.257813-.15625-.300781-.296875-.613281-.410156-.941407zm0 0" fill="#77d9a5"/><path d="m359.925781 261.058594c5.910157 16.84375 22.828125 26.242187 37.785157 20.992187 14.960937-5.253906 22.292968-23.160156 16.382812-40.003906-5.910156-16.839844-22.832031-26.238281-37.789062-20.988281-14.957032 5.25-22.292969 23.160156-16.378907 40zm0 0" fill="#36b990"/><path d="m393.023438 274.035156c-7.421876 2.328125-14.738282.644532-16.113282-3.269531-.730468-2.078125.03125-5.777344 2.355469-6.59375 2.566406-.898437 5.910156 1.976563 10.710937 1.183594l-3.476562-9.902344c-6.375-.164063-13.894531-.476563-16.644531-8.300781-2.722657-7.761719 1.714843-13.507813 7.871093-16.699219l-.601562-1.710937c-.300781-.855469.398438-1.992188 1.742188-2.464844 1.164062-.40625 2.601562-.019532 2.902343.835937l.539063 1.527344c3.832031-1.207031 11.324218-2.742187 12.804687 1.476563.582031 1.652343.660157 5.398437-2.027343 6.34375-2.019532.707031-3.867188-.839844-7.945313.246093l3.132813 8.925781c6.289062.125 13.777343.722657 16.675781 8.976563 2.65625 7.578125-.621094 13.878906-7.367188 17.550781l.625 1.769532c.300781.855468-.582031 2.058593-1.746093 2.46875-1.34375.472656-2.601563.019531-2.902344-.835938zm-9.300782-28.453125-2.550781-7.273437c-2.558594 1.515625-3.226563 3.328125-2.710937 4.796875.621093 1.773437 2.597656 2.3125 5.261718 2.476562zm7.394532 10.105469 2.875 8.191406c1.90625-1.21875 3.148437-2.957031 2.375-5.160156-.707032-2.015625-2.6875-2.765625-5.25-3.03125zm0 0" fill="#77d9a5"/><path d="m440.007812 235.199219c0 4.929687-3.996093 8.929687-8.929687 8.929687-4.929687 0-8.929687-4-8.929687-8.929687 0-4.933594 4-8.929688 8.929687-8.929688 4.933594 0 8.929687 3.996094 8.929687 8.929688zm0 0" fill="#36b990"/><path d="m351.335938 266.324219c0 4.929687-3.996094 8.929687-8.929688 8.929687-4.929688 0-8.929688-4-8.929688-8.929687 0-4.933594 4-8.929688 8.929688-8.929688 4.933594 0 8.929688 3.996094 8.929688 8.929688zm0 0" fill="#36b990"/><path d="m502.496094 324.167969c-.917969 3.34375-1.910156 6.652343-2.964844 9.941406-3.015625 9.410156-6.566406 18.589844-10.621094 27.5-2.433594 5.367187-5.054687 10.640625-7.851562 15.800781-3.96875 7.351563-8.292969 14.484375-12.949219 21.375-1.828125 2.714844-3.707031 5.378906-5.640625 8.019532-36.363281-24.875-69.480469-54.273438-98.523438-87.511719-3.902343-4.472657-3.382812-11.28125 1.171876-15.089844 17.730468-14.863281 35.464843-29.722656 53.199218-44.582031 4.40625-3.6875 10.953125-3.199219 14.746094 1.117187 20.789062 23.632813 44.078125 44.902344 69.433594 63.429688zm0 0" fill="#36b990"/><path d="m499.53125 334.109375c-3.015625 9.410156-6.566406 18.589844-10.621094 27.5-2.433594 5.367187-5.054687 10.640625-7.851562 15.800781-3.96875 7.351563-8.292969 14.484375-12.949219 21.375-14.265625-9.742187-28.03125-20.207031-41.1875-31.296875-15.824219-13.347656-30.902344-27.71875-45.03125-42.921875.550781-.492187 1.085937-1.046875 1.585937-1.628906 5.285157-6.277344 5.128907-15.300781.03125-21.378906l28.96875-24.269532c.605469.71875 1.273438 1.398438 2.027344 2.027344 6.441406 5.429688 15.820313 5.117188 21.878906-.417968 11.453126 12.113281 23.601563 23.601562 36.300782 34.304687 8.65625 7.300781 17.625 14.285156 26.847656 20.90625zm0 0" fill="#77d9a5"/><path d="m370.777344 312.230469 5.359375-4.492188c2.152343 2.554688 2.214843 6.359375-.011719 9.003907-.222656.261718-.464844.507812-.714844.730468-1.558594-1.738281-3.101562-3.484375-4.632812-5.242187zm0 0" fill="#77d9a5"/><path d="m419.84375 271.113281 5.359375-4.492187c1.539063 1.753906 3.089844 3.496094 4.65625 5.222656-2.554687 2.285156-6.46875 2.398438-9.164063.125-.3125-.261719-.597656-.550781-.851562-.855469zm0 0" fill="#77d9a5"/><path d="m427.746094 321.96875c-11.503906 13.648438-11.003906 32.992188 1.113281 43.210938 12.121094 10.21875 31.269531 7.441406 42.777344-6.203126 11.503906-13.648437 11.003906-32.992187-1.113281-43.210937-12.121094-10.21875-31.269532-7.441406-42.777344 6.203125zm0 0" fill="#36b990"/><path d="m467.054688 324.753906 1.042968-1.234375c.585938-.699219.1875-2.128906-.75-2.921875-1.097656-.917968-2.425781-.941406-3.007812-.25l-1.171875 1.386719c-5.878907-3.683594-13.085938-4.59375-18.390625 1.703125-5.335938 6.339844-1.785156 12.972656 1.304687 18.546875l-6.765625 8.019531c-3.113281-3.726562-2.339844-8.070312-4.417968-9.824218-1.878907-1.589844-5.453126-.367188-6.871094 1.324218-2.675782 3.164063-.40625 10.328125 5.367187 15.539063l-1.042969 1.234375c-.585937.699218-.335937 2.003906.75 2.921875.941407.796875 2.421876.953125 3.007813.253906l1.210937-1.433594c6.589844 3.9375 13.683594 3.574219 18.863282-2.566406 5.636718-6.683594 2.347656-13.441406-.742188-18.925781l6.097656-7.234375c3.007813 2.964843 2.621094 5.34375 4.25 6.722656 2.183594 1.839844 5.367188-.136719 6.496094-1.472656 2.882813-3.425781-2.246094-9.09375-5.230468-11.789063zm-18.769532 27.390625c-1.503906 1.777344-3.632812 1.601563-5.660156.578125l5.597656-6.644531c1.078125 2.351563 1.441406 4.429687.0625 6.066406zm4.890625-17.5625c-1.210937-2.382812-1.746093-4.355469-.535156-5.796875 1.003906-1.191406 2.90625-1.535156 5.503906-.09375zm0 0" fill="#77d9a5"/><path d="m488.910156 361.609375c-2.433594 5.367187-5.054687 10.640625-7.851562 15.800781-.21875-.148437-.429688-.304687-.636719-.480468-3.769531-3.175782-4.25-8.816407-1.078125-12.585938 2.414062-2.851562 6.226562-3.820312 9.566406-2.734375zm0 0" fill="#36b990"/><path d="m423.257812 309.523438c0 4.929687-3.996093 8.929687-8.929687 8.929687-4.929687 0-8.929687-4-8.929687-8.929687 0-4.933594 4-8.929688 8.929687-8.929688 4.933594 0 8.929687 3.996094 8.929687 8.929688zm0 0" fill="#36b990"/><path d="m464.078125 370.378906c0 14.476563-1.484375 27.800782-4.292969 40.03125-2.140625 2.820313-4.34375 5.597656-6.589844 8.324219-2.539062 3.070313-5.148437 6.074219-7.820312 9.019531-7.269531 8.011719-15.03125 15.550782-23.25 22.570313-4.8125 4.125-9.773438 8.070312-14.878906 11.808593-7.25 5.339844-14.789063 10.300782-22.589844 14.851563-2.871094 1.683594-5.785156 3.300781-8.730469 4.867187-2.507812 1.335938-5.042969 2.632813-7.601562 3.886719-4.617188 2.265625-9.316407 4.394531-14.089844 6.390625-30.285156 12.613282-63.515625 19.589844-98.375 19.589844-83.253906 0-157.222656-39.757812-203.945313-101.332031-2.808593-12.21875-4.28125-25.53125-4.28125-40.007813 0-115 93.226563-259.410156 208.226563-259.410156 114.992187 0 208.21875 144.410156 208.21875 259.410156zm0 0" fill="#40649c"/><path d="m249.179688 403.261719c-29.136719-.972657-52.933594-16.027344-52.933594-31.566407 0-8.253906 7.285156-20.394531 16.511718-20.394531 10.199219 0 18.453126 14.324219 36.421876 17.480469v-39.335938c-22.339844-8.496093-48.5625-18.9375-48.5625-50.019531 0-30.835937 22.824218-45.648437 48.5625-49.289062v-6.800781c0-3.398438 3.886718-6.554688 9.226562-6.554688 4.613281 0 9.226562 3.15625 9.226562 6.554688v6.070312c15.054688.488281 43.464844 4.371094 43.464844 21.125 0 6.554688-4.371094 19.910156-15.054687 19.910156-8.011719 0-12.625-7.769531-28.410157-8.984375v35.453125c22.097657 8.253906 47.835938 19.667969 47.835938 52.445313 0 30.109375-19.425781 48.320312-47.835938 52.933593v7.042969c0 3.398438-4.613281 6.554688-9.226562 6.554688-5.339844 0-9.226562-3.15625-9.226562-6.554688zm2.425781-112.179688v-28.894531c-10.925781 2.183594-15.539063 7.769531-15.539063 13.597656 0 7.039063 6.3125 11.410156 15.539063 15.296875zm13.597656 44.917969v32.539062c8.257813-1.945312 14.8125-6.558593 14.8125-15.296874 0-8.011719-6.070313-13.113282-14.8125-17.242188zm0 0" fill="#fee175"/><path d="m319.234375 88.535156c7.007813-19.390625 114.265625-87.488281-63.378906-87.488281-177.640625 0-70.386719 68.097656-63.378907 87.488281" fill="#40649c"/><path d="m147.617188 370.378906c0 66.828125 16.363281 109.019532 41.800781 132.621094-55.566407-14.894531-103.667969-48.03125-137.492188-92.589844-2.8125-12.230468-4.292969-25.546875-4.292969-40.03125 0-115 93.226563-259.410156 208.226563-259.410156-59.777344 0-108.242187 144.410156-108.242187 259.410156zm0 0" fill="#274b7b"/><path d="m222.914062 88.539062h-30.429687c-6.988281-19.320312-113.5-87.003906 61.46875-87.484374-89.667969.941406-34.664063 68.226562-31.039063 87.484374zm0 0" fill="#274b7b"/><path d="m340.105469 108.359375c0 11.519531-9.347657 20.867187-20.867188 20.867187h-126.757812c-5.765625 0-10.976563-2.339843-14.757813-6.109374-3.78125-3.78125-6.109375-9.003907-6.109375-14.757813 0-11.53125 9.335938-20.867187 20.867188-20.867187h126.757812c5.753907 0 10.976563 2.332031 14.757813 6.109374 3.769531 3.78125 6.109375 8.992188 6.109375 14.757813zm0 0" fill="#fcbc77"/><path d="m340.105469 108.359375c0 11.519531-9.347657 20.867187-20.867188 20.867187h-81.851562c-5.753907 0-10.976563-2.339843-14.757813-6.109374-3.769531-3.78125-6.109375-9.003907-6.109375-14.757813 0-11.53125 9.347657-20.867187 20.867188-20.867187h81.851562c5.753907 0 10.976563 2.332031 14.757813 6.109374 3.769531 3.78125 6.109375 8.992188 6.109375 14.757813zm0 0" fill="#fee175"/><path d="m397.933594 175.519531c42.808594-31.429687 80.578125-69.199219 112.007812-112.007812 3.515625-4.789063 2.417969-11.53125-2.445312-14.945313-18.925782-13.300781-37.855469-26.605468-56.785156-39.910156-4.699219-3.304688-11.183594-2.257812-14.597657 2.363281-25.546875 34.5625-56.109375 65.125-90.671875 90.671875-4.621094 3.414063-5.667968 9.898438-2.363281 14.597656 13.304687 18.929688 26.609375 37.859376 39.910156 56.785157 3.417969 4.863281 10.15625 5.960937 14.945313 2.445312zm0 0" fill="#36b990"/><path d="m381.921875 154.53125-21.734375-30.921875c.769531-.539063 1.503906-1.15625 2.191406-1.84375 5.960938-5.964844 6.445313-15.335937 1.441406-21.84375 13.039063-10.382813 25.511719-21.515625 37.261719-33.265625s22.882813-24.21875 33.261719-37.257812c6.511719 5 15.878906 4.519531 21.839844-1.441407.691406-.691406 1.308594-1.425781 1.851562-2.195312l30.917969 21.738281c-4.566406 6.476562-3.949219 15.492188 1.847656 21.289062.542969.542969 1.117188 1.046876 1.714844 1.496094-12.789063 16.339844-26.59375 31.9375-41.230469 46.574219-14.636718 14.636719-30.234375 28.441406-46.574218 41.234375-.453126-.597656-.953126-1.171875-1.496094-1.71875-5.800782-5.796875-14.8125-6.410156-21.292969-1.84375zm0 0" fill="#77d9a5"/><path d="m391.46875 168.117188-4.019531-5.71875c2.726562-1.929688 6.523437-1.671876 8.96875.773437.242187.242187.46875.503906.667969.773437-1.863282 1.40625-3.734376 2.796876-5.617188 4.171876zm0 0" fill="#77d9a5"/><path d="m354.660156 115.742188-4.023437-5.71875c1.878906-1.386719 3.746093-2.78125 5.601562-4.199219 2.058594 2.742187 1.84375 6.648437-.652343 9.144531-.289063.289062-.601563.546875-.925782.773438zm0 0" fill="#77d9a5"/><path d="m440.246094 21.816406c1.414062-1.855468 2.8125-3.722656 4.195312-5.597656l5.722656 4.019531c-.226562.328125-.484374.636719-.773437.925781-2.496094 2.492188-6.40625 2.710938-9.144531.652344zm0 0" fill="#77d9a5"/><path d="m497.59375 61.996094c-2.441406-2.441406-2.699219-6.238282-.773438-8.96875l5.71875 4.019531c-1.375 1.882813-2.765624 3.753906-4.171874 5.617187-.269532-.199218-.527344-.425781-.773438-.667968zm0 0" fill="#77d9a5"/><path d="m405.996094 112.164062c12.621094 12.621094 31.941406 13.765626 43.148437 2.554688 11.210938-11.207031 10.066407-30.527344-2.554687-43.144531-12.621094-12.621094-31.9375-13.765625-43.148438-2.558594-11.207031 11.210937-10.066406 30.527344 2.554688 43.148437zm0 0" fill="#36b990"/><path d="m441.429688 109.527344c-5.679688 5.316406-13.011719 6.964844-15.941407 4.03125-1.558593-1.554688-2.472656-5.21875-.734375-6.960938 1.925782-1.925781 6.183594-.78125 10.167969-3.574218l-7.417969-7.417969c-5.816406 2.609375-12.734375 5.585937-18.597656-.277344-5.816406-5.816406-4.304688-12.917969-.140625-18.457031l-1.28125-1.285156c-.640625-.640626-.503906-1.96875.503906-2.976563.871094-.871094 2.335938-1.144531 2.980469-.503906l1.144531 1.148437c2.929688-2.75 9.023438-7.375 12.183594-4.214844 1.234375 1.234376 2.929687 4.578126.914063 6.59375-1.507813 1.511719-3.847657.917969-7.054688 3.664063l6.691406 6.691406c5.722656-2.613281 12.730469-5.316406 18.917969.867188 5.679687 5.679687 5.449219 12.78125.960937 19.011719l1.328126 1.328124c.640624.640626.367187 2.105469-.503907 2.976563-1.007812 1.007813-2.335937 1.144531-2.976562.503906zm-20.703126-21.621094-5.453124-5.449219c-1.648438 2.472657-1.464844 4.398438-.367188 5.496094 1.328125 1.328125 3.34375.960937 5.820312-.046875zm11.035157 5.910156 6.140625 6.136719c1.1875-1.921875 1.554687-4.03125-.09375-5.679687-1.511719-1.507813-3.617188-1.328126-6.046875-.457032zm0 0" fill="#77d9a5"/><path d="m467.84375 58.042969c0 4.933593-3.996094 8.929687-8.929688 8.929687-4.933593 0-8.929687-3.996094-8.929687-8.929687 0-4.929688 3.996094-8.929688 8.929687-8.929688 4.933594 0 8.929688 4 8.929688 8.929688zm0 0" fill="#36b990"/><path d="m401.390625 124.496094c0 4.929687-3.996094 8.929687-8.929687 8.929687-4.929688 0-8.929688-4-8.929688-8.929687 0-4.933594 4-8.929688 8.929688-8.929688 4.933593 0 8.929687 3.996094 8.929687 8.929688zm0 0" fill="#36b990"/><path d="m341.378906 392.699219c35.96875 13.617187 73.574219 22.367187 111.816406 26.035156-2.539062 3.070313-5.148437 6.074219-7.820312 9.019531-7.269531 8.011719-15.03125 15.550782-23.25 22.570313-4.8125 4.125-9.773438 8.070312-14.878906 11.808593-7.25 5.339844-14.789063 10.300782-22.589844 14.851563-2.871094 1.683594-5.785156 3.300781-8.730469 4.867187-2.507812 1.335938-5.042969 2.632813-7.601562 3.886719-4.617188 2.265625-9.316407 4.394531-14.089844 6.390625-15.707031-4.378906-31.226563-9.484375-46.492187-15.320312-5.546876-2.121094-8.273438-8.386719-6.035157-13.890625 8.707031-21.429688 17.417969-42.871094 26.128907-64.300781 2.160156-5.324219 8.175781-7.957032 13.542968-5.917969zm0 0" fill="#36b990"/><path d="m422.125 450.324219c-4.8125 4.125-9.773438 8.070312-14.878906 11.808593-7.25 5.339844-14.789063 10.300782-22.589844 14.851563-2.871094 1.683594-5.785156 3.300781-8.730469 4.867187-2.507812 1.335938-5.042969 2.632813-7.601562 3.886719-14.257813-3.617187-28.375-7.84375-42.265625-12.667969.261718-.710937.480468-1.441406.636718-2.195312 1.734376-8.007812-2.628906-15.914062-9.972656-18.890625l14.222656-35.015625c.867188.34375 1.785157.636719 2.738282.835938 8.238281 1.785156 16.375-2.882813 19.140625-10.613282 15.792969 5.335938 31.90625 9.796875 48.144531 13.304688 14.628906 3.175781 29.480469 5.597656 44.40625 7.257812-7.269531 8.011719-15.03125 15.550782-23.25 22.570313zm0 0" fill="#77d9a5"/><path d="m310.46875 467.367188 2.628906-6.480469c3.097656 1.25 4.9375 4.582031 4.207032 7.957031-.070313.339844-.171876.667969-.289063.984375-2.191406-.804687-4.371094-1.625-6.546875-2.460937zm0 0" fill="#77d9a5"/><path d="m334.5625 408.054688 2.628906-6.476563c2.183594.828125 4.367188 1.640625 6.5625 2.433594-1.1875 3.214843-4.589844 5.148437-8.039062 4.402343-.402344-.085937-.785156-.207031-1.152344-.359374zm0 0" fill="#77d9a5"/><path d="m422.125 450.324219c-4.8125 4.125-9.773438 8.070312-14.878906 11.808593-7.25 5.339844-14.789063 10.300782-22.589844 14.851563-2.871094 1.683594-5.785156 3.300781-8.730469 4.867187-8.84375-7.007812-13.355469-19.632812-10.558593-32.574218 3.78125-17.449219 19.394531-28.875 34.890624-25.523438 12.144532 2.621094 20.605469 13.566406 21.867188 26.570313zm0 0" fill="#36b990"/><path d="m401.398438 433.34375.34375-1.589844c.1875-.875-.835938-1.960937-2.039063-2.222656-1.386719-.304688-2.578125.300781-2.777344 1.191406l-.386719 1.773438c-6.910156-.511719-13.699218 2.066406-15.433593 10.109375-1.753907 8.105469 4.492187 12.300781 9.835937 15.78125l-2.222656 10.253906c-4.5-1.839844-5.847656-6.035156-8.511719-6.609375-2.402343-.523438-4.980469 2.234375-5.449219 4.386719-.796874 3.652343 3.496094 8.300781 9.898438 10.566406 7.800781-4.550781 15.339844-9.511719 22.589844-14.851563-.984375-5.304687-5.546875-8.550781-9.660156-11.195312l2.003906-9.242188c4.050781 1.214844 4.816406 3.5 6.902344 3.949219 2.789062.605469 4.679687-2.632812 5.042968-4.34375.953125-4.367187-6.242187-6.976562-10.136718-7.957031zm-10.851563 10.304688c.332031-1.511719 1.847656-2.714844 4.824219-2.660157l-1.628906 7.527344c-2.195313-1.523437-3.59375-3.027344-3.195313-4.867187zm7.089844 22.683593c-.492188 2.277344-2.464844 3.113281-4.71875 3.15625l1.835937-8.492187c2.046875 1.578125 3.34375 3.246094 2.882813 5.335937zm0 0" fill="#77d9a5"/><path d="m356.609375 444.578125c0 4.929687-4 8.929687-8.933594 8.929687-4.929687 0-8.929687-4-8.929687-8.929687 0-4.933594 4-8.933594 8.929687-8.933594 4.933594 0 8.933594 4 8.933594 8.933594zm0 0" fill="#36b990"/><path d="m176.1875 367.664062c-23.601562 32.136719-50.765625 61.4375-80.964844 87.359376-2.582031-2.078126-5.117187-4.210938-7.613281-6.390626-7.019531-6.132812-13.691406-12.636718-20-19.488281-2.828125-3.058593-5.566406-6.191406-8.238281-9.386719-2.550782-3.050781-5.035156-6.175781-7.445313-9.347656 0-.011718 0-.011718-.011719-.023437-3.792968-4.992188-7.40625-10.128907-10.808593-15.402344-1.808594-2.757813-3.550781-5.554687-5.234375-8.394531 24.761718-21.191406 47.070312-45.148438 66.492187-71.414063 3.417969-4.625 9.890625-5.667969 14.589844-2.359375 18.933594 13.292969 37.859375 26.597656 56.792969 39.90625 4.855468 3.414063 5.960937 10.160156 2.441406 14.941406zm0 0" fill="#36b990"/><path d="m158.757812 374.441406c-12.78125 16.34375-26.589843 31.9375-41.230468 46.578125-9.585938 9.578125-19.570313 18.796875-29.917969 27.613281-7.019531-6.132812-13.691406-12.636718-20-19.488281-2.828125-3.058593-5.566406-6.191406-8.238281-9.386719-2.550782-3.050781-5.035156-6.175781-7.445313-9.347656 0-.011718 0-.011718-.011719-.023437-3.792968-4.992188-7.40625-10.128907-10.808593-15.402344 9.074219-7.695313 17.824219-15.78125 26.222656-24.175781 11.75-11.75 22.878906-24.21875 33.261719-37.25 6.503906 5 15.875 4.519531 21.835937-1.441406.691407-.691407 1.304688-1.433594 1.847657-2.195313l30.921874 21.734375c-4.5625 6.472656-3.945312 15.496094 1.851563 21.292969.542969.542969 1.117187 1.042969 1.710937 1.492187zm0 0" fill="#77d9a5"/><path d="m106.492188 325.96875c1.414062-1.851562 2.8125-3.71875 4.195312-5.597656l5.722656 4.019531c-.226562.328125-.484375.640625-.773437.929687-2.496094 2.496094-6.40625 2.710938-9.144531.648438zm0 0" fill="#77d9a5"/><path d="m163.839844 366.152344c-2.441406-2.441406-2.699219-6.242188-.777344-8.96875l5.722656 4.019531c-1.375 1.882813-2.765625 3.753906-4.171875 5.617187-.269531-.199218-.527343-.425781-.773437-.667968zm0 0" fill="#77d9a5"/><path d="m72.242188 416.324219c12.621093 12.621093 31.9375 13.765625 43.148437 2.554687 11.207031-11.207031 10.066406-30.527344-2.554687-43.148437-12.621094-12.621094-31.941407-13.761719-43.148438-2.554688-11.210938 11.210938-10.066406 30.527344 2.554688 43.148438zm0 0" fill="#36b990"/><path d="m110.96875 410.023438c4.492188-6.234376 4.722656-13.335938-.960938-19.019532-6.179687-6.179687-13.1875-3.476562-18.910156-.863281l-6.695312-6.683594c3.207031-2.75 5.546875-2.152343 7.058594-3.667969 2.015624-2.015624.3125-5.355468-.917969-6.597656-3.164063-3.15625-9.253907 1.46875-12.1875 4.21875l-1.136719-1.148437c-.648438-.640625-2.109375-.367188-2.976562.5-1.015626 1.011719-1.148438 2.339843-.511719 2.976562l1.285156 1.285157c-4.167969 5.542968-5.683594 12.644531.132813 18.460937 5.871093 5.859375 12.785156 2.882813 18.601562.273437l7.425781 7.425782c-3.992187 2.785156-8.25 1.648437-10.171875 3.570312-1.746094 1.742188-.828125 5.398438.730469 6.964844 2.933594 2.925781 10.265625 1.273438 15.9375-4.03125l1.148437 1.140625c.636719.644531 1.972657.5 2.976563-.503906.863281-.867188 1.148437-2.339844.5-2.976563zm-29.8125-17.910157c-1.097656-1.109375-1.285156-3.027343.363281-5.503906l5.453125 5.449219c-2.476562 1.015625-4.492187 1.378906-5.816406.054687zm22.996094 12-6.140625-6.140625c2.421875-.867187 4.53125-1.054687 6.042969.457032 1.652343 1.652343 1.285156 3.761718.097656 5.683593zm0 0" fill="#77d9a5"/><path d="m134.089844 362.199219c0 4.933593-3.996094 8.929687-8.929688 8.929687s-8.929687-3.996094-8.929687-8.929687c0-4.933594 3.996093-8.929688 8.929687-8.929688s8.929688 3.996094 8.929688 8.929688zm0 0" fill="#36b990"/><path d="m67.609375 429.144531c-2.828125-3.058593-5.566406-6.191406-8.238281-9.386719 2.054687.144532 4.070312 1 5.648437 2.578126 1.871094 1.867187 2.734375 4.363281 2.589844 6.808593zm0 0" fill="#36b990"/></svg>