<svg width="147" height="140" viewBox="0 0 147 140" fill="none" xmlns="http://www.w3.org/2000/svg">
<path d="M73.5 140C114.093 140 147 108.66 147 70C147 31.3401 114.093 0 73.5 0C32.9071 0 0 31.3401 0 70C0 108.66 32.9071 140 73.5 140Z" fill="#A1D7F3"/>
<path d="M146.598 77.3464L90.7567 24.1644L65.7791 21.7388L51.2528 35.5733V51.1814L39.0156 100.438L80.2448 139.704C115.131 136.68 142.973 110.445 146.598 77.3464V77.3464Z" fill="#72BBFF"/>
<path d="M55.2723 72.7582V43.7281C55.2723 34.1559 63.4492 26.3684 73.5 26.3684L76.3711 22.6267L73.5 18.1653C58.6998 18.1653 46.659 29.6327 46.659 43.7281V74.6427C46.659 78.1266 55.2723 72.7582 55.2723 72.7582Z" fill="white"/>
<path d="M73.5 18.1643V26.3674C83.5508 26.3674 91.7277 34.1549 91.7277 43.7272V72.7572C91.7277 72.7572 100.341 78.1259 100.341 74.6417V43.7274C100.341 29.632 88.3002 18.1643 73.5 18.1643V18.1643Z" fill="#E3EAEE"/>
<path d="M52.8379 52.7783C39.4979 52.7783 28.6837 63.0776 28.6837 75.7823C28.6837 93.9181 38.7486 102.309 55.1494 111.525L73.5 121.836L79.2422 86.7403L73.5 63.8618C69.2646 57.2173 61.5956 52.7783 52.8379 52.7783V52.7783Z" fill="#FF7CB7"/>
<path d="M94.1621 52.7783C85.4044 52.7783 77.7354 57.2173 73.5 63.8616V121.836L91.8503 111.525C108.251 102.31 118.316 93.9184 118.316 75.7826C118.316 63.0776 107.502 52.7783 94.1621 52.7783V52.7783Z" fill="#EC3C93"/>
<path d="M65.0466 79.8577C65.0466 82.7966 66.7007 85.3667 69.1701 86.7721L65.0466 101.673H73.5L76.3711 86.7401L73.5 71.8069C68.8313 71.8069 65.0466 75.4113 65.0466 79.8577V79.8577Z" fill="#5A5A5A"/>
<path d="M77.8302 86.7721C80.2993 85.3667 81.9536 82.7963 81.9536 79.8577C81.9536 75.4113 78.169 71.8069 73.5003 71.8069V101.674H81.9536L77.8302 86.7721Z" fill="#32393F"/>
</svg>
