<svg width="148" height="141" viewBox="0 0 148 141" fill="none" xmlns="http://www.w3.org/2000/svg">
<g clip-path="url(#clip0)">
<path d="M148 70.4999C148 109.436 114.869 141 73.9999 141C33.1315 141 0 109.436 0 70.4999C0 31.5634 33.1315 0 73.9999 0C114.869 0 148 31.5634 148 70.4999Z" fill="#EEDB00"/>
<path d="M4.28061 138.107C5.19296 137.48 6.23065 136.747 7.38577 135.92C9.70392 134.272 12.4805 132.237 15.6331 129.869C18.7879 127.505 22.3007 124.793 26.089 121.793C27.7703 120.462 29.5047 119.072 31.2842 117.629C32.5692 116.588 34.4447 116.556 35.776 117.543C46.6689 125.61 59.9816 129.984 74 129.984C88.0263 129.984 101.344 125.606 112.24 117.532C113.572 116.544 115.448 116.575 116.733 117.618C118.512 119.059 120.245 120.448 121.925 121.78C125.713 124.78 129.224 127.493 132.378 129.86C135.527 132.228 138.304 134.265 140.62 135.914C141.775 136.741 142.812 137.475 143.724 138.104C144.628 138.739 145.41 139.269 146.043 139.697L146.082 139.723C146.462 139.982 146.932 139.535 146.661 139.171L146.634 139.136C146.183 138.531 145.627 137.788 144.96 136.925C144.301 136.057 143.531 135.069 142.663 133.969C140.932 131.762 138.793 129.117 136.307 126.116C133.824 123.111 130.975 119.767 127.825 116.158C126.429 114.557 124.971 112.906 123.458 111.212C122.362 109.985 122.333 108.197 123.371 106.926C123.939 106.229 124.49 105.523 125.023 104.806C125.965 103.54 127.682 103.04 129.204 103.594C129.219 103.6 129.234 103.605 129.249 103.61C132.126 104.661 134.656 105.542 136.76 106.234C137.809 106.583 138.751 106.888 139.577 107.142C140.399 107.403 141.104 107.613 141.677 107.783L141.711 107.793C142.14 107.921 142.45 107.402 142.117 107.115L142.091 107.093C141.646 106.709 141.098 106.236 140.444 105.695C139.796 105.147 139.041 104.529 138.192 103.845C136.498 102.469 134.416 100.841 132.004 99.0137C131.997 99.0083 131.99 99.003 131.983 98.9976C130.706 98.0283 130.288 96.3598 130.959 94.9409C134.548 87.358 136.438 79.0673 136.438 70.5C136.438 57.1371 131.842 44.4498 123.366 34.0689C122.33 32.7995 122.363 31.0127 123.457 29.7885C124.971 28.0942 126.429 26.4429 127.825 24.8422C130.975 21.2331 133.824 17.8875 136.307 14.884C138.793 11.8827 140.93 9.23744 142.661 7.03108C143.531 5.9306 144.301 4.94306 144.96 4.07494C145.627 3.21219 146.183 2.46885 146.634 1.86428L146.66 1.82878C146.932 1.46518 146.462 1.01767 146.08 1.27693L146.043 1.30167C145.41 1.73089 144.628 2.26123 143.723 2.89592C142.812 3.52416 141.775 4.25781 140.62 5.08614C138.304 6.73418 135.527 8.77164 132.377 11.1404C129.223 13.506 125.713 16.2201 121.925 19.2203C120.244 20.551 118.511 21.9398 116.733 23.3824C115.445 24.4248 113.569 24.4538 112.235 23.4652C111.46 22.8908 110.673 22.3357 109.873 21.7989C108.563 20.9189 108.03 19.315 108.572 17.8767C109.094 16.4944 109.58 15.1723 110.029 13.9212C110.517 12.5647 110.963 11.29 111.358 10.1023C111.755 8.91686 112.127 7.83036 112.435 6.8353C112.754 5.84561 113.031 4.95812 113.259 4.17928C113.497 3.40582 113.685 2.74101 113.836 2.20099L113.845 2.16872C113.962 1.75671 113.412 1.48024 113.121 1.80512L113.098 1.82986C112.716 2.25478 112.248 2.77866 111.711 3.4026C111.167 4.0233 110.556 4.74297 109.88 5.55301C109.192 6.35767 108.462 7.26344 107.66 8.24668C106.856 9.22883 106.005 10.3003 105.106 11.4513C104.334 12.4399 103.525 13.4877 102.689 14.5903C101.717 15.8705 99.9445 16.3395 98.4179 15.722C90.7972 12.6368 82.5296 11.0156 74 11.0156C67.5503 11.0156 61.2508 11.9429 55.2674 13.7287C53.7137 14.1923 52.0267 13.5964 51.1708 12.2764C51.1053 12.1753 51.0399 12.0742 50.9744 11.9731C49.345 9.46334 47.885 7.29141 46.6441 5.51859C46.0264 4.6311 45.4698 3.84042 44.9718 3.1584C44.4818 2.47315 44.0515 1.89548 43.7015 1.42753L43.6801 1.39956C43.4181 1.04887 42.8388 1.2823 42.9213 1.70615L42.928 1.73949C43.0376 2.30534 43.1753 3.00134 43.3515 3.81246C43.5197 4.62895 43.7297 5.55946 43.9702 6.59863C44.4456 8.68128 45.0712 11.191 45.8322 14.0514C45.8627 14.1665 45.8943 14.2827 45.9248 14.3999C46.3257 15.9006 45.6075 17.4701 44.1803 18.2124C41.2501 19.7335 38.4397 21.4859 35.7737 23.4588C34.4436 24.4452 32.5692 24.4119 31.2854 23.3706C29.5047 21.928 27.7703 20.5392 26.089 19.2074C22.3007 16.2072 18.7879 13.4952 15.6331 11.1307C12.4816 8.76303 9.70392 6.72772 7.3869 5.07968C6.23065 4.25351 5.19409 3.51985 4.28061 2.89269C3.37503 2.258 2.59366 1.72874 1.95908 1.30059L1.92181 1.27477C1.5379 1.01552 1.06592 1.4641 1.33804 1.82986L1.36514 1.86643C1.81454 2.471 2.37122 3.21542 3.03628 4.07816C3.69571 4.94737 4.46579 5.93598 5.33298 7.03646C7.06171 9.24497 9.19919 11.8902 11.6833 14.8937C14.1652 17.8983 17.0118 21.2449 20.161 24.8551C21.5589 26.4569 23.0166 28.1081 24.5308 29.8046C25.6261 31.0309 25.6543 32.8178 24.6177 34.0893C24.0566 34.7767 23.5134 35.4748 22.9872 36.1827C22.0444 37.4478 20.3281 37.9469 18.8071 37.3951C18.7913 37.3886 18.7755 37.3832 18.7597 37.3778C15.8804 36.3279 13.3499 35.449 11.2452 34.7595C10.194 34.412 9.25339 34.1065 8.42685 33.8537C7.60483 33.5934 6.89798 33.3836 6.32437 33.2147L6.2905 33.205C5.85916 33.077 5.54752 33.5977 5.88174 33.8871L5.90884 33.9096C6.3526 34.2948 6.90024 34.767 7.55402 35.3092C8.20215 35.8589 8.95642 36.4764 9.80441 37.1616C11.497 38.5396 13.578 40.1683 15.9888 41.9982C15.9967 42.0035 16.0046 42.01 16.0125 42.0154C17.2884 42.9857 17.7062 44.6531 17.0355 46.0709C13.4504 53.6506 11.5625 61.9371 11.5625 70.5C11.5625 83.8554 16.1536 96.5384 24.6211 106.916C25.6577 108.186 25.6238 109.971 24.5308 111.195C23.0166 112.891 21.5589 114.543 20.161 116.145C17.0118 119.755 14.1652 123.102 11.6833 126.106C9.19919 129.11 7.06171 131.755 5.33298 133.964C4.46579 135.065 3.69571 136.053 3.03628 136.922C2.37122 137.785 1.81454 138.529 1.36514 139.134L1.33804 139.17C1.06592 139.536 1.5379 139.985 1.92181 139.725L1.95908 139.699C2.59366 139.271 3.37503 138.742 4.28061 138.107V138.107Z" fill="#8049BF"/>
<path d="M23.125 70.5C23.125 43.7742 45.9474 22.0312 74 22.0312C102.053 22.0312 124.875 43.7742 124.875 70.5C124.875 97.2258 102.053 118.969 74 118.969C45.9474 118.969 23.125 97.2258 23.125 70.5Z" fill="#8C5AC5"/>
<path d="M98.6742 64.1726V53.6367H35.4948V89.1557C35.4948 96.6536 40.716 102.988 47.8828 105.045V136.478C56.0047 139.398 64.8053 141 74 141C82.6527 141 90.9565 139.58 98.6742 136.98V64.1726Z" fill="#F9B7AA"/>
<path d="M94.8577 76.9275C90.174 76.9275 86.3766 73.3109 86.3766 68.8487V46.4065C86.3766 41.9443 90.174 38.3276 94.8577 38.3276C99.5414 38.3276 103.338 41.9454 103.338 46.4065V68.8487C103.338 73.3109 99.5403 76.9275 94.8577 76.9275Z" fill="#FFCBBE"/>
<path d="M92.1579 68.8487V46.4065C92.1579 42.9114 94.4873 39.9359 97.7483 38.8096C96.8461 38.4976 95.8728 38.3276 94.8577 38.3276C90.174 38.3276 86.3766 41.9443 86.3766 46.4065V68.8487C86.3766 73.3109 90.174 76.9275 94.8577 76.9275C95.8728 76.9275 96.8461 76.7575 97.7483 76.4456C94.4873 75.3193 92.1579 72.3438 92.1579 68.8487V68.8487Z" fill="#F9B7AA"/>
<path d="M43.9748 76.9275C39.291 76.9275 35.4948 73.3108 35.4948 68.8487V49.6821C35.4948 45.2199 39.2922 41.6033 43.9748 41.6033C48.6585 41.6033 52.4558 45.2199 52.4558 49.6821V68.8487C52.4558 73.3108 48.6585 76.9275 43.9748 76.9275Z" fill="#FFCBBE"/>
<path d="M41.2761 68.8487V49.6822C41.2761 46.1871 43.6055 43.2116 46.8654 42.0853C45.9632 41.7733 44.9899 41.6023 43.9748 41.6023C39.291 41.6023 35.4948 45.22 35.4948 49.6822V68.8487C35.4948 73.3109 39.2922 76.9276 43.9748 76.9276C44.9899 76.9276 45.9632 76.7576 46.8654 76.4457C43.6055 75.3193 41.2761 72.3438 41.2761 68.8487V68.8487Z" fill="#F9B7AA"/>
<path d="M60.9357 76.9275C56.252 76.9275 52.4558 73.3109 52.4558 68.8487V46.4065C52.4558 41.9443 56.252 38.3276 60.9357 38.3276C65.6194 38.3276 69.4156 41.9454 69.4156 46.4065V68.8487C69.4156 73.3109 65.6194 76.9275 60.9357 76.9275Z" fill="#FFCBBE"/>
<path d="M58.2371 68.8487V46.4065C58.2371 42.9114 60.5665 39.9359 63.8264 38.8096C62.9242 38.4976 61.9508 38.3276 60.9357 38.3276C56.252 38.3276 52.4558 41.9443 52.4558 46.4065V68.8487C52.4558 73.3109 56.252 76.9275 60.9357 76.9275C61.9508 76.9275 62.9242 76.7575 63.8264 76.4456C60.5665 75.3193 58.2371 72.3438 58.2371 68.8487V68.8487Z" fill="#F9B7AA"/>
<path d="M77.8967 76.9275C73.213 76.9275 69.4156 73.3109 69.4156 68.8487V43.1308C69.4156 38.6687 73.213 35.052 77.8967 35.052C82.5804 35.052 86.3766 38.6697 86.3766 43.1308V68.8487C86.3766 73.3109 82.5804 76.9275 77.8967 76.9275Z" fill="#FFCBBE"/>
<path d="M75.1969 68.8487V43.1308C75.1969 39.6368 77.5275 36.6602 80.7873 35.5339C79.8851 35.222 78.9118 35.052 77.8967 35.052C73.213 35.052 69.4156 38.6687 69.4156 43.1308V68.8487C69.4156 73.3109 73.213 76.9275 77.8967 76.9275C78.9118 76.9275 79.8851 76.7575 80.7873 76.4456C77.5275 75.3193 75.1969 72.3438 75.1969 68.8487V68.8487Z" fill="#F9B7AA"/>
<path d="M112.505 89.1556V65.9442C112.505 60.6688 108.016 56.3916 102.478 56.3916H75.679C74.3534 56.3916 73.2785 57.4157 73.2785 58.6786C73.2785 67.1351 80.4745 73.9908 89.3508 73.9908H94.336C94.9661 73.9908 95.1377 74.817 94.5551 75.045L78.074 81.4887C75.1732 82.6226 73.2785 85.3151 73.2785 88.3025V140.991C73.519 140.994 73.7595 141 74 141C82.6527 141 90.9565 139.581 98.6742 136.981V105.397C106.573 103.821 112.505 97.1494 112.505 89.1556V89.1556Z" fill="#FFDDCF"/>
</g>
<defs>
<clipPath id="clip0">
<rect width="148" height="141" fill="white"/>
</clipPath>
</defs>
</svg>
