<svg width="347" height="155" viewBox="0 0 347 155" fill="none" xmlns="http://www.w3.org/2000/svg">
<g clip-path="url(#clip0_1455_184)">
<path d="M19.591 79.6376C19.0669 76.4263 18.4163 73.3099 16.9163 70.8207C14.874 67.4383 11.2956 65.139 4.21099 65.082L4.10255 69.3195C6.61469 69.2435 9.03646 69.4905 11.0787 70.8587C12.8318 72.0178 14.2957 73.937 15.4162 77.1294C9.25333 74.9251 5.76526 75.5902 3.28927 77.2624C2.00609 78.1365 0.99401 79.2956 0 80.4737L2.8013 83.172C2.96396 82.925 3.14469 82.697 3.28927 82.4879C6.28938 78.7445 9.77745 78.8585 13.4643 80.9298C5.49417 84.9772 4.21099 92.065 4.62667 97.1766C4.98812 97.2336 8.54849 97.1766 8.54849 97.1766C8.2051 92.198 11.5847 85.5283 18.597 83.5141L19.6453 81.2528L19.591 79.6376Z" fill="#8000DB"/>
<path d="M72.0748 35.7617C83.8945 18.5268 89.714 9.9759 85.0511 5.83345C81.9607 3.11615 77.7858 5.03536 71.0446 10.3369C70.8097 15.9996 69.5084 24.0564 67.7734 34.7546L72.0748 35.7617Z" fill="#008298"/>
<path d="M79.557 139.114H75.2195C75.1111 145.632 75.2737 152.34 68.6591 154.487C68.8759 154.506 69.1109 154.544 69.3639 154.563C70.0687 154.639 70.7555 154.582 71.4242 154.43C79.6474 152.226 79.4305 145.575 79.557 139.114Z" fill="#580098"/>
<path d="M84.2379 139.114L79.6654 127.732H83.9306L80.3522 116.977H74.4243L77.1894 127.732H73.9001L77.4244 139.114H79.5389H84.2379Z" fill="#98005E"/>
<path d="M68.659 154.487C75.2737 152.34 75.1111 145.67 75.2195 139.114H59.5141C59.4238 148.824 62.7492 153.556 68.659 154.487Z" fill="#8000DB"/>
<path d="M73.8821 127.732H77.1533L74.4063 117.015L58.4298 116.939L54.7249 128.074L58.7732 128.397L54.7249 139.114H77.4425L73.8821 127.732Z" fill="#FF009E"/>
<path d="M40.7544 128.15L36.5254 116.863L30.5974 116.844L33.5253 127.922H30.1818L33.7963 139.418L41.2966 139.494L36.0735 128.112L40.7544 128.15Z" fill="#98005E"/>
<path d="M30.1456 127.884H33.4891L30.5794 116.806L14.368 116.73L10.4462 128.226L14.5849 128.549L10.4462 139.361L33.7422 139.418L30.1456 127.884Z" fill="#FF009E"/>
<path d="M67.1409 0.151937C60.7792 -1.46324 57.0743 9.21593 47.839 30.0802L67.7734 34.7357C69.4903 24.0376 70.8097 15.9807 71.0446 10.3181C71.2976 4.27539 70.2856 0.988028 67.1409 0.151937Z" fill="#00BEDD"/>
<path d="M79.3221 105.993L84.5813 106.355L78.9787 94.5922H83.5873L79.4305 83.894H75.8702H72.7797L76.5208 94.5922H72.364L77.4064 106.355L72.6713 105.993L77.7136 117.015L84.9066 117.034L79.3221 105.993Z" fill="#FF9900"/>
<path d="M84.5813 72.873L80.7137 61.4907H73.2315L76.4123 72.873H71.8037L75.8521 83.9322H83.8764L78.9425 72.873H84.5813Z" fill="#008298"/>
<path d="M47.8751 30.0991C47.839 30.1561 47.839 30.0991 47.8751 30.0991L39.0194 48.6262L43.9172 48.7402L38.0435 61.4906H80.6594L75.1471 59.0393C74.3158 58.6783 73.8098 57.9752 74.0266 57.5001C74.0447 57.4431 74.0808 57.4241 74.0989 57.3861C74.3519 57.0061 75.111 56.9491 75.8701 57.2721L76.105 57.3861L79.9726 59.1153L83.3161 60.5975V38.403L47.8751 30.0991Z" fill="#FFE001"/>
<path d="M69.3096 51.2298C71.9844 51.2298 74.1712 48.9495 74.1712 46.0802C74.1712 43.2489 72.0025 40.9307 69.3096 40.9307C66.6348 40.9307 64.448 43.2109 64.448 46.0802C64.448 48.9495 66.6529 51.2298 69.3096 51.2298ZM69.3096 43.534C70.647 43.534 71.7495 44.6931 71.7495 46.0992C71.7495 47.5054 70.647 48.6645 69.3096 48.6645C67.9722 48.6645 66.8698 47.5054 66.8698 46.0992C66.8878 44.6931 67.9722 43.534 69.3096 43.534Z" fill="white"/>
<path d="M69.4723 48.6451C70.8097 48.5691 71.8218 47.3529 71.7495 45.9278C71.6772 44.5216 70.5206 43.4195 69.1651 43.5335C67.8277 43.6095 66.8156 44.8256 66.8879 46.2508C66.9602 47.657 68.1349 48.7401 69.4723 48.6451Z" fill="black"/>
<path d="M83.28 61.4909V60.5788L76.0689 57.3294L75.834 57.2154C75.0749 56.8924 74.352 56.9494 74.0628 57.3294C74.0447 57.3484 74.0086 57.4054 73.9905 57.4434C73.8098 57.9185 74.2978 58.6216 75.1111 58.9826L80.6233 61.4339H80.7317L83.28 61.4909Z" fill="black"/>
<path d="M71.8398 72.873H76.4123L73.2495 61.4907H43.1943L38.6399 72.873H43.2123L38.8929 83.8942H38.9471V83.9132C39.0556 83.9132 39.164 83.9132 39.2544 83.9132H72.7435H75.852L71.8398 72.873Z" fill="#00BEDD"/>
<path d="M38.8749 83.8941L19.6272 81.1768L13.7535 93.7751H17.6573C17.2958 94.2882 16.8802 94.8773 16.5006 95.4853L21.9044 100.825L28.9167 93.8512L35.7483 100.996L42.7606 94.0222L49.7729 100.996L56.6044 93.8512L56.8213 94.0792L63.5986 100.806L70.6109 93.8322L73.2857 96.6065L72.4544 94.6302H76.6111L72.8701 83.9131H56.7671H38.9833H38.9291" fill="#FFE001"/>
<path d="M72.6893 105.994L77.4244 106.317L76.4484 104.094L70.5386 97.8799L63.5625 105.253L56.5502 97.8799L49.574 105.272L42.7244 98.0699L35.7121 105.044L28.9347 97.9559L21.9586 105.329L14.9824 97.9939C14.5306 98.792 11.8016 103.79 10.8438 105.69L16.1753 106.013L11.4402 116.73L77.8039 117.034L72.6893 105.994Z" fill="#FFE001"/>
<path d="M73.2676 96.5687L70.5928 93.7563L63.5805 100.73L56.5682 93.7563L49.7547 100.901L42.7424 93.9274L35.7482 100.901L28.9166 93.7563L21.9044 100.73L16.5006 95.3905C16.0126 96.1886 15.4523 97.0057 14.9644 97.9178L21.9405 105.253L28.9166 97.8798L35.694 104.968L42.7063 97.9938L49.5559 105.196L56.5682 97.8228L63.5805 105.196L70.5566 97.8228L76.4665 104.036L73.2676 96.5687Z" fill="black"/>
<path d="M31.6095 139.361C31.5011 145.936 31.6818 152.663 25.0491 154.829C25.4467 154.886 25.8624 154.943 26.278 154.962C26.6214 154.981 27.019 154.962 27.3443 154.886C27.6516 154.81 27.9769 154.715 28.266 154.639C28.6817 154.506 29.1335 154.373 29.495 154.221C29.748 154.107 29.983 153.993 30.2541 153.898C30.4167 153.822 30.5613 153.727 30.7059 153.651C30.8505 153.575 30.9951 153.48 31.1216 153.404C31.3384 153.271 31.5372 153.138 31.7541 152.986C31.8806 152.91 31.9891 152.796 32.1156 152.72C32.3686 152.492 32.6397 152.283 32.8746 152.036C33.1096 151.789 33.3445 151.523 33.5795 151.238C33.6518 151.124 33.7421 151.048 33.8144 150.934C33.9229 150.801 33.9952 150.668 34.0675 150.516C34.2301 150.25 34.3747 149.945 34.5193 149.66C34.5916 149.527 34.6458 149.356 34.7362 149.223C34.7542 149.147 34.8084 149.052 34.8446 148.976C34.8988 148.862 34.9169 148.729 34.9711 148.615C34.9892 148.558 35.0253 148.501 35.0253 148.425C35.0976 148.178 35.188 147.931 35.2422 147.646C35.2422 147.589 35.2603 147.532 35.2603 147.513C35.3145 147.342 35.3326 147.19 35.3687 147.019C35.3687 147 35.3868 146.943 35.3868 146.905C35.4049 146.715 35.4591 146.525 35.4952 146.297C35.5133 146.183 35.5133 146.069 35.5494 145.974C35.5675 145.86 35.5675 145.727 35.6037 145.613C35.6759 145.043 35.7302 144.511 35.7663 143.903C35.8205 143.181 35.8386 142.497 35.8386 141.794C35.8567 141.015 35.8567 140.273 35.8928 139.513L31.6095 139.361Z" fill="#580098"/>
<path d="M15.868 139.342C15.8499 141.242 15.9403 142.953 16.1752 144.492C16.2475 145.1 16.3559 145.651 16.4824 146.202C16.5547 146.563 16.6632 146.924 16.7355 147.247C18.0909 151.808 20.9103 154.202 24.9767 154.867C31.6095 152.701 31.4287 145.955 31.5372 139.399H15.868V139.342Z" fill="#8000DB"/>
<path d="M99.1119 50.2227C97.5215 54.4601 92.2442 57.8995 83.2078 58.7356V60.5788V61.4909C83.8403 61.4719 84.3825 61.4149 84.9789 61.3769C85.6838 61.3199 86.3344 61.2439 86.985 61.1299C87.5814 61.0538 88.1417 60.9398 88.6839 60.8258C91.1237 60.3128 93.1298 59.5147 94.7563 58.5076C95.0997 58.2795 95.4612 58.0705 95.7504 57.8235C95.913 57.7095 96.0395 57.5955 96.2022 57.4624C96.6179 57.1014 97.0335 56.6834 97.3769 56.3033C97.6119 56.0563 97.7926 55.7903 98.0095 55.4862C98.4613 54.7642 98.8228 54.0611 99.0216 53.32C99.2926 52.3319 99.3288 51.2868 99.1119 50.2227Z" fill="#98005E"/>
<path d="M85.2138 38.8974C84.5813 38.7264 83.9668 38.5363 83.28 38.4033V44.18V49.9566V58.7736C92.2803 57.9185 97.5576 54.4601 99.1842 50.2606C98.3528 45.9091 93.7081 41.3866 85.2138 38.8974Z" fill="#FF009E"/>
<path d="M170.97 58.6212C174.06 61.4715 175.633 65.405 175.633 70.4785C175.633 75.5331 174.096 79.4665 170.97 82.3358C167.879 85.1861 163.596 86.6303 158.138 86.6303H148.126V104.321H138.186V54.3647H158.138C163.596 54.3647 167.861 55.7899 170.97 58.6212ZM165.53 70.4785C165.53 65.2339 162.548 62.6117 156.62 62.6117H148.126V78.3644H156.62C162.548 78.3644 165.53 75.7231 165.53 70.4785Z" fill="black"/>
<path d="M180.35 55.505C180.35 51.7616 182.392 49.8994 186.476 49.8994C190.561 49.8994 192.603 51.7616 192.603 55.505C192.603 59.1914 190.561 61.0346 186.476 61.0346C182.392 61.0346 180.35 59.1724 180.35 55.505ZM191.356 104.321H181.506V66.4692H191.356V104.321Z" fill="black"/>
<path d="M230.502 69.2623C232.888 71.6186 234.062 75.039 234.062 79.4855V104.321H224.213V82.4308C224.213 76.7492 222.044 73.8798 217.725 73.8798C215.429 73.8798 213.495 74.7349 211.887 76.4071C210.297 78.1173 209.501 80.7206 209.501 84.236V104.321H199.652V66.469H208.507L208.869 73.4998C210.025 70.9155 211.634 68.9963 213.767 67.6662C215.881 66.355 218.321 65.6899 221.122 65.6899C224.972 65.7279 228.116 66.9061 230.502 69.2623Z" fill="black"/>
<path d="M277.239 97.5756L276.66 104.017C275.413 104.682 273.859 105.005 271.979 105.005C269.865 104.948 268.057 104.492 266.539 103.58C265.021 102.668 264.009 101.357 263.485 99.6469C262.383 101.357 260.774 102.706 258.678 103.656C256.563 104.625 254.358 105.081 252.063 105.081C248.322 105.081 245.394 104.207 243.298 102.44C241.201 100.673 240.153 98.1457 240.153 94.8773C240.153 92.103 241.02 89.8228 242.719 88.0366C244.418 86.2504 246.894 84.9773 250.165 84.2932L262.563 81.6519V80.2267C262.563 78.1175 261.985 76.4263 260.81 75.1912C259.635 73.9561 258.099 73.348 256.147 73.348C252.208 73.348 249.659 75.4002 248.521 79.5617L240.099 76.8444C240.966 73.405 242.791 70.7067 245.557 68.7305C248.322 66.7543 252.009 65.7852 256.563 65.7852C261.407 65.7852 265.238 67.0013 268.094 69.3956C270.913 71.7898 272.323 75.2482 272.323 79.8087V95.0674C272.323 96.9866 273.19 97.9557 274.907 97.9557C275.757 97.9747 276.534 97.8227 277.239 97.5756ZM260.304 95.9985C261.822 94.8393 262.581 92.9771 262.581 90.3929V88.0556L255.027 89.6518C253.256 90.0128 251.973 90.4689 251.213 91.0769C250.454 91.685 250.057 92.6161 250.057 93.8892C250.057 95.1054 250.509 96.0365 251.358 96.7206C252.226 97.4046 253.292 97.7467 254.593 97.7467C256.87 97.7467 258.786 97.1386 260.304 95.9985Z" fill="black"/>
<path d="M306.101 101.984C304.89 102.953 303.462 103.694 301.727 104.264C300.029 104.815 298.221 105.081 296.288 105.081C288.137 105.081 284.052 101.262 284.052 93.6421V74.184H277.438V66.4501H284.052V57.7282L293.902 54.8398V66.4121H305.432V74.165H293.902V91.9699C293.902 95.4663 295.547 97.1955 298.872 97.1955C301.041 97.1955 302.902 96.4734 304.493 95.0863L306.101 101.984Z" fill="black"/>
<path d="M347 97.5756L346.422 104.017C345.175 104.682 343.621 105.005 341.741 105.005C339.626 104.948 337.819 104.492 336.301 103.58C334.783 102.668 333.771 101.357 333.247 99.6469C332.144 101.357 330.536 102.706 328.439 103.656C326.325 104.625 324.12 105.081 321.825 105.081C318.084 105.081 315.156 104.207 313.059 102.44C310.963 100.673 309.915 98.1457 309.915 94.8773C309.915 92.103 310.782 89.8228 312.481 88.0366C314.18 86.2504 316.656 84.9773 319.927 84.2932L332.325 81.6519V80.2267C332.325 78.1175 331.747 76.4263 330.572 75.1912C329.397 73.9561 327.861 73.348 325.909 73.348C321.969 73.348 319.421 75.4002 318.282 79.5617L309.86 76.8444C310.728 73.405 312.553 70.7067 315.318 68.7305C318.084 66.7543 321.77 65.7852 326.325 65.7852C331.168 65.7852 335 67.0013 337.855 69.3956C340.675 71.7898 342.084 75.2482 342.084 79.8087V95.0674C342.084 96.9866 342.952 97.9557 344.669 97.9557C345.518 97.9747 346.295 97.8227 347 97.5756ZM330.066 95.9985C331.584 94.8393 332.343 92.9771 332.343 90.3929V88.0556L324.789 89.6518C323.017 90.0128 321.734 90.4689 320.975 91.0769C320.216 91.685 319.819 92.6161 319.819 93.8892C319.819 95.1054 320.27 96.0365 321.12 96.7206C321.987 97.4046 323.054 97.7467 324.355 97.7467C326.632 97.7467 328.548 97.1386 330.066 95.9985Z" fill="black"/>
</g>
<defs>
<clipPath id="clip0_1455_184">
<rect width="347" height="155" fill="white"/>
</clipPath>
</defs>
</svg>
