<svg width="200" height="200" viewBox="0 0 200 200" fill="none" xmlns="http://www.w3.org/2000/svg">
<path d="M100 200C155.228 200 200 155.228 200 100C200 44.7715 155.228 0 100 0C44.7715 0 0 44.7715 0 100C0 155.228 44.7715 200 100 200Z" fill="#FF51E3"/>
<path d="M69.7148 150H58.8164V77.7539L36.9609 85.7812V75.9375L68.0156 64.2773H69.7148V150ZM153.211 86.9531C153.211 91.2109 152.078 95 149.812 98.3203C147.586 101.641 144.559 104.238 140.73 106.113C145.184 108.027 148.699 110.82 151.277 114.492C153.895 118.164 155.203 122.324 155.203 126.973C155.203 134.355 152.703 140.234 147.703 144.609C142.742 148.984 136.199 151.172 128.074 151.172C119.871 151.172 113.289 148.984 108.328 144.609C103.406 140.195 100.945 134.316 100.945 126.973C100.945 122.363 102.195 118.203 104.695 114.492C107.234 110.781 110.73 107.969 115.184 106.055C111.395 104.18 108.406 101.582 106.219 98.2617C104.031 94.9414 102.938 91.1719 102.938 86.9531C102.938 79.7656 105.242 74.0625 109.852 69.8438C114.461 65.625 120.535 63.5156 128.074 63.5156C135.574 63.5156 141.629 65.625 146.238 69.8438C150.887 74.0625 153.211 79.7656 153.211 86.9531ZM144.363 126.738C144.363 121.973 142.84 118.086 139.793 115.078C136.785 112.07 132.84 110.566 127.957 110.566C123.074 110.566 119.148 112.051 116.18 115.02C113.25 117.988 111.785 121.895 111.785 126.738C111.785 131.582 113.211 135.391 116.062 138.164C118.953 140.938 122.957 142.324 128.074 142.324C133.152 142.324 137.137 140.938 140.027 138.164C142.918 135.352 144.363 131.543 144.363 126.738ZM128.074 72.4219C123.816 72.4219 120.359 73.75 117.703 76.4062C115.086 79.0234 113.777 82.5977 113.777 87.1289C113.777 91.4648 115.066 94.9805 117.645 97.6758C120.262 100.332 123.738 101.66 128.074 101.66C132.41 101.66 135.867 100.332 138.445 97.6758C141.062 94.9805 142.371 91.4648 142.371 87.1289C142.371 82.793 141.023 79.2578 138.328 76.5234C135.633 73.7891 132.215 72.4219 128.074 72.4219Z" fill="white"/>
<path d="M170 60C186.569 60 200 46.5685 200 30C200 13.4315 186.569 0 170 0C153.431 0 140 13.4315 140 30C140 46.5685 153.431 60 170 60Z" fill="#17B7FF"/>
<path d="M171.357 28.9326H181.27V33.2051H171.357V44.4355H166.816V33.2051H156.904V28.9326H166.816V18.5566H171.357V28.9326Z" fill="white"/>
</svg>
