<svg id="eVFfCtLaSyx1" xmlns="http://www.w3.org/2000/svg" xmlns:xlink="http://www.w3.org/1999/xlink" viewBox="0 0 421.602000 421.602000" shape-rendering="geometricPrecision" text-rendering="geometricPrecision"><style><![CDATA[#eVFfCtLaSyx33_tr {animation: eVFfCtLaSyx33_tr__tr 1250ms linear infinite normal forwards}@keyframes eVFfCtLaSyx33_tr__tr { 0% {transform: translate(326.363510px,267.588989px) rotate(0deg)} 24% {transform: translate(326.363510px,267.588989px) rotate(-30.101131deg)} 64% {transform: translate(326.363510px,267.588989px) rotate(28.362504deg)} 80% {transform: translate(326.363510px,267.588989px) rotate(-0.088012deg)} 100% {transform: translate(326.363510px,267.588989px) rotate(-0.088012deg)}} #eVFfCtLaSyx33_ts {animation: eVFfCtLaSyx33_ts__ts 1250ms linear infinite normal forwards}@keyframes eVFfCtLaSyx33_ts__ts { 0% {transform: scale(2,2)} 24% {transform: scale(1,1)} 64% {transform: scale(1,1)} 80% {transform: scale(2,2)} 100% {transform: scale(2,2)}} #eVFfCtLaSyx60_tr {animation: eVFfCtLaSyx60_tr__tr 1250ms linear infinite normal forwards}@keyframes eVFfCtLaSyx60_tr__tr { 0% {transform: translate(240.484001px,325.346497px) rotate(0deg)} 8% {transform: translate(240.484001px,325.346497px) rotate(-18.072548deg)} 16% {transform: translate(240.484001px,325.346497px) rotate(-59.169982deg)} 24% {transform: translate(240.484001px,325.346497px) rotate(-94.423099deg)} 32% {transform: translate(240.484001px,325.346497px) rotate(-136.301958deg)} 40% {transform: translate(240.484001px,325.346497px) rotate(-183.636204deg)} 48% {transform: translate(240.484001px,325.346497px) rotate(-223.821868deg)} 56% {transform: translate(240.484001px,325.346497px) rotate(-270.480788deg)} 64% {transform: translate(240.484001px,325.346497px) rotate(-304.829343deg)} 72% {transform: translate(240.484001px,325.346497px) rotate(-341.887352deg)} 80% {transform: translate(240.484001px,325.346497px) rotate(-361.177503deg)} 100% {transform: translate(240.484001px,325.346497px) rotate(-361.177503deg)}} #eVFfCtLaSyx77_to {animation: eVFfCtLaSyx77_to__to 1250ms linear infinite normal forwards}@keyframes eVFfCtLaSyx77_to__to { 0% {transform: translate(91.450996px,298.519485px)} 16% {transform: translate(91.450996px,294.119000px)} 32% {transform: translate(91.450996px,298.519485px)} 48% {transform: translate(91.450996px,294.119000px)} 64% {transform: translate(91.450996px,298.519485px)} 80% {transform: translate(91.450996px,294.119000px)} 100% {transform: translate(91.450996px,294.119000px)}} #eVFfCtLaSyx82_to {animation: eVFfCtLaSyx82_to__to 1250ms linear infinite normal forwards}@keyframes eVFfCtLaSyx82_to__to { 0% {transform: translate(114.135006px,293.520000px)} 16% {transform: translate(115.841004px,302.775372px)} 32% {transform: translate(114.135006px,293.520000px)} 48% {transform: translate(115.841004px,302.775372px)} 64% {transform: translate(114.135006px,293.520000px)} 80% {transform: translate(115.841004px,302.775372px)} 100% {transform: translate(115.841004px,302.775372px)}} #eVFfCtLaSyx87_to {animation: eVFfCtLaSyx87_to__to 1250ms linear infinite normal forwards}@keyframes eVFfCtLaSyx87_to__to { 0% {transform: translate(136.820004px,298.519485px)} 16% {transform: translate(136.820004px,295.712248px)} 32% {transform: translate(136.820004px,299.959410px)} 48% {transform: translate(136.820004px,295.723245px)} 64% {transform: translate(136.820004px,300.472120px)} 80% {transform: translate(136.820004px,294.725925px)} 100% {transform: translate(136.820004px,294.725925px)}} #eVFfCtLaSyx92_tr {animation: eVFfCtLaSyx92_tr__tr 1250ms linear infinite normal forwards}@keyframes eVFfCtLaSyx92_tr__tr { 0% {transform: translate(151.035999px,246.555504px) rotate(0.822980deg)} 24% {transform: translate(151.035999px,246.555504px) rotate(-2.166522deg)} 64% {transform: translate(151.035999px,246.555504px) rotate(1.756015deg)} 88% {transform: translate(151.035999px,246.555504px) rotate(-0.019310deg)} 100% {transform: translate(151.035999px,246.555504px) rotate(-0.019310deg)}} #eVFfCtLaSyx111_tr {animation: eVFfCtLaSyx111_tr__tr 1250ms linear infinite normal forwards}@keyframes eVFfCtLaSyx111_tr__tr { 0% {transform: translate(151.035999px,229.194504px) rotate(0deg)} 24% {transform: translate(151.035999px,229.194504px) rotate(-2.873933deg)} 64% {transform: translate(151.035999px,229.194504px) rotate(2.570023deg)} 88% {transform: translate(151.035999px,229.194504px) rotate(0.602820deg)} 100% {transform: translate(151.035999px,229.194504px) rotate(0.602820deg)}} #eVFfCtLaSyx131_tr {animation: eVFfCtLaSyx131_tr__tr 1250ms linear infinite normal forwards}@keyframes eVFfCtLaSyx131_tr__tr { 0% {transform: translate(210.801010px,125.209499px) rotate(0deg)} 24% {transform: translate(210.801010px,125.209499px) rotate(1.762370deg)} 64% {transform: translate(210.801010px,125.209499px) rotate(-1.527545deg)} 80% {transform: translate(210.801010px,125.209499px) rotate(-0.609826deg)} 100% {transform: translate(210.801010px,125.209499px) rotate(-0.609826deg)}} #eVFfCtLaSyx146 {animation: eVFfCtLaSyx146_c_o 1250ms linear infinite normal forwards}@keyframes eVFfCtLaSyx146_c_o { 0% {opacity: 0} 24% {opacity: 0} 64% {opacity: 1} 100% {opacity: 1}}]]></style><defs><filter id="eVFfCtLaSyx112-filter" x="-400%" width="600%" y="-400%" height="600%"><feColorMatrix id="eVFfCtLaSyx112-filter-hue-rotate-0" type="hueRotate" values="-222" result="result"/></filter></defs><g id="eVFfCtLaSyx2"><rect id="eVFfCtLaSyx3" width="356.720000" height="318.315000" rx="0" ry="0" transform="matrix(1 0 0 1 32.34072329000003 94.64200000000000)" fill="rgb(246,115,169)" stroke="none" stroke-width="1"/><path id="eVFfCtLaSyx4" d="M32.670000,119.696000L32.670000,158.672000L32.670000,176.272000C38.387000,172.514000,42.156000,166.038000,42.160000,158.682000C42.167000,170.326000,51.600000,179.755000,63.233000,179.755000C74.882000,179.755000,84.317000,170.320000,84.318000,158.672000L84.318000,158.672000C84.320000,170.320000,93.755000,179.755000,105.404000,179.755000C117.040000,179.755000,126.475000,170.320000,126.477000,158.672000L126.477000,158.672000C126.479000,170.320000,135.914000,179.755000,147.562000,179.755000C159.198000,179.755000,168.633000,170.320000,168.635000,158.672000L168.635000,158.672000C168.637000,170.320000,178.072000,179.755000,189.721000,179.755000C201.357000,179.755000,210.792000,170.320000,210.794000,158.672000L210.794000,158.672000C210.796000,170.320000,220.243000,179.755000,231.880000,179.755000C243.517000,179.755000,252.964000,170.320000,252.965000,158.672000L252.965000,158.672000C252.967000,170.320000,262.402000,179.755000,274.038000,179.755000C285.687000,179.755000,295.122000,170.320000,295.124000,158.672000L295.124000,158.672000C295.126000,170.320000,304.561000,179.755000,316.197000,179.755000C327.846000,179.755000,337.281000,170.320000,337.282000,158.672000L337.282000,158.672000C337.284000,170.320000,346.719000,179.755000,358.355000,179.755000C369.995000,179.755000,379.422000,170.335000,379.439000,158.700000C379.449000,166.248000,383.415000,172.857000,389.388000,176.573000L389.388000,158.673000L389.388000,119.697000L32.670000,119.697000L32.670000,119.696000Z" transform="matrix(1 0 0 1 -0.32927670999999 0)" opacity="0.34" fill="rgb(45,65,81)" stroke="none" stroke-width="1"/><g id="eVFfCtLaSyx5" transform="matrix(1 0 0.01920098090772 1 -2.92327243497508 0)"><path id="eVFfCtLaSyx6" d="M42.159000,147.336000C42.159000,158.986000,32.723000,168.422000,21.073000,168.422000C9.436000,168.422000,0,158.986000,0,147.336000L28.304000,136.070000" transform="matrix(0.99999116940994 0.00420251140820 -0.00420251140820 0.99999116940994 1.13101193481274 -0.17568640809685)" fill="rgb(255,76,173)" stroke="none" stroke-width="1"/><path id="eVFfCtLaSyx7" d="M84.318000,147.336000C84.318000,158.986000,74.882000,168.422000,63.232000,168.422000C51.595000,168.422000,42.159000,158.986000,42.159000,147.336000" transform="matrix(1 0 0 1 0.34249114999999 0)" fill="rgb(209,209,209)" stroke="none" stroke-width="1"/><path id="eVFfCtLaSyx8" d="M126.477000,147.336000C126.477000,158.986000,117.041000,168.422000,105.404000,168.422000C93.754000,168.422000,84.318000,158.986000,84.318000,147.336000" transform="matrix(1 0 0 1 1.17137350000002 0)" fill="rgb(255,76,173)" stroke="none" stroke-width="1"/><path id="eVFfCtLaSyx9" d="M168.636000,147.336000C168.636000,158.986000,159.200000,168.422000,147.563000,168.422000C135.913000,168.422000,126.477000,158.986000,126.477000,147.336000" transform="matrix(1 0 0 1 0.27604864999998 0)" fill="rgb(209,209,209)" stroke="none" stroke-width="1"/><path id="eVFfCtLaSyx10" d="M210.795000,147.336000C210.795000,158.986000,201.359000,168.422000,189.722000,168.422000C178.072000,168.422000,168.636000,158.986000,168.636000,147.336000" transform="matrix(1 0 0 1 0.56434077000003 0)" fill="rgb(255,76,173)" stroke="none" stroke-width="1"/><path id="eVFfCtLaSyx11" d="M252.966000,147.336000C252.966000,158.986000,243.518000,168.422000,231.880000,168.422000C220.243000,168.422000,210.794000,158.986000,210.794000,147.336000" fill="rgb(209,209,209)" stroke="none" stroke-width="1"/><path id="eVFfCtLaSyx12" d="M295.125000,147.336000C295.125000,158.986000,285.689000,168.422000,274.039000,168.422000C262.402000,168.422000,252.966000,158.986000,252.966000,147.336000" transform="matrix(1 0 0 1 1.17137350000002 0)" fill="rgb(255,76,173)" stroke="none" stroke-width="1"/><path id="eVFfCtLaSyx13" d="M337.284000,147.336000C337.284000,158.986000,327.848000,168.422000,316.198000,168.422000C304.561000,168.422000,295.125000,158.986000,295.125000,147.336000" transform="matrix(1 0 0 1 0.18876657999999 0)" fill="rgb(209,209,209)" stroke="none" stroke-width="1"/><path id="eVFfCtLaSyx14" d="M379.443000,147.336000C379.443000,158.986000,370.007000,168.422000,358.357000,168.422000C346.720000,168.422000,337.284000,158.986000,337.284000,147.336000" transform="matrix(1 0 0 1 0.18876658000005 0)" fill="rgb(255,76,173)" stroke="none" stroke-width="1"/><path id="eVFfCtLaSyx15" d="M379.443000,147.336000C379.443000,158.986000,388.879000,168.422000,400.529000,168.422000C412.166000,168.422000,421.602000,158.986000,421.602000,147.336000L399.804000,138.570000" fill="rgb(209,209,209)" stroke="none" stroke-width="1"/></g><polygon id="eVFfCtLaSyx16" points="103.918000,82.639000 68.292000,82.639000 42.159000,147.336000 84.318000,147.336000" transform="matrix(1 0 0 1 -0.27538951500000 0)" fill="rgb(230,230,230)" stroke="none" stroke-width="1"/><polygon id="eVFfCtLaSyx17" points="175.170000,82.639000 139.544000,82.639000 126.477000,147.336000 168.636000,147.336000" transform="matrix(1 0 0 1 0.21000000499998 0)" fill="rgb(230,230,230)" stroke="none" stroke-width="1"/><polygon id="eVFfCtLaSyx18" points="246.421000,82.639000 210.796000,82.639000 210.795000,147.336000 252.954000,147.336000" fill="rgb(230,230,230)" stroke="none" stroke-width="1"/><polygon id="eVFfCtLaSyx19" points="317.673000,82.639000 282.047000,82.639000 295.113000,147.336000 337.272000,147.336000" fill="rgb(230,230,230)" stroke="none" stroke-width="1"/><polygon id="eVFfCtLaSyx20" points="388.935000,82.639000 353.309000,82.639000 379.443000,147.336000 421.601000,147.336000" fill="rgb(240,239,238)" stroke="none" stroke-width="1"/><polygon id="eVFfCtLaSyx21" points="388.935000,8.644000 32.666000,8.644000 32.666000,82.639000 0,147.336000 42.159000,147.336000 68.292000,82.639000 103.918000,82.639000 84.318000,147.336000 126.477000,147.336000 139.544000,82.639000 175.170000,82.639000 168.636000,147.336000 210.795000,147.336000 210.796000,82.639000 246.422000,82.639000 252.954000,147.336000 295.113000,147.336000 282.047000,82.639000 317.683000,82.639000 337.284000,147.336000 379.443000,147.336000 353.309000,82.639000 388.935000,82.639000" fill="rgb(254,77,173)" stroke="none" stroke-width="1"/><rect id="eVFfCtLaSyx22" width="207.333000" height="179.333000" rx="0" ry="0" transform="matrix(1.12046630089670 0 0 1.16190768300765 37.13520401675476 184.81830434631240)" fill="rgb(255,60,166)" stroke="none" stroke-width="1"/><rect id="eVFfCtLaSyx23" width="207.333000" height="179.333000" rx="0" ry="0" transform="matrix(1.05615308039962 0 0 1.06391028420528 42.26715922725944 193.60538834527642)" fill="rgb(250,253,253)" stroke="none" stroke-width="1"/><rect id="eVFfCtLaSyx24" width="207.333000" height="179.333000" rx="0" ry="0" transform="matrix(1 0 0 1 47.36699999999999 199.33600000000001)" fill="rgb(255,60,166)" stroke="none" stroke-width="1"/><polygon id="eVFfCtLaSyx25" points="224.651000,206.335000 77.751000,206.335000 71.461000,206.335000 65.641000,206.335000 62.281000,206.335000 54.371000,206.335000 54.371000,209.245000 54.371000,217.165000 54.371000,226.605000 54.371000,234.525000 54.371000,371.665000 247.701000,371.665000 247.701000,234.575000 247.701000,226.655000 247.701000,217.215000 247.701000,209.295000 247.701000,206.335000 240.071000,206.335000 236.241000,206.335000 230.561000,206.335000" fill="rgb(45,65,81)" stroke="none" stroke-width="1"/><rect id="eVFfCtLaSyx26" width="101.994000" height="227.943000" rx="0" ry="0" transform="matrix(1 0 0 1 275.36700000000002 185.01400000000001)" fill="rgb(254,60,167)" stroke="none" stroke-width="1"/><rect id="eVFfCtLaSyx27" width="89.369000" height="152.148000" rx="0" ry="0" transform="matrix(1 0 0 1 281.82100000000003 191.18799999999999)" fill="rgb(250,253,253)" stroke="none" stroke-width="1"/><rect id="eVFfCtLaSyx28" width="79.188000" height="139.527000" rx="0" ry="0" transform="matrix(1 0 0 1 286.91100000000000 197.49799999999999)" fill="rgb(254,60,167)" stroke="none" stroke-width="1"/><rect id="eVFfCtLaSyx29" width="69.607000" height="130.489000" rx="0" ry="0" transform="matrix(1 0 0 1 291.69999999999999 202.01700000000000)" fill="rgb(45,65,81)" stroke="none" stroke-width="1"/><rect id="eVFfCtLaSyx30" width="89.368000" height="58.072000" rx="0" ry="0" transform="matrix(1 0 0 1 281.43299999999999 348.69700000000000)" fill="rgb(255,255,255)" stroke="none" stroke-width="1"/><rect id="eVFfCtLaSyx31" width="79.188000" height="48.299000" rx="0" ry="0" transform="matrix(1 0 0 1 286.52100000000002 353.58199999999999)" fill="rgb(255,60,166)" stroke="none" stroke-width="1"/><rect id="eVFfCtLaSyx32" width="67.188000" height="36.299000" rx="0" ry="0" transform="matrix(1 0 0 1 292.52100000000002 359.58199999999999)" fill="rgb(45,65,81)" stroke="none" stroke-width="1"/><g id="eVFfCtLaSyx33_tr" transform="translate(326.363510,267.588989) rotate(0)"><g id="eVFfCtLaSyx33_ts" transform="scale(2,2)"><g id="eVFfCtLaSyx33" transform="translate(-326.363510,-267.588989)"><path id="eVFfCtLaSyx34" d="M343.245000,269.860000C343.245000,272.061000,341.445000,273.860000,339.245000,273.860000L313.482000,273.860000C311.282000,273.860000,309.482000,272.061000,309.482000,269.860000L309.482000,264.567000C309.482000,262.368000,311.282000,260.567000,313.482000,260.567000L339.245000,260.567000C341.445000,260.567000,343.245000,262.368000,343.245000,264.567000L343.245000,269.860000Z" fill="rgb(177,126,232)" stroke="none" stroke-width="1"/><polygon id="eVFfCtLaSyx35" points="338.033000,262.319000 326.122000,253.301000 314.760000,262.098000 314.424000,261.664000 326.120000,252.610000 338.365000,261.882000" fill="rgb(193,185,188)" stroke="none" stroke-width="1"/><circle id="eVFfCtLaSyx36" r="2.469000" transform="matrix(1 0 0 1 326.08300000000003 252.96299999999999)" fill="rgb(216,212,213)" stroke="none" stroke-width="1"/><path id="eVFfCtLaSyx37" d="M318.309000,262.957000C318.910000,262.957000,319.421000,263.170000,319.842000,263.593000C320.263000,264.016000,320.473000,264.526000,320.473000,265.122000L320.473000,270.057000C320.473000,270.659000,320.261000,271.169000,319.838000,271.590000C319.415000,272.011000,318.905000,272.221000,318.309000,272.221000C317.708000,272.221000,317.198000,272.010000,316.780000,271.586000C316.362000,271.163000,316.152000,270.653000,316.152000,270.057000L316.152000,265.122000C316.152000,264.521000,316.364000,264.010000,316.787000,263.589000C317.208000,263.168000,317.716000,262.957000,318.309000,262.957000ZM319.051000,265.094000C319.051000,264.877000,318.975000,264.694000,318.824000,264.541000C318.672000,264.390000,318.489000,264.314000,318.272000,264.314000C318.056000,264.314000,317.871000,264.389000,317.717000,264.541000C317.563000,264.693000,317.486000,264.877000,317.486000,265.094000L317.486000,270.043000C317.486000,270.259000,317.563000,270.443000,317.717000,270.594000C317.871000,270.746000,318.056000,270.822000,318.272000,270.822000C318.489000,270.822000,318.672000,270.747000,318.824000,270.594000C318.975000,270.444000,319.051000,270.259000,319.051000,270.043000L319.051000,265.094000Z" fill="rgb(250,252,252)" stroke="none" stroke-width="1"/><path id="eVFfCtLaSyx38" d="M323.827000,263.073000C324.491000,263.073000,325.020000,263.282000,325.414000,263.701000C325.779000,264.099000,325.962000,264.609000,325.962000,265.230000L325.962000,266.543000C325.962000,267.140000,325.754000,267.649000,325.338000,268.072000C324.922000,268.496000,324.418000,268.707000,323.826000,268.707000L323.040000,268.707000L323.040000,272.113000L321.676000,272.113000L321.676000,263.073000L323.827000,263.073000L323.827000,263.073000ZM324.642000,265.253000C324.642000,265.017000,324.571000,264.827000,324.429000,264.683000C324.287000,264.539000,324.098000,264.466000,323.863000,264.466000L323.041000,264.466000L323.041000,267.360000L323.863000,267.360000C324.080000,267.360000,324.263000,267.283000,324.415000,267.129000C324.566000,266.976000,324.642000,266.791000,324.642000,266.574000L324.642000,265.253000L324.642000,265.253000Z" transform="matrix(1 0 0 1 0.54349999999999 0)" fill="rgb(250,252,252)" stroke="none" stroke-width="1"/><path id="eVFfCtLaSyx39" d="M327.051000,272.115000L327.051000,263.068000L330.932000,263.068000L330.932000,264.438000L328.414000,264.438000L328.414000,266.906000L330.254000,266.906000L330.254000,268.277000L328.414000,268.277000L328.414000,270.744000L330.932000,270.744000L330.932000,272.115000L327.051000,272.115000Z" fill="rgb(250,252,252)" stroke="none" stroke-width="1"/><path id="eVFfCtLaSyx40" d="M333.401000,263.067000L335.211000,269.147000L335.211000,263.067000L336.575000,263.067000L336.575000,272.114000L335.110000,272.114000L333.235000,266.321000L333.235000,272.114000L331.871000,272.114000L331.871000,263.067000L333.401000,263.067000Z" fill="rgb(250,252,252)" stroke="none" stroke-width="1"/></g></g></g><path id="eVFfCtLaSyx41" d="M357.004000,237.594000L357.004000,328.594000L304.947000,328.594000C304.947000,328.594000,350.627000,313.981000,357.004000,237.594000Z" opacity="0.2" fill="rgb(252,250,250)" stroke="none" stroke-width="1"/><path id="eVFfCtLaSyx42" d="M305.336000,393.623000L357.004000,393.623000L357.004000,364.066000C357.004000,364.066000,348.706000,390.003000,305.336000,393.623000Z" opacity="0.2" fill="rgb(252,250,250)" stroke="none" stroke-width="1"/><circle id="eVFfCtLaSyx43" r="8.500000" transform="matrix(1 0 0 1 297.20100000000002 313.64499999999998)" fill="rgb(219,196,243)" stroke="none" stroke-width="1"/><circle id="eVFfCtLaSyx44" r="6.625000" transform="matrix(1 0 0 1 176.20099999999999 295.26999999999998)" fill="rgb(249,193,51)" stroke="none" stroke-width="1"/><circle id="eVFfCtLaSyx45" r="6.625000" transform="matrix(1 0 0 1 203.71799999999999 295.26999999999998)" fill="rgb(249,193,51)" stroke="none" stroke-width="1"/><circle id="eVFfCtLaSyx46" r="6.625000" transform="matrix(1 0 0 1 216.70099999999999 295.26999999999998)" fill="rgb(249,193,51)" stroke="none" stroke-width="1"/><circle id="eVFfCtLaSyx47" r="6.625000" transform="matrix(1 0 0 1 190.38800000000001 295.26999999999998)" fill="rgb(249,193,51)" stroke="none" stroke-width="1"/><circle id="eVFfCtLaSyx48" r="6.625000" transform="matrix(1 0 0 1 169.07599999999999 300.14499999999998)" fill="rgb(7,243,242)" stroke="none" stroke-width="1"/><circle id="eVFfCtLaSyx49" r="6.625000" transform="matrix(1 0 0 1 211.70099999999999 300.14499999999998)" fill="rgb(7,243,242)" stroke="none" stroke-width="1"/><circle id="eVFfCtLaSyx50" r="6.625000" transform="matrix(1 0 0 1 197.26300000000001 300.14499999999998)" fill="rgb(7,243,242)" stroke="none" stroke-width="1"/><circle id="eVFfCtLaSyx51" r="6.625000" transform="matrix(1 0 0 1 182.70099999999999 300.14499999999998)" fill="rgb(7,243,242)" stroke="none" stroke-width="1"/><rect id="eVFfCtLaSyx52" width="170" height="44" rx="0" ry="0" transform="matrix(1 0 0 1 66.03400000000001 307.64499999999998)" fill="rgb(255,60,166)" stroke="none" stroke-width="1"/><rect id="eVFfCtLaSyx53" width="170" height="10.500000" rx="0" ry="0" transform="matrix(1 0 0 1 66.03400000000001 347.14499999999998)" fill="rgb(232,119,170)" stroke="none" stroke-width="1"/><path id="eVFfCtLaSyx54" d="M157.903000,300.145000C157.903000,320.027000,174.021000,336.145000,193.903000,336.145000C213.785000,336.145000,229.903000,320.027000,229.903000,300.145000" fill="rgb(218,196,242)" stroke="rgb(0,0,0)" stroke-width="1"/><path id="eVFfCtLaSyx55" d="M75.160000,366.510000L242.751000,366.510000L242.751000,270.639000C242.750000,270.638000,215.837000,354.766000,75.160000,366.510000Z" transform="matrix(1 0 0 1 0 -1.17950000000002)" opacity="0.2" fill="rgb(252,250,250)" stroke="none" stroke-width="1"/><polygon id="eVFfCtLaSyx56" points="269.974000,412.957000 211.428000,412.957000 217.701000,331.311000 263.701000,331.311000" fill="rgb(255,14,195)" stroke="none" stroke-width="1"/><path id="eVFfCtLaSyx57" d="M276.201000,324.145000C276.201000,330.505000,274.531000,336.485000,271.601000,341.645000C269.371000,345.565000,266.421000,349.025000,262.931000,351.825000C256.851000,356.715000,249.111000,359.645000,240.701000,359.645000C232.291000,359.645000,224.551000,356.715000,218.471000,351.825000C218.441000,351.795000,218.401000,351.775000,218.371000,351.735000C214.921000,348.955000,212.011000,345.525000,209.801000,341.645000C206.871000,336.485000,205.201000,330.505000,205.201000,324.145000C205.201000,304.535000,221.091000,288.645000,240.701000,288.645000C250.491000,288.645000,259.361000,292.605000,265.781000,299.025000C272.221000,305.444000,276.201000,314.326000,276.201000,324.145000Z" fill="rgb(242,242,242)" stroke="none" stroke-width="1"/><rect id="eVFfCtLaSyx58" width="8" height="22" rx="0" ry="0" transform="matrix(1 0 0 1 247.03399999999999 367.31099999999998)" fill="rgb(230,230,230)" stroke="none" stroke-width="1"/><rect id="eVFfCtLaSyx59" width="2" height="16" rx="0" ry="0" transform="matrix(1 0 0 1 250.03399999999999 370.31099999999998)" fill="rgb(45,65,81)" stroke="none" stroke-width="1"/><g id="eVFfCtLaSyx60_tr" transform="translate(240.484001,325.346497) rotate(0)"><g id="eVFfCtLaSyx60" transform="translate(-240.484001,-325.346497)"><circle id="eVFfCtLaSyx61" r="6.625000" transform="matrix(1 0 0 1 222.07599999999999 337.51999999999998)" fill="rgb(82,219,255)" stroke="none" stroke-width="1"/><circle id="eVFfCtLaSyx62" r="6.625000" transform="matrix(1 0 0 1 237.82900000000001 331.81900000000002)" fill="rgb(197,167,253)" stroke="none" stroke-width="1"/><circle id="eVFfCtLaSyx63" r="6.625000" transform="matrix(1 0 0 1 228.62600000000000 323.26200000000000)" fill="rgb(49,255,103)" stroke="none" stroke-width="1"/><circle id="eVFfCtLaSyx64" r="6.625000" transform="matrix(1 0 0 1 214.39099999999999 325.09199999999998)" fill="rgb(254,14,194)" stroke="none" stroke-width="1"/><circle id="eVFfCtLaSyx65" r="6.625000" transform="matrix(1 0 0 1 249.03399999999999 342.10399999999998)" fill="rgb(254,14,194)" stroke="none" stroke-width="1"/><circle id="eVFfCtLaSyx66" r="6.625000" transform="matrix(1 0 0 1 252.22900000000001 327.60199999999998)" fill="rgb(0,255,202)" stroke="none" stroke-width="1"/><circle id="eVFfCtLaSyx67" r="6.625000" transform="matrix(1 0 0 1 265.03300000000002 337.29700000000003)" fill="rgb(77,255,124)" stroke="none" stroke-width="1"/><circle id="eVFfCtLaSyx68" r="6.625000" transform="matrix(1 0 0 1 266.57700000000000 321.79599999999999)" fill="rgb(249,193,51)" stroke="none" stroke-width="1"/><circle id="eVFfCtLaSyx69" r="6.625000" transform="matrix(1 0 0 1 242.86099999999999 315.36799999999999)" fill="rgb(254,14,194)" stroke="none" stroke-width="1"/><circle id="eVFfCtLaSyx70" r="6.625000" transform="matrix(1 0 0 1 257.61099999999999 308.86799999999999)" fill="rgb(110,190,255)" stroke="none" stroke-width="1"/><circle id="eVFfCtLaSyx71" r="6.625000" transform="matrix(1 0 0 1 231.13700000000000 308.58900000000000)" fill="rgb(249,193,51)" stroke="none" stroke-width="1"/></g></g><path id="eVFfCtLaSyx72" d="M276.201000,324.145000C276.201000,330.505000,274.531000,336.485000,271.601000,341.645000C269.371000,345.565000,266.421000,349.025000,262.931000,351.825000L218.111000,351.825000C218.111000,351.825000,218.201000,351.795000,218.371000,351.735000C221.351000,350.675000,249.261000,339.825000,265.781000,299.025000C272.221000,305.444000,276.201000,314.326000,276.201000,324.145000Z" opacity="0.58" fill="rgb(252,250,250)" stroke="none" stroke-width="1"/><rect id="eVFfCtLaSyx73" width="67.750000" height="14.250000" rx="0" ry="0" transform="matrix(1 0 0 1 80.26000000000001 321.14499999999998)" fill="rgb(173,122,230)" stroke="none" stroke-width="1"/><rect id="eVFfCtLaSyx74" width="67.750000" height="14.250000" rx="0" ry="0" transform="matrix(1 0 0 1 79.76798630000000 317.39499999999998)" fill="rgb(218,197,243)" stroke="none" stroke-width="1"/><path id="eVFfCtLaSyx75" d="M271.601000,341.645000C265.491000,352.395000,253.941000,359.645000,240.701000,359.645000C227.461000,359.645000,215.911000,352.395000,209.801000,341.645000L271.601000,341.645000Z" transform="matrix(1 0 0 1 0 1)" fill="rgb(243,5,183)" stroke="none" stroke-width="1"/><path id="eVFfCtLaSyx76" d="M271.601000,341.645000C265.491000,352.395000,253.941000,359.645000,240.701000,359.645000C227.461000,359.645000,215.911000,352.395000,209.801000,341.645000L271.601000,341.645000Z" transform="matrix(-0.99997710577545 0.00676667754201 -0.00676667754201 -0.99997710577545 483.13919098341000 641.50834191067872)" fill="rgb(254,14,194)" stroke="none" stroke-width="1"/><g id="eVFfCtLaSyx77_to" transform="translate(91.450996,298.519485)"><g id="eVFfCtLaSyx77" transform="translate(-91.450996,-298.519485)"><rect id="eVFfCtLaSyx78" width="3.200000" height="27.370000" rx="0" ry="0" transform="matrix(1 0 0 1 89.85100000000000 297.02400000000000)" fill="rgb(230,230,230)" stroke="none" stroke-width="1"/><path id="eVFfCtLaSyx79" d="M93.051000,297.024000L93.051000,306.304000C92.521000,306.364000,91.991000,306.394000,91.451000,306.394000C90.911000,306.394000,90.381000,306.364000,89.851000,306.304000L89.851000,297.024000L93.051000,297.024000Z" fill="rgb(204,204,204)" stroke="none" stroke-width="1"/><path id="eVFfCtLaSyx80" d="M76.701000,287.395000C76.701000,279.245000,83.301000,272.645000,91.451000,272.645000C99.601000,272.645000,106.201000,279.245000,106.201000,287.395000C106.201000,294.555000,101.111000,300.515000,94.351000,301.855000C93.411000,302.045000,92.441000,302.145000,91.451000,302.145000C87.741000,302.145000,84.341000,300.775000,81.751000,298.505000C78.651000,295.805000,76.701000,291.826000,76.701000,287.395000Z" transform="matrix(1 0 0 1 0 1.21500000000003)" fill="rgb(213,162,255)" stroke="none" stroke-width="1"/><path id="eVFfCtLaSyx81" d="M80.601000,285.734000C80.791000,285.144000,81.101000,284.614000,81.351000,284.044000L81.381000,283.994000L81.451000,283.864000L81.501000,283.774000L81.611000,283.604000L81.821000,283.244000C81.941000,283.034000,82.171000,282.724000,82.381000,282.444000C83.221000,281.334000,84.151000,280.434000,85.291000,279.674000C87.541000,278.174000,90.361000,277.444000,93.141000,277.764000C94.521000,277.914000,95.881000,278.314000,97.111000,278.964000L97.231000,279.024000L97.291000,279.044000L97.381000,279.094000L97.401000,279.114000L97.601000,279.234000L97.991000,279.474000C98.271000,279.654000,98.611000,279.904000,98.901000,280.134000C99.441000,280.604000,99.951000,281.104000,100.371000,281.684000C101.231000,282.814000,101.821000,284.134000,102.091000,285.504000C102.361000,286.884000,102.311000,288.294000,101.961000,289.624000C101.791000,290.284000,101.531000,290.914000,101.231000,291.514000C101.031000,291.894000,100.941000,292.044000,100.721000,292.354000C100.511000,292.654000,100.291000,292.944000,100.061000,293.174000C99.141000,294.184000,97.951000,294.864000,96.711000,295.234000C95.461000,295.584000,94.151000,295.604000,92.961000,295.294000C92.351000,295.144000,91.831000,294.924000,91.251000,294.624000C90.811000,294.384000,90.241000,293.944000,89.851000,293.544000C88.201000,291.824000,87.911000,289.304000,88.691000,287.474000C89.061000,286.544000,89.701000,285.784000,90.471000,285.294000C91.231000,284.804000,92.081000,284.584000,92.881000,284.584000C94.471000,284.594000,95.771000,285.434000,96.291000,286.424000C96.861000,287.403000,96.801000,288.334000,96.661000,288.884000C96.601000,289.174000,96.511000,289.374000,96.451000,289.514000C96.431000,289.544000,96.421000,289.564000,96.401000,289.594000C96.411000,289.574000,96.421000,289.544000,96.431000,289.504000C96.491000,289.374000,96.561000,289.164000,96.611000,288.874000C96.701000,288.324000,96.701000,287.414000,96.111000,286.534000C95.561000,285.644000,94.321000,284.964000,92.891000,285.044000C91.471000,285.104000,89.931000,286.094000,89.421000,287.754000C88.851000,289.364000,89.261000,291.434000,90.671000,292.724000C91.051000,293.054000,91.341000,293.264000,91.871000,293.524000C92.271000,293.694000,92.781000,293.884000,93.261000,293.954000C94.241000,294.144000,95.271000,294.054000,96.231000,293.724000C97.181000,293.374000,98.071000,292.784000,98.701000,291.984000C98.881000,291.784000,99.001000,291.584000,99.131000,291.394000C99.251000,291.214000,99.441000,290.834000,99.511000,290.674000C99.711000,290.184000,99.891000,289.684000,99.981000,289.153000C100.181000,288.113000,100.151000,287.033000,99.881000,286.003000C99.611000,284.983000,99.101000,284.033000,98.421000,283.243000C98.091000,282.843000,97.691000,282.503000,97.281000,282.183000C97.071000,282.063000,96.921000,281.933000,96.681000,281.803000L96.271000,281.583000L96.071000,281.483000L96.041000,281.463000L96.031000,281.463000L95.931000,281.433000C94.961000,280.993000,93.921000,280.763000,92.881000,280.723000C90.811000,280.623000,88.791000,281.303000,87.261000,282.463000C86.501000,283.033000,85.841000,283.793000,85.391000,284.483000C85.271000,284.663000,85.171000,284.783000,85.031000,285.063000L84.841000,285.423000L84.751000,285.603000L84.691000,285.723000L84.711000,285.703000C84.551000,286.143000,84.331000,286.543000,84.231000,286.983000C83.721000,288.713000,83.641000,290.433000,83.921000,291.953000C84.201000,293.473000,84.781000,294.783000,85.441000,295.813000C86.101000,296.863000,86.871000,297.623000,87.541000,298.173000C87.711000,298.313000,87.871000,298.443000,88.031000,298.563000C88.171000,298.663000,88.311000,298.753000,88.431000,298.833000C88.561000,298.913000,88.671000,298.993000,88.771000,299.063000C88.891000,299.133000,89.061000,299.213000,89.181000,299.283000C89.691000,299.553000,89.971000,299.693000,89.971000,299.693000L94.351000,301.853000C93.411000,302.043000,92.441000,302.143000,91.451000,302.143000C87.741000,302.143000,84.341000,300.773000,81.751000,298.503000C81.681000,298.383000,81.611000,298.253000,81.541000,298.123000C80.681000,296.583000,79.991000,294.673000,79.741000,292.533000C79.501000,290.395000,79.751000,288.016000,80.601000,285.734000Z" fill="rgb(255,255,255)" stroke="none" stroke-width="1"/></g></g><g id="eVFfCtLaSyx82_to" transform="translate(114.135006,293.520000)"><g id="eVFfCtLaSyx82" transform="translate(-114.135006,-298.519485)"><rect id="eVFfCtLaSyx83" width="3.200000" height="27.370000" rx="0" ry="0" transform="matrix(1 0 0 1 112.53500000000000 297.02400000000000)" fill="rgb(230,230,230)" stroke="none" stroke-width="1"/><path id="eVFfCtLaSyx84" d="M115.735000,297.024000L115.735000,306.304000C115.205000,306.364000,114.675000,306.394000,114.135000,306.394000C113.595000,306.394000,113.065000,306.364000,112.535000,306.304000L112.535000,297.024000L115.735000,297.024000Z" fill="rgb(204,204,204)" stroke="none" stroke-width="1"/><path id="eVFfCtLaSyx85" d="M99.385000,287.395000C99.385000,279.245000,105.985000,272.645000,114.135000,272.645000C122.285000,272.645000,128.885000,279.245000,128.885000,287.395000C128.885000,294.555000,123.795000,300.515000,117.035000,301.855000C116.095000,302.045000,115.125000,302.145000,114.135000,302.145000C110.425000,302.145000,107.025000,300.775000,104.435000,298.505000C101.335000,295.805000,99.385000,291.826000,99.385000,287.395000Z" fill="rgb(6,243,243)" stroke="none" stroke-width="1"/><path id="eVFfCtLaSyx86" d="M103.285000,285.734000C103.475000,285.144000,103.785000,284.614000,104.035000,284.044000L104.065000,283.994000L104.135000,283.864000L104.185000,283.774000L104.295000,283.604000L104.505000,283.244000C104.625000,283.034000,104.855000,282.724000,105.065000,282.444000C105.905000,281.334000,106.835000,280.434000,107.975000,279.674000C110.225000,278.174000,113.045000,277.444000,115.825000,277.764000C117.205000,277.914000,118.565000,278.314000,119.795000,278.964000L119.915000,279.024000L119.975000,279.044000L120.065000,279.094000L120.085000,279.114000L120.285000,279.234000L120.675000,279.474000C120.955000,279.654000,121.295000,279.904000,121.585000,280.134000C122.125000,280.604000,122.635000,281.104000,123.055000,281.684000C123.915000,282.814000,124.505000,284.134000,124.775000,285.504000C125.045000,286.884000,124.995000,288.294000,124.645000,289.624000C124.475000,290.284000,124.215000,290.914000,123.915000,291.514000C123.715000,291.894000,123.625000,292.044000,123.405000,292.354000C123.195000,292.654000,122.975000,292.944000,122.745000,293.174000C121.825000,294.184000,120.635000,294.864000,119.395000,295.234000C118.145000,295.584000,116.835000,295.604000,115.645000,295.294000C115.035000,295.144000,114.515000,294.924000,113.935000,294.624000C113.495000,294.384000,112.925000,293.944000,112.535000,293.544000C110.885000,291.824000,110.595000,289.304000,111.375000,287.474000C111.745000,286.544000,112.385000,285.784000,113.155000,285.294000C113.915000,284.804000,114.765000,284.584000,115.565000,284.584000C117.155000,284.594000,118.455000,285.434000,118.975000,286.424000C119.545000,287.403000,119.485000,288.334000,119.345000,288.884000C119.285000,289.174000,119.195000,289.374000,119.135000,289.514000C119.115000,289.544000,119.105000,289.564000,119.085000,289.594000C119.095000,289.574000,119.105000,289.544000,119.115000,289.504000C119.175000,289.374000,119.245000,289.164000,119.295000,288.874000C119.385000,288.324000,119.385000,287.414000,118.795000,286.534000C118.245000,285.644000,117.005000,284.964000,115.575000,285.044000C114.155000,285.104000,112.615000,286.094000,112.105000,287.754000C111.535000,289.364000,111.945000,291.434000,113.355000,292.724000C113.735000,293.054000,114.025000,293.264000,114.555000,293.524000C114.955000,293.694000,115.465000,293.884000,115.945000,293.954000C116.925000,294.144000,117.955000,294.054000,118.915000,293.724000C119.865000,293.374000,120.755000,292.784000,121.385000,291.984000C121.565000,291.784000,121.685000,291.584000,121.815000,291.394000C121.935000,291.214000,122.125000,290.834000,122.195000,290.674000C122.395000,290.184000,122.575000,289.684000,122.665000,289.153000C122.865000,288.113000,122.835000,287.033000,122.565000,286.003000C122.295000,284.983000,121.785000,284.033000,121.105000,283.243000C120.775000,282.843000,120.375000,282.503000,119.965000,282.183000C119.755000,282.063000,119.605000,281.933000,119.365000,281.803000L118.955000,281.583000L118.755000,281.483000L118.725000,281.463000L118.715000,281.463000L118.615000,281.433000C117.645000,280.993000,116.605000,280.763000,115.565000,280.723000C113.495000,280.623000,111.475000,281.303000,109.945000,282.463000C109.185000,283.033000,108.525000,283.793000,108.075000,284.483000C107.955000,284.663000,107.855000,284.783000,107.715000,285.063000L107.525000,285.423000L107.435000,285.603000L107.375000,285.723000L107.395000,285.703000C107.235000,286.143000,107.015000,286.543000,106.915000,286.983000C106.405000,288.713000,106.325000,290.433000,106.605000,291.953000C106.885000,293.473000,107.465000,294.783000,108.125000,295.813000C108.785000,296.863000,109.555000,297.623000,110.225000,298.173000C110.395000,298.313000,110.555000,298.443000,110.715000,298.563000C110.855000,298.663000,110.995000,298.753000,111.115000,298.833000C111.245000,298.913000,111.355000,298.993000,111.455000,299.063000C111.575000,299.133000,111.745000,299.213000,111.865000,299.283000C112.375000,299.553000,112.655000,299.693000,112.655000,299.693000L117.035000,301.853000C116.095000,302.043000,115.125000,302.143000,114.135000,302.143000C110.425000,302.143000,107.025000,300.773000,104.435000,298.503000C104.365000,298.383000,104.295000,298.253000,104.225000,298.123000C103.365000,296.583000,102.675000,294.673000,102.425000,292.533000C102.185000,290.395000,102.435000,288.016000,103.285000,285.734000Z" fill="rgb(255,254,254)" stroke="none" stroke-width="1"/></g></g><g id="eVFfCtLaSyx87_to" transform="translate(136.820004,298.519485)"><g id="eVFfCtLaSyx87" transform="translate(-136.820004,-298.519485)"><rect id="eVFfCtLaSyx88" width="3.200000" height="27.370000" rx="0" ry="0" transform="matrix(1 0 0 1 135.22000000000000 297.02400000000000)" fill="rgb(230,230,230)" stroke="none" stroke-width="1"/><path id="eVFfCtLaSyx89" d="M138.420000,297.024000L138.420000,306.304000C137.890000,306.364000,137.360000,306.394000,136.820000,306.394000C136.280000,306.394000,135.750000,306.364000,135.220000,306.304000L135.220000,297.024000L138.420000,297.024000Z" fill="rgb(204,204,204)" stroke="none" stroke-width="1"/><path id="eVFfCtLaSyx90" d="M122.070000,287.395000C122.070000,279.245000,128.670000,272.645000,136.820000,272.645000C144.970000,272.645000,151.570000,279.245000,151.570000,287.395000C151.570000,294.555000,146.480000,300.515000,139.720000,301.855000C138.780000,302.045000,137.810000,302.145000,136.820000,302.145000C133.110000,302.145000,129.710000,300.775000,127.120000,298.505000C124.020000,295.805000,122.070000,291.826000,122.070000,287.395000Z" fill="rgb(254,14,194)" stroke="none" stroke-width="1"/><path id="eVFfCtLaSyx91" d="M125.970000,285.734000C126.160000,285.144000,126.470000,284.614000,126.720000,284.044000L126.750000,283.994000L126.820000,283.864000L126.870000,283.774000L126.980000,283.604000L127.190000,283.244000C127.310000,283.034000,127.540000,282.724000,127.750000,282.444000C128.590000,281.334000,129.520000,280.434000,130.660000,279.674000C132.910000,278.174000,135.730000,277.444000,138.510000,277.764000C139.890000,277.914000,141.250000,278.314000,142.480000,278.964000L142.600000,279.024000L142.660000,279.044000L142.750000,279.094000L142.770000,279.114000L142.970000,279.234000L143.360000,279.474000C143.640000,279.654000,143.980000,279.904000,144.270000,280.134000C144.810000,280.604000,145.320000,281.104000,145.740000,281.684000C146.600000,282.814000,147.190000,284.134000,147.460000,285.504000C147.730000,286.884000,147.680000,288.294000,147.330000,289.624000C147.160000,290.284000,146.900000,290.914000,146.600000,291.514000C146.400000,291.894000,146.310000,292.044000,146.090000,292.354000C145.880000,292.654000,145.660000,292.944000,145.430000,293.174000C144.510000,294.184000,143.320000,294.864000,142.080000,295.234000C140.830000,295.584000,139.520000,295.604000,138.330000,295.294000C137.720000,295.144000,137.200000,294.924000,136.620000,294.624000C136.180000,294.384000,135.610000,293.944000,135.220000,293.544000C133.570000,291.824000,133.280000,289.304000,134.060000,287.474000C134.430000,286.544000,135.070000,285.784000,135.840000,285.294000C136.600000,284.804000,137.450000,284.584000,138.250000,284.584000C139.840000,284.594000,141.140000,285.434000,141.660000,286.424000C142.230000,287.403000,142.170000,288.334000,142.030000,288.884000C141.970000,289.174000,141.880000,289.374000,141.820000,289.514000C141.800000,289.544000,141.790000,289.564000,141.770000,289.594000C141.780000,289.574000,141.790000,289.544000,141.800000,289.504000C141.860000,289.374000,141.930000,289.164000,141.980000,288.874000C142.070000,288.324000,142.070000,287.414000,141.480000,286.534000C140.930000,285.644000,139.690000,284.964000,138.260000,285.044000C136.840000,285.104000,135.300000,286.094000,134.790000,287.754000C134.220000,289.364000,134.630000,291.434000,136.040000,292.724000C136.420000,293.054000,136.710000,293.264000,137.240000,293.524000C137.640000,293.694000,138.150000,293.884000,138.630000,293.954000C139.610000,294.144000,140.640000,294.054000,141.600000,293.724000C142.550000,293.374000,143.440000,292.784000,144.070000,291.984000C144.250000,291.784000,144.370000,291.584000,144.500000,291.394000C144.620000,291.214000,144.810000,290.834000,144.880000,290.674000C145.080000,290.184000,145.260000,289.684000,145.350000,289.153000C145.550000,288.113000,145.520000,287.033000,145.250000,286.003000C144.980000,284.983000,144.470000,284.033000,143.790000,283.243000C143.460000,282.843000,143.060000,282.503000,142.650000,282.183000C142.440000,282.063000,142.290000,281.933000,142.050000,281.803000L141.640000,281.583000L141.440000,281.483000L141.410000,281.463000L141.400000,281.463000L141.300000,281.433000C140.330000,280.993000,139.290000,280.763000,138.250000,280.723000C136.180000,280.623000,134.160000,281.303000,132.630000,282.463000C131.870000,283.033000,131.210000,283.793000,130.760000,284.483000C130.640000,284.663000,130.540000,284.783000,130.400000,285.063000L130.210000,285.423000L130.120000,285.603000L130.060000,285.723000L130.080000,285.703000C129.920000,286.143000,129.700000,286.543000,129.600000,286.983000C129.090000,288.713000,129.010000,290.433000,129.290000,291.953000C129.570000,293.473000,130.150000,294.783000,130.810000,295.813000C131.470000,296.863000,132.240000,297.623000,132.910000,298.173000C133.080000,298.313000,133.240000,298.443000,133.400000,298.563000C133.540000,298.663000,133.680000,298.753000,133.800000,298.833000C133.930000,298.913000,134.040000,298.993000,134.140000,299.063000C134.260000,299.133000,134.430000,299.213000,134.550000,299.283000C135.060000,299.553000,135.340000,299.693000,135.340000,299.693000L139.720000,301.853000C138.780000,302.043000,137.810000,302.143000,136.820000,302.143000C133.110000,302.143000,129.710000,300.773000,127.120000,298.503000C127.050000,298.383000,126.980000,298.253000,126.910000,298.123000C126.050000,296.583000,125.360000,294.673000,125.110000,292.533000C124.870000,290.395000,125.120000,288.016000,125.970000,285.734000Z" fill="rgb(255,255,255)" stroke="none" stroke-width="1"/></g></g><g id="eVFfCtLaSyx92_tr" transform="translate(151.035999,246.555504) rotate(0.822980)"><g id="eVFfCtLaSyx92" transform="translate(-151.035999,-246.555504)"><path id="eVFfCtLaSyx93" d="M157.291000,258.516000L157.201000,258.516000C154.991000,258.556000,153.241000,260.396000,153.291000,262.596000C153.321000,263.686000,153.771000,264.666000,154.501000,265.366000C155.221000,266.076000,156.201000,266.506000,157.291000,266.506000L157.381000,266.506000C159.541000,266.456000,161.281000,264.686000,161.281000,262.526000L161.281000,262.416000C161.231000,260.234000,159.451000,258.516000,157.291000,258.516000Z" fill="rgb(255,255,255)" stroke="none" stroke-width="1"/><path id="eVFfCtLaSyx94" d="M145.241000,258.335000C145.171000,258.335000,145.101000,258.325000,145.041000,258.325000C142.921000,258.325000,141.161000,259.995000,141.051000,262.135000C140.941000,264.345000,142.641000,266.215000,144.851000,266.325000C144.911000,266.335000,144.981000,266.335000,145.041000,266.335000C146.101000,266.335000,147.081000,265.915000,147.801000,265.235000C148.521000,264.545000,148.981000,263.595000,149.041000,262.525000C149.041000,262.455000,149.051000,262.385000,149.051000,262.325000C149.051000,260.205000,147.381000,258.444000,145.241000,258.335000Z" fill="rgb(7,243,242)" stroke="none" stroke-width="1"/><path id="eVFfCtLaSyx95" d="M173.481000,261.326000C173.261000,259.266000,171.531000,257.736000,169.511000,257.736000C169.371000,257.736000,169.231000,257.746000,169.091000,257.756000C166.891000,257.986000,165.291000,259.956000,165.521000,262.156000C165.631000,263.186000,166.121000,264.076000,166.831000,264.716000C167.541000,265.356000,168.481000,265.736000,169.501000,265.736000C169.641000,265.736000,169.781000,265.726000,169.921000,265.716000C171.971000,265.496000,173.501000,263.766000,173.501000,261.746000C173.501000,261.604000,173.491000,261.464000,173.481000,261.326000Z" fill="rgb(7,243,242)" stroke="none" stroke-width="1"/><path id="eVFfCtLaSyx96" d="M133.311000,257.345000C133.151000,257.325000,132.991000,257.315000,132.841000,257.315000C130.841000,257.315000,129.111000,258.815000,128.871000,260.845000C128.611000,263.045000,130.181000,265.025000,132.371000,265.285000C132.531000,265.305000,132.691000,265.315000,132.851000,265.315000C133.851000,265.315000,134.781000,264.945000,135.501000,264.315000C136.211000,263.685000,136.701000,262.805000,136.821000,261.785000C136.841000,261.635000,136.851000,261.475000,136.851000,261.325000C136.851000,259.326000,135.351000,257.585000,133.311000,257.345000Z" fill="rgb(255,255,255)" stroke="none" stroke-width="1"/><path id="eVFfCtLaSyx97" d="M185.551000,259.254000C185.191000,257.334000,183.521000,255.984000,181.631000,255.984000C181.391000,255.984000,181.141000,256.004000,180.891000,256.054000C178.711000,256.454000,177.281000,258.544000,177.681000,260.714000C177.861000,261.684000,178.371000,262.494000,179.071000,263.074000C179.771000,263.644000,180.661000,263.984000,181.611000,263.984000C181.861000,263.984000,182.101000,263.964000,182.351000,263.914000C184.271000,263.564000,185.621000,261.874000,185.621000,259.984000C185.621000,259.745000,185.601000,259.504000,185.551000,259.254000Z" fill="rgb(255,255,255)" stroke="none" stroke-width="1"/><path id="eVFfCtLaSyx98" d="M121.491000,255.524000C121.491000,255.534000,121.491000,255.534000,121.491000,255.534000C121.231000,255.484000,120.981000,255.464000,120.731000,255.464000C118.841000,255.464000,117.171000,256.804000,116.811000,258.714000C116.401000,260.884000,117.831000,262.974000,120.001000,263.394000C120.251000,263.434000,120.501000,263.464000,120.751000,263.464000C121.691000,263.464000,122.581000,263.124000,123.281000,262.554000C123.981000,261.984000,124.491000,261.164000,124.671000,260.204000C124.721000,259.954000,124.741000,259.704000,124.741000,259.454000C124.741000,257.576000,123.411000,255.885000,121.491000,255.524000Z" fill="rgb(7,243,242)" stroke="none" stroke-width="1"/><path id="eVFfCtLaSyx99" d="M197.421000,256.234000C196.931000,254.454000,195.321000,253.274000,193.551000,253.274000C193.211000,253.274000,192.861000,253.324000,192.511000,253.414000C190.381000,253.984000,189.121000,256.184000,189.691000,258.314000C189.931000,259.204000,190.461000,259.944000,191.141000,260.464000C191.821000,260.984000,192.671000,261.274000,193.551000,261.274000C193.891000,261.274000,194.241000,261.234000,194.591000,261.144000C196.381000,260.654000,197.561000,259.044000,197.561000,257.274000C197.561000,256.924000,197.511000,256.585000,197.421000,256.234000Z" fill="rgb(7,243,242)" stroke="none" stroke-width="1"/><path id="eVFfCtLaSyx100" d="M109.821000,252.885000C109.481000,252.795000,109.141000,252.755000,108.801000,252.755000C107.031000,252.755000,105.411000,253.935000,104.931000,255.735000C104.371000,257.865000,105.641000,260.055000,107.781000,260.625000C108.121000,260.715000,108.461000,260.755000,108.801000,260.755000C109.681000,260.755000,110.531000,260.455000,111.221000,259.935000C111.901000,259.415000,112.431000,258.665000,112.671000,257.775000C112.761000,257.435000,112.801000,257.095000,112.801000,256.755000C112.801000,254.984000,111.621000,253.364000,109.821000,252.885000Z" fill="rgb(255,255,255)" stroke="none" stroke-width="1"/><path id="eVFfCtLaSyx101" d="M209.011000,252.305000C208.431000,250.665000,206.891000,249.645000,205.241000,249.645000C204.801000,249.645000,204.341000,249.715000,203.901000,249.875000C201.821000,250.615000,200.731000,252.895000,201.471000,254.975000C201.761000,255.805000,202.291000,256.465000,202.951000,256.925000C203.621000,257.385000,204.421000,257.645000,205.241000,257.645000C205.681000,257.645000,206.131000,257.575000,206.571000,257.415000C208.221000,256.835000,209.241000,255.295000,209.241000,253.645000C209.241000,253.205000,209.171000,252.745000,209.011000,252.305000Z" fill="rgb(255,255,255)" stroke="none" stroke-width="1"/><path id="eVFfCtLaSyx102" d="M98.391000,249.415000C97.961000,249.265000,97.521000,249.195000,97.091000,249.195000C95.421000,249.195000,93.871000,250.235000,93.301000,251.895000C92.581000,253.985000,93.691000,256.255000,95.781000,256.975000C96.211000,257.125000,96.651000,257.195000,97.081000,257.195000C97.921000,257.195000,98.721000,256.935000,99.391000,256.465000C100.061000,256.005000,100.581000,255.325000,100.871000,254.495000C101.021000,254.065000,101.091000,253.625000,101.091000,253.195000C101.091000,251.535000,100.051000,249.984000,98.391000,249.415000Z" fill="rgb(7,243,242)" stroke="none" stroke-width="1"/><path id="eVFfCtLaSyx103" d="M220.271000,247.504000C219.601000,246.014000,218.141000,245.114000,216.611000,245.114000C216.071000,245.114000,215.521000,245.234000,214.991000,245.464000C212.971000,246.354000,212.061000,248.714000,212.951000,250.734000C213.281000,251.484000,213.811000,252.084000,214.451000,252.494000C215.101000,252.904000,215.841000,253.124000,216.611000,253.124000C217.151000,253.124000,217.701000,253.014000,218.231000,252.774000C219.721000,252.114000,220.611000,250.654000,220.611000,249.114000C220.611000,248.575000,220.501000,248.035000,220.271000,247.504000Z" fill="rgb(7,243,242)" stroke="none" stroke-width="1"/><path id="eVFfCtLaSyx104" d="M87.241000,245.105000C86.731000,244.885000,86.191000,244.785000,85.671000,244.785000C84.121000,244.785000,82.641000,245.685000,81.991000,247.205000C81.111000,249.235000,82.051000,251.585000,84.081000,252.455000C84.601000,252.675000,85.131000,252.785000,85.661000,252.785000C86.441000,252.785000,87.191000,252.555000,87.841000,252.145000C88.481000,251.725000,89.021000,251.125000,89.341000,250.365000C89.561000,249.855000,89.661000,249.315000,89.661000,248.795000C89.661000,247.234000,88.761000,245.765000,87.241000,245.105000Z" fill="rgb(255,255,255)" stroke="none" stroke-width="1"/><path id="eVFfCtLaSyx105" d="M231.131000,241.855000C230.401000,240.515000,229.021000,239.745000,227.601000,239.745000C226.961000,239.745000,226.311000,239.905000,225.711000,240.225000C223.771000,241.265000,223.041000,243.695000,224.081000,245.635000C224.801000,246.985000,226.181000,247.745000,227.611000,247.745000C228.251000,247.745000,228.891000,247.595000,229.501000,247.275000C230.841000,246.545000,231.601000,245.165000,231.601000,243.745000C231.601000,243.105000,231.451000,242.455000,231.131000,241.855000Z" fill="rgb(255,255,255)" stroke="none" stroke-width="1"/><path id="eVFfCtLaSyx106" d="M76.451000,239.984000C75.861000,239.674000,75.231000,239.524000,74.611000,239.524000C73.161000,239.524000,71.771000,240.304000,71.061000,241.674000C70.031000,243.634000,70.791000,246.054000,72.751000,247.074000C73.341000,247.384000,73.981000,247.524000,74.601000,247.524000C76.041000,247.524000,77.431000,246.744000,78.151000,245.384000C78.461000,244.794000,78.601000,244.164000,78.601000,243.534000C78.601000,242.095000,77.821000,240.694000,76.451000,239.984000Z" fill="rgb(7,243,242)" stroke="none" stroke-width="1"/><path id="eVFfCtLaSyx107" d="M241.541000,235.415000C240.771000,234.215000,239.481000,233.565000,238.161000,233.565000C237.421000,233.565000,236.681000,233.765000,236.021000,234.185000C236.021000,234.195000,236.021000,234.195000,236.021000,234.195000C234.151000,235.375000,233.601000,237.845000,234.791000,239.715000C235.551000,240.905000,236.851000,241.565000,238.171000,241.565000C238.901000,241.565000,239.651000,241.365000,240.311000,240.935000C241.511000,240.175000,242.161000,238.875000,242.161000,237.555000C242.161000,236.814000,241.961000,236.075000,241.541000,235.415000Z" fill="rgb(7,243,242)" stroke="none" stroke-width="1"/><path id="eVFfCtLaSyx108" d="M66.091000,234.055000C65.431000,233.645000,64.701000,233.445000,63.981000,233.445000C62.641000,233.445000,61.341000,234.115000,60.581000,235.335000C59.411000,237.205000,59.981000,239.665000,61.851000,240.845000C62.511000,241.255000,63.251000,241.445000,63.971000,241.445000C65.301000,241.445000,66.611000,240.785000,67.371000,239.565000C67.781000,238.905000,67.981000,238.185000,67.981000,237.455000C67.981000,236.125000,67.301000,234.814000,66.091000,234.055000Z" fill="rgb(255,255,255)" stroke="none" stroke-width="1"/><path id="eVFfCtLaSyx109" d="M245.851000,227.415000C244.071000,228.725000,243.711000,231.235000,245.031000,233.005000C245.701000,233.905000,246.671000,234.445000,247.701000,234.575000L247.701000,226.655000C247.051000,226.745000,246.411000,226.995000,245.851000,227.415000Z" fill="rgb(255,255,255)" stroke="none" stroke-width="1"/><path id="eVFfCtLaSyx110" d="M56.211000,227.345000C55.651000,226.925000,55.021000,226.685000,54.371000,226.605000L54.371000,234.525000C55.401000,234.395000,56.391000,233.855000,57.061000,232.945000C57.591000,232.235000,57.841000,231.395000,57.841000,230.575000C57.841000,229.345000,57.281000,228.125000,56.211000,227.345000Z" fill="rgb(7,243,242)" stroke="none" stroke-width="1"/></g></g><g id="eVFfCtLaSyx111_tr" transform="translate(151.035999,229.194504) rotate(0)"><g id="eVFfCtLaSyx111" transform="translate(-151.035999,-229.194504)"><g id="eVFfCtLaSyx112" filter="url(#eVFfCtLaSyx112-filter)"><path id="eVFfCtLaSyx113" d="M157.291000,241.145000L157.201000,241.145000C154.991000,241.195000,153.241000,243.025000,153.291000,245.235000C153.321000,246.325000,153.771000,247.305000,154.501000,248.005000C155.221000,248.715000,156.201000,249.145000,157.291000,249.145000L157.381000,249.145000C159.551000,249.095000,161.281000,247.315000,161.281000,245.145000L161.281000,245.055000C161.231000,242.875000,159.451000,241.145000,157.291000,241.145000Z" fill="rgb(110,190,255)" stroke="none" stroke-width="1"/><path id="eVFfCtLaSyx114" d="M133.311000,239.975000C133.151000,239.955000,132.991000,239.945000,132.841000,239.945000C130.841000,239.945000,129.111000,241.445000,128.871000,243.485000C128.611000,245.675000,130.181000,247.665000,132.371000,247.925000C132.531000,247.945000,132.691000,247.945000,132.851000,247.945000C133.851000,247.945000,134.781000,247.575000,135.491000,246.945000C136.201000,246.315000,136.701000,245.435000,136.821000,244.415000C136.841000,244.265000,136.851000,244.105000,136.851000,243.955000C136.851000,241.955000,135.351000,240.214000,133.311000,239.975000Z" transform="matrix(1 0 0 1 0 -0.60498925999997)" fill="rgb(110,190,255)" stroke="none" stroke-width="1"/><path id="eVFfCtLaSyx115" d="M185.551000,241.885000C185.191000,239.965000,183.511000,238.614000,181.621000,238.614000C181.381000,238.614000,181.141000,238.635000,180.891000,238.684000C178.711000,239.084000,177.281000,241.174000,177.681000,243.344000C177.861000,244.304000,178.371000,245.124000,179.071000,245.704000C179.771000,246.284000,180.661000,246.614000,181.611000,246.614000C181.851000,246.614000,182.101000,246.594000,182.351000,246.554000C184.271000,246.194000,185.621000,244.514000,185.621000,242.614000C185.621000,242.375000,185.601000,242.135000,185.551000,241.885000Z" fill="rgb(110,190,255)" stroke="none" stroke-width="1"/><path id="eVFfCtLaSyx116" d="M109.821000,235.515000C109.481000,235.425000,109.141000,235.385000,108.801000,235.385000C107.031000,235.385000,105.411000,236.565000,104.931000,238.364000C104.371000,240.494000,105.641000,242.684000,107.781000,243.254000C108.121000,243.344000,108.461000,243.384000,108.801000,243.384000C109.681000,243.384000,110.531000,243.084000,111.221000,242.574000C111.901000,242.054000,112.431000,241.304000,112.671000,240.414000C112.761000,240.074000,112.801000,239.734000,112.801000,239.394000C112.801000,237.614000,111.621000,235.995000,109.821000,235.515000Z" transform="matrix(1 0 0 1 0 -0.60498925999997)" fill="rgb(110,190,255)" stroke="none" stroke-width="1"/><path id="eVFfCtLaSyx117" d="M209.011000,234.944000C208.431000,233.294000,206.891000,232.274000,205.241000,232.274000C204.801000,232.274000,204.341000,232.344000,203.901000,232.504000C201.821000,233.244000,200.731000,235.524000,201.471000,237.614000C201.761000,238.434000,202.291000,239.104000,202.951000,239.564000C203.621000,240.024000,204.421000,240.274000,205.241000,240.274000C205.681000,240.274000,206.131000,240.204000,206.571000,240.044000C208.211000,239.464000,209.241000,237.924000,209.241000,236.274000C209.241000,235.834000,209.171000,235.385000,209.011000,234.944000Z" fill="rgb(110,190,255)" stroke="none" stroke-width="1"/><path id="eVFfCtLaSyx118" d="M87.241000,227.745000C86.721000,227.525000,86.181000,227.415000,85.661000,227.415000C84.111000,227.415000,82.641000,228.325000,81.991000,229.835000C81.111000,231.865000,82.051000,234.215000,84.081000,235.095000C84.601000,235.315000,85.131000,235.415000,85.661000,235.415000C86.441000,235.415000,87.191000,235.185000,87.841000,234.775000C88.481000,234.365000,89.021000,233.755000,89.341000,232.995000C89.561000,232.485000,89.661000,231.945000,89.661000,231.425000C89.661000,229.875000,88.761000,228.395000,87.241000,227.745000Z" transform="matrix(1 0 0 1 0 -0.60498925999997)" fill="rgb(110,190,255)" stroke="none" stroke-width="1"/><path id="eVFfCtLaSyx119" d="M231.131000,224.484000C230.411000,223.144000,229.031000,222.384000,227.601000,222.384000C226.961000,222.384000,226.311000,222.534000,225.711000,222.854000C223.771000,223.894000,223.031000,226.324000,224.081000,228.274000C224.801000,229.614000,226.181000,230.384000,227.611000,230.384000C228.251000,230.384000,228.891000,230.224000,229.501000,229.904000C230.841000,229.174000,231.601000,227.804000,231.601000,226.374000C231.601000,225.734000,231.451000,225.084000,231.131000,224.484000Z" fill="rgb(110,190,255)" stroke="none" stroke-width="1"/><path id="eVFfCtLaSyx120" d="M66.091000,216.685000C65.431000,216.275000,64.701000,216.075000,63.981000,216.075000C62.641000,216.075000,61.341000,216.745000,60.581000,217.965000C59.411000,219.835000,59.981000,222.295000,61.851000,223.475000C62.511000,223.885000,63.251000,224.085000,63.971000,224.085000C65.301000,224.085000,66.611000,223.415000,67.371000,222.195000C67.781000,221.535000,67.981000,220.805000,67.981000,220.085000C67.981000,218.745000,67.311000,217.444000,66.091000,216.685000Z" transform="matrix(1 0 0 1 0 -0.60498925999997)" fill="rgb(110,190,255)" stroke="none" stroke-width="1"/><path id="eVFfCtLaSyx121" d="M245.851000,210.044000C244.081000,211.364000,243.711000,213.864000,245.031000,215.644000C245.701000,216.544000,246.671000,217.074000,247.701000,217.214000L247.701000,209.294000C247.051000,209.375000,246.411000,209.625000,245.851000,210.044000Z" fill="rgb(110,190,255)" stroke="none" stroke-width="1"/></g><path id="eVFfCtLaSyx122" d="M145.241000,240.964000L145.051000,240.964000C142.931000,240.964000,141.161000,242.624000,141.051000,244.764000C140.941000,246.974000,142.641000,248.854000,144.851000,248.954000C144.921000,248.964000,144.981000,248.964000,145.051000,248.964000C146.111000,248.964000,147.081000,248.544000,147.801000,247.864000C148.521000,247.184000,148.981000,246.224000,149.041000,245.164000C149.041000,245.094000,149.051000,245.024000,149.051000,244.964000C149.051000,242.845000,147.381000,241.075000,145.241000,240.964000Z" fill="rgb(249,192,50)" stroke="none" stroke-width="1"/><path id="eVFfCtLaSyx123" d="M173.481000,243.955000C173.261000,241.895000,171.541000,240.375000,169.511000,240.375000C169.371000,240.375000,169.231000,240.385000,169.091000,240.395000C166.891000,240.615000,165.291000,242.585000,165.521000,244.785000C165.631000,245.815000,166.121000,246.715000,166.831000,247.355000C167.541000,247.995000,168.481000,248.375000,169.501000,248.375000C169.641000,248.375000,169.781000,248.365000,169.921000,248.345000C171.971000,248.135000,173.501000,246.405000,173.501000,244.375000C173.501000,244.234000,173.491000,244.095000,173.481000,243.955000Z" fill="rgb(249,192,50)" stroke="none" stroke-width="1"/><path id="eVFfCtLaSyx124" d="M121.481000,238.165000C121.231000,238.115000,120.981000,238.095000,120.731000,238.095000C118.851000,238.095000,117.171000,239.425000,116.811000,241.345000C116.401000,243.515000,117.831000,245.615000,120.001000,246.025000C120.251000,246.075000,120.501000,246.095000,120.741000,246.095000C121.681000,246.095000,122.581000,245.765000,123.281000,245.185000C123.981000,244.605000,124.491000,243.795000,124.671000,242.835000C124.721000,242.585000,124.741000,242.335000,124.741000,242.085000C124.741000,240.205000,123.411000,238.524000,121.481000,238.165000Z" fill="rgb(249,192,50)" stroke="none" stroke-width="1"/><path id="eVFfCtLaSyx125" d="M197.421000,238.875000C196.931000,237.085000,195.321000,235.905000,193.551000,235.905000C193.211000,235.905000,192.861000,235.955000,192.511000,236.045000C190.381000,236.625000,189.121000,238.815000,189.691000,240.945000C189.931000,241.845000,190.451000,242.585000,191.141000,243.105000C191.821000,243.625000,192.661000,243.915000,193.551000,243.915000C193.891000,243.915000,194.241000,243.865000,194.591000,243.775000C196.381000,243.295000,197.561000,241.675000,197.561000,239.905000C197.561000,239.564000,197.511000,239.214000,197.421000,238.875000Z" fill="rgb(249,192,50)" stroke="none" stroke-width="1"/><path id="eVFfCtLaSyx126" d="M98.391000,232.044000C97.961000,231.894000,97.521000,231.824000,97.091000,231.824000C95.421000,231.824000,93.871000,232.864000,93.301000,234.524000C92.581000,236.614000,93.701000,238.894000,95.781000,239.614000C96.211000,239.754000,96.651000,239.824000,97.091000,239.824000C97.921000,239.824000,98.721000,239.564000,99.391000,239.094000C100.061000,238.634000,100.581000,237.964000,100.871000,237.134000C101.021000,236.704000,101.091000,236.264000,101.091000,235.834000C101.091000,234.165000,100.051000,232.614000,98.391000,232.044000Z" fill="rgb(249,192,50)" stroke="none" stroke-width="1"/><path id="eVFfCtLaSyx127" d="M220.271000,230.135000C219.601000,228.645000,218.141000,227.755000,216.601000,227.755000C216.061000,227.755000,215.521000,227.865000,214.991000,228.095000C212.971000,228.995000,212.061000,231.355000,212.951000,233.375000C213.281000,234.125000,213.811000,234.715000,214.451000,235.125000C215.101000,235.535000,215.841000,235.755000,216.611000,235.755000C217.151000,235.755000,217.701000,235.645000,218.231000,235.415000C219.721000,234.745000,220.611000,233.285000,220.611000,231.745000C220.611000,231.205000,220.501000,230.665000,220.271000,230.135000Z" fill="rgb(249,192,50)" stroke="none" stroke-width="1"/><path id="eVFfCtLaSyx128" d="M76.451000,222.614000C75.861000,222.304000,75.241000,222.164000,74.611000,222.164000C73.171000,222.164000,71.771000,222.944000,71.061000,224.314000C70.031000,226.264000,70.791000,228.684000,72.751000,229.704000C73.341000,230.014000,73.981000,230.164000,74.601000,230.164000C76.041000,230.164000,77.431000,229.384000,78.151000,228.014000C78.461000,227.424000,78.601000,226.794000,78.601000,226.164000C78.601000,224.725000,77.821000,223.325000,76.451000,222.614000Z" fill="rgb(249,192,50)" stroke="none" stroke-width="1"/><path id="eVFfCtLaSyx129" d="M241.541000,218.044000C240.781000,216.854000,239.481000,216.194000,238.161000,216.194000C237.431000,216.194000,236.691000,216.394000,236.021000,216.824000C234.151000,218.004000,233.601000,220.484000,234.791000,222.344000C235.551000,223.544000,236.851000,224.194000,238.171000,224.194000C238.901000,224.194000,239.651000,223.994000,240.311000,223.574000C241.511000,222.814000,242.161000,221.514000,242.161000,220.194000C242.161000,219.455000,241.961000,218.714000,241.541000,218.044000Z" fill="rgb(249,192,50)" stroke="none" stroke-width="1"/><path id="eVFfCtLaSyx130" d="M56.211000,209.984000C55.641000,209.564000,55.011000,209.324000,54.371000,209.244000L54.371000,217.164000C55.411000,217.034000,56.391000,216.484000,57.061000,215.574000C57.591000,214.864000,57.841000,214.034000,57.841000,213.204000C57.841000,211.975000,57.281000,210.765000,56.211000,209.984000Z" fill="rgb(249,192,50)" stroke="none" stroke-width="1"/></g></g><g id="eVFfCtLaSyx131_tr" transform="translate(210.801010,125.209499) rotate(0)"><g id="eVFfCtLaSyx131" transform="translate(-210.801010,-125.209499)"><path id="eVFfCtLaSyx132" d="M157.291000,223.774000L157.201000,223.774000C154.991000,223.824000,153.241000,225.654000,153.291000,227.864000C153.321000,228.954000,153.771000,229.934000,154.501000,230.635000C155.221000,231.345000,156.201000,231.775000,157.291000,231.775000L157.381000,231.775000C159.551000,231.725000,161.281000,229.945000,161.281000,227.775000L161.281000,227.685000C161.231000,225.504000,159.451000,223.774000,157.291000,223.774000Z" fill="rgb(255,255,255)" stroke="none" stroke-width="1"/><path id="eVFfCtLaSyx133" d="M145.241000,223.605000C145.171000,223.605000,145.101000,223.595000,145.041000,223.595000C142.921000,223.595000,141.161000,225.265000,141.051000,227.405000C140.941000,229.605000,142.641000,231.485000,144.851000,231.595000L145.051000,231.595000C146.111000,231.595000,147.081000,231.185000,147.801000,230.495000C148.521000,229.815000,148.991000,228.865000,149.041000,227.795000C149.041000,227.725000,149.051000,227.655000,149.051000,227.595000C149.051000,225.475000,147.381000,223.714000,145.241000,223.605000Z" transform="matrix(1 0 0 1 0 -0.91000000000000)" fill="rgb(254,14,194)" stroke="none" stroke-width="1"/><path id="eVFfCtLaSyx134" d="M173.481000,226.595000C173.261000,224.535000,171.531000,223.005000,169.511000,223.005000C169.371000,223.005000,169.231000,223.015000,169.091000,223.025000C166.891000,223.255000,165.291000,225.215000,165.521000,227.415000C165.631000,228.445000,166.121000,229.345000,166.831000,229.985000C167.541000,230.625000,168.481000,231.005000,169.501000,231.005000C169.641000,231.005000,169.781000,230.995000,169.921000,230.985000C171.971000,230.765000,173.501000,229.035000,173.501000,227.015000C173.501000,226.875000,173.491000,226.734000,173.481000,226.595000Z" fill="rgb(254,14,194)" stroke="none" stroke-width="1"/><path id="eVFfCtLaSyx135" d="M133.311000,222.605000C133.161000,222.585000,133.001000,222.575000,132.851000,222.575000C130.851000,222.575000,129.111000,224.075000,128.871000,226.115000C128.611000,228.305000,130.181000,230.295000,132.371000,230.555000C132.531000,230.575000,132.691000,230.585000,132.851000,230.585000C133.851000,230.585000,134.781000,230.205000,135.491000,229.585000C136.201000,228.955000,136.701000,228.065000,136.821000,227.055000C136.841000,226.895000,136.851000,226.735000,136.851000,226.575000C136.851000,224.575000,135.351000,222.845000,133.311000,222.605000Z" fill="rgb(255,255,255)" stroke="none" stroke-width="1"/><path id="eVFfCtLaSyx136" d="M185.551000,224.524000C185.201000,222.594000,183.511000,221.244000,181.621000,221.244000C181.381000,221.244000,181.141000,221.264000,180.891000,221.314000C178.711000,221.724000,177.281000,223.804000,177.681000,225.984000C177.861000,226.944000,178.371000,227.764000,179.071000,228.344000C179.771000,228.914000,180.661000,229.254000,181.611000,229.254000C181.851000,229.254000,182.101000,229.234000,182.351000,229.184000C184.271000,228.834000,185.621000,227.144000,185.621000,225.254000C185.621000,225.015000,185.601000,224.774000,185.551000,224.524000Z" fill="rgb(255,255,255)" stroke="none" stroke-width="1"/><path id="eVFfCtLaSyx137" d="M121.481000,220.794000C121.231000,220.744000,120.981000,220.724000,120.741000,220.724000C118.861000,220.724000,117.171000,222.064000,116.811000,223.984000C116.401000,226.154000,117.831000,228.244000,120.001000,228.654000C120.251000,228.704000,120.501000,228.724000,120.751000,228.724000C121.691000,228.724000,122.581000,228.384000,123.281000,227.814000C123.981000,227.244000,124.491000,226.424000,124.671000,225.474000C124.721000,225.224000,124.741000,224.974000,124.741000,224.724000C124.741000,222.834000,123.411000,221.154000,121.481000,220.794000Z" transform="matrix(1 0 0 1 0 -0.91000000000000)" fill="rgb(254,14,194)" stroke="none" stroke-width="1"/><path id="eVFfCtLaSyx138" d="M197.421000,221.504000C196.931000,219.714000,195.321000,218.534000,193.551000,218.534000C193.201000,218.534000,192.861000,218.584000,192.511000,218.674000C192.511000,218.684000,192.511000,218.684000,192.511000,218.684000C190.381000,219.254000,189.121000,221.444000,189.691000,223.584000C189.931000,224.474000,190.451000,225.214000,191.141000,225.734000C191.821000,226.244000,192.661000,226.544000,193.551000,226.544000C193.891000,226.544000,194.241000,226.494000,194.591000,226.404000C196.381000,225.924000,197.561000,224.314000,197.561000,222.544000C197.561000,222.194000,197.511000,221.855000,197.421000,221.504000Z" fill="rgb(254,14,194)" stroke="none" stroke-width="1"/><path id="eVFfCtLaSyx139" d="M109.821000,218.154000C109.481000,218.064000,109.131000,218.014000,108.791000,218.014000C107.031000,218.014000,105.411000,219.204000,104.931000,220.994000C104.371000,223.134000,105.641000,225.324000,107.781000,225.884000C108.121000,225.974000,108.461000,226.024000,108.801000,226.024000C109.681000,226.024000,110.531000,225.724000,111.221000,225.204000C111.901000,224.684000,112.431000,223.944000,112.671000,223.044000C112.761000,222.704000,112.801000,222.364000,112.801000,222.024000C112.801000,220.245000,111.621000,218.625000,109.821000,218.154000Z" fill="rgb(255,255,255)" stroke="none" stroke-width="1"/><path id="eVFfCtLaSyx140" d="M209.011000,217.575000C208.431000,215.935000,206.891000,214.915000,205.251000,214.915000C204.801000,214.915000,204.351000,214.985000,203.911000,215.145000C201.821000,215.875000,200.731000,218.165000,201.471000,220.245000C201.761000,221.065000,202.291000,221.735000,202.951000,222.195000C203.621000,222.655000,204.421000,222.915000,205.241000,222.915000C205.681000,222.915000,206.131000,222.835000,206.571000,222.685000C208.221000,222.105000,209.241000,220.555000,209.241000,218.915000C209.241000,218.464000,209.171000,218.015000,209.011000,217.575000Z" fill="rgb(255,255,255)" stroke="none" stroke-width="1"/><path id="eVFfCtLaSyx141" d="M98.391000,214.674000C98.391000,214.684000,98.391000,214.684000,98.391000,214.684000C97.961000,214.534000,97.521000,214.464000,97.091000,214.464000C95.421000,214.464000,93.871000,215.504000,93.301000,217.164000C92.581000,219.244000,93.701000,221.524000,95.781000,222.244000C96.211000,222.394000,96.651000,222.464000,97.091000,222.464000C97.921000,222.464000,98.721000,222.204000,99.391000,221.734000C100.061000,221.264000,100.581000,220.594000,100.871000,219.764000C101.021000,219.334000,101.091000,218.894000,101.091000,218.464000C101.091000,216.794000,100.051000,215.245000,98.391000,214.674000Z" transform="matrix(1 0 0 1 0 -0.91000000000000)" fill="rgb(254,14,194)" stroke="none" stroke-width="1"/><path id="eVFfCtLaSyx142" d="M220.271000,212.765000C219.611000,211.275000,218.151000,210.385000,216.611000,210.385000C216.071000,210.385000,215.521000,210.495000,214.991000,210.735000C212.971000,211.625000,212.061000,213.985000,212.951000,216.005000C213.281000,216.755000,213.811000,217.345000,214.451000,217.755000C215.101000,218.165000,215.841000,218.385000,216.611000,218.385000C217.151000,218.385000,217.701000,218.275000,218.231000,218.045000C219.721000,217.385000,220.611000,215.915000,220.611000,214.385000C220.611000,213.834000,220.501000,213.294000,220.271000,212.765000Z" fill="rgb(254,14,194)" stroke="none" stroke-width="1"/><path id="eVFfCtLaSyx143" d="M87.241000,210.375000C86.731000,210.155000,86.191000,210.055000,85.671000,210.055000C84.121000,210.055000,82.641000,210.955000,81.991000,212.475000C81.121000,214.505000,82.051000,216.855000,84.081000,217.725000C84.601000,217.945000,85.131000,218.055000,85.661000,218.055000C86.441000,218.055000,87.191000,217.825000,87.841000,217.405000C88.481000,216.995000,89.021000,216.385000,89.341000,215.625000C89.561000,215.115000,89.661000,214.585000,89.661000,214.055000C89.661000,212.504000,88.761000,211.024000,87.241000,210.375000Z" fill="rgb(255,255,255)" stroke="none" stroke-width="1"/><path id="eVFfCtLaSyx144" d="M236.241000,206.334000C236.831000,206.664000,237.501000,206.834000,238.171000,206.834000C238.811000,206.834000,239.471000,206.674000,240.071000,206.334000L236.241000,206.334000Z" fill="rgb(237,76,88)" stroke="none" stroke-width="1"/><path id="eVFfCtLaSyx145" d="M62.281000,206.334000C62.821000,206.594000,63.401000,206.714000,63.971000,206.714000C64.551000,206.714000,65.121000,206.584000,65.641000,206.334000L62.281000,206.334000Z" fill="rgb(237,76,88)" stroke="none" stroke-width="1"/><path id="eVFfCtLaSyx146" d="M77.751000,206.335000C78.301000,207.035000,78.601000,207.905000,78.601000,208.795000C78.601000,209.425000,78.461000,210.055000,78.151000,210.645000C77.431000,212.015000,76.041000,212.795000,74.601000,212.795000C73.971000,212.795000,73.341000,212.645000,72.751000,212.345000C70.791000,211.315000,70.031000,208.905000,71.061000,206.945000C71.171000,206.725000,71.311000,206.515000,71.461000,206.335000L77.751000,206.335000L77.751000,206.335000Z" transform="matrix(1 0 0 1 0 -0.91000000000000)" opacity="0" fill="rgb(254,14,194)" stroke="none" stroke-width="1"/><path id="eVFfCtLaSyx147" d="M231.131000,207.125000C230.971000,206.835000,230.781000,206.565000,230.561000,206.335000L224.651000,206.335000C223.541000,207.545000,223.261000,209.375000,224.081000,210.905000C224.801000,212.245000,226.181000,213.015000,227.611000,213.015000C228.251000,213.015000,228.891000,212.865000,229.491000,212.535000C230.841000,211.815000,231.601000,210.435000,231.601000,209.005000C231.601000,208.364000,231.451000,207.725000,231.131000,207.125000Z" fill="rgb(255,255,255)" stroke="none" stroke-width="1"/></g></g><g id="eVFfCtLaSyx148"><path id="eVFfCtLaSyx149" d="M42.666000,56.538000L42.666000,34.746000C42.666000,25.853000,49.875000,18.644000,58.768000,18.644000L362.834000,18.644000C371.727000,18.644000,378.936000,25.853000,378.936000,34.746000L378.936000,56.538000C378.936000,65.431000,371.727000,72.640000,362.834000,72.640000L58.768000,72.640000C49.875000,72.639000,42.666000,65.430000,42.666000,56.538000Z" transform="matrix(1 0 0 1 -0.78238951196937 -0.00832765805967)" fill="rgb(255,255,255)" stroke="none" stroke-width="1"/><path id="eVFfCtLaSyx150" d="M117.668000,60.693000C117.668000,62.378000,117.086000,63.804000,115.922000,64.967000C114.757000,66.132000,113.333000,66.713000,111.648000,66.713000L104.123000,66.713000C102.437000,66.713000,101.012000,66.132000,99.848000,64.967000C98.683000,63.803000,98.102000,62.378000,98.102000,60.693000L98.102000,30.591000C98.102000,28.906000,98.683000,27.481000,99.848000,26.317000C101.012000,25.154000,102.437000,24.571000,104.123000,24.571000L111.648000,24.571000C113.333000,24.571000,114.758000,25.153000,115.922000,26.317000C117.086000,27.482000,117.668000,28.906000,117.668000,30.591000L117.668000,35.889000L113.153000,35.889000L113.153000,30.591000C113.153000,29.588000,112.651000,29.086000,111.648000,29.086000L104.123000,29.086000C103.119000,29.086000,102.618000,29.588000,102.618000,30.591000L102.618000,60.693000C102.618000,61.697000,103.119000,62.198000,104.123000,62.198000L111.648000,62.198000C112.651000,62.198000,113.153000,61.696000,113.153000,60.693000L113.153000,55.395000L117.668000,55.395000L117.668000,60.693000Z" fill="rgb(254,14,194)" stroke="none" stroke-width="1"/><path id="eVFfCtLaSyx151" d="M139.582000,59.910000L127.963000,59.910000L126.578000,66.713000L122.003000,66.713000L131.033000,24.571000L136.512000,24.571000L145.542000,66.713000L140.967000,66.713000L139.582000,59.910000ZM128.866000,55.395000L138.619000,55.395000L133.742000,31.615000L128.866000,55.395000Z" fill="rgb(254,14,194)" stroke="none" stroke-width="1"/><path id="eVFfCtLaSyx152" d="M169.442000,66.713000L165.649000,66.713000L154.391000,35.528000L154.391000,66.713000L149.876000,66.713000L149.876000,24.571000L154.873000,24.571000L164.927000,52.987000L164.927000,24.571000L169.442000,24.571000L169.442000,66.713000Z" fill="rgb(254,14,194)" stroke="none" stroke-width="1"/><path id="eVFfCtLaSyx153" d="M195.630000,60.693000C195.630000,62.378000,195.048000,63.804000,193.884000,64.967000C192.719000,66.132000,191.295000,66.713000,189.610000,66.713000L176.064000,66.713000L176.064000,24.571000L189.610000,24.571000C191.295000,24.571000,192.720000,25.153000,193.884000,26.317000C195.048000,27.482000,195.630000,28.906000,195.630000,30.591000L195.630000,60.693000ZM191.115000,30.591000C191.115000,29.588000,190.613000,29.086000,189.610000,29.086000L180.580000,29.086000L180.580000,62.198000L189.610000,62.198000C190.613000,62.198000,191.115000,61.696000,191.115000,60.693000L191.115000,30.591000Z" fill="rgb(254,14,194)" stroke="none" stroke-width="1"/><path id="eVFfCtLaSyx154" d="M221.758000,24.571000L212.668000,50.458000L212.668000,66.713000L208.213000,66.713000L208.213000,50.458000L199.243000,24.571000L203.999000,24.571000L210.501000,45.341000L217.063000,24.571000C217.063000,24.571000,221.758000,24.571000,221.758000,24.571000Z" fill="rgb(254,14,194)" stroke="none" stroke-width="1"/><path id="eVFfCtLaSyx155" d="M240.420000,54.672000C240.420000,53.829000,240.179000,53.167000,239.697000,52.685000L227.416000,40.464000C226.774000,39.862000,226.272000,39.100000,225.911000,38.176000C225.550000,37.253000,225.369000,36.270000,225.369000,35.226000L225.369000,30.590000C225.369000,28.905000,225.950000,27.480000,227.115000,26.316000C228.279000,25.153000,229.704000,24.570000,231.390000,24.570000L238.915000,24.570000C240.600000,24.570000,242.025000,25.152000,243.189000,26.316000C244.353000,27.481000,244.935000,28.905000,244.935000,30.590000L244.935000,36.611000L240.420000,36.611000L240.420000,30.590000C240.420000,29.587000,239.918000,29.085000,238.915000,29.085000L231.390000,29.085000C230.386000,29.085000,229.885000,29.587000,229.885000,30.590000L229.885000,35.226000C229.885000,36.029000,230.126000,36.671000,230.607000,37.153000L242.888000,49.374000C243.530000,49.976000,244.032000,50.749000,244.393000,51.692000C244.754000,52.636000,244.935000,53.629000,244.935000,54.672000L244.935000,60.693000C244.935000,62.378000,244.353000,63.804000,243.189000,64.967000C242.024000,66.132000,240.600000,66.713000,238.915000,66.713000L231.390000,66.713000C229.704000,66.713000,228.279000,66.132000,227.115000,64.967000C225.950000,63.803000,225.369000,62.378000,225.369000,60.693000L225.369000,54.672000L229.884000,54.672000L229.884000,60.693000C229.884000,61.135000,230.024000,61.496000,230.305000,61.777000C230.585000,62.058000,230.946000,62.198000,231.389000,62.198000L238.914000,62.198000C239.917000,62.198000,240.419000,61.696000,240.419000,60.693000L240.419000,54.672000L240.420000,54.672000Z" fill="rgb(254,14,194)" stroke="none" stroke-width="1"/><path id="eVFfCtLaSyx156" d="M271.123000,66.713000L266.608000,66.713000L266.608000,46.665000L256.072000,46.665000L256.072000,66.713000L251.557000,66.713000L251.557000,24.571000L256.072000,24.571000L256.072000,42.150000L266.608000,42.150000L266.608000,24.571000L271.123000,24.571000L271.123000,66.713000Z" fill="rgb(254,14,194)" stroke="none" stroke-width="1"/><path id="eVFfCtLaSyx157" d="M297.311000,60.693000C297.311000,62.378000,296.729000,63.804000,295.565000,64.967000C294.400000,66.132000,292.976000,66.713000,291.291000,66.713000L283.766000,66.713000C282.080000,66.713000,280.655000,66.132000,279.491000,64.967000C278.326000,63.803000,277.745000,62.378000,277.745000,60.693000L277.745000,30.591000C277.745000,28.906000,278.326000,27.481000,279.491000,26.317000C280.655000,25.154000,282.080000,24.571000,283.766000,24.571000L291.291000,24.571000C292.976000,24.571000,294.401000,25.153000,295.565000,26.317000C296.729000,27.482000,297.311000,28.906000,297.311000,30.591000L297.311000,60.693000ZM292.796000,30.591000C292.796000,29.588000,292.294000,29.086000,291.291000,29.086000L283.766000,29.086000C282.762000,29.086000,282.261000,29.588000,282.261000,30.591000L282.261000,60.693000C282.261000,61.697000,282.762000,62.198000,283.766000,62.198000L291.291000,62.198000C292.294000,62.198000,292.796000,61.696000,292.796000,60.693000L292.796000,30.591000Z" fill="rgb(254,14,194)" stroke="none" stroke-width="1"/><path id="eVFfCtLaSyx158" d="M323.500000,44.558000C323.500000,45.401000,323.339000,46.184000,323.019000,46.906000C322.697000,47.629000,322.266000,48.261000,321.725000,48.803000C321.183000,49.345000,320.551000,49.777000,319.828000,50.097000C319.106000,50.419000,318.323000,50.579000,317.480000,50.579000L308.450000,50.579000L308.450000,66.713000L303.935000,66.713000L303.935000,24.571000L317.481000,24.571000C319.166000,24.571000,320.591000,25.153000,321.755000,26.317000C322.919000,27.482000,323.501000,28.906000,323.501000,30.591000L323.500000,44.558000L323.500000,44.558000ZM318.985000,30.591000C318.985000,29.588000,318.483000,29.086000,317.480000,29.086000L308.450000,29.086000L308.450000,46.063000L317.480000,46.063000C318.483000,46.063000,318.985000,45.562000,318.985000,44.558000L318.985000,30.591000Z" fill="rgb(254,14,194)" stroke="none" stroke-width="1"/></g><g id="eVFfCtLaSyx159"><path id="eVFfCtLaSyx160" d="M84.051000,49.142000L60.051000,49.142000C58.118000,49.142000,56.551000,47.575000,56.551000,45.642000L56.551000,45.642000C56.551000,43.709000,58.118000,42.142000,60.051000,42.142000L84.051000,42.142000C85.984000,42.142000,87.551000,43.709000,87.551000,45.642000L87.551000,45.642000C87.551000,47.575000,85.984000,49.142000,84.051000,49.142000Z" transform="matrix(1 0 0 1 -1.22250000000000 0)" fill="rgb(218,196,242)" stroke="none" stroke-width="1"/><path id="eVFfCtLaSyx161" d="M361.551000,49.142000L337.551000,49.142000C335.618000,49.142000,334.051000,47.575000,334.051000,45.642000L334.051000,45.642000C334.051000,43.709000,335.618000,42.142000,337.551000,42.142000L361.551000,42.142000C363.484000,42.142000,365.051000,43.709000,365.051000,45.642000L365.051000,45.642000C365.051000,47.575000,363.484000,49.142000,361.551000,49.142000Z" transform="matrix(1 0 0 1 -0.77749999999997 0)" fill="rgb(218,196,242)" stroke="none" stroke-width="1"/></g></g></svg>