<svg id="Capa_1" enable-background="new 0 0 496.999 496.999" height="512" viewBox="0 0 496.999 496.999" width="512" xmlns="http://www.w3.org/2000/svg"><g><path d="m125.707 490.53c-6.027 9.754-19.505 6.466-20.945-4.91-.302-2.387-1.405-4.078-2.154-6.516-1.249-4.063-3.48-8.237-7.901-12.657-16.042-16.042-28.833-3.252-44.875-19.295-16.04-16.04-3.25-28.83-19.29-44.871-7.069-7.069-13.506-8.538-19.869-9.343-11.376-1.44-14.665-16.331-4.911-22.359l135.197-48.938 33.687 33.687z" fill="#ffe07d"/><path d="m132.311 409.668 30.332-43.8 3.613-14.353c3.895-1.409 5.909-5.71 4.499-9.605-1.409-3.895-5.712-5.912-9.605-4.499l-3.089 1.118 1.139-3.146c1.41-3.895-.605-8.195-4.499-9.605-3.894-1.413-8.195.604-9.604 4.499l-5.392 14.897-79.291 28.701c-3.895 1.409-5.909 5.71-4.499 9.604 1.104 3.052 3.983 4.949 7.052 4.949.848 0 1.71-.145 2.553-.45l67.541-24.448-14.853 41.032c-1.41 3.895.605 8.195 4.499 9.605.843.306 1.705.45 2.553.45 3.067 0 5.946-1.897 7.051-4.949z" fill="#b284db"/><path d="m490.53 125.707c9.754-6.027 6.466-19.505-4.91-20.945-2.127-.269-3.555-1.319-5.72-1.921-4.314-1.199-8.743-3.423-13.453-8.133-16.042-16.042-3.252-28.833-19.295-44.875-16.04-16.04-28.83-3.25-44.871-19.29-7.069-7.069-8.538-13.506-9.343-19.869-1.44-11.376-16.331-14.666-22.359-4.911l-48.938 135.197 33.688 33.687z" fill="#ffe07d"/><path d="m412.847 124.027c-1.409-3.896-5.71-5.911-9.604-4.499l-40.063 14.502 24.799-68.512c1.41-3.895-.605-8.195-4.499-9.604-3.893-1.413-8.195.604-9.604 4.499l-29.052 80.262-15.866 5.743c-3.895 1.409-5.909 5.71-4.499 9.605 1.105 3.052 3.983 4.949 7.052 4.949.848 0 1.71-.145 2.553-.45l4.116-1.49-.767 2.118c-1.41 3.895.604 8.195 4.499 9.604.843.306 1.705.45 2.553.45 3.068 0 5.947-1.897 7.052-4.949l11.434.237 45.399-32.862c3.892-1.407 5.907-5.708 4.497-9.603z" fill="#b284db"/><path d="m491.238 126.414-135.206 48.939-16.645-16.645 135.206-48.939c2.828-1.754 4.554-4.243 5.311-6.937 2.157.615 4.292.955 6.427 1.223 11.37 1.442 14.658 16.327 4.907 22.359z" fill="#ffd064"/><path d="m104.055 486.331c-.297-2.39-.693-4.78-1.435-7.22 2.517-.82 4.837-2.517 6.484-5.183l48.946-135.198 17.303 17.303-48.939 135.206c-6.032 9.75-20.917 6.462-22.359-4.908z" fill="#ffd064"/><path d="m139.671 357.326c-28.575-28.575-33.199-60.039-25.758-96.272 1.742-8.482-2.538-23.91 1.33-31.982 5.449-11.37 12.884-22.026 22.306-31.448l50.529-50.529 16.616-2.474c44.686-44.686 110.066-51.757 154.753-7.071 2.103 2.103 3.384 4.959 5.259 7.149 37.971 44.352 30.253 105.02-12.33 147.604l-60.074 60.074c-44.686 44.686-107.944 49.636-152.631 4.949z" fill="#a4ccff"/><path d="m358.034 297.958-60.076 60.076c-10.141 10.141-20.299 19.396-32.653 24.934-36.766 16.483-80.454 12.579-113.944-11.719-4.836-3.509-8.045-8.856-12.403-13.215-2.383-2.383-4.639-4.851-6.76-7.382 8.185 6.883 15.694 13.851 25.069 18.078 30.68 13.831 66.206 13.441 96.611-1.164 11.334-5.444 23.371-11.45 32.766-20.845l60.076-60.076c7.843-7.843 12.895-17.955 17.984-27.208 9.41-17.107 14.114-36.11 14.118-55.113 0-26.163-8.917-52.333-26.757-73.539 2.531 2.121 4.999 4.377 7.382 6.76 22.345 22.345 33.517 51.633 33.517 80.921-.004 18.179-4.31 36.359-12.921 52.878-5.258 10.087-13.537 18.142-22.009 26.614z" fill="#8bb3ea"/><path d="m177.535 249.916c28.837 28.837 28.837 75.589 0 104.426-6.082 6.082-12.956 10.881-20.293 14.399-1.925.923-3.881.344-5.864 1.09-4.841-3.5-8.753-6.728-13.116-11.091-2.373-2.373-5.327-4.117-7.448-6.638-29.427-34.979-34.601-83.418-15.516-123.13 22.079-3.016 45.262 3.97 62.237 20.944z" fill="#8ad3a5"/><path d="m372.971 278.417c-5.262 10.081-12.127 5.413-20.596 13.882l-60.077 60.076c-10.145 10.145-7.573 17.98-19.935 23.512-4.505-4.758-15.386-2.863-18.5-8.328-17.41-30.55-13.08-70.122 12.99-96.192 26.551-26.55 67.115-30.556 97.888-12.004 5.453 3.287 3.526 14.352 8.23 19.054z" fill="#b284db"/><path d="m157.258 368.725c-1.93.926-3.889 1.768-5.883 2.517-.028-.014-.057-.042-.085-.057-4.815-3.486-9.411-7.403-13.746-11.738-2.383-2.383-4.639-4.851-6.76-7.382 8.181 6.881 17.105 12.439 26.474 16.66z" fill="#5bbf81"/><path d="m359.448 299.372-60.076 60.076c-10.119 10.119-21.666 17.946-33.998 23.476-.028.014-.049.021-.078.035-4.504-4.759-8.316-9.928-11.42-15.394 11.328-5.445 21.956-12.862 31.353-22.26l60.076-60.076c7.863-7.863 14.347-16.582 19.431-25.866 5.459 3.281 10.599 7.276 15.309 11.985-5.26 10.085-12.126 19.553-20.597 28.024z" fill="#a26bd4"/><path d="m352.36 131.04c-2.93 16.746-10.865 32.779-23.797 45.711-33.456 33.457-87.694 33.457-121.151 0-8.719-8.719-15.163-18.842-19.334-29.657l9.546-9.546c42.397-42.396 109.773-44.57 154.736-6.508z" fill="#ee98d0"/></g></svg>