<svg viewBox="0 0 512.0025 512" xmlns="http://www.w3.org/2000/svg"><path d="m306.363281 95.800781c25.042969 7.835938 48.617188 21.664063 68.457031 41.503907 19.117188 19.117187 32.652344 41.699218 40.625 65.722656l94.699219-57.898438c2.925781-1.789062 2.261719-6.171875-1.046875-7.066406-3.277344-.886719-6.476562-2.59375-9.539062-5.65625-15.304688-15.304688 3.324218-33.9375-11.980469-49.242188-15.300781-15.304687-33.933594 3.328126-49.238281-11.972656-15.300782-15.304687 3.332031-33.933594-11.972656-49.238281-15.300782-15.304687-33.933594 3.328125-49.238282-11.972656-2.226562-2.230469-3.734375-4.53125-4.734375-6.878907-1.605469-3.785156-6.785156-4.207031-8.929687-.699218zm0 0" fill="#f98c96"/><path d="m397.210938 137.304688c-14.511719-14.511719-31.023438-25.808594-48.644532-33.894532-10.167968-4.667968-13.96875-17.171875-8.132812-26.714844l39.378906-64.40625c-.90625-.671874-1.800781-1.429687-2.683594-2.308593-2.226562-2.230469-3.734375-4.53125-4.734375-6.878907-1.605469-3.785156-6.785156-4.207031-8.929687-.699218l-57.101563 93.398437c25.042969 7.835938 48.613281 21.664063 68.457031 41.503907 19.117188 19.117187 32.648438 41.699218 40.621094 65.722656l18.230469-11.144532c-8.195313-19.847656-20.332031-38.449218-36.460937-54.578124zm0 0" fill="#ea5471"/><path d="m95.800781 306.363281c7.835938 25.042969 21.664063 48.617188 41.503907 68.457031 19.117187 19.117188 41.699218 32.652344 65.722656 40.625l-57.898438 94.699219c-1.789062 2.925781-6.171875 2.261719-7.066406-1.046875-.890625-3.277344-2.59375-6.476562-5.65625-9.539062-15.304688-15.304688-33.9375 3.328125-49.242188-11.980469-15.304687-15.300781 3.328126-33.933594-11.972656-49.234375-15.304687-15.304688-33.9375 3.328125-49.238281-11.976562-15.304687-15.300782 3.328125-33.933594-11.972656-49.234376-2.230469-2.230468-4.53125-3.738281-6.878907-4.738281-3.785156-1.605469-4.207031-6.785156-.699218-8.929687zm0 0" fill="#f98c96"/><path d="m46.675781 430.488281c-15.300781-15.300781 3.332031-33.933593-11.972656-49.234375-2.226563-2.230468-4.527344-3.738281-6.875-4.738281-3.785156-1.605469-4.207031-6.785156-.699219-8.929687l74.476563-45.53125c-2.199219-5.152344-4.144531-10.386719-5.804688-15.691407l-93.398437 57.101563c-3.507813 2.144531-3.085938 7.324218.699218 8.929687 2.347657 1 4.648438 2.507813 6.875 4.738281 15.304688 15.300782-3.328124 33.933594 11.972657 49.234376 8.25 8.25 17.464843 6.640624 26.601562 5.796874-.628906-.511718-1.253906-1.054687-1.875-1.675781zm0 0" fill="#ea5471"/><path d="m369.355469 142.769531c-3.019531-3.015625-3.019531-7.910156 0-10.925781l36.347656-36.351562c3.019531-3.015626 7.910156-3.015626 10.929687 0 3.015626 3.019531 3.015626 7.910156 0 10.929687l-36.351562 36.347656c-3.015625 3.015625-7.910156 3.015625-10.925781 0zm0 0" fill="#ea5471"/><path d="m391.339844 131.714844c-3.867188-3.515625-7.855469-6.8125-11.957032-9.902344l-10.027343 10.027344c-.046875.046875-.085938.097656-.128907.144531 1.890626 1.730469 3.761719 3.488281 5.59375 5.320313 1.828126 1.832031 3.59375 3.703124 5.320313 5.59375.046875-.046876.097656-.082032.140625-.128907zm0 0" fill="#da1c4b"/><path d="m389.699219 167.339844c-2.21875-3.644532-1.058594-8.398438 2.585937-10.617188l43.59375-26.519531c3.648438-2.214844 8.398438-1.058594 10.617188 2.585937 2.214844 3.648438 1.058594 8.402344-2.585938 10.617188l-43.59375 26.519531c-3.644531 2.214844-8.398437 1.0625-10.617187-2.585937zm0 0" fill="#ea5471"/><path d="m406.878906 147.84375-14.59375 8.878906c-.183594.113282-.359375.234375-.53125.359375 3.058594 4.183594 5.894532 8.480469 8.519532 12.867188.011718-.007813.027343-.015625.042968-.023438l16.035156-9.753906c-2.9375-4.222656-6.101562-8.332031-9.472656-12.328125zm0 0" fill="#da1c4b"/><path d="m344.785156 122.425781c-3.644531-2.21875-4.804687-6.972656-2.585937-10.617187l26.515625-43.59375c2.21875-3.644532 6.972656-4.800782 10.617187-2.585938 3.648438 2.21875 4.804688 6.972656 2.585938 10.617188l-26.515625 43.59375c-2.21875 3.644531-6.972656 4.804687-10.617188 2.585937zm0 0" fill="#ea5471"/><path d="m348.570312 103.410156c-.332031-.152344-.636718-.335937-.957031-.503906l-5.414062 8.902344c-.007813.011718-.011719.019531-.019531.03125 4.386718 2.621094 8.679687 5.457031 12.859374 8.515625.121094-.171875.25-.335938.363282-.515625l5.992187-9.855469c-4.199219-2.386719-8.476562-4.578125-12.824219-6.574219zm0 0" fill="#da1c4b"/><g fill="#ea5471"><path d="m95.492188 416.632812c-3.019532-3.015624-3.019532-7.910156 0-10.925781l36.347656-36.351562c3.019531-3.015625 7.910156-3.015625 10.929687 0 3.015625 3.019531 3.015625 7.910156 0 10.929687l-36.351562 36.347656c-3.015625 3.019532-7.910157 3.015626-10.925781 0zm0 0"/><path d="m132.789062 446.496094c-3.644531-2.21875-4.800781-6.972656-2.585937-10.617188l26.519531-43.59375c2.21875-3.644531 6.972656-4.804687 10.617188-2.585937 3.644531 2.21875 4.800781 6.972656 2.585937 10.617187l-26.519531 43.59375c-2.214844 3.644532-6.96875 4.804688-10.617188 2.585938zm0 0"/><path d="m65.628906 379.335938c-2.214844-3.648438-1.058594-8.398438 2.585938-10.617188l43.59375-26.519531c3.648437-2.21875 8.398437-1.058594 10.617187 2.585937 2.21875 3.648438 1.058594 8.398438-2.585937 10.617188l-43.59375 26.519531c-3.640625 2.214844-8.398438 1.058594-10.617188-2.585937zm0 0"/><path d="m376.839844 135.28125c-66.605469-66.605469-174.597656-66.605469-241.203125 0-66.609375 66.605469-66.609375 174.597656 0 241.203125 66.605469 66.609375 174.597656 66.609375 241.203125 0 66.605468-66.605469 66.605468-174.597656 0-241.203125zm0 0"/></g><path d="m156.242188 376.488281c-66.605469-66.609375-66.605469-174.601562 0-241.207031 30.683593-30.683594 70.148437-47.21875 110.300781-49.636719-47.015625-2.828125-94.980469 13.710938-130.90625 49.636719-66.605469 66.605469-66.605469 174.597656 0 241.207031 35.925781 35.921875 83.890625 52.460938 130.90625 49.632813-40.152344-2.414063-79.617188-18.953125-110.300781-49.632813zm0 0" fill="#da1c4b"/><path d="m409.300781 331.230469c-.21875-9.085938-3.785156-18.109375-10.722656-25.046875-14.324219-14.324219-37.546875-14.324219-51.871094 0-14.324219 14.324218-14.324219 37.546875 0 51.871094 10.722657 10.722656 26.433594 13.417968 39.664063 8.085937 9.21875-10.855469 16.867187-22.589844 22.929687-34.910156zm0 0" fill="#fdbd40"/><path d="m272.003906 282.285156c-14.320312-14.324218-37.542968-14.324218-51.867187 0-14.324219 14.324219-14.324219 37.546875 0 51.871094 14.324219 14.320312 37.546875 14.320312 51.867187 0 14.324219-14.324219 14.324219-37.546875 0-51.871094zm0 0" fill="#fdbd40"/><path d="m145.441406 258.386719c-18.03125-18.03125-48.582031-12.582031-59.253906 10.578125 1.105469 14.460937 4.046875 28.804687 8.824219 42.65625 14.402343 12.941406 36.574219 12.488281 50.429687-1.363282 14.324219-14.324218 14.324219-37.550781 0-51.871093zm0 0" fill="#fdbd40"/><path d="m106.398438 250.066406c-9.019532 3.445313-16.25 10.300782-20.210938 18.898438 1.378906 13.757812 3.132812 26.148437 8.824219 42.65625 6.867187 6.167968 15.496093 9.289062 24.152343 9.367187-9.332031-22.621093-13.582031-46.839843-12.765624-70.921875zm0 0" fill="#f2aa2a"/><path d="m416.445312 199.605469c-14.324218-14.324219-37.546874-14.324219-51.871093 0s-14.324219 37.546875 0 51.871093c14.324219 14.324219 37.546875 14.324219 51.871093 0 4.449219-4.453124 7.515626-9.761718 9.199219-15.398437-1.378906-11.890625-4.019531-23.664063-7.898437-35.105469-.421875-.464844-.851563-.921875-1.300782-1.367187zm0 0" fill="#fdbd40"/><path d="m289.871094 175.707031c-14.324219-14.324219-37.546875-14.324219-51.871094 0-14.320312 14.320313-14.320312 37.546875 0 51.867188 14.324219 14.324219 37.546875 14.324219 51.871094 0 14.324218-14.320313 14.324218-37.546875 0-51.867188zm0 0" fill="#fdbd40"/><path d="m367.316406 358.054688c-19.722656-19.71875-10.996094-53.375 15.632813-61.140626-12.445313-3.628906-26.429688-.542968-36.238281 9.269532-14.324219 14.324218-14.324219 37.546875 0 51.871094 9.808593 9.808593 23.789062 12.878906 36.230468 9.25-5.71875-1.667969-11.117187-4.738282-15.625-9.25zm0 0" fill="#f2aa2a"/><path d="m240.746094 334.15625c-19.71875-19.71875-11-53.375 15.632812-61.140625-12.441406-3.628906-26.429687-.542969-36.238281 9.269531-14.324219 14.324219-14.324219 37.546875 0 51.871094 9.808594 9.8125 23.796875 12.898438 36.238281 9.269531-5.722656-1.667969-11.121094-4.757812-15.632812-9.269531zm0 0" fill="#f2aa2a"/><path d="m400.8125 190.332031c-12.441406-3.628906-26.429688-.539062-36.238281 9.273438-14.324219 14.324219-14.324219 37.546875 0 51.871093 9.808593 9.808594 23.796875 12.898438 36.238281 9.269532-35.171875-10.257813-34.898438-60.234375 0-70.414063zm0 0" fill="#f2aa2a"/><path d="m274.242188 166.433594c-12.441407-3.628906-26.425782-.539063-36.238282 9.269531-14.324218 14.324219-14.324218 37.546875 0 51.871094 9.8125 9.8125 23.796875 12.898437 36.238282 9.269531-35.167969-10.253906-34.902344-60.230469 0-70.410156zm0 0" fill="#f2aa2a"/><path d="m129.304688 141.964844c-11.671876 12.984375-21.003907 27.332031-27.992188 42.488281 5.339844 28.8125 41.058594 40.15625 61.992188 19.222656 25.996093-25.992187 1.589843-69.699219-34-61.710937zm0 0" fill="#fdbd40"/><path d="m113.777344 205.816406c6.933594-22.644531 18.679687-44.128906 35.246094-62.84375-6.367188-2.128906-13.203126-2.46875-19.71875-1.007812-21.234376 24.773437-27.992188 42.488281-27.992188 42.488281 1.515625 8.179687 5.761719 15.71875 12.464844 21.363281zm0 0" fill="#f2aa2a"/></svg>