<svg width="200" height="200" viewBox="0 0 200 200" fill="none" xmlns="http://www.w3.org/2000/svg">
<path d="M100 200C155.228 200 200 155.228 200 100C200 44.7715 155.228 0 100 0C44.7715 0 0 44.7715 0 100C0 155.228 44.7715 200 100 200Z" fill="#FFF500"/>
<path fill-rule="evenodd" clip-rule="evenodd" d="M97.1283 50C82.8548 50 71.2838 61.1435 71.2838 74.8896C71.2838 88.6358 82.8548 99.7792 97.1283 99.7792C111.402 99.7792 122.973 88.6358 122.973 74.8896C122.973 61.1435 111.402 50 97.1283 50ZM80.4054 74.8896C80.4054 65.9951 87.8925 58.7846 97.1283 58.7846C106.364 58.7846 113.851 65.9951 113.851 74.8896C113.851 83.7842 106.364 90.9947 97.1283 90.9947C87.8925 90.9947 80.4054 83.7842 80.4054 74.8896Z" fill="black"/>
<path d="M59.1216 130.525C59.1216 123.248 65.2474 117.349 72.804 117.349H74.8769C75.0371 117.349 75.1965 117.373 75.3488 117.421L80.612 119.076C86.6717 120.981 92.998 121.811 99.2896 121.565C100.129 121.532 100.815 120.929 100.992 120.139C101.439 118.147 102.062 116.219 102.843 114.369C103.211 113.496 102.463 112.521 101.489 112.614C95.437 113.193 89.2904 112.564 83.4434 110.726L78.1801 109.07C77.1136 108.735 75.9988 108.564 74.8769 108.564H72.804C60.2097 108.564 50 118.396 50 130.525V137.485C50 141.896 53.3195 145.657 57.8401 146.367C73.6219 148.849 89.5938 149.825 105.525 149.297C106.513 149.264 107.048 148.16 106.491 147.373C105.312 145.708 104.278 143.94 103.405 142.086C102.986 141.194 102.068 140.604 101.051 140.62C87.0971 140.844 73.1278 139.87 59.3099 137.698C59.2013 137.681 59.1216 137.591 59.1216 137.485V130.525Z" fill="black"/>
<path fill-rule="evenodd" clip-rule="evenodd" d="M109.29 127.597C109.29 133.289 111.164 138.559 114.349 142.867C116.124 145.267 118.307 147.369 120.8 149.079C125.273 152.146 130.745 153.951 136.655 153.951C151.769 153.951 164.02 142.152 164.02 127.597C164.02 121.905 162.147 116.635 158.961 112.327C157.186 109.926 155.004 107.825 152.511 106.115C148.038 103.048 142.566 101.243 136.655 101.243C121.542 101.243 109.29 113.042 109.29 127.597ZM136.655 145.166C133.272 145.166 130.104 144.279 127.388 142.733L152.372 118.672C153.978 121.288 154.899 124.338 154.899 127.597C154.899 137.3 146.731 145.166 136.655 145.166ZM120.938 136.522L145.923 112.46C143.206 110.914 140.039 110.028 136.655 110.028C126.58 110.028 118.412 117.893 118.412 127.597C118.412 130.855 119.333 133.906 120.938 136.522Z" fill="#FF003D"/>
</svg>
