<svg width="40" height="44" viewBox="0 0 40 44" fill="none" xmlns="http://www.w3.org/2000/svg">
<g clip-path="url(#clip0_1622_164)">
<rect width="40" height="44" fill="white"/>
<path d="M12.5836 39.8753C27.6742 39.8753 35.9305 26.1193 35.9305 14.1938C35.9305 13.8071 35.9227 13.4117 35.907 13.025C37.5131 11.7474 38.8992 10.1648 40 8.35175C38.5042 9.0838 36.9161 9.5619 35.2898 9.76972C37.0021 8.6407 38.2842 6.86706 38.8984 4.77761C37.2876 5.82772 35.526 6.56849 33.6891 6.96815C32.4514 5.52156 30.815 4.56375 29.0328 4.24279C27.2506 3.92184 25.422 4.25563 23.8296 5.19254C22.2372 6.12946 20.9697 7.61733 20.2231 9.4261C19.4765 11.2349 19.2924 13.2638 19.6992 15.1992C16.4375 15.0192 13.2466 14.0872 10.3333 12.4635C7.42004 10.8399 4.84949 8.561 2.78828 5.77448C1.74067 7.76131 1.42009 10.1124 1.89172 12.3499C2.36334 14.5874 3.59177 16.5434 5.32734 17.8203C4.02438 17.7748 2.74996 17.3889 1.60938 16.6946V16.8063C1.60821 18.8913 2.2635 20.9124 3.46385 22.5261C4.6642 24.1398 6.33554 25.2464 8.19375 25.6578C6.98676 26.0211 5.71997 26.074 4.49141 25.8125C5.01576 27.6057 6.03596 29.174 7.40962 30.2986C8.78328 31.4233 10.4419 32.0481 12.1539 32.086C9.24737 34.5974 5.65696 35.9596 1.96094 35.9532C1.30548 35.9521 0.650665 35.9079 0 35.8208C3.75476 38.4706 8.12255 39.8779 12.5836 39.8753Z" fill="#393939"/>
</g>
<defs>
<clipPath id="clip0_1622_164">
<rect width="40" height="44" fill="white"/>
</clipPath>
</defs>
</svg>
