<svg width="283" height="151" viewBox="0 0 283 151" fill="none" xmlns="http://www.w3.org/2000/svg">
<path d="M116.405 0V7.77514L132.522 5.86193H138.472V18.4478L128.454 21.9791L114.882 25.752L116.897 33.3536L129.904 27.5938L138.472 24.5769V45.2363H132.522L116.405 43.3221V51.0973H165.625V43.3221L149.507 45.2363H143.558V24.5769L152.083 27.5781L165.134 33.3536L167.148 25.752L153.612 21.9902L143.558 18.4478V5.86193H149.507L165.625 7.77514V0H116.405Z" fill="#FF6B4A"/>
<path d="M101.721 99.2695V150.366H107.622V126.175H133.182V119.456H107.622V106.069H136.401V99.2695H101.721Z" fill="#FF6B4A"/>
<path d="M176.561 130.958C176.561 131.506 176.431 144.386 165.16 144.386C154.669 144.386 153.781 134.104 153.758 130.958V99.2695H147.857V130.958C147.857 140.204 152.389 151 165.16 151C177.93 151 182.462 140.203 182.462 130.958V99.2695H176.561V130.958Z" fill="#FF6B4A"/>
<path d="M233.111 115.422C233.111 107.384 228.26 99.2705 217.424 99.2705H198.431V150.366H204.331V131.572H215.679L225.64 150.366H232.754L222.367 130.876C225.164 130.118 233.111 126.947 233.111 115.422ZM204.331 124.774V106.007H217.425C221.082 106.007 227.215 107.231 227.215 115.422C227.215 123.151 221.891 124.774 217.425 124.774H204.331Z" fill="#FF6B4A"/>
<path d="M77.4135 99.2695V139.877H76.1253L55.3027 99.2695H47.668V150.366H53.568V111.043H54.8556L74.7352 150.366H83.3127V99.2695H77.4135Z" fill="#FF6B4A"/>
<path d="M0 99.2695V105.577H13.1023V144.06H0V150.366H32.1041V144.06H19.0023V105.577H32.1041V99.2695H0Z" fill="#FF6B4A"/>
<path d="M266.893 99.2266H259.824L243.716 150.366H249.918L254.772 134.881H271.936L276.797 150.366H283L266.893 99.2266ZM256.846 128.265L262.645 109.766H264.053L269.861 128.265H256.846Z" fill="#FF6B4A"/>
</svg>
