<svg width="37" height="40" viewBox="0 0 37 40" fill="none" xmlns="http://www.w3.org/2000/svg">
<g clip-path="url(#clip0)">
<path d="M11.4396 36.25C25.1584 36.25 32.6641 23.7446 32.6641 12.9032C32.6641 12.5516 32.657 12.1922 32.6428 11.8407C34.1028 10.6792 35.3629 9.24048 36.3636 7.59222C35.0038 8.25773 33.5601 8.69236 32.0817 8.88129C33.6383 7.85491 34.8038 6.24251 35.3622 4.34301C33.8978 5.29766 32.2963 5.97108 30.6264 6.33441C29.5013 5.01933 28.0136 4.14859 26.3935 3.85681C24.7733 3.56504 23.1109 3.86848 21.6632 4.72022C20.2156 5.57197 19.0633 6.92457 18.3846 8.56891C17.7059 10.2133 17.5385 12.0578 17.9084 13.8172C14.9432 13.6535 12.0423 12.8062 9.39391 11.3302C6.7455 9.85422 4.40863 7.78246 2.5348 5.24926C1.58242 7.05547 1.29099 9.1928 1.71974 11.2269C2.14849 13.261 3.26525 15.0391 4.84304 16.2C3.65853 16.1587 2.49996 15.8079 1.46307 15.1766V15.2782C1.46201 17.1736 2.05772 19.011 3.14895 20.478C4.24018 21.945 5.75958 22.951 7.44886 23.325C6.3516 23.6553 5.19997 23.7034 4.0831 23.4657C4.55978 25.0958 5.48723 26.5215 6.73602 27.5439C7.9848 28.5664 9.49261 29.1344 11.049 29.1688C8.4067 31.4519 5.14269 32.6903 1.78267 32.6844C1.1868 32.6834 0.591514 32.6432 0 32.5641C3.41342 34.973 7.38414 36.2524 11.4396 36.25Z" fill="white"/>
</g>
<defs>
<clipPath id="clip0">
<rect width="36.3636" height="40" fill="white"/>
</clipPath>
</defs>
</svg>
