<svg width="110" height="103" viewBox="0 0 110 103" fill="none" xmlns="http://www.w3.org/2000/svg">
<g clip-path="url(#clip0)">
<path d="M17.1961 51.4948C17.1961 41.5367 22.7815 29.7703 29.2262 30.9772C26.7209 28.9293 21.1014 20.5203 18.6872 18.3765C9.7899 26.9297 4.30676 38.6118 4.30676 51.4948C4.30676 77.7128 27.0052 98.9667 55.0049 98.9667C57.1882 98.9667 59.3392 98.8374 61.4496 98.5865C36.4928 95.622 17.1961 75.6687 17.1961 51.4948Z" fill="#CEE1F2"/>
<path d="M93.892 15.0829C59.3395 -17.2058 0.056535 5.78869 0.0105629 51.4957C-0.599104 79.1734 25.4439 103.564 55.0054 102.99C103.821 102.944 128.375 47.433 93.892 15.0829V15.0829ZM8.60326 51.4953C8.60326 40.962 12.6282 31.293 19.3122 23.7633L26.1882 30.2017C27.866 31.7729 30.5865 31.7729 32.2643 30.2017C33.9423 28.6305 33.9423 26.0833 32.2643 24.5123L25.3882 18.0739C69.7863 -14.4034 125.368 37.6963 90.6978 79.2274L73.2954 62.9324C69.104 59.3083 63.3504 64.7016 67.2194 68.6218L84.6217 84.9167C55.0063 108.323 8.43119 88.1088 8.60326 51.4953Z" fill="#FC87FE"/>
<path d="M55.0049 80.4608C52.0389 80.4608 49.6344 78.2093 49.6344 75.432C49.9173 68.7614 60.0937 68.7632 60.3755 75.432C60.3755 78.2095 57.971 80.4608 55.0049 80.4608ZM59.3014 60.5467C59.3014 56.901 61.2904 53.4651 64.6226 51.3557C69.6277 48.1867 72.4501 42.9183 72.1725 37.2627C71.9762 33.268 70.1916 29.4982 67.1476 26.6479C64.1035 23.7976 60.0775 22.1266 55.8114 21.9428C51.0666 21.7396 46.5643 23.3138 43.1368 26.379C39.7078 29.4455 37.8193 33.5788 37.8193 38.0176C38.0453 43.3538 46.1867 43.353 46.4122 38.0176C46.4122 35.7983 47.3566 33.7315 49.0715 32.1977C50.785 30.6653 53.0367 29.8768 55.4165 29.9806C63.6241 30.404 66.6273 40.3595 59.8094 44.6903C54.1108 48.2981 50.7087 54.2259 50.7087 60.5467C50.7087 62.7686 52.6322 64.5697 55.0052 64.5697C57.3781 64.5697 59.3014 62.7686 59.3014 60.5467Z" fill="#7288FB"/>
</g>
<defs>
<clipPath id="clip0">
<rect width="110" height="103" fill="white"/>
</clipPath>
</defs>
</svg>
