<?xml version="1.0" encoding="UTF-8"?>
<!DOCTYPE svg PUBLIC "-//W3C//DTD SVG 1.1//EN" "http://www.w3.org/Graphics/SVG/1.1/DTD/svg11.dtd">
<svg version="1.1" xmlns="http://www.w3.org/2000/svg" xmlns:xlink="http://www.w3.org/1999/xlink" x="0" y="0" width="950" height="1397" viewBox="0, 0, 950, 1397">
  <g id="Background">
    <rect x="0" y="0" width="950" height="1397" fill="#FFFFFF" fill-opacity="0"/>
  </g>
  <defs>
    <linearGradient id="Gradient_1" gradientUnits="userSpaceOnUse" x1="199.893" y1="1099.224" x2="721.002" y2="1099.224" gradientTransform="matrix(1, -0.006, 0.006, 1, 0, 0)">
      <stop offset="0" stop-color="#FEAAE2"/>
      <stop offset="1" stop-color="#FF00CD"/>
    </linearGradient>
    <linearGradient id="Gradient_2" gradientUnits="userSpaceOnUse" x1="512.393" y1="1192.781" x2="512.393" y2="1310.109" gradientTransform="matrix(1, 0.025, -0.025, 1, 0, 0)">
      <stop offset="0.259" stop-color="#000000"/>
      <stop offset="1" stop-color="#FFFFFF"/>
    </linearGradient>
    <linearGradient id="Gradient_3" gradientUnits="userSpaceOnUse" x1="180.015" y1="1298.427" x2="741.785" y2="1298.427">
      <stop offset="0" stop-color="#FEAAE2"/>
      <stop offset="1" stop-color="#FF00CD"/>
    </linearGradient>
    <linearGradient id="Gradient_4" gradientUnits="userSpaceOnUse" x1="183.941" y1="922.239" x2="746.971" y2="922.239">
      <stop offset="0.37" stop-color="#FEAAE2"/>
      <stop offset="0.937" stop-color="#FF00CD"/>
    </linearGradient>
    <linearGradient id="Gradient_5" gradientUnits="userSpaceOnUse" x1="386.988" y1="1085.838" x2="516.953" y2="1085.838" gradientTransform="matrix(1, -0.011, 0.011, 1, 0, 0)">
      <stop offset="0" stop-color="#FFFFFF"/>
      <stop offset="0.667" stop-color="#808080"/>
      <stop offset="1" stop-color="#808080"/>
    </linearGradient>
    <linearGradient id="Gradient_6" gradientUnits="userSpaceOnUse" x1="390.406" y1="105.682" x2="530.576" y2="105.682">
      <stop offset="0.18" stop-color="#FEAAE2"/>
      <stop offset="0.682" stop-color="#FF00CD"/>
    </linearGradient>
    <linearGradient id="Gradient_7" gradientUnits="userSpaceOnUse" x1="234.384" y1="216.819" x2="705.132" y2="216.819">
      <stop offset="0.18" stop-color="#FEAAE2"/>
      <stop offset="0.682" stop-color="#FF00CD"/>
    </linearGradient>
  </defs>
  <g id=".Layer_15_e">
    <g>
      <path d="M726.234,892.764 L728.598,1297.215 L237.504,1300.086 C237.098,1298.876 236.577,1297.724 235.933,1296.62 C235.338,1295.632 234.776,1294.899 234.165,1294.198 C233.86,1293.849 233.57,1293.542 233.275,1293.246 C231.652,1291.622 228.123,1288.806 221.633,1283.869 C219.168,1282.003 216.698,1280.142 214.185,1278.338 C213.419,1277.647 212.692,1276.914 212.003,1276.151 C210.599,1274.82 209.148,1273.399 207.337,1272.601 L205.134,895.811 L726.234,892.764 z" fill="url(#Gradient_1)"/>
      <path d="M726.234,892.764 L728.598,1297.215 L237.504,1300.086 C237.098,1298.876 236.577,1297.724 235.933,1296.62 C235.338,1295.632 234.776,1294.899 234.165,1294.198 C233.86,1293.849 233.57,1293.542 233.275,1293.246 C231.652,1291.622 228.123,1288.806 221.633,1283.869 C219.168,1282.003 216.698,1280.142 214.185,1278.338 C213.419,1277.647 212.692,1276.914 212.003,1276.151 C210.599,1274.82 209.148,1273.399 207.337,1272.601 L205.134,895.811 L726.234,892.764 z" fill-opacity="0" stroke="#FF00CD" stroke-width="1"/>
    </g>
  </g>
  <g id=".Layer_23">
    <g>
      <path d="M478.023,1306.54 C428.885,1305.101 385.305,1310.68 386.535,1268.647 C387.766,1226.614 429.84,1172.592 478.977,1174.031 C528.115,1175.469 576.667,1227.58 575.436,1269.612 C574.206,1311.645 527.161,1307.978 478.023,1306.54 z" fill="#000000"/>
      <path d="M478.023,1306.54 C428.885,1305.101 385.305,1310.68 386.535,1268.647 C387.766,1226.614 429.84,1172.592 478.977,1174.031 C528.115,1175.469 576.667,1227.58 575.436,1269.612 C574.206,1311.645 527.161,1307.978 478.023,1306.54 z" fill-opacity="0" stroke="#000000" stroke-width="1"/>
    </g>
  </g>
  <g id=".Layer_23_Copy">
    <g>
      <path d="M477.978,1321.967 C428.63,1320.746 384.915,1325.716 385.833,1288.601 C386.751,1251.487 428.588,1203.746 477.935,1204.966 C527.282,1206.187 576.424,1252.15 575.506,1289.264 C574.589,1326.378 527.325,1323.187 477.978,1321.967 z" fill="url(#Gradient_2)"/>
      <path d="M477.978,1321.967 C428.63,1320.746 384.915,1325.716 385.833,1288.601 C386.751,1251.487 428.588,1203.746 477.935,1204.966 C527.282,1206.187 576.424,1252.15 575.506,1289.264 C574.589,1326.378 527.325,1323.187 477.978,1321.967 z" fill-opacity="0" stroke="#000000" stroke-width="1"/>
    </g>
  </g>
  <g id="Layer_19">
    <g>
      <path d="M468.283,151.901 L478.042,152.169 C503.932,153.337 529.588,157.758 554.437,165.101 C734.028,218.168 859.343,406.857 859.728,590.397 C855.402,753.889 744.734,889.221 597.027,950.377 L595.492,950.094 C592.982,950.107 591.304,950.069 588.935,951.131 C581.694,954.354 573.855,955.433 566.035,956.095 C562.851,954.636 560.082,954.814 556.659,955.496 C555.883,955.65 555.169,956.027 554.424,956.292 L554.369,956.326 C549.246,956.327 544.133,955.939 539.026,955.565 C535.015,955.247 531.445,954.914 524.678,954.248 C506.922,952.501 499.995,951.971 490.948,951.971 C484.755,952.088 479.106,956.298 477.846,962.479 C476.011,962.705 474.175,962.923 472.339,963.139 L472.189,963.156 C469.785,963.039 471.621,963.129 466.681,962.868 C452.504,962.091 438.334,961.133 424.202,959.751 C424.999,953.779 422.192,948.597 417.087,945.557 C413.89,943.815 411.307,943.545 407.613,943.658 C405.597,943.72 403.152,943.963 400.215,944.383 C397.383,944.787 394.682,945.208 390.779,945.842 C390.118,945.949 387.795,946.327 387.867,946.316 C386.72,946.502 385.859,946.642 385.022,946.775 C382.916,947.112 381.164,947.382 379.5,947.624 C373.381,948.561 367.215,949.126 361.025,949.172 C357.168,948.09 353.339,946.855 349.651,945.284 C347.815,943.196 344.931,941.895 342.2,941.537 C340.753,940.744 339.498,939.662 338.294,938.546 C335.933,936.412 333.26,934.97 330.042,934.654 C325.344,934.654 322.771,935.249 319.202,938.546 C316.968,940.904 315.31,944.024 315.31,947.344 L314.873,947.541 C314.073,947.941 313.362,948.358 312.453,949.077 C311.902,949.529 312.196,949.276 311.577,949.846 C160.922,883.673 71.234,725.922 69.511,564.385 C73.026,352.26 251.077,152.676 468.283,151.901 L468.283,151.901 z" fill="#D7F7FC"/>
      <path d="M468.283,151.901 L478.042,152.169 C503.932,153.337 529.588,157.758 554.437,165.101 C734.028,218.168 859.343,406.857 859.728,590.397 C855.402,753.889 744.734,889.221 597.027,950.377 L595.492,950.094 C592.982,950.107 591.304,950.069 588.935,951.131 C581.694,954.354 573.855,955.433 566.035,956.095 C562.851,954.636 560.082,954.814 556.659,955.496 C555.883,955.65 555.169,956.027 554.424,956.292 L554.369,956.326 C549.246,956.327 544.133,955.939 539.026,955.565 C535.015,955.247 531.445,954.914 524.678,954.248 C506.922,952.501 499.995,951.971 490.948,951.971 C484.755,952.088 479.106,956.298 477.846,962.479 C476.011,962.705 474.175,962.923 472.339,963.139 L472.189,963.156 C469.785,963.039 471.621,963.129 466.681,962.868 C452.504,962.091 438.334,961.133 424.202,959.751 C424.999,953.779 422.192,948.597 417.087,945.557 C413.89,943.815 411.307,943.545 407.613,943.658 C405.597,943.72 403.152,943.963 400.215,944.383 C397.383,944.787 394.682,945.208 390.779,945.842 C390.118,945.949 387.795,946.327 387.867,946.316 C386.72,946.502 385.859,946.642 385.022,946.775 C382.916,947.112 381.164,947.382 379.5,947.624 C373.381,948.561 367.215,949.126 361.025,949.172 C357.168,948.09 353.339,946.855 349.651,945.284 C347.815,943.196 344.931,941.895 342.2,941.537 C340.753,940.744 339.498,939.662 338.294,938.546 C335.933,936.412 333.26,934.97 330.042,934.654 C325.344,934.654 322.771,935.249 319.202,938.546 C316.968,940.904 315.31,944.024 315.31,947.344 L314.873,947.541 C314.073,947.941 313.362,948.358 312.453,949.077 C311.902,949.529 312.196,949.276 311.577,949.846 C160.922,883.673 71.234,725.922 69.511,564.385 C73.026,352.26 251.077,152.676 468.283,151.901 L468.283,151.901 z" fill-opacity="0" stroke="#D7F7FC" stroke-width="1"/>
    </g>
  </g>
  <g id="''._Lay_er_5_-">
    <g>
      <path d="M472.801,468.947 C446.012,469.065 424.268,435.852 424.144,407.63 C424.019,379.407 445.635,356.433 472.424,356.314 C499.212,356.196 528.765,376.373 528.889,404.595 C529.013,432.818 499.59,468.829 472.801,468.947 z" fill="#E58FF9"/>
      <path d="M472.801,468.947 C446.012,469.065 424.268,435.852 424.144,407.63 C424.019,379.407 445.635,356.433 472.424,356.314 C499.212,356.196 528.765,376.373 528.889,404.595 C529.013,432.818 499.59,468.829 472.801,468.947 z" fill-opacity="0" stroke="#2DD6FF" stroke-width="1"/>
    </g>
    <g>
      <path d="M173.419,579.514 C139.44,579.664 111.788,555.713 111.657,526.017 C111.526,496.322 138.966,472.128 172.945,471.978 C206.925,471.829 234.577,495.78 234.708,525.475 C234.839,555.17 207.399,579.364 173.419,579.514 z" fill="#2DD6FF"/>
      <path d="M173.419,579.514 C139.44,579.664 111.788,555.713 111.657,526.017 C111.526,496.322 138.966,472.128 172.945,471.978 C206.925,471.829 234.577,495.78 234.708,525.475 C234.839,555.17 207.399,579.364 173.419,579.514 z" fill-opacity="0" stroke="#2DD6FF" stroke-width="1"/>
    </g>
    <g>
      <path d="M356.607,512.378 C326.123,510.767 302.469,487.368 303.773,460.114 C305.077,432.86 330.846,412.072 361.33,413.683 C391.814,415.294 415.469,438.693 414.164,465.947 C412.86,493.201 387.091,513.989 356.607,512.378 z" fill="#2DD6FF"/>
      <path d="M356.607,512.378 C326.123,510.767 302.469,487.368 303.773,460.114 C305.077,432.86 330.846,412.072 361.33,413.683 C391.814,415.294 415.469,438.693 414.164,465.947 C412.86,493.201 387.091,513.989 356.607,512.378 z" fill-opacity="0" stroke="#2DD6FF" stroke-width="1"/>
    </g>
    <g>
      <path d="M549.981,486.974 C518.845,486.182 494.148,461.769 494.817,432.446 C495.486,403.123 521.269,379.994 552.404,380.785 C583.539,381.577 608.237,405.99 607.568,435.313 C606.898,464.636 581.116,487.765 549.981,486.974 z" fill="#FAE856"/>
      <path d="M549.981,486.974 C518.845,486.182 494.148,461.769 494.817,432.446 C495.486,403.123 521.269,379.994 552.404,380.785 C583.539,381.577 608.237,405.99 607.568,435.313 C606.898,464.636 581.116,487.765 549.981,486.974 z" fill-opacity="0" stroke="#2DD6FF" stroke-width="1"/>
    </g>
    <g>
      <path d="M697.661,593.458 C663.021,593.611 634.831,568.823 634.695,538.092 C634.56,507.361 662.531,482.324 697.17,482.172 C731.809,482.019 760,506.808 760.135,537.539 C760.271,568.27 732.3,593.306 697.661,593.458 z" fill="#FAE856"/>
      <path d="M697.661,593.458 C663.021,593.611 634.831,568.823 634.695,538.092 C634.56,507.361 662.531,482.324 697.17,482.172 C731.809,482.019 760,506.808 760.135,537.539 C760.271,568.27 732.3,593.306 697.661,593.458 z" fill-opacity="0" stroke="#2DD6FF" stroke-width="1"/>
    </g>
    <g>
      <path d="M452.914,670.704 C423.553,670.834 399.633,643.927 399.486,610.606 C399.339,577.285 423.021,550.169 452.382,550.039 C481.743,549.91 505.664,576.817 505.811,610.137 C505.958,643.458 482.275,670.575 452.914,670.704 z" fill="#80FF80"/>
      <path d="M452.914,670.704 C423.553,670.834 399.633,643.927 399.486,610.606 C399.339,577.285 423.021,550.169 452.382,550.039 C481.743,549.91 505.664,576.817 505.811,610.137 C505.958,643.458 482.275,670.575 452.914,670.704 z" fill-opacity="0" stroke="#2DD6FF" stroke-width="1"/>
    </g>
    <g>
      <path d="M604.088,575.74 C573.738,575.873 549.031,552.749 548.905,524.09 C548.778,495.431 573.28,472.089 603.631,471.955 C633.981,471.822 658.688,494.946 658.814,523.605 C658.94,552.264 634.439,575.606 604.088,575.74 z" fill="#2DD6FF"/>
      <path d="M604.088,575.74 C573.738,575.873 549.031,552.749 548.905,524.09 C548.778,495.431 573.28,472.089 603.631,471.955 C633.981,471.822 658.688,494.946 658.814,523.605 C658.94,552.264 634.439,575.606 604.088,575.74 z" fill-opacity="0" stroke="#2DD6FF" stroke-width="1"/>
    </g>
    <g>
      <path d="M424.145,499.606 C396.604,499.728 374.187,479.441 374.076,454.294 C373.965,429.147 396.202,408.663 423.744,408.542 C451.285,408.42 473.701,428.707 473.812,453.854 C473.923,479.001 451.686,499.485 424.145,499.606 z" fill="#FAE856"/>
      <path d="M424.145,499.606 C396.604,499.728 374.187,479.441 374.076,454.294 C373.965,429.147 396.202,408.663 423.744,408.542 C451.285,408.42 473.701,428.707 473.812,453.854 C473.923,479.001 451.686,499.485 424.145,499.606 z" fill-opacity="0" stroke="#2DD6FF" stroke-width="1"/>
    </g>
    <g>
      <path d="M424.484,576.531 C391.574,576.677 364.786,552.022 364.651,521.463 C364.516,490.905 391.086,466.015 423.996,465.87 C456.906,465.725 483.695,490.38 483.829,520.938 C483.964,551.496 457.394,576.386 424.484,576.531 z" fill="#FF00CD"/>
      <path d="M424.484,576.531 C391.574,576.677 364.786,552.022 364.651,521.463 C364.516,490.905 391.086,466.015 423.996,465.87 C456.906,465.725 483.695,490.38 483.829,520.938 C483.964,551.496 457.394,576.386 424.484,576.531 z" fill-opacity="0" stroke="#2DD6FF" stroke-width="1"/>
    </g>
    <g>
      <path d="M316.325,611.436 C285.645,611.571 260.665,587.048 260.531,556.662 C260.397,526.277 285.16,501.535 315.84,501.399 C346.521,501.264 371.501,525.787 371.635,556.172 C371.769,586.558 347.006,611.3 316.325,611.436 z" fill="#80FF80"/>
      <path d="M316.325,611.436 C285.645,611.571 260.665,587.048 260.531,556.662 C260.397,526.277 285.16,501.535 315.84,501.399 C346.521,501.264 371.501,525.787 371.635,556.172 C371.769,586.558 347.006,611.3 316.325,611.436 z" fill-opacity="0" stroke="#2DD6FF" stroke-width="1"/>
    </g>
    <g>
      <path d="M615.712,637.931 C583.712,638.072 557.661,613.274 557.525,582.543 C557.39,551.812 583.221,526.785 615.221,526.644 C647.221,526.503 673.272,551.301 673.408,582.032 C673.543,612.763 647.712,637.79 615.712,637.931 z" fill="#FAE856"/>
      <path d="M615.712,637.931 C583.712,638.072 557.661,613.274 557.525,582.543 C557.39,551.812 583.221,526.785 615.221,526.644 C647.221,526.503 673.272,551.301 673.408,582.032 C673.543,612.763 647.712,637.79 615.712,637.931 z" fill-opacity="0" stroke="#2DD6FF" stroke-width="1"/>
    </g>
    <g>
      <path d="M737.162,680.815 C707.471,680.946 683.298,657.399 683.169,628.222 C683.04,599.045 707.005,575.286 736.696,575.155 C766.387,575.024 790.56,598.571 790.689,627.748 C790.818,656.925 766.853,680.684 737.162,680.815 z" fill="#80FF80"/>
      <path d="M737.162,680.815 C707.471,680.946 683.298,657.399 683.169,628.222 C683.04,599.045 707.005,575.286 736.696,575.155 C766.387,575.024 790.56,598.571 790.689,627.748 C790.818,656.925 766.853,680.684 737.162,680.815 z" fill-opacity="0" stroke="#2DD6FF" stroke-width="1"/>
    </g>
    <g>
      <path d="M691.167,681.018 C661.147,681.15 636.706,657.745 636.578,628.74 C636.451,599.735 660.684,576.115 690.704,575.983 C720.725,575.851 745.165,599.256 745.293,628.261 C745.421,657.265 721.188,680.885 691.167,681.018 z" fill="#FEAAE2"/>
      <path d="M691.167,681.018 C661.147,681.15 636.706,657.745 636.578,628.74 C636.451,599.735 660.684,576.115 690.704,575.983 C720.725,575.851 745.165,599.256 745.293,628.261 C745.421,657.265 721.188,680.885 691.167,681.018 z" fill-opacity="0" stroke="#2DD6FF" stroke-width="1"/>
    </g>
    <g>
      <path d="M183.48,693.572 C144.222,693.745 112.272,665.614 112.119,630.74 C111.965,595.865 143.665,567.453 182.923,567.28 C222.181,567.107 254.13,595.238 254.284,630.113 C254.438,664.987 222.738,693.399 183.48,693.572 z" fill="#FEAAE2"/>
      <path d="M183.48,693.572 C144.222,693.745 112.272,665.614 112.119,630.74 C111.965,595.865 143.665,567.453 182.923,567.28 C222.181,567.107 254.13,595.238 254.284,630.113 C254.438,664.987 222.738,693.399 183.48,693.572 z" fill-opacity="0" stroke="#2DD6FF" stroke-width="1"/>
    </g>
    <g>
      <path d="M263.878,742.029 C233.877,740.875 210.449,714.205 211.551,682.46 C212.653,650.714 237.868,625.914 267.869,627.068 C297.87,628.221 321.298,654.891 320.196,686.637 C319.094,718.383 293.879,743.182 263.878,742.029 z" fill="#FEAAE2"/>
      <path d="M263.878,742.029 C233.877,740.875 210.449,714.205 211.551,682.46 C212.653,650.714 237.868,625.914 267.869,627.068 C297.87,628.221 321.298,654.891 320.196,686.637 C319.094,718.383 293.879,743.182 263.878,742.029 z" fill-opacity="0" stroke="#2DD6FF" stroke-width="1"/>
    </g>
    <g>
      <path d="M516.508,614.341 C486.261,611.019 464.371,581.986 467.616,549.493 C470.861,517.001 498.012,493.353 528.259,496.675 C558.506,499.997 580.396,529.03 577.151,561.522 C573.906,594.015 546.755,617.662 516.508,614.341 z" fill="#FEAAE2"/>
      <path d="M516.508,614.341 C486.261,611.019 464.371,581.986 467.616,549.493 C470.861,517.001 498.012,493.353 528.259,496.675 C558.506,499.997 580.396,529.03 577.151,561.522 C573.906,594.015 546.755,617.662 516.508,614.341 z" fill-opacity="0" stroke="#2DD6FF" stroke-width="1"/>
    </g>
    <g>
      <path d="M628.722,743.535 C598.371,743.669 573.665,720.545 573.538,691.885 C573.412,663.226 597.914,639.885 628.264,639.751 C658.615,639.617 683.321,662.742 683.448,691.401 C683.574,720.06 659.072,743.401 628.722,743.535 z" fill="#ADE13D"/>
      <path d="M628.722,743.535 C598.371,743.669 573.665,720.545 573.538,691.885 C573.412,663.226 597.914,639.885 628.264,639.751 C658.615,639.617 683.321,662.742 683.448,691.401 C683.574,720.06 659.072,743.401 628.722,743.535 z" fill-opacity="0" stroke="#2DD6FF" stroke-width="1"/>
    </g>
    <g>
      <path d="M214.883,770.961 C180.903,771.11 153.251,747.159 153.121,717.464 C152.99,687.769 180.429,663.575 214.409,663.425 C248.388,663.275 276.04,687.227 276.171,716.922 C276.302,746.617 248.862,770.811 214.883,770.961 z" fill="#2DD6FF"/>
      <path d="M214.883,770.961 C180.903,771.11 153.251,747.159 153.121,717.464 C152.99,687.769 180.429,663.575 214.409,663.425 C248.388,663.275 276.04,687.227 276.171,716.922 C276.302,746.617 248.862,770.811 214.883,770.961 z" fill-opacity="0" stroke="#2DD6FF" stroke-width="1"/>
    </g>
    <g>
      <path d="M397.792,662.617 C368.101,662.748 343.937,641.3 343.82,614.713 C343.702,588.125 367.677,566.466 397.367,566.335 C427.058,566.204 451.222,587.651 451.34,614.239 C451.457,640.826 427.483,662.486 397.792,662.617 z" fill="#2DD6FF"/>
      <path d="M397.792,662.617 C368.101,662.748 343.937,641.3 343.82,614.713 C343.702,588.125 367.677,566.466 397.367,566.335 C427.058,566.204 451.222,587.651 451.34,614.239 C451.457,640.826 427.483,662.486 397.792,662.617 z" fill-opacity="0" stroke="#2DD6FF" stroke-width="1"/>
    </g>
    <g>
      <path d="M386.012,700.064 C355.332,700.2 330.351,675.677 330.217,645.291 C330.084,614.905 354.846,590.163 385.527,590.028 C416.207,589.893 441.187,614.415 441.321,644.801 C441.455,675.187 416.693,699.929 386.012,700.064 z" fill="#FAE856"/>
      <path d="M386.012,700.064 C355.332,700.2 330.351,675.677 330.217,645.291 C330.084,614.905 354.846,590.163 385.527,590.028 C416.207,589.893 441.187,614.415 441.321,644.801 C441.455,675.187 416.693,699.929 386.012,700.064 z" fill-opacity="0" stroke="#2DD6FF" stroke-width="1"/>
    </g>
    <g>
      <path d="M717.867,775.62 C685.867,775.761 659.816,750.964 659.681,720.232 C659.545,689.502 685.377,664.475 717.377,664.334 C749.377,664.193 775.428,688.991 775.563,719.722 C775.699,750.453 749.868,775.479 717.867,775.62 z" fill="#FAE856"/>
      <path d="M717.867,775.62 C685.867,775.761 659.816,750.964 659.681,720.232 C659.545,689.502 685.377,664.475 717.377,664.334 C749.377,664.193 775.428,688.991 775.563,719.722 C775.699,750.453 749.868,775.479 717.867,775.62 z" fill-opacity="0" stroke="#2DD6FF" stroke-width="1"/>
    </g>
    <g>
      <path d="M479.048,666.948 C449.357,667.078 425.184,643.532 425.055,614.355 C424.926,585.177 448.891,561.419 478.582,561.288 C508.273,561.157 532.446,584.703 532.575,613.881 C532.704,643.058 508.739,666.817 479.048,666.948 z" fill="#80FF80"/>
      <path d="M479.048,666.948 C449.357,667.078 425.184,643.532 425.055,614.355 C424.926,585.177 448.891,561.419 478.582,561.288 C508.273,561.157 532.446,584.703 532.575,613.881 C532.704,643.058 508.739,666.817 479.048,666.948 z" fill-opacity="0" stroke="#2DD6FF" stroke-width="1"/>
    </g>
    <g>
      <path d="M640.305,796.595 C610.284,796.727 585.844,773.322 585.716,744.317 C585.588,715.312 609.821,691.692 639.842,691.56 C669.863,691.428 694.303,714.833 694.431,743.838 C694.559,772.842 670.326,796.462 640.305,796.595 z" fill="#FEAAE2"/>
      <path d="M640.305,796.595 C610.284,796.727 585.844,773.322 585.716,744.317 C585.588,715.312 609.821,691.692 639.842,691.56 C669.863,691.428 694.303,714.833 694.431,743.838 C694.559,772.842 670.326,796.462 640.305,796.595 z" fill-opacity="0" stroke="#2DD6FF" stroke-width="1"/>
    </g>
    <g>
      <path d="M221.472,639.669 C191.451,639.801 166.992,612.119 166.841,577.84 C166.69,543.561 190.904,515.665 220.925,515.532 C250.946,515.4 275.405,543.081 275.556,577.361 C275.707,611.64 251.493,639.536 221.472,639.669 z" fill="#E58FF9"/>
      <path d="M221.472,639.669 C191.451,639.801 166.992,612.119 166.841,577.84 C166.69,543.561 190.904,515.665 220.925,515.532 C250.946,515.4 275.405,543.081 275.556,577.361 C275.707,611.64 251.493,639.536 221.472,639.669 z" fill-opacity="0" stroke="#2DD6FF" stroke-width="1"/>
    </g>
    <g>
      <path d="M280.486,722.594 C246.696,721.295 220.331,690.677 221.597,654.207 C222.863,617.736 251.281,589.225 285.07,590.524 C318.86,591.823 345.225,622.441 343.959,658.911 C342.693,695.381 314.275,723.893 280.486,722.594 z" fill="#FEAAE2"/>
      <path d="M280.486,722.594 C246.696,721.295 220.331,690.677 221.597,654.207 C222.863,617.736 251.281,589.225 285.07,590.524 C318.86,591.823 345.225,622.441 343.959,658.911 C342.693,695.381 314.275,723.893 280.486,722.594 z" fill-opacity="0" stroke="#2DD6FF" stroke-width="1"/>
    </g>
    <g>
      <path d="M555.727,716.627 C525.376,716.761 500.651,689.438 500.502,655.599 C500.353,621.76 524.836,594.22 555.187,594.087 C585.537,593.953 610.262,621.276 610.412,655.115 C610.561,688.953 586.078,716.493 555.727,716.627 z" fill="#2DD6FF"/>
      <path d="M555.727,716.627 C525.376,716.761 500.651,689.438 500.502,655.599 C500.353,621.76 524.836,594.22 555.187,594.087 C585.537,593.953 610.262,621.276 610.412,655.115 C610.561,688.953 586.078,716.493 555.727,716.627 z" fill-opacity="0" stroke="#2DD6FF" stroke-width="1"/>
    </g>
    <g>
      <path d="M764.391,600.506 C737.788,600.623 716.122,578.09 715.999,550.177 C715.876,522.264 737.342,499.541 763.945,499.424 C790.548,499.306 812.214,521.839 812.337,549.753 C812.46,577.666 790.994,600.389 764.391,600.506 z" fill="#E58FF9"/>
      <path d="M764.391,600.506 C737.788,600.623 716.122,578.09 715.999,550.177 C715.876,522.264 737.342,499.541 763.945,499.424 C790.548,499.306 812.214,521.839 812.337,549.753 C812.46,577.666 790.994,600.389 764.391,600.506 z" fill-opacity="0" stroke="#2DD6FF" stroke-width="1"/>
    </g>
    <g>
      <path d="M173.419,579.514 C139.44,579.664 111.788,555.713 111.657,526.017 C111.526,496.322 138.966,472.128 172.945,471.978 C206.925,471.829 234.577,495.78 234.708,525.475 C234.839,555.17 207.399,579.364 173.419,579.514 z" fill="#E58FF9"/>
      <path d="M173.419,579.514 C139.44,579.664 111.788,555.713 111.657,526.017 C111.526,496.322 138.966,472.128 172.945,471.978 C206.925,471.829 234.577,495.78 234.708,525.475 C234.839,555.17 207.399,579.364 173.419,579.514 z" fill-opacity="0" stroke="#2DD6FF" stroke-width="1"/>
    </g>
    <g>
      <path d="M732.306,794.836 C705.754,791.304 686.543,769.319 689.398,745.73 C692.254,722.142 716.093,705.883 742.646,709.415 C769.199,712.947 788.41,734.932 785.554,758.521 C782.699,782.109 758.859,798.368 732.306,794.836 z" fill="#2DD6FF"/>
      <path d="M732.306,794.836 C705.754,791.304 686.543,769.319 689.398,745.73 C692.254,722.142 716.093,705.883 742.646,709.415 C769.199,712.947 788.41,734.932 785.554,758.521 C782.699,782.109 758.859,798.368 732.306,794.836 z" fill-opacity="0" stroke="#2DD6FF" stroke-width="1"/>
    </g>
    <g>
      <path d="M242.418,588.901 C211.191,589.038 185.763,563.328 185.623,531.475 C185.482,499.621 210.683,473.688 241.909,473.55 C273.135,473.412 298.563,499.123 298.704,530.976 C298.844,562.829 273.644,588.763 242.418,588.901 z" fill="#2DD6FF"/>
      <path d="M242.418,588.901 C211.191,589.038 185.763,563.328 185.623,531.475 C185.482,499.621 210.683,473.688 241.909,473.55 C273.135,473.412 298.563,499.123 298.704,530.976 C298.844,562.829 273.644,588.763 242.418,588.901 z" fill-opacity="0" stroke="#2DD6FF" stroke-width="1"/>
    </g>
    <g>
      <path d="M688.558,575.992 C657.352,576.13 631.958,554.321 631.839,527.282 C631.72,500.242 656.921,478.21 688.127,478.072 C719.332,477.935 744.726,499.743 744.846,526.783 C744.965,553.823 719.764,575.855 688.558,575.992 z" fill="#FAE856"/>
      <path d="M688.558,575.992 C657.352,576.13 631.958,554.321 631.839,527.282 C631.72,500.242 656.921,478.21 688.127,478.072 C719.332,477.935 744.726,499.743 744.846,526.783 C744.965,553.823 719.764,575.855 688.558,575.992 z" fill-opacity="0" stroke="#2DD6FF" stroke-width="1"/>
    </g>
    <g>
      <path d="M512.702,543.447 C486.066,543.565 464.369,520.188 464.242,491.234 C464.114,462.281 485.604,438.714 512.24,438.597 C538.876,438.479 560.572,461.855 560.7,490.809 C560.827,519.763 539.338,543.33 512.702,543.447 z" fill="#80FF80"/>
      <path d="M512.702,543.447 C486.066,543.565 464.369,520.188 464.242,491.234 C464.114,462.281 485.604,438.714 512.24,438.597 C538.876,438.479 560.572,461.855 560.7,490.809 C560.827,519.763 539.338,543.33 512.702,543.447 z" fill-opacity="0" stroke="#2DD6FF" stroke-width="1"/>
    </g>
    <g>
      <path d="M615.376,561.675 C585.025,561.809 560.319,538.684 560.192,510.025 C560.066,481.366 584.568,458.025 614.918,457.891 C645.269,457.757 669.975,480.881 670.102,509.541 C670.228,538.2 645.726,561.541 615.376,561.675 z" fill="#2DD6FF"/>
      <path d="M615.376,561.675 C585.025,561.809 560.319,538.684 560.192,510.025 C560.066,481.366 584.568,458.025 614.918,457.891 C645.269,457.757 669.975,480.881 670.102,509.541 C670.228,538.2 645.726,561.541 615.376,561.675 z" fill-opacity="0" stroke="#2DD6FF" stroke-width="1"/>
    </g>
    <g>
      <path d="M436.79,612.588 C405.244,612.727 379.572,590.156 379.449,562.174 C379.325,534.192 404.798,511.396 436.343,511.257 C467.888,511.118 493.56,533.689 493.684,561.671 C493.807,589.652 468.335,612.449 436.79,612.588 z" fill="#FAE856"/>
      <path d="M436.79,612.588 C405.244,612.727 379.572,590.156 379.449,562.174 C379.325,534.192 404.798,511.396 436.343,511.257 C467.888,511.118 493.56,533.689 493.684,561.671 C493.807,589.652 468.335,612.449 436.79,612.588 z" fill-opacity="0" stroke="#2DD6FF" stroke-width="1"/>
    </g>
    <g>
      <path d="M384.639,674.866 C354.764,674.998 330.436,649.994 330.299,619.019 C330.162,588.043 354.27,562.826 384.144,562.694 C414.019,562.563 438.348,587.566 438.484,618.542 C438.621,649.517 414.513,674.735 384.639,674.866 z" fill="#FF00CD"/>
      <path d="M384.639,674.866 C354.764,674.998 330.436,649.994 330.299,619.019 C330.162,588.043 354.27,562.826 384.144,562.694 C414.019,562.563 438.348,587.566 438.484,618.542 C438.621,649.517 414.513,674.735 384.639,674.866 z" fill-opacity="0" stroke="#2DD6FF" stroke-width="1"/>
    </g>
    <g>
      <path d="M331.2,598.004 C300.519,598.139 275.539,573.616 275.405,543.23 C275.271,512.845 300.034,488.103 330.715,487.967 C361.395,487.832 386.375,512.355 386.509,542.741 C386.643,573.126 361.88,597.868 331.2,598.004 z" fill="#80FF80"/>
      <path d="M331.2,598.004 C300.519,598.139 275.539,573.616 275.405,543.23 C275.271,512.845 300.034,488.103 330.715,487.967 C361.395,487.832 386.375,512.355 386.509,542.741 C386.643,573.126 361.88,597.868 331.2,598.004 z" fill-opacity="0" stroke="#2DD6FF" stroke-width="1"/>
    </g>
    <g>
      <path d="M612.957,629.631 C580.957,629.814 554.877,605.05 554.704,574.32 C554.532,543.589 580.334,518.528 612.334,518.345 C644.333,518.162 670.414,542.926 670.586,573.657 C670.758,604.388 644.957,629.448 612.957,629.631 z" fill="#FAE856"/>
      <path d="M612.957,629.631 C580.957,629.814 554.877,605.05 554.704,574.32 C554.532,543.589 580.334,518.528 612.334,518.345 C644.333,518.162 670.414,542.926 670.586,573.657 C670.758,604.388 644.957,629.448 612.957,629.631 z" fill-opacity="0" stroke="#2DD6FF" stroke-width="1"/>
    </g>
    <g>
      <path d="M764.167,676.547 C737.255,676.665 715.345,655.558 715.229,629.402 C715.114,603.246 736.837,581.946 763.749,581.828 C790.661,581.709 812.571,602.817 812.686,628.972 C812.802,655.128 791.079,676.428 764.167,676.547 z" fill="#80FF80"/>
      <path d="M764.167,676.547 C737.255,676.665 715.345,655.558 715.229,629.402 C715.114,603.246 736.837,581.946 763.749,581.828 C790.661,581.709 812.571,602.817 812.686,628.972 C812.802,655.128 791.079,676.428 764.167,676.547 z" fill-opacity="0" stroke="#2DD6FF" stroke-width="1"/>
    </g>
    <g>
      <path d="M701.036,676.825 C671.016,676.957 646.575,653.552 646.447,624.547 C646.32,595.543 670.552,571.923 700.573,571.79 C730.594,571.658 755.034,595.063 755.162,624.068 C755.29,653.072 731.057,676.693 701.036,676.825 z" fill="#FEAAE2"/>
      <path d="M701.036,676.825 C671.016,676.957 646.575,653.552 646.447,624.547 C646.32,595.543 670.552,571.923 700.573,571.79 C730.594,571.658 755.034,595.063 755.162,624.068 C755.29,653.072 731.057,676.693 701.036,676.825 z" fill-opacity="0" stroke="#2DD6FF" stroke-width="1"/>
    </g>
    <g>
      <path d="M187.516,700.346 C148.258,700.519 116.309,672.388 116.155,637.514 C116.001,602.639 147.701,574.228 186.959,574.055 C226.217,573.881 258.167,602.012 258.32,636.887 C258.474,671.761 226.774,700.173 187.516,700.346 z" fill="#FEAAE2"/>
      <path d="M187.516,700.346 C148.258,700.519 116.309,672.388 116.155,637.514 C116.001,602.639 147.701,574.228 186.959,574.055 C226.217,573.881 258.167,602.012 258.32,636.887 C258.474,671.761 226.774,700.173 187.516,700.346 z" fill-opacity="0" stroke="#2DD6FF" stroke-width="1"/>
    </g>
    <g>
      <path d="M294.396,660.281 C265.054,659.153 242.099,634.302 243.124,604.774 C244.149,575.247 268.766,552.225 298.108,553.353 C327.449,554.481 350.405,579.332 349.38,608.86 C348.355,638.387 323.738,661.409 294.396,660.281 z" fill="#E58FF9"/>
      <path d="M294.396,660.281 C265.054,659.153 242.099,634.302 243.124,604.774 C244.149,575.247 268.766,552.225 298.108,553.353 C327.449,554.481 350.405,579.332 349.38,608.86 C348.355,638.387 323.738,661.409 294.396,660.281 z" fill-opacity="0" stroke="#2DD6FF" stroke-width="1"/>
    </g>
    <g>
      <path d="M516.508,614.341 C486.261,611.019 464.371,581.986 467.616,549.493 C470.861,517.001 498.012,493.353 528.259,496.675 C558.506,499.997 580.396,529.03 577.151,561.522 C573.906,594.015 546.755,617.662 516.508,614.341 z" fill="#FEAAE2"/>
      <path d="M516.508,614.341 C486.261,611.019 464.371,581.986 467.616,549.493 C470.861,517.001 498.012,493.353 528.259,496.675 C558.506,499.997 580.396,529.03 577.151,561.522 C573.906,594.015 546.755,617.662 516.508,614.341 z" fill-opacity="0" stroke="#2DD6FF" stroke-width="1"/>
    </g>
    <g>
      <path d="M639.012,697.499 C608.666,698.031 583.643,672.732 583.123,640.991 C582.603,609.25 606.781,583.087 637.128,582.555 C667.474,582.023 692.497,607.322 693.017,639.063 C693.537,670.804 669.359,696.967 639.012,697.499 z" fill="#ADE13D"/>
      <path d="M639.012,697.499 C608.666,698.031 583.643,672.732 583.123,640.991 C582.603,609.25 606.781,583.087 637.128,582.555 C667.474,582.023 692.497,607.322 693.017,639.063 C693.537,670.804 669.359,696.967 639.012,697.499 z" fill-opacity="0" stroke="#2DD6FF" stroke-width="1"/>
    </g>
    <g>
      <path d="M243.985,868.366 C210.005,868.516 182.353,844.565 182.222,814.87 C182.092,785.175 209.531,760.981 243.511,760.831 C277.49,760.681 305.142,784.632 305.273,814.327 C305.404,844.023 277.964,868.217 243.985,868.366 z" fill="#2DD6FF"/>
      <path d="M243.985,868.366 C210.005,868.516 182.353,844.565 182.222,814.87 C182.092,785.175 209.531,760.981 243.511,760.831 C277.49,760.681 305.142,784.632 305.273,814.327 C305.404,844.023 277.964,868.217 243.985,868.366 z" fill-opacity="0" stroke="#2DD6FF" stroke-width="1"/>
    </g>
    <g>
      <path d="M344.487,758.417 C313.753,758.553 288.738,735.895 288.614,707.809 C288.49,679.723 313.305,656.846 344.039,656.71 C374.773,656.575 399.788,679.233 399.912,707.318 C400.036,735.404 375.221,758.282 344.487,758.417 z" fill="#2DD6FF"/>
      <path d="M344.487,758.417 C313.753,758.553 288.738,735.895 288.614,707.809 C288.49,679.723 313.305,656.846 344.039,656.71 C374.773,656.575 399.788,679.233 399.912,707.318 C400.036,735.404 375.221,758.282 344.487,758.417 z" fill-opacity="0" stroke="#2DD6FF" stroke-width="1"/>
    </g>
    <g>
      <path d="M264.872,728.73 C233.532,728.868 208.013,703.51 207.875,672.09 C207.736,640.671 233.03,615.089 264.37,614.951 C295.711,614.812 321.229,640.171 321.368,671.59 C321.506,703.009 296.212,728.592 264.872,728.73 z" fill="#FAE856"/>
      <path d="M264.872,728.73 C233.532,728.868 208.013,703.51 207.875,672.09 C207.736,640.671 233.03,615.089 264.37,614.951 C295.711,614.812 321.229,640.171 321.368,671.59 C321.506,703.009 296.212,728.592 264.872,728.73 z" fill-opacity="0" stroke="#2DD6FF" stroke-width="1"/>
    </g>
    <g>
      <path d="M468.14,700.387 C438.449,700.518 414.275,676.971 414.147,647.794 C414.018,618.617 437.983,594.858 467.674,594.727 C497.365,594.596 521.538,618.143 521.667,647.32 C521.795,676.497 497.83,700.256 468.14,700.387 z" fill="#80FF80"/>
      <path d="M468.14,700.387 C438.449,700.518 414.275,676.971 414.147,647.794 C414.018,618.617 437.983,594.858 467.674,594.727 C497.365,594.596 521.538,618.143 521.667,647.32 C521.795,676.497 497.83,700.256 468.14,700.387 z" fill-opacity="0" stroke="#2DD6FF" stroke-width="1"/>
    </g>
    <g>
      <path d="M646.473,776.558 C616.452,776.691 592.012,753.285 591.884,724.281 C591.756,695.276 615.989,671.656 646.01,671.524 C676.031,671.391 700.471,694.797 700.599,723.801 C700.727,752.806 676.494,776.426 646.473,776.558 z" fill="#FEAAE2"/>
      <path d="M646.473,776.558 C616.452,776.691 592.012,753.285 591.884,724.281 C591.756,695.276 615.989,671.656 646.01,671.524 C676.031,671.391 700.471,694.797 700.599,723.801 C700.727,752.806 676.494,776.426 646.473,776.558 z" fill-opacity="0" stroke="#2DD6FF" stroke-width="1"/>
    </g>
    <g>
      <path d="M218.636,798.889 C188.113,797.716 164.25,771.37 165.337,740.046 C166.425,708.721 192.05,684.279 222.573,685.452 C253.097,686.626 276.959,712.971 275.872,744.296 C274.784,775.62 249.159,800.063 218.636,798.889 z" fill="#FEAAE2"/>
      <path d="M218.636,798.889 C188.113,797.716 164.25,771.37 165.337,740.046 C166.425,708.721 192.05,684.279 222.573,685.452 C253.097,686.626 276.959,712.971 275.872,744.296 C274.784,775.62 249.159,800.063 218.636,798.889 z" fill-opacity="0" stroke="#2DD6FF" stroke-width="1"/>
    </g>
    <g>
      <path d="M557.433,715.842 C527.083,715.976 502.358,688.653 502.209,654.814 C502.06,620.976 526.543,593.436 556.893,593.302 C587.244,593.168 611.969,620.491 612.118,654.33 C612.267,688.169 587.784,715.709 557.433,715.842 z" fill="#2DD6FF"/>
      <path d="M557.433,715.842 C527.083,715.976 502.358,688.653 502.209,654.814 C502.06,620.976 526.543,593.436 556.893,593.302 C587.244,593.168 611.969,620.491 612.118,654.33 C612.267,688.169 587.784,715.709 557.433,715.842 z" fill-opacity="0" stroke="#2DD6FF" stroke-width="1"/>
    </g>
    <g>
      <path d="M341.211,744.314 C312.576,748.586 285.808,726.016 281.422,693.902 C277.037,661.788 296.695,632.291 325.33,628.019 C353.965,623.747 380.733,646.317 385.119,678.431 C389.504,710.545 369.846,740.042 341.211,744.314 z" fill="#2DD6FF"/>
      <path d="M341.211,744.314 C312.576,748.586 285.808,726.016 281.422,693.902 C277.037,661.788 296.695,632.291 325.33,628.019 C353.965,623.747 380.733,646.317 385.119,678.431 C389.504,710.545 369.846,740.042 341.211,744.314 z" fill-opacity="0" stroke="#2DD6FF" stroke-width="1"/>
    </g>
    <g>
      <path d="M409.344,776.247 C373.55,776.405 344.415,749.709 344.269,716.621 C344.123,683.533 373.022,656.582 408.815,656.425 C444.609,656.267 473.744,682.962 473.89,716.05 C474.036,749.138 445.138,776.089 409.344,776.247 z" fill="#FF00CD"/>
      <path d="M409.344,776.247 C373.55,776.405 344.415,749.709 344.269,716.621 C344.123,683.533 373.022,656.582 408.815,656.425 C444.609,656.267 473.744,682.962 473.89,716.05 C474.036,749.138 445.138,776.089 409.344,776.247 z" fill-opacity="0" stroke="#2DD6FF" stroke-width="1"/>
    </g>
    <g>
      <path d="M489.456,797.241 C454.163,796.514 426.1,766.198 426.776,729.529 C427.451,692.859 456.61,663.723 491.903,664.45 C527.195,665.177 555.258,695.493 554.583,732.162 C553.907,768.831 524.749,797.968 489.456,797.241 z" fill="#FAE856"/>
      <path d="M489.456,797.241 C454.163,796.514 426.1,766.198 426.776,729.529 C427.451,692.859 456.61,663.723 491.903,664.45 C527.195,665.177 555.258,695.493 554.583,732.162 C553.907,768.831 524.749,797.968 489.456,797.241 z" fill-opacity="0" stroke="#2DD6FF" stroke-width="1"/>
    </g>
    <g>
      <path d="M568.107,823.738 C537.562,830.592 507.626,810.93 501.242,779.821 C494.858,748.712 514.445,717.936 544.989,711.082 C575.534,704.227 605.471,723.89 611.854,754.999 C618.238,786.108 598.652,816.883 568.107,823.738 z" fill="#80FF80"/>
      <path d="M568.107,823.738 C537.562,830.592 507.626,810.93 501.242,779.821 C494.858,748.712 514.445,717.936 544.989,711.082 C575.534,704.227 605.471,723.89 611.854,754.999 C618.238,786.108 598.652,816.883 568.107,823.738 z" fill-opacity="0" stroke="#2DD6FF" stroke-width="1"/>
    </g>
    <g>
      <path d="M682.968,859.509 C652.618,859.642 627.901,834.293 627.763,802.89 C627.624,771.486 652.116,745.92 682.467,745.787 C712.817,745.653 737.534,771.002 737.672,802.405 C737.811,833.809 713.319,859.375 682.968,859.509 z" fill="#ADE13D"/>
      <path d="M682.968,859.509 C652.618,859.642 627.901,834.293 627.763,802.89 C627.624,771.486 652.116,745.92 682.467,745.787 C712.817,745.653 737.534,771.002 737.672,802.405 C737.811,833.809 713.319,859.375 682.968,859.509 z" fill-opacity="0" stroke="#2DD6FF" stroke-width="1"/>
    </g>
    <g>
      <path d="M473.312,858.213 C442.148,857.633 417.289,832.826 417.787,802.803 C418.286,772.781 443.953,748.913 475.117,749.492 C506.281,750.072 531.14,774.88 530.642,804.903 C530.144,834.925 504.476,858.793 473.312,858.213 z" fill="#2DD6FF"/>
      <path d="M473.312,858.213 C442.148,857.633 417.289,832.826 417.787,802.803 C418.286,772.781 443.953,748.913 475.117,749.492 C506.281,750.072 531.14,774.88 530.642,804.903 C530.144,834.925 504.476,858.793 473.312,858.213 z" fill-opacity="0" stroke="#2DD6FF" stroke-width="1"/>
    </g>
    <g>
      <path d="M629.401,892.112 C600.566,892.885 576.586,869.141 575.839,839.078 C575.092,809.015 597.861,784.017 626.696,783.245 C655.53,782.472 679.51,806.216 680.257,836.28 C681.004,866.343 658.235,891.34 629.401,892.112 z" fill="#2DD6FF"/>
      <path d="M629.401,892.112 C600.566,892.885 576.586,869.141 575.839,839.078 C575.092,809.015 597.861,784.017 626.696,783.245 C655.53,782.472 679.51,806.216 680.257,836.28 C681.004,866.343 658.235,891.34 629.401,892.112 z" fill-opacity="0" stroke="#2DD6FF" stroke-width="1"/>
    </g>
    <g>
      <path d="M557.613,907.266 C526.932,907.402 501.952,882.819 501.818,852.359 C501.684,821.899 526.446,797.097 557.127,796.961 C587.807,796.826 612.787,821.409 612.922,851.869 C613.056,882.329 588.293,907.131 557.613,907.266 z" fill="#FAE856"/>
      <path d="M557.613,907.266 C526.932,907.402 501.952,882.819 501.818,852.359 C501.684,821.899 526.446,797.097 557.127,796.961 C587.807,796.826 612.787,821.409 612.922,851.869 C613.056,882.329 588.293,907.131 557.613,907.266 z" fill-opacity="0" stroke="#2DD6FF" stroke-width="1"/>
    </g>
    <g>
      <path d="M266.745,882.293 C234.745,882.434 208.694,857.575 208.558,826.769 C208.422,795.963 234.253,770.875 266.253,770.734 C298.254,770.593 324.305,795.452 324.441,826.258 C324.576,857.064 298.745,882.151 266.745,882.293 z" fill="#FAE856"/>
      <path d="M266.745,882.293 C234.745,882.434 208.694,857.575 208.558,826.769 C208.422,795.963 234.253,770.875 266.253,770.734 C298.254,770.593 324.305,795.452 324.441,826.258 C324.576,857.064 298.745,882.151 266.745,882.293 z" fill-opacity="0" stroke="#2DD6FF" stroke-width="1"/>
    </g>
    <g>
      <path d="M299.948,826.23 C270.258,826.361 246.084,802.814 245.956,773.637 C245.827,744.46 269.792,720.701 299.483,720.57 C329.173,720.439 353.347,743.986 353.476,773.163 C353.604,802.34 329.639,826.099 299.948,826.23 z" fill="#80FF80"/>
      <path d="M299.948,826.23 C270.258,826.361 246.084,802.814 245.956,773.637 C245.827,744.46 269.792,720.701 299.483,720.57 C329.173,720.439 353.347,743.986 353.476,773.163 C353.604,802.34 329.639,826.099 299.948,826.23 z" fill-opacity="0" stroke="#2DD6FF" stroke-width="1"/>
    </g>
    <g>
      <path d="M373.317,845.381 C343.297,845.513 318.845,819.588 318.704,787.476 C318.562,755.364 342.784,729.225 372.805,729.092 C402.825,728.96 427.277,754.885 427.418,786.997 C427.56,819.109 403.338,845.248 373.317,845.381 z" fill="#FEAAE2"/>
      <path d="M373.317,845.381 C343.297,845.513 318.845,819.588 318.704,787.476 C318.562,755.364 342.784,729.225 372.805,729.092 C402.825,728.96 427.277,754.885 427.418,786.997 C427.56,819.109 403.338,845.248 373.317,845.381 z" fill-opacity="0" stroke="#2DD6FF" stroke-width="1"/>
    </g>
    <g>
      <path d="M400.606,928.947 C368.853,929.087 343,903.729 342.862,872.307 C342.723,840.885 368.352,815.3 400.105,815.16 C431.858,815.02 457.711,840.378 457.849,871.8 C457.988,903.222 432.359,928.807 400.606,928.947 z" fill="#E58FF9"/>
      <path d="M400.606,928.947 C368.853,929.087 343,903.729 342.862,872.307 C342.723,840.885 368.352,815.3 400.105,815.16 C431.858,815.02 457.711,840.378 457.849,871.8 C457.988,903.222 432.359,928.807 400.606,928.947 z" fill-opacity="0" stroke="#2DD6FF" stroke-width="1"/>
    </g>
    <g>
      <path d="M477.493,960.194 C447.492,959.038 424.064,932.302 425.165,900.479 C426.267,868.656 451.481,843.795 481.482,844.952 C511.483,846.109 534.911,872.844 533.81,904.667 C532.708,936.491 507.494,961.351 477.493,960.194 z" fill="#FEAAE2"/>
      <path d="M477.493,960.194 C447.492,959.038 424.064,932.302 425.165,900.479 C426.267,868.656 451.481,843.795 481.482,844.952 C511.483,846.109 534.911,872.844 533.81,904.667 C532.708,936.491 507.494,961.351 477.493,960.194 z" fill-opacity="0" stroke="#2DD6FF" stroke-width="1"/>
    </g>
    <g>
      <path d="M310.52,920.591 C280.17,920.725 255.445,893.402 255.296,859.563 C255.146,825.725 279.629,798.185 309.98,798.051 C340.331,797.917 365.056,825.24 365.205,859.079 C365.354,892.918 340.871,920.458 310.52,920.591 z" fill="#2DD6FF"/>
      <path d="M310.52,920.591 C280.17,920.725 255.445,893.402 255.296,859.563 C255.146,825.725 279.629,798.185 309.98,798.051 C340.331,797.917 365.056,825.24 365.205,859.079 C365.354,892.918 340.871,920.458 310.52,920.591 z" fill-opacity="0" stroke="#2DD6FF" stroke-width="1"/>
    </g>
  </g>
  <g id="'Layer_17">
    <g>
      <path d="M476.942,1364.159 C277.853,1364.159 149.399,1267.929 186.343,1240.653 C234.708,1204.944 287.773,1301.064 483.83,1300.086 C681.996,1299.098 706.876,1208.707 737.673,1255.965 C762.351,1293.836 676.032,1364.159 476.942,1364.159 z" fill="url(#Gradient_3)"/>
      <path d="M476.942,1364.159 C277.853,1364.159 149.399,1267.929 186.343,1240.653 C234.708,1204.944 287.773,1301.064 483.83,1300.086 C681.996,1299.098 706.876,1208.707 737.673,1255.965 C762.351,1293.836 676.032,1364.159 476.942,1364.159 z" fill-opacity="0" stroke="#FF00CD" stroke-width="1"/>
    </g>
    <g id="Shape.">
      <path d="M473.891,979.354 C310.009,979.354 166.719,910.657 185.622,881.818 C220.706,828.296 297.9,920.592 473.891,920.592 C637.772,920.592 701.662,832.686 744.846,892.131 C765.113,920.029 637.772,979.354 473.891,979.354 z" fill="url(#Gradient_4)"/>
      <path d="M473.891,979.354 C310.009,979.354 166.719,910.657 185.622,881.818 C220.706,828.296 297.9,920.592 473.891,920.592 C637.772,920.592 701.662,832.686 744.846,892.131 C765.113,920.029 637.772,979.354 473.891,979.354 z" fill-opacity="0" stroke="#FF00CD" stroke-width="1"/>
    </g>
  </g>
  <g id="Layer_18">
    <g>
      <path d="M464.412,1138.847 C428.526,1139.238 399.151,1113.588 398.801,1081.555 C398.452,1049.523 427.261,1023.238 463.148,1022.847 C499.034,1022.455 528.409,1048.106 528.758,1080.139 C529.108,1112.171 500.299,1138.456 464.412,1138.847 z" fill="url(#Gradient_5)"/>
      <path d="M464.412,1138.847 C428.526,1139.238 399.151,1113.588 398.801,1081.555 C398.452,1049.523 427.261,1023.238 463.148,1022.847 C499.034,1022.455 528.409,1048.106 528.758,1080.139 C529.108,1112.171 500.299,1138.456 464.412,1138.847 z" fill-opacity="0" stroke="#7F7F7F" stroke-width="1"/>
    </g>
  </g>
  <g id="Layer_20">
    <g>
      <path d="M426.243,1031.757 L519.569,1107.015 L502.918,1127.662 L409.593,1052.404 z" fill="#D7F7FC"/>
      <path d="M426.243,1031.757 L519.569,1107.015 L502.918,1127.662 L409.593,1052.404 z" fill-opacity="0" stroke="#D7F7FC" stroke-width="1"/>
    </g>
  </g>
  <g id=".Layer_8">
    <g>
      <path d="M261.291,321.166 C223.806,344.089 200.056,389.791 181.752,433.988 C144.073,524.97 145.784,626.231 160.455,723.652 C161.917,733.36 190.416,799.252 185.229,805.514 C173.935,819.15 162.724,797.385 156.978,787.672 C135.771,751.828 122.892,683.423 119.599,639.692 C117.084,606.295 114.357,571.324 118.729,537.889 C127.302,472.338 168.151,330.013 230.867,314.869 C243.808,311.744 251.508,318.542 263.465,318.542" fill="#FFFFFF"/>
      <path d="M261.291,321.166 C223.806,344.089 200.056,389.791 181.752,433.988 C144.073,524.97 145.784,626.231 160.455,723.652 C161.917,733.36 190.416,799.252 185.229,805.514 C173.935,819.15 162.724,797.385 156.978,787.672 C135.771,751.828 122.892,683.423 119.599,639.692 C117.084,606.295 114.357,571.324 118.729,537.889 C127.302,472.338 168.151,330.013 230.867,314.869 C243.808,311.744 251.508,318.542 263.465,318.542" fill-opacity="0" stroke="#FFFFFF" stroke-width="10" stroke-linecap="round" stroke-linejoin="round"/>
    </g>
  </g>
  <g id="Layer_12a_aga..">
    <g>
      <path d="M623.54,514.079 C614.501,514.079 607.174,507.884 607.174,500.241 C607.174,492.598 614.501,486.403 623.54,486.403 C632.578,486.403 639.906,492.598 639.906,500.241 C639.906,507.884 632.578,514.079 623.54,514.079 z" fill="#FFFFFF" fill-opacity="0.348"/>
      <path d="M623.54,514.079 C614.501,514.079 607.174,507.884 607.174,500.241 C607.174,492.598 614.501,486.403 623.54,486.403 C632.578,486.403 639.906,492.598 639.906,500.241 C639.906,507.884 632.578,514.079 623.54,514.079 z" fill-opacity="0" stroke="#FFFFFF" stroke-width="1" stroke-opacity="0.365"/>
    </g>
    <g>
      <path d="M223.975,540.68 C214.346,540.68 206.54,533.731 206.54,525.16 C206.54,516.588 214.346,509.639 223.975,509.639 C233.604,509.639 241.41,516.588 241.41,525.16 C241.41,533.731 233.604,540.68 223.975,540.68 z" fill="#FFFFFF" fill-opacity="0.348"/>
      <path d="M223.975,540.68 C214.346,540.68 206.54,533.731 206.54,525.16 C206.54,516.588 214.346,509.639 223.975,509.639 C233.604,509.639 241.41,516.588 241.41,525.16 C241.41,533.731 233.604,540.68 223.975,540.68 z" fill-opacity="0" stroke="#FFFFFF" stroke-width="1" stroke-opacity="0.365"/>
    </g>
    <g>
      <path d="M330.526,555.558 C319.863,555.558 311.219,548.313 311.219,539.375 C311.219,530.437 319.863,523.192 330.526,523.192 C341.189,523.192 349.833,530.437 349.833,539.375 C349.833,548.313 341.189,555.558 330.526,555.558 z" fill="#FFFFFF" fill-opacity="0.348"/>
      <path d="M330.526,555.558 C319.863,555.558 311.219,548.313 311.219,539.375 C311.219,530.437 319.863,523.192 330.526,523.192 C341.189,523.192 349.833,530.437 349.833,539.375 C349.833,548.313 341.189,555.558 330.526,555.558 z" fill-opacity="0" stroke="#FFFFFF" stroke-width="1" stroke-opacity="0.365"/>
    </g>
    <g>
      <path d="M421.882,458.852 C411.369,458.852 402.847,452.176 402.847,443.942 C402.847,435.707 411.369,429.032 421.882,429.032 C432.395,429.032 440.917,435.707 440.917,443.942 C440.917,452.176 432.395,458.852 421.882,458.852 z" fill="#FFFFFF" fill-opacity="0.348"/>
      <path d="M421.882,458.852 C411.369,458.852 402.847,452.176 402.847,443.942 C402.847,435.707 411.369,429.032 421.882,429.032 C432.395,429.032 440.917,435.707 440.917,443.942 C440.917,452.176 432.395,458.852 421.882,458.852 z" fill-opacity="0" stroke="#FFFFFF" stroke-width="1" stroke-opacity="0.365"/>
    </g>
    <g>
      <path d="M345.402,475.001 C336.077,475.001 328.517,468.325 328.517,460.09 C328.517,451.856 336.077,445.18 345.402,445.18 C354.728,445.18 362.287,451.856 362.287,460.09 C362.287,468.325 354.728,475.001 345.402,475.001 z" fill="#FFFFFF" fill-opacity="0.348"/>
      <path d="M345.402,475.001 C336.077,475.001 328.517,468.325 328.517,460.09 C328.517,451.856 336.077,445.18 345.402,445.18 C354.728,445.18 362.287,451.856 362.287,460.09 C362.287,468.325 354.728,475.001 345.402,475.001 z" fill-opacity="0" stroke="#FFFFFF" stroke-width="1" stroke-opacity="0.365"/>
    </g>
    <g>
      <path d="M556.701,663.24 C543.355,663.24 532.536,655.295 532.536,645.494 C532.536,635.692 543.355,627.747 556.701,627.747 C570.047,627.747 580.867,635.692 580.867,645.494 C580.867,655.295 570.047,663.24 556.701,663.24 z" fill="#FFFFFF" fill-opacity="0.348"/>
      <path d="M556.701,663.24 C543.355,663.24 532.536,655.295 532.536,645.494 C532.536,635.692 543.355,627.747 556.701,627.747 C570.047,627.747 580.867,635.692 580.867,645.494 C580.867,655.295 570.047,663.24 556.701,663.24 z" fill-opacity="0" stroke="#FFFFFF" stroke-width="1" stroke-opacity="0.365"/>
    </g>
    <g>
      <path d="M732.474,622.455 C724.643,622.455 718.295,616.281 718.295,608.666 C718.295,601.05 724.643,594.877 732.474,594.877 C740.305,594.877 746.653,601.05 746.653,608.666 C746.653,616.281 740.305,622.455 732.474,622.455 z" fill="#FFFFFF" fill-opacity="0.348"/>
      <path d="M732.474,622.455 C724.643,622.455 718.295,616.281 718.295,608.666 C718.295,601.05 724.643,594.877 732.474,594.877 C740.305,594.877 746.653,601.05 746.653,608.666 C746.653,616.281 740.305,622.455 732.474,622.455 z" fill-opacity="0" stroke="#FFFFFF" stroke-width="1" stroke-opacity="0.365"/>
    </g>
    <g>
      <path d="M315.466,698.43 C306.892,698.43 299.942,691.425 299.942,682.784 C299.942,674.143 306.892,667.138 315.466,667.138 C324.04,667.138 330.99,674.143 330.99,682.784 C330.99,691.425 324.04,698.43 315.466,698.43 z" fill="#FFFFFF" fill-opacity="0.348"/>
      <path d="M315.466,698.43 C306.892,698.43 299.942,691.425 299.942,682.784 C299.942,674.143 306.892,667.138 315.466,667.138 C324.04,667.138 330.99,674.143 330.99,682.784 C330.99,691.425 324.04,698.43 315.466,698.43 z" fill-opacity="0" stroke="#FFFFFF" stroke-width="1" stroke-opacity="0.365"/>
    </g>
    <g>
      <path d="M432.267,562.928 C421.626,562.928 413,555.926 413,547.288 C413,538.65 421.626,531.647 432.267,531.647 C442.908,531.647 451.534,538.65 451.534,547.288 C451.534,555.926 442.908,562.928 432.267,562.928 z" fill="#FFFFFF" fill-opacity="0.348"/>
      <path d="M432.267,562.928 C421.626,562.928 413,555.926 413,547.288 C413,538.65 421.626,531.647 432.267,531.647 C442.908,531.647 451.534,538.65 451.534,547.288 C451.534,555.926 442.908,562.928 432.267,562.928 z" fill-opacity="0" stroke="#FFFFFF" stroke-width="1" stroke-opacity="0.365"/>
    </g>
    <g>
      <path d="M202.709,750.281 C193.67,750.281 186.343,744.085 186.343,736.442 C186.343,728.8 193.67,722.604 202.709,722.604 C211.747,722.604 219.075,728.8 219.075,736.442 C219.075,744.085 211.747,750.281 202.709,750.281 z" fill="#FFFFFF" fill-opacity="0.348"/>
      <path d="M202.709,750.281 C193.67,750.281 186.343,744.085 186.343,736.442 C186.343,728.8 193.67,722.604 202.709,722.604 C211.747,722.604 219.075,728.8 219.075,736.442 C219.075,744.085 211.747,750.281 202.709,750.281 z" fill-opacity="0" stroke="#FFFFFF" stroke-width="1" stroke-opacity="0.365"/>
    </g>
    <g>
      <path d="M168.908,633.568 C159.279,633.568 151.473,626.619 151.473,618.048 C151.473,609.476 159.279,602.527 168.908,602.527 C178.537,602.527 186.343,609.476 186.343,618.048 C186.343,626.619 178.537,633.568 168.908,633.568 z" fill="#FFFFFF" fill-opacity="0.348"/>
      <path d="M168.908,633.568 C159.279,633.568 151.473,626.619 151.473,618.048 C151.473,609.476 159.279,602.527 168.908,602.527 C178.537,602.527 186.343,609.476 186.343,618.048 C186.343,626.619 178.537,633.568 168.908,633.568 z" fill-opacity="0" stroke="#FFFFFF" stroke-width="1" stroke-opacity="0.365"/>
    </g>
    <g>
      <path d="M391.036,716.551 C380.373,716.551 371.729,709.305 371.729,700.368 C371.729,691.43 380.373,684.185 391.036,684.185 C401.699,684.185 410.343,691.43 410.343,700.368 C410.343,709.305 401.699,716.551 391.036,716.551 z" fill="#FFFFFF" fill-opacity="0.348"/>
      <path d="M391.036,716.551 C380.373,716.551 371.729,709.305 371.729,700.368 C371.729,691.43 380.373,684.185 391.036,684.185 C401.699,684.185 410.343,691.43 410.343,700.368 C410.343,709.305 401.699,716.551 391.036,716.551 z" fill-opacity="0" stroke="#FFFFFF" stroke-width="1" stroke-opacity="0.365"/>
    </g>
    <g>
      <path d="M532.905,565.711 C522.393,565.711 513.87,559.035 513.87,550.801 C513.87,542.566 522.393,535.891 532.905,535.891 C543.418,535.891 551.94,542.566 551.94,550.801 C551.94,559.035 543.418,565.711 532.905,565.711 z" fill="#FFFFFF" fill-opacity="0.348"/>
      <path d="M532.905,565.711 C522.393,565.711 513.87,559.035 513.87,550.801 C513.87,542.566 522.393,535.891 532.905,535.891 C543.418,535.891 551.94,542.566 551.94,550.801 C551.94,559.035 543.418,565.711 532.905,565.711 z" fill-opacity="0" stroke="#FFFFFF" stroke-width="1" stroke-opacity="0.365"/>
    </g>
    <g>
      <path d="M586.158,444.727 C576.832,444.727 569.273,438.051 569.273,429.816 C569.273,421.582 576.832,414.906 586.158,414.906 C595.483,414.906 603.043,421.582 603.043,429.816 C603.043,438.051 595.483,444.727 586.158,444.727 z" fill="#FFFFFF" fill-opacity="0.348"/>
      <path d="M586.158,444.727 C576.832,444.727 569.273,438.051 569.273,429.816 C569.273,421.582 576.832,414.906 586.158,414.906 C595.483,414.906 603.043,421.582 603.043,429.816 C603.043,438.051 595.483,444.727 586.158,444.727 z" fill-opacity="0" stroke="#FFFFFF" stroke-width="1" stroke-opacity="0.365"/>
    </g>
    <g>
      <path d="M249.058,673.945 C239.637,673.945 232,667.659 232,659.905 C232,652.152 239.637,645.866 249.058,645.866 C258.48,645.866 266.117,652.152 266.117,659.905 C266.117,667.659 258.48,673.945 249.058,673.945 z" fill="#FFFFFF" fill-opacity="0.348"/>
      <path d="M249.058,673.945 C239.637,673.945 232,667.659 232,659.905 C232,652.152 239.637,645.866 249.058,645.866 C258.48,645.866 266.117,652.152 266.117,659.905 C266.117,667.659 258.48,673.945 249.058,673.945 z" fill-opacity="0" stroke="#FFFFFF" stroke-width="1" stroke-opacity="0.365"/>
    </g>
    <g>
      <path d="M657.827,644.015 C649.996,644.015 643.648,637.841 643.648,630.226 C643.648,622.61 649.996,616.436 657.827,616.436 C665.658,616.436 672.006,622.61 672.006,630.226 C672.006,637.841 665.658,644.015 657.827,644.015 z" fill="#FFFFFF" fill-opacity="0.348"/>
      <path d="M657.827,644.015 C649.996,644.015 643.648,637.841 643.648,630.226 C643.648,622.61 649.996,616.436 657.827,616.436 C665.658,616.436 672.006,622.61 672.006,630.226 C672.006,637.841 665.658,644.015 657.827,644.015 z" fill-opacity="0" stroke="#FFFFFF" stroke-width="1" stroke-opacity="0.365"/>
    </g>
    <g>
      <path d="M387.323,637.384 C378.749,637.384 371.799,630.379 371.799,621.737 C371.799,613.096 378.749,606.091 387.323,606.091 C395.897,606.091 402.847,613.096 402.847,621.737 C402.847,630.379 395.897,637.384 387.323,637.384 z" fill="#FFFFFF" fill-opacity="0.348"/>
      <path d="M387.323,637.384 C378.749,637.384 371.799,630.379 371.799,621.737 C371.799,613.096 378.749,606.091 387.323,606.091 C395.897,606.091 402.847,613.096 402.847,621.737 C402.847,630.379 395.897,637.384 387.323,637.384 z" fill-opacity="0" stroke="#FFFFFF" stroke-width="1" stroke-opacity="0.365"/>
    </g>
    <g>
      <path d="M473.147,645.866 C462.506,645.866 453.88,638.863 453.88,630.226 C453.88,621.588 462.506,614.585 473.147,614.585 C483.788,614.585 492.414,621.588 492.414,630.226 C492.414,638.863 483.788,645.866 473.147,645.866 z" fill="#FFFFFF" fill-opacity="0.348"/>
      <path d="M473.147,645.866 C462.506,645.866 453.88,638.863 453.88,630.226 C453.88,621.588 462.506,614.585 473.147,614.585 C483.788,614.585 492.414,621.588 492.414,630.226 C492.414,638.863 483.788,645.866 473.147,645.866 z" fill-opacity="0" stroke="#FFFFFF" stroke-width="1" stroke-opacity="0.365"/>
    </g>
    <g>
      <path d="M468.635,409.201 C459.596,409.201 452.269,403.006 452.269,395.363 C452.269,387.72 459.596,381.525 468.635,381.525 C477.674,381.525 485.001,387.72 485.001,395.363 C485.001,403.006 477.674,409.201 468.635,409.201 z" fill="#FFFFFF" fill-opacity="0.348"/>
      <path d="M468.635,409.201 C459.596,409.201 452.269,403.006 452.269,395.363 C452.269,387.72 459.596,381.525 468.635,381.525 C477.674,381.525 485.001,387.72 485.001,395.363 C485.001,403.006 477.674,409.201 468.635,409.201 z" fill-opacity="0" stroke="#FFFFFF" stroke-width="1" stroke-opacity="0.365"/>
    </g>
    <g>
      <path d="M468.635,809.883 C459.006,809.883 451.2,802.934 451.2,794.363 C451.2,785.791 459.006,778.842 468.635,778.842 C478.264,778.842 486.07,785.791 486.07,794.363 C486.07,802.934 478.264,809.883 468.635,809.883 z" fill="#FFFFFF" fill-opacity="0.348"/>
      <path d="M468.635,809.883 C459.006,809.883 451.2,802.934 451.2,794.363 C451.2,785.791 459.006,778.842 468.635,778.842 C478.264,778.842 486.07,785.791 486.07,794.363 C486.07,802.934 478.264,809.883 468.635,809.883 z" fill-opacity="0" stroke="#FFFFFF" stroke-width="1" stroke-opacity="0.365"/>
    </g>
    <g>
      <path d="M561.352,852.43 C550.689,852.43 542.045,845.185 542.045,836.247 C542.045,827.309 550.689,820.064 561.352,820.064 C572.015,820.064 580.659,827.309 580.659,836.247 C580.659,845.185 572.015,852.43 561.352,852.43 z" fill="#FFFFFF" fill-opacity="0.348"/>
      <path d="M561.352,852.43 C550.689,852.43 542.045,845.185 542.045,836.247 C542.045,827.309 550.689,820.064 561.352,820.064 C572.015,820.064 580.659,827.309 580.659,836.247 C580.659,845.185 572.015,852.43 561.352,852.43 z" fill-opacity="0" stroke="#FFFFFF" stroke-width="1" stroke-opacity="0.365"/>
    </g>
    <g>
      <path d="M863.486,693.089 C862.47,697.339 862.947,695.311 862.052,699.174 C861.808,700.233 860.957,703.959 861.002,703.759 C860.708,705.042 860.413,706.324 860.113,707.605 C859.197,706.139 859.103,704.355 858.995,702.686 C859.142,699.141 860.606,695.346 863.486,693.089 z" fill="#FFFFFF" fill-opacity="0.348"/>
      <path d="M863.486,693.089 C862.47,697.339 862.947,695.311 862.052,699.174 C861.808,700.233 860.957,703.959 861.002,703.759 C860.708,705.042 860.413,706.324 860.113,707.605 C859.197,706.139 859.103,704.355 858.995,702.686 C859.142,699.141 860.606,695.346 863.486,693.089 z" fill-opacity="0" stroke="#FFFFFF" stroke-width="1" stroke-opacity="0.365"/>
    </g>
    <g>
      <path d="M657.827,731.149 C648.502,731.149 640.942,724.474 640.942,716.239 C640.942,708.004 648.502,701.329 657.827,701.329 C667.152,701.329 674.712,708.004 674.712,716.239 C674.712,724.474 667.152,731.149 657.827,731.149 z" fill="#FFFFFF" fill-opacity="0.348"/>
      <path d="M657.827,731.149 C648.502,731.149 640.942,724.474 640.942,716.239 C640.942,708.004 648.502,701.329 657.827,701.329 C667.152,701.329 674.712,708.004 674.712,716.239 C674.712,724.474 667.152,731.149 657.827,731.149 z" fill-opacity="0" stroke="#FFFFFF" stroke-width="1" stroke-opacity="0.365"/>
    </g>
    <g>
      <path d="M556.701,663.24 C543.355,663.24 532.536,655.295 532.536,645.494 C532.536,635.692 543.355,627.747 556.701,627.747 C570.047,627.747 580.867,635.692 580.867,645.494 C580.867,655.295 570.047,663.24 556.701,663.24 z" fill="#FFFFFF" fill-opacity="0.348"/>
      <path d="M556.701,663.24 C543.355,663.24 532.536,655.295 532.536,645.494 C532.536,635.692 543.355,627.747 556.701,627.747 C570.047,627.747 580.867,635.692 580.867,645.494 C580.867,655.295 570.047,663.24 556.701,663.24 z" fill-opacity="0" stroke="#FFFFFF" stroke-width="1" stroke-opacity="0.365"/>
    </g>
    <g>
      <path d="M302.139,847.642 C294.308,847.642 287.96,841.468 287.96,833.853 C287.96,826.237 294.308,820.064 302.139,820.064 C309.97,820.064 316.318,826.237 316.318,833.853 C316.318,841.468 309.97,847.642 302.139,847.642 z" fill="#FFFFFF" fill-opacity="0.348"/>
      <path d="M302.139,847.642 C294.308,847.642 287.96,841.468 287.96,833.853 C287.96,826.237 294.308,820.064 302.139,820.064 C309.97,820.064 316.318,826.237 316.318,833.853 C316.318,841.468 309.97,847.642 302.139,847.642 z" fill-opacity="0" stroke="#FFFFFF" stroke-width="1" stroke-opacity="0.365"/>
    </g>
    <g>
      <path d="M618.567,580.876 C609.993,580.876 603.043,573.871 603.043,565.229 C603.043,556.588 609.993,549.583 618.567,549.583 C627.14,549.583 634.091,556.588 634.091,565.229 C634.091,573.871 627.14,580.876 618.567,580.876 z" fill="#FFFFFF" fill-opacity="0.348"/>
      <path d="M618.567,580.876 C609.993,580.876 603.043,573.871 603.043,565.229 C603.043,556.588 609.993,549.583 618.567,549.583 C627.14,549.583 634.091,556.588 634.091,565.229 C634.091,573.871 627.14,580.876 618.567,580.876 z" fill-opacity="0" stroke="#FFFFFF" stroke-width="1" stroke-opacity="0.365"/>
    </g>
    <g>
      <path d="M556.97,766.506 C546.329,766.506 537.703,759.504 537.703,750.866 C537.703,742.228 546.329,735.225 556.97,735.225 C567.611,735.225 576.237,742.228 576.237,750.866 C576.237,759.504 567.611,766.506 556.97,766.506 z" fill="#FFFFFF" fill-opacity="0.348"/>
      <path d="M556.97,766.506 C546.329,766.506 537.703,759.504 537.703,750.866 C537.703,742.228 546.329,735.225 556.97,735.225 C567.611,735.225 576.237,742.228 576.237,750.866 C576.237,759.504 567.611,766.506 556.97,766.506 z" fill-opacity="0" stroke="#FFFFFF" stroke-width="1" stroke-opacity="0.365"/>
    </g>
    <g>
      <path d="M374.04,789.5 C365.001,789.5 357.674,783.304 357.674,775.662 C357.674,768.019 365.001,761.823 374.04,761.823 C383.079,761.823 390.406,768.019 390.406,775.662 C390.406,783.304 383.079,789.5 374.04,789.5 z" fill="#FFFFFF" fill-opacity="0.348"/>
      <path d="M374.04,789.5 C365.001,789.5 357.674,783.304 357.674,775.662 C357.674,768.019 365.001,761.823 374.04,761.823 C383.079,761.823 390.406,768.019 390.406,775.662 C390.406,783.304 383.079,789.5 374.04,789.5 z" fill-opacity="0" stroke="#FFFFFF" stroke-width="1" stroke-opacity="0.365"/>
    </g>
    <g>
      <path d="M399.409,869.94 C389.78,869.94 381.974,862.992 381.974,854.42 C381.974,845.849 389.78,838.9 399.409,838.9 C409.038,838.9 416.844,845.849 416.844,854.42 C416.844,862.992 409.038,869.94 399.409,869.94 z" fill="#FFFFFF" fill-opacity="0.348"/>
      <path d="M399.409,869.94 C389.78,869.94 381.974,862.992 381.974,854.42 C381.974,845.849 389.78,838.9 399.409,838.9 C409.038,838.9 416.844,845.849 416.844,854.42 C416.844,862.992 409.038,869.94 399.409,869.94 z" fill-opacity="0" stroke="#FFFFFF" stroke-width="1" stroke-opacity="0.365"/>
    </g>
    <g>
      <path d="M391.036,716.551 C380.373,716.551 371.729,709.305 371.729,700.368 C371.729,691.43 380.373,684.185 391.036,684.185 C401.699,684.185 410.343,691.43 410.343,700.368 C410.343,709.305 401.699,716.551 391.036,716.551 z" fill="#FFFFFF" fill-opacity="0.348"/>
      <path d="M391.036,716.551 C380.373,716.551 371.729,709.305 371.729,700.368 C371.729,691.43 380.373,684.185 391.036,684.185 C401.699,684.185 410.343,691.43 410.343,700.368 C410.343,709.305 401.699,716.551 391.036,716.551 z" fill-opacity="0" stroke="#FFFFFF" stroke-width="1" stroke-opacity="0.365"/>
    </g>
    <g>
      <path d="M475.5,892.764 C464.987,892.764 456.465,886.089 456.465,877.854 C456.465,869.619 464.987,862.944 475.5,862.944 C486.013,862.944 494.535,869.619 494.535,877.854 C494.535,886.089 486.013,892.764 475.5,892.764 z" fill="#FFFFFF" fill-opacity="0.348"/>
      <path d="M475.5,892.764 C464.987,892.764 456.465,886.089 456.465,877.854 C456.465,869.619 464.987,862.944 475.5,862.944 C486.013,862.944 494.535,869.619 494.535,877.854 C494.535,886.089 486.013,892.764 475.5,892.764 z" fill-opacity="0" stroke="#FFFFFF" stroke-width="1" stroke-opacity="0.365"/>
    </g>
    <g>
      <path d="M288.658,783.562 C279.237,783.562 271.6,777.276 271.6,769.522 C271.6,761.768 279.237,755.483 288.658,755.483 C298.079,755.483 305.716,761.768 305.716,769.522 C305.716,777.276 298.079,783.562 288.658,783.562 z" fill="#FFFFFF" fill-opacity="0.348"/>
      <path d="M288.658,783.562 C279.237,783.562 271.6,777.276 271.6,769.522 C271.6,761.768 279.237,755.483 288.658,755.483 C298.079,755.483 305.716,761.768 305.716,769.522 C305.716,777.276 298.079,783.562 288.658,783.562 z" fill-opacity="0" stroke="#FFFFFF" stroke-width="1" stroke-opacity="0.365"/>
    </g>
    <g>
      <path d="M245.142,830.343 C237.311,830.343 230.963,824.169 230.963,816.553 C230.963,808.938 237.311,802.764 245.142,802.764 C252.973,802.764 259.321,808.938 259.321,816.553 C259.321,824.169 252.973,830.343 245.142,830.343 z" fill="#FFFFFF" fill-opacity="0.348"/>
      <path d="M245.142,830.343 C237.311,830.343 230.963,824.169 230.963,816.553 C230.963,808.938 237.311,802.764 245.142,802.764 C252.973,802.764 259.321,808.938 259.321,816.553 C259.321,824.169 252.973,830.343 245.142,830.343 z" fill-opacity="0" stroke="#FFFFFF" stroke-width="1" stroke-opacity="0.365"/>
    </g>
    <g>
      <path d="M646.931,845.341 C638.357,845.341 631.407,838.336 631.407,829.695 C631.407,821.053 638.357,814.048 646.931,814.048 C655.505,814.048 662.455,821.053 662.455,829.695 C662.455,838.336 655.505,845.341 646.931,845.341 z" fill="#FFFFFF" fill-opacity="0.348"/>
      <path d="M646.931,845.341 C638.357,845.341 631.407,838.336 631.407,829.695 C631.407,821.053 638.357,814.048 646.931,814.048 C655.505,814.048 662.455,821.053 662.455,829.695 C662.455,838.336 655.505,845.341 646.931,845.341 z" fill-opacity="0" stroke="#FFFFFF" stroke-width="1" stroke-opacity="0.365"/>
    </g>
    <g>
      <path d="M475.5,728.122 C464.859,728.122 456.233,721.12 456.233,712.482 C456.233,703.844 464.859,696.841 475.5,696.841 C486.141,696.841 494.767,703.844 494.767,712.482 C494.767,721.12 486.141,728.122 475.5,728.122 z" fill="#FFFFFF" fill-opacity="0.348"/>
      <path d="M475.5,728.122 C464.859,728.122 456.233,721.12 456.233,712.482 C456.233,703.844 464.859,696.841 475.5,696.841 C486.141,696.841 494.767,703.844 494.767,712.482 C494.767,721.12 486.141,728.122 475.5,728.122 z" fill-opacity="0" stroke="#FFFFFF" stroke-width="1" stroke-opacity="0.365"/>
    </g>
    <g>
      <path d="M715.583,531.648 C708.594,531.648 702.929,526.721 702.929,520.643 C702.929,514.566 708.594,509.639 715.583,509.639 C722.571,509.639 728.236,514.566 728.236,520.643 C728.236,526.721 722.571,531.648 715.583,531.648 z" fill="#FFFFFF" fill-opacity="0.348"/>
      <path d="M715.583,531.648 C708.594,531.648 702.929,526.721 702.929,520.643 C702.929,514.566 708.594,509.639 715.583,509.639 C722.571,509.639 728.236,514.566 728.236,520.643 C728.236,526.721 722.571,531.648 715.583,531.648 z" fill-opacity="0" stroke="#FFFFFF" stroke-width="1" stroke-opacity="0.365"/>
    </g>
    <g>
      <path d="M792.979,555.558 C784.381,555.558 777.411,550.206 777.411,543.603 C777.411,537 784.381,531.647 792.979,531.647 C801.576,531.647 808.546,537 808.546,543.603 C808.546,550.206 801.576,555.558 792.979,555.558 z" fill="#FFFFFF" fill-opacity="0.348"/>
      <path d="M792.979,555.558 C784.381,555.558 777.411,550.206 777.411,543.603 C777.411,537 784.381,531.647 792.979,531.647 C801.576,531.647 808.546,537 808.546,543.603 C808.546,550.206 801.576,555.558 792.979,555.558 z" fill-opacity="0" stroke="#FFFFFF" stroke-width="1" stroke-opacity="0.365"/>
    </g>
    <g>
      <path d="M800.602,636.566 C793.125,636.566 787.064,630.514 787.064,623.048 C787.064,615.583 793.125,609.531 800.602,609.531 C808.079,609.531 814.14,615.583 814.14,623.048 C814.14,630.514 808.079,636.566 800.602,636.566 z" fill="#FFFFFF" fill-opacity="0.348"/>
      <path d="M800.602,636.566 C793.125,636.566 787.064,630.514 787.064,623.048 C787.064,615.583 793.125,609.531 800.602,609.531 C808.079,609.531 814.14,615.583 814.14,623.048 C814.14,630.514 808.079,636.566 800.602,636.566 z" fill-opacity="0" stroke="#FFFFFF" stroke-width="1" stroke-opacity="0.365"/>
    </g>
    <g>
      <path d="M739.193,716.551 C730.442,716.551 723.349,712.615 723.349,707.759 C723.349,702.904 730.442,698.967 739.193,698.967 C747.943,698.967 755.037,702.904 755.037,707.759 C755.037,712.615 747.943,716.551 739.193,716.551 z" fill="#FFFFFF" fill-opacity="0.348"/>
      <path d="M739.193,716.551 C730.442,716.551 723.349,712.615 723.349,707.759 C723.349,702.904 730.442,698.967 739.193,698.967 C747.943,698.967 755.037,702.904 755.037,707.759 C755.037,712.615 747.943,716.551 739.193,716.551 z" fill-opacity="0" stroke="#FFFFFF" stroke-width="1" stroke-opacity="0.365"/>
    </g>
    <g>
      <path d="M762.699,755.483 C754.574,755.483 747.988,752.486 747.988,748.79 C747.988,745.094 754.574,742.097 762.699,742.097 C770.825,742.097 777.411,745.094 777.411,748.79 C777.411,752.486 770.825,755.483 762.699,755.483 z" fill="#FFFFFF" fill-opacity="0.348"/>
      <path d="M762.699,755.483 C754.574,755.483 747.988,752.486 747.988,748.79 C747.988,745.094 754.574,742.097 762.699,742.097 C770.825,742.097 777.411,745.094 777.411,748.79 C777.411,752.486 770.825,755.483 762.699,755.483 z" fill-opacity="0" stroke="#FFFFFF" stroke-width="1" stroke-opacity="0.365"/>
    </g>
    <g>
      <path d="M706.756,803.244 C697.592,803.244 690.164,798.41 690.164,792.447 C690.164,786.484 697.592,781.65 706.756,781.65 C715.92,781.65 723.349,786.484 723.349,792.447 C723.349,798.41 715.92,803.244 706.756,803.244 z" fill="#FFFFFF" fill-opacity="0.348"/>
      <path d="M706.756,803.244 C697.592,803.244 690.164,798.41 690.164,792.447 C690.164,786.484 697.592,781.65 706.756,781.65 C715.92,781.65 723.349,786.484 723.349,792.447 C723.349,798.41 715.92,803.244 706.756,803.244 z" fill-opacity="0" stroke="#FFFFFF" stroke-width="1" stroke-opacity="0.365"/>
    </g>
  </g>
  <g id="Layer_13">
    <g>
      <path d="M460.491,170.251 C421.784,170.251 390.406,141.342 390.406,105.682 C390.406,70.022 421.784,41.114 460.491,41.114 C499.198,41.114 530.576,70.022 530.576,105.682 C530.576,141.342 499.198,170.251 460.491,170.251 z" fill="url(#Gradient_6)"/>
      <path d="M460.491,170.251 C421.784,170.251 390.406,141.342 390.406,105.682 C390.406,70.022 421.784,41.114 460.491,41.114 C499.198,41.114 530.576,70.022 530.576,105.682 C530.576,141.342 499.198,170.251 460.491,170.251 z" fill-opacity="0" stroke="#FF00CD" stroke-width="1"/>
    </g>
  </g>
  <g id="Layer_19">
    <g>
      <path d="M464.241,314.047 C334.034,314.047 213.694,291.499 237.386,233.783 C263.465,170.251 343.373,110.204 473.147,120.815 C607.174,131.775 674.712,164.782 702.929,247.973 C722.97,307.056 603.043,314.047 473.813,314.047 z" fill="url(#Gradient_7)"/>
      <path d="M464.241,314.047 C334.034,314.047 213.694,291.499 237.386,233.783 C263.465,170.251 343.373,110.204 473.147,120.815 C607.174,131.775 674.712,164.782 702.929,247.973 C722.97,307.056 603.043,314.047 473.813,314.047 z" fill-opacity="0" stroke="#FF00CD" stroke-width="1"/>
    </g>
  </g>
  <g id=".Layer_21">
    <g>
      <path d="M1627.925,314.047 L1627.925,314.047" fill="#FFFFFF" fill-opacity="0.443"/>
      <path d="M1627.925,314.047 L1627.925,314.047" fill-opacity="0" stroke="#FFFFFF" stroke-width="6" stroke-opacity="0.441" stroke-linecap="round" stroke-linejoin="round"/>
    </g>
    <g>
      <path d="M1207.226,346.293 L1207.226,346.293" fill="#FFFFFF" fill-opacity="0.459"/>
      <path d="M1207.226,346.293 L1207.226,346.293" fill-opacity="0" stroke="#FFFFFF" stroke-width="6" stroke-opacity="0.061" stroke-linecap="round" stroke-linejoin="round"/>
    </g>
    <g>
      <path d="M93.359,402.862 C102.155,411.077 127.674,383.795 135.587,391.708 C178.37,434.491 155.789,579.827 128.416,626.751" fill="#FFFFFF" fill-opacity="0.459"/>
      <path d="M93.359,402.862 C102.155,411.077 127.674,383.795 135.587,391.708 C178.37,434.491 155.789,579.827 128.416,626.751" fill-opacity="0" stroke="#FFFFFF" stroke-width="6" stroke-opacity="0.061" stroke-linecap="round" stroke-linejoin="round"/>
    </g>
    <g>
      <path d="M309.644,267.655 C318.982,256.535 329.117,246.233 338.389,235.106 C452.272,98.447 312.851,196.258 280.477,235.106 C274.003,242.875 267.744,252.022 269.064,262.583 C275.551,314.479 346.287,227.624 354.029,220.311" fill="#FFFFFF" fill-opacity="0.459"/>
      <path d="M309.644,267.655 C318.982,256.535 329.117,246.233 338.389,235.106 C452.272,98.447 312.851,196.258 280.477,235.106 C274.003,242.875 267.744,252.022 269.064,262.583 C275.551,314.479 346.287,227.624 354.029,220.311" fill-opacity="0" stroke="#FFFFFF" stroke-width="6" stroke-opacity="0.061" stroke-linecap="round" stroke-linejoin="round"/>
    </g>
    <g>
      <path d="M433.172,66.043 C337.856,128.908 473.536,146.985 447.934,70.176 C445.223,62.043 433.833,68.378 429.038,70.176" fill="#FFFFFF" fill-opacity="0.459"/>
      <path d="M433.172,66.043 C337.856,128.908 473.536,146.985 447.934,70.176 C445.223,62.043 433.833,68.378 429.038,70.176" fill-opacity="0" stroke="#FFFFFF" stroke-width="6" stroke-opacity="0.061" stroke-linecap="round" stroke-linejoin="round"/>
    </g>
    <g>
      <path d="M234.362,973.902 C261.405,852.771 305.312,1199.439 261.961,1213.822 C243.797,1218.976 238.335,1193.017 235.971,1180.349 C232.895,1163.858 231.851,1146.92 231.366,1130.177 C230.348,1095.057 231.581,1059.944 232.954,1024.852 C233.578,1010.617 234.233,996.528 234.601,982.247 C234.704,978.258 234.612,974.267 234.617,970.277" fill="#FFFFFF" fill-opacity="0.469"/>
      <path d="M234.362,973.902 C261.405,852.771 305.312,1199.439 261.961,1213.822 C243.797,1218.976 238.335,1193.017 235.971,1180.349 C232.895,1163.858 231.851,1146.92 231.366,1130.177 C230.348,1095.057 231.581,1059.944 232.954,1024.852 C233.578,1010.617 234.233,996.528 234.601,982.247 C234.704,978.258 234.612,974.267 234.617,970.277" fill-opacity="0" stroke="#FFFFFF" stroke-width="6" stroke-opacity="0.061" stroke-linecap="round" stroke-linejoin="round"/>
    </g>
    <g>
      <path d="M234.338,1240.653 L234.338,1240.653" fill="#FFFFFF" fill-opacity="0.469"/>
      <path d="M234.338,1240.653 L234.338,1240.653" fill-opacity="0" stroke="#FFFFFF" stroke-width="6" stroke-opacity="0.061" stroke-linecap="round" stroke-linejoin="round"/>
    </g>
  </g>
  <g id="-Layer_22">
    <g>
      <path d="M219.649,1261.871 C254.471,1319.116 316.556,1264.244 242.821,1239.665 C234.462,1236.879 225.513,1241.456 221.58,1249.32 C216.865,1258.751 221.17,1265.008 226.408,1272.491" fill="#FFFFFF" fill-opacity="0.469"/>
      <path d="M219.649,1261.871 C254.471,1319.116 316.556,1264.244 242.821,1239.665 C234.462,1236.879 225.513,1241.456 221.58,1249.32 C216.865,1258.751 221.17,1265.008 226.408,1272.491" fill-opacity="0" stroke="#FFFFFF" stroke-width="6" stroke-opacity="0.061" stroke-linecap="round" stroke-linejoin="round"/>
    </g>
    <g>
      <path d="M234.708,882.293 C202.182,952.894 298.704,920.592 255.061,885.943 C247.161,879.671 237.509,881.536 230.245,885.053" fill="#FFFFFF" fill-opacity="0.461"/>
      <path d="M234.708,882.293 C202.182,952.894 298.704,920.592 255.061,885.943 C247.161,879.671 237.509,881.536 230.245,885.053" fill-opacity="0" stroke="#FFFFFF" stroke-width="6" stroke-opacity="0.053" stroke-linecap="round" stroke-linejoin="round"/>
    </g>
  </g>
</svg>
