<svg id="ePpRu6zdY4Q1" xmlns="http://www.w3.org/2000/svg" xmlns:xlink="http://www.w3.org/1999/xlink" viewBox="0 0 147 140" shape-rendering="geometricPrecision" text-rendering="geometricPrecision"><style><![CDATA[#ePpRu6zdY4Q4_to {animation: ePpRu6zdY4Q4_to__to 3000ms linear infinite normal backwards}@keyframes ePpRu6zdY4Q4_to__to { 0% {transform: translate(61.515051px,46.643014px)} 6.666667% {transform: translate(64.483660px,41.981726px)} 10% {transform: translate(65.967964px,40.125504px)} 30% {transform: translate(74.432962px,28.786982px)} 33.333333% {transform: translate(76.358096px,26.897228px)} 60% {transform: translate(68.876914px,33.708261px)} 100% {transform: translate(64.380675px,46.640158px)}} #ePpRu6zdY4Q4_tr {animation: ePpRu6zdY4Q4_tr__tr 3000ms linear infinite normal backwards}@keyframes ePpRu6zdY4Q4_tr__tr { 0% {transform: rotate(0deg)} 33.333333% {transform: rotate(61.226988deg)} 100% {transform: rotate(0.011017deg)}} #ePpRu6zdY4Q5_tr {animation: ePpRu6zdY4Q5_tr__tr 3000ms linear infinite normal backwards}@keyframes ePpRu6zdY4Q5_tr__tr { 0% {transform: translate(86.920502px,46.990919px) rotate(0deg)} 33.333333% {transform: translate(86.920502px,46.990919px) rotate(61.226988deg)} 100% {transform: translate(86.920502px,46.990919px) rotate(0.011017deg)}}]]></style><path id="ePpRu6zdY4Q2" d="M73.500000,140C114.093000,140,147,108.660000,147,70C147,31.340100,114.093000,0,73.500000,0C32.907100,0,0,31.340100,0,70C0,108.660000,32.907100,140,73.500000,140Z" fill="rgb(161,215,243)" stroke="none" stroke-width="1"/><path id="ePpRu6zdY4Q3" d="M146.598000,77.346400L90.756700,24.164400L65.779100,21.738800L51.252800,35.573300L51.252800,51.181400L39.015600,100.438000L80.244800,139.704000C115.131000,136.680000,142.973000,110.445000,146.598000,77.346400L146.598000,77.346400Z" fill="rgb(114,187,255)" stroke="none" stroke-width="1"/><g id="ePpRu6zdY4Q4_to" transform="translate(61.515051,46.643014)"><g id="ePpRu6zdY4Q4_tr" transform="rotate(0)"><path id="ePpRu6zdY4Q4" d="M55.272300,58.112757L55.272300,43.728100C55.272300,34.155900,61.663339,24.714458,73.500000,26.368400L76.371100,22.626700L73.500000,18.165300C55.919494,18.468612,46.659000,29.632700,46.659000,43.728100L46.659000,70.634137C46.659000,74.118037,55.272300,58.112757,55.272300,58.112757Z" transform="scale(1,0.987933) translate(-61.515051,-46.991861)" fill="rgb(255,255,255)" stroke="none" stroke-width="1"/></g></g><g id="ePpRu6zdY4Q5_tr" transform="translate(86.920502,46.990919) rotate(0)"><path id="ePpRu6zdY4Q5" d="M73.768045,18.164300L73.768045,26.367400C83.818845,26.367400,91.995745,34.154900,91.995745,43.727200L91.995745,57.629715C91.995745,57.629715,100.609045,61.113915,100.609045,57.629715L100.609045,43.727400C100.609045,29.632000,88.568245,18.164300,73.768045,18.164300L73.768045,18.164300Z" transform="translate(-86.920502,-46.990919)" fill="rgb(227,234,238)" stroke="none" stroke-width="1"/></g><path id="ePpRu6zdY4Q6" d="M52.837900,52.778300C39.497900,52.778300,28.683700,63.077600,28.683700,75.782300C28.683700,93.918100,38.748600,102.309000,55.149400,111.525000L73.500000,121.836000L79.242200,86.740300L73.500000,63.861800C69.264600,57.217300,61.595600,52.778300,52.837900,52.778300L52.837900,52.778300Z" fill="rgb(255,124,183)" stroke="none" stroke-width="1"/><path id="ePpRu6zdY4Q7" d="M94.162100,52.778300C85.404400,52.778300,77.735400,57.217300,73.500000,63.861600L73.500000,121.836000L91.850300,111.525000C108.251000,102.310000,118.316000,93.918400,118.316000,75.782600C118.316000,63.077600,107.502000,52.778300,94.162100,52.778300L94.162100,52.778300Z" fill="rgb(236,60,147)" stroke="none" stroke-width="1"/><path id="ePpRu6zdY4Q8" d="M65.046600,79.857700C65.046600,82.796600,66.700700,85.366700,69.170100,86.772100L65.046600,101.673000L73.500000,101.673000L76.371100,86.740100L73.500000,71.806900C68.831300,71.806900,65.046600,75.411300,65.046600,79.857700L65.046600,79.857700Z" fill="rgb(90,90,90)" stroke="none" stroke-width="1"/><path id="ePpRu6zdY4Q9" d="M77.830200,86.772100C80.299300,85.366700,81.953600,82.796300,81.953600,79.857700C81.953600,75.411300,78.169000,71.806900,73.500300,71.806900L73.500300,101.674000L81.953600,101.674000L77.830200,86.772100Z" fill="rgb(50,57,63)" stroke="none" stroke-width="1"/></svg>