<svg cache-id="47bfe19be72a4221bdd2034b19abbcb1" id="eY5RoxLcZe61" xmlns="http://www.w3.org/2000/svg" xmlns:xlink="http://www.w3.org/1999/xlink" viewBox="0 0 148 141" shape-rendering="geometricPrecision" text-rendering="geometricPrecision"><style><![CDATA[#eY5RoxLcZe65_ts {animation: eY5RoxLcZe65_ts__ts 2000ms linear infinite normal forwards}@keyframes eY5RoxLcZe65_ts__ts { 0% {transform: translate(73.999366px,70.500114px) scale(0.875705,0.933110)} 25% {transform: translate(73.999366px,70.500114px) scale(0.980268,1.018592)} 50% {transform: translate(73.999366px,70.500114px) scale(0.883908,0.886484)} 75% {transform: translate(73.999366px,70.500114px) scale(0.980268,1.018592)} 100% {transform: translate(73.999366px,70.500114px) scale(0.883908,0.886484)}} #eY5RoxLcZe67_to {animation: eY5RoxLcZe67_to__to 2000ms linear infinite normal forwards}@keyframes eY5RoxLcZe67_to__to { 0% {transform: translate(94.857400px,57.627548px)} 25% {transform: translate(94.857400px,40.101648px)} 50% {transform: translate(94.857400px,56.429382px)} 75% {transform: translate(94.857400px,35.596548px)} 100% {transform: translate(94.856763px,57.627548px)}} #eY5RoxLcZe68_to {animation: eY5RoxLcZe68_to__to 2000ms linear infinite normal forwards}@keyframes eY5RoxLcZe68_to__to { 0% {transform: translate(67.084601px,97.318348px)} 25% {transform: translate(67.084601px,79.792448px)} 50% {transform: translate(67.084601px,96.120182px)} 75% {transform: translate(67.084601px,75.287348px)} 100% {transform: translate(67.083964px,97.318348px)}} #eY5RoxLcZe69_to {animation: eY5RoxLcZe69_to__to 2000ms linear infinite normal forwards}@keyframes eY5RoxLcZe69_to__to { 0% {transform: translate(92.062550px,57.627548px)} 25% {transform: translate(92.062550px,40.101648px)} 50% {transform: translate(92.062550px,56.429382px)} 75% {transform: translate(92.062550px,35.596548px)} 100% {transform: translate(92.061914px,57.627548px)}} #eY5RoxLcZe610_to {animation: eY5RoxLcZe610_to__to 2000ms linear infinite normal forwards}@keyframes eY5RoxLcZe610_to__to { 0% {transform: translate(43.975400px,59.265398px)} 25% {transform: translate(43.975400px,41.739498px)} 50% {transform: translate(43.975400px,58.067232px)} 75% {transform: translate(43.975400px,37.234398px)} 100% {transform: translate(43.974763px,59.265398px)}} #eY5RoxLcZe611_to {animation: eY5RoxLcZe611_to__to 2000ms linear infinite normal forwards}@keyframes eY5RoxLcZe611_to__to { 0% {transform: translate(41.180199px,59.264948px)} 25% {transform: translate(41.180199px,41.739048px)} 50% {transform: translate(41.180199px,58.066782px)} 75% {transform: translate(41.180199px,37.233948px)} 100% {transform: translate(41.179563px,59.264948px)}} #eY5RoxLcZe612_to {animation: eY5RoxLcZe612_to__to 2000ms linear infinite normal forwards}@keyframes eY5RoxLcZe612_to__to { 0% {transform: translate(60.935801px,57.627548px)} 25% {transform: translate(60.935801px,40.101648px)} 50% {transform: translate(60.935801px,56.429382px)} 75% {transform: translate(60.935801px,35.596548px)} 100% {transform: translate(60.935164px,57.627548px)}} #eY5RoxLcZe613_to {animation: eY5RoxLcZe613_to__to 2000ms linear infinite normal forwards}@keyframes eY5RoxLcZe613_to__to { 0% {transform: translate(58.141200px,57.627548px)} 25% {transform: translate(58.141200px,40.101648px)} 50% {transform: translate(58.141200px,56.429382px)} 75% {transform: translate(58.141200px,35.596548px)} 100% {transform: translate(58.140563px,57.627548px)}} #eY5RoxLcZe614_to {animation: eY5RoxLcZe614_to__to 2000ms linear infinite normal forwards}@keyframes eY5RoxLcZe614_to__to { 0% {transform: translate(77.896203px,55.989748px)} 25% {transform: translate(77.896203px,38.463848px)} 50% {transform: translate(77.896203px,54.791582px)} 75% {transform: translate(77.896203px,33.958748px)} 100% {transform: translate(77.895566px,55.989748px)}} #eY5RoxLcZe615_to {animation: eY5RoxLcZe615_to__to 2000ms linear infinite normal forwards}@keyframes eY5RoxLcZe615_to__to { 0% {transform: translate(75.101552px,55.989748px)} 25% {transform: translate(75.101552px,38.463848px)} 50% {transform: translate(75.101552px,54.791582px)} 75% {transform: translate(75.101552px,33.958748px)} 100% {transform: translate(75.100915px,55.989748px)}} #eY5RoxLcZe616_to {animation: eY5RoxLcZe616_to__to 2000ms linear infinite normal forwards}@keyframes eY5RoxLcZe616_to__to { 0% {transform: translate(92.891850px,98.695801px)} 25% {transform: translate(92.891850px,81.169901px)} 50% {transform: translate(92.891850px,97.497635px)} 75% {transform: translate(92.891850px,76.664801px)} 100% {transform: translate(92.891213px,98.695801px)}}]]></style><g id="eY5RoxLcZe62" clip-path="url(#eY5RoxLcZe617)"><g id="eY5RoxLcZe63"><path id="eY5RoxLcZe64" d="M148,70.499900C148,109.436000,114.869000,141,73.999900,141C33.131500,141,0,109.436000,0,70.499900C0,31.563400,33.131500,0,73.999900,0C114.869000,0,148,31.563400,148,70.499900Z" fill="rgb(238,219,0)" stroke="none" stroke-width="1"/><g id="eY5RoxLcZe65_ts" transform="translate(73.999366,70.500114) scale(0.875705,0.933110)"><path id="eY5RoxLcZe65" d="M4.280610,138.107000C5.192960,137.480000,6.230650,136.747000,7.385770,135.920000C9.703920,134.272000,12.480500,132.237000,15.633100,129.869000C18.787900,127.505000,22.300700,124.793000,26.089000,121.793000C27.770300,120.462000,29.504700,119.072000,31.284200,117.629000C32.569200,116.588000,34.444700,116.556000,35.776000,117.543000C46.668900,125.610000,59.981600,129.984000,74,129.984000C88.026300,129.984000,101.344000,125.606000,112.240000,117.532000C113.572000,116.544000,115.448000,116.575000,116.733000,117.618000C118.512000,119.059000,120.245000,120.448000,121.925000,121.780000C125.713000,124.780000,129.224000,127.493000,132.378000,129.860000C135.527000,132.228000,138.304000,134.265000,140.620000,135.914000C141.775000,136.741000,142.812000,137.475000,143.724000,138.104000C144.628000,138.739000,145.410000,139.269000,146.043000,139.697000L146.082000,139.723000C146.462000,139.982000,146.932000,139.535000,146.661000,139.171000L146.634000,139.136000C146.183000,138.531000,145.627000,137.788000,144.960000,136.925000C144.301000,136.057000,143.531000,135.069000,142.663000,133.969000C140.932000,131.762000,138.793000,129.117000,136.307000,126.116000C133.824000,123.111000,130.975000,119.767000,127.825000,116.158000C126.429000,114.557000,124.971000,112.906000,123.458000,111.212000C122.362000,109.985000,122.333000,108.197000,123.371000,106.926000C123.939000,106.229000,124.490000,105.523000,125.023000,104.806000C125.965000,103.540000,127.682000,103.040000,129.204000,103.594000C129.219000,103.600000,129.234000,103.605000,129.249000,103.610000C132.126000,104.661000,134.656000,105.542000,136.760000,106.234000C137.809000,106.583000,138.751000,106.888000,139.577000,107.142000C140.399000,107.403000,141.104000,107.613000,141.677000,107.783000L141.711000,107.793000C142.140000,107.921000,142.450000,107.402000,142.117000,107.115000L142.091000,107.093000C141.646000,106.709000,141.098000,106.236000,140.444000,105.695000C139.796000,105.147000,139.041000,104.529000,138.192000,103.845000C136.498000,102.469000,134.416000,100.841000,132.004000,99.013700C131.997000,99.008300,131.990000,99.003000,131.983000,98.997600C130.706000,98.028300,130.288000,96.359800,130.959000,94.940900C134.548000,87.358000,136.438000,79.067300,136.438000,70.500000C136.438000,57.137100,131.842000,44.449800,123.366000,34.068900C122.330000,32.799500,122.363000,31.012700,123.457000,29.788500C124.971000,28.094200,126.429000,26.442900,127.825000,24.842200C130.975000,21.233100,133.824000,17.887500,136.307000,14.884000C138.793000,11.882700,140.930000,9.237440,142.661000,7.031080C143.531000,5.930600,144.301000,4.943060,144.960000,4.074940C145.627000,3.212190,146.183000,2.468850,146.634000,1.864280L146.660000,1.828780C146.932000,1.465180,146.462000,1.017670,146.080000,1.276930L146.043000,1.301670C145.410000,1.730890,144.628000,2.261230,143.723000,2.895920C142.812000,3.524160,141.775000,4.257810,140.620000,5.086140C138.304000,6.734180,135.527000,8.771640,132.377000,11.140400C129.223000,13.506000,125.713000,16.220100,121.925000,19.220300C120.244000,20.551000,118.511000,21.939800,116.733000,23.382400C115.445000,24.424800,113.569000,24.453800,112.235000,23.465200C111.460000,22.890800,110.673000,22.335700,109.873000,21.798900C108.563000,20.918900,108.030000,19.315000,108.572000,17.876700C109.094000,16.494400,109.580000,15.172300,110.029000,13.921200C110.517000,12.564700,110.963000,11.290000,111.358000,10.102300C111.755000,8.916860,112.127000,7.830360,112.435000,6.835300C112.754000,5.845610,113.031000,4.958120,113.259000,4.179280C113.497000,3.405820,113.685000,2.741010,113.836000,2.200990L113.845000,2.168720C113.962000,1.756710,113.412000,1.480240,113.121000,1.805120L113.098000,1.829860C112.716000,2.254780,112.248000,2.778660,111.711000,3.402600C111.167000,4.023300,110.556000,4.742970,109.880000,5.553010C109.192000,6.357670,108.462000,7.263440,107.660000,8.246680C106.856000,9.228830,106.005000,10.300300,105.106000,11.451300C104.334000,12.439900,103.525000,13.487700,102.689000,14.590300C101.717000,15.870500,99.944500,16.339500,98.417900,15.722000C90.797200,12.636800,82.529600,11.015600,74,11.015600C67.550300,11.015600,61.250800,11.942900,55.267400,13.728700C53.713700,14.192300,52.026700,13.596400,51.170800,12.276400C51.105300,12.175300,51.039900,12.074200,50.974400,11.973100C49.345000,9.463340,47.885000,7.291410,46.644100,5.518590C46.026400,4.631100,45.469800,3.840420,44.971800,3.158400C44.481800,2.473150,44.051500,1.895480,43.701500,1.427530L43.680100,1.399560C43.418100,1.048870,42.838800,1.282300,42.921300,1.706150L42.928000,1.739490C43.037600,2.305340,43.175300,3.001340,43.351500,3.812460C43.519700,4.628950,43.729700,5.559460,43.970200,6.598630C44.445600,8.681280,45.071200,11.191000,45.832200,14.051400C45.862700,14.166500,45.894300,14.282700,45.924800,14.399900C46.325700,15.900600,45.607500,17.470100,44.180300,18.212400C41.250100,19.733500,38.439700,21.485900,35.773700,23.458800C34.443600,24.445200,32.569200,24.411900,31.285400,23.370600C29.504700,21.928000,27.770300,20.539200,26.089000,19.207400C22.300700,16.207200,18.787900,13.495200,15.633100,11.130700C12.481600,8.763030,9.703920,6.727720,7.386900,5.079680C6.230650,4.253510,5.194090,3.519850,4.280610,2.892690C3.375030,2.258000,2.593660,1.728740,1.959080,1.300590L1.921810,1.274770C1.537900,1.015520,1.065920,1.464100,1.338040,1.829860L1.365140,1.866430C1.814540,2.471000,2.371220,3.215420,3.036280,4.078160C3.695710,4.947370,4.465790,5.935980,5.332980,7.036460C7.061710,9.244970,9.199190,11.890200,11.683300,14.893700C14.165200,17.898300,17.011800,21.244900,20.161000,24.855100C21.558900,26.456900,23.016600,28.108100,24.530800,29.804600C25.626100,31.030900,25.654300,32.817800,24.617700,34.089300C24.056600,34.776700,23.513400,35.474800,22.987200,36.182700C22.044400,37.447800,20.328100,37.946900,18.807100,37.395100C18.791300,37.388600,18.775500,37.383200,18.759700,37.377800C15.880400,36.327900,13.349900,35.449000,11.245200,34.759500C10.194000,34.412000,9.253390,34.106500,8.426850,33.853700C7.604830,33.593400,6.897980,33.383600,6.324370,33.214700L6.290500,33.205000C5.859160,33.077000,5.547520,33.597700,5.881740,33.887100L5.908840,33.909600C6.352600,34.294800,6.900240,34.767000,7.554020,35.309200C8.202150,35.858900,8.956420,36.476400,9.804410,37.161600C11.497000,38.539600,13.578000,40.168300,15.988800,41.998200C15.996700,42.003500,16.004600,42.010000,16.012500,42.015400C17.288400,42.985700,17.706200,44.653100,17.035500,46.070900C13.450400,53.650600,11.562500,61.937100,11.562500,70.500000C11.562500,83.855400,16.153600,96.538400,24.621100,106.916000C25.657700,108.186000,25.623800,109.971000,24.530800,111.195000C23.016600,112.891000,21.558900,114.543000,20.161000,116.145000C17.011800,119.755000,14.165200,123.102000,11.683300,126.106000C9.199190,129.110000,7.061710,131.755000,5.332980,133.964000C4.465790,135.065000,3.695710,136.053000,3.036280,136.922000C2.371220,137.785000,1.814540,138.529000,1.365140,139.134000L1.338040,139.170000C1.065920,139.536000,1.537900,139.985000,1.921810,139.725000L1.959080,139.699000C2.593660,139.271000,3.375030,138.742000,4.280610,138.107000L4.280610,138.107000Z" transform="translate(-73.999366,-70.500052)" fill="rgb(128,73,191)" stroke="none" stroke-width="1"/></g><path id="eY5RoxLcZe66" d="M23.125000,70.500000C23.125000,43.774200,45.947400,22.031200,74,22.031200C102.053000,22.031200,124.875000,43.774200,124.875000,70.500000C124.875000,97.225800,102.053000,118.969000,74,118.969000C45.947400,118.969000,23.125000,97.225800,23.125000,70.500000Z" fill="rgb(140,90,197)" stroke="none" stroke-width="1"/><g id="eY5RoxLcZe67_to" transform="translate(94.857400,57.627548)"><path id="eY5RoxLcZe67" d="M94.857700,76.927500C90.174000,76.927500,86.376600,73.310900,86.376600,68.848700L86.376600,46.406500C86.376600,41.944300,90.174000,38.327600,94.857700,38.327600C99.541400,38.327600,103.338000,41.945400,103.338000,46.406500L103.338000,68.848700C103.338000,73.310900,99.540300,76.927500,94.857700,76.927500Z" transform="translate(-94.857300,-57.627548)" fill="rgb(255,203,190)" stroke="none" stroke-width="1"/></g><g id="eY5RoxLcZe68_to" transform="translate(67.084601,97.318348)"><path id="eY5RoxLcZe68" d="M98.674200,64.172600L98.674200,53.636700L35.494800,53.636700L35.494800,89.155700C35.494800,96.653600,40.716000,102.988000,47.882800,105.045000L47.882800,136.478000C56.004700,139.398000,64.805300,141,74,141C82.652700,141,90.956500,139.580000,98.674200,136.980000L98.674200,64.172600Z" transform="translate(-67.084501,-97.318348)" fill="rgb(249,183,170)" stroke="none" stroke-width="1"/></g><g id="eY5RoxLcZe69_to" transform="translate(92.062550,57.627548)"><path id="eY5RoxLcZe69" d="M92.157900,68.848700L92.157900,46.406500C92.157900,42.911400,94.487300,39.935900,97.748300,38.809600C96.846100,38.497600,95.872800,38.327600,94.857700,38.327600C90.174000,38.327600,86.376600,41.944300,86.376600,46.406500L86.376600,68.848700C86.376600,73.310900,90.174000,76.927500,94.857700,76.927500C95.872800,76.927500,96.846100,76.757500,97.748300,76.445600C94.487300,75.319300,92.157900,72.343800,92.157900,68.848700L92.157900,68.848700Z" transform="translate(-92.062450,-57.627548)" fill="rgb(249,183,170)" stroke="none" stroke-width="1"/></g><g id="eY5RoxLcZe610_to" transform="translate(43.975400,59.265398)"><path id="eY5RoxLcZe610" d="M43.974800,76.927500C39.291000,76.927500,35.494800,73.310800,35.494800,68.848700L35.494800,49.682100C35.494800,45.219900,39.292200,41.603300,43.974800,41.603300C48.658500,41.603300,52.455800,45.219900,52.455800,49.682100L52.455800,68.848700C52.455800,73.310800,48.658500,76.927500,43.974800,76.927500Z" transform="translate(-43.975300,-59.265398)" fill="rgb(255,203,190)" stroke="none" stroke-width="1"/></g><g id="eY5RoxLcZe611_to" transform="translate(41.180199,59.264948)"><path id="eY5RoxLcZe611" d="M41.276100,68.848700L41.276100,49.682200C41.276100,46.187100,43.605500,43.211600,46.865400,42.085300C45.963200,41.773300,44.989900,41.602300,43.974800,41.602300C39.291000,41.602300,35.494800,45.220000,35.494800,49.682200L35.494800,68.848700C35.494800,73.310900,39.292200,76.927600,43.974800,76.927600C44.989900,76.927600,45.963200,76.757600,46.865400,76.445700C43.605500,75.319300,41.276100,72.343800,41.276100,68.848700L41.276100,68.848700Z" transform="translate(-41.180099,-59.264948)" fill="rgb(249,183,170)" stroke="none" stroke-width="1"/></g><g id="eY5RoxLcZe612_to" transform="translate(60.935801,57.627548)"><path id="eY5RoxLcZe612" d="M60.935700,76.927500C56.252000,76.927500,52.455800,73.310900,52.455800,68.848700L52.455800,46.406500C52.455800,41.944300,56.252000,38.327600,60.935700,38.327600C65.619400,38.327600,69.415600,41.945400,69.415600,46.406500L69.415600,68.848700C69.415600,73.310900,65.619400,76.927500,60.935700,76.927500Z" transform="translate(-60.935701,-57.627548)" fill="rgb(255,203,190)" stroke="none" stroke-width="1"/></g><g id="eY5RoxLcZe613_to" transform="translate(58.141200,57.627548)"><path id="eY5RoxLcZe613" d="M58.237100,68.848700L58.237100,46.406500C58.237100,42.911400,60.566500,39.935900,63.826400,38.809600C62.924200,38.497600,61.950800,38.327600,60.935700,38.327600C56.252000,38.327600,52.455800,41.944300,52.455800,46.406500L52.455800,68.848700C52.455800,73.310900,56.252000,76.927500,60.935700,76.927500C61.950800,76.927500,62.924200,76.757500,63.826400,76.445600C60.566500,75.319300,58.237100,72.343800,58.237100,68.848700L58.237100,68.848700Z" transform="translate(-58.141100,-57.627548)" fill="rgb(249,183,170)" stroke="none" stroke-width="1"/></g><g id="eY5RoxLcZe614_to" transform="translate(77.896203,55.989748)"><path id="eY5RoxLcZe614" d="M77.896700,76.927500C73.213000,76.927500,69.415600,73.310900,69.415600,68.848700L69.415600,43.130800C69.415600,38.668700,73.213000,35.052000,77.896700,35.052000C82.580400,35.052000,86.376600,38.669700,86.376600,43.130800L86.376600,68.848700C86.376600,73.310900,82.580400,76.927500,77.896700,76.927500Z" transform="translate(-77.896103,-55.989748)" fill="rgb(255,203,190)" stroke="none" stroke-width="1"/></g><g id="eY5RoxLcZe615_to" transform="translate(75.101552,55.989748)"><path id="eY5RoxLcZe615" d="M75.196900,68.848700L75.196900,43.130800C75.196900,39.636800,77.527500,36.660200,80.787300,35.533900C79.885100,35.222000,78.911800,35.052000,77.896700,35.052000C73.213000,35.052000,69.415600,38.668700,69.415600,43.130800L69.415600,68.848700C69.415600,73.310900,73.213000,76.927500,77.896700,76.927500C78.911800,76.927500,79.885100,76.757500,80.787300,76.445600C77.527500,75.319300,75.196900,72.343800,75.196900,68.848700L75.196900,68.848700Z" transform="translate(-75.101452,-55.989748)" fill="rgb(249,183,170)" stroke="none" stroke-width="1"/></g><g id="eY5RoxLcZe616_to" transform="translate(92.891850,98.695801)"><path id="eY5RoxLcZe616" d="M112.505000,89.155600L112.505000,65.944200C112.505000,60.668800,108.016000,56.391600,102.478000,56.391600L75.679000,56.391600C74.353400,56.391600,73.278500,57.415700,73.278500,58.678600C73.278500,67.135100,80.474500,73.990800,89.350800,73.990800L94.336000,73.990800C94.966100,73.990800,95.137700,74.817000,94.555100,75.045000L78.074000,81.488700C75.173200,82.622600,73.278500,85.315100,73.278500,88.302500L73.278500,140.991000C73.519000,140.994000,73.759500,141,74,141C82.652700,141,90.956500,139.581000,98.674200,136.981000L98.674200,105.397000C106.573000,103.821000,112.505000,97.149400,112.505000,89.155600L112.505000,89.155600Z" transform="translate(-92.891750,-98.695801)" fill="rgb(255,221,207)" stroke="none" stroke-width="1"/></g></g><clipPath id="eY5RoxLcZe617"><rect id="eY5RoxLcZe618" width="148" height="141" rx="0" ry="0" fill="rgb(255,255,255)" stroke="none" stroke-width="1"/></clipPath></g></svg>