<svg id="Capa_1" enable-background="new 0 0 511.998 511.998" height="512" viewBox="0 0 511.998 511.998" width="512" xmlns="http://www.w3.org/2000/svg"><g><path d="m149.884 504.003c-16.263 12.247-40.135 10.366-55.741-5.24-4.575-4.575-7.962-9.857-10.168-15.457-14.68 4.667-31.834.834-43.975-11.307s-15.974-29.295-11.307-43.975c-5.6-2.206-10.882-5.593-15.457-10.168-15.606-15.606-17.487-39.478-5.24-55.741-.622-.552 187.086-45.198 187.086-45.198s-44.647 187.708-45.198 187.086z" fill="#5ac36b"/><path d="m316.916 195.082s44.647-187.709 45.198-187.086c16.263-12.247 40.135-10.366 55.741 5.24 4.575 4.575 7.962 9.857 10.168 15.457 14.68-4.667 31.834-.834 43.975 11.307s15.974 29.295 11.307 43.975c5.6 2.206 10.882 5.593 15.457 10.168 15.606 15.606 17.487 39.478 5.24 55.741.623.551-187.086 45.198-187.086 45.198z" fill="#5ac36b"/><path d="m316.916 195.082 155.083-155.083c12.141 12.141 15.974 29.295 11.307 43.975 5.6 2.206 10.882 5.593 15.457 10.168 15.606 15.606 17.487 39.478 5.24 55.741.622.552-187.087 45.199-187.087 45.199z" fill="#419e48"/><path d="m195.082 316.916s-44.647 187.709-45.198 187.086c-16.263 12.247-40.135 10.366-55.741-5.24-4.575-4.575-7.962-9.857-10.168-15.457-14.68 4.667-31.834.834-43.975-11.307z" fill="#419e48"/><path d="m386.142 318.84-67.302 67.302c-2.807 2.807-5.713 5.459-8.704 7.927-16.879 14.078-54.136-1.598-54.136-1.598s-37.229 32.11-54.136 28.61c-23.709-4.9-46.294-16.553-64.693-34.938l-11.314-11.314c-50.155-50.169-50.155-131.501 0-181.67l67.302-67.302c2.807-2.807 5.713-5.459 8.704-7.927 15.712-13.11 56.965 14.326 56.965 14.326s32.987-45.135 51.308-41.337c23.709 4.9 46.294 16.553 64.693 34.938l11.314 11.314c50.154 50.168 50.154 131.499-.001 181.669z" fill="#96de3d"/><path d="m386.142 318.84-67.302 67.302c-2.807 2.807-5.713 5.459-8.704 7.927-16.879 14.078-54.136-1.598-54.136-1.598s-37.229 32.11-54.136 28.61c-23.709-4.9-46.294-16.553-64.693-34.938l-5.657-5.657 248.972-248.972 5.657 5.657c50.154 50.168 50.154 131.499-.001 181.669z" fill="#5ac36b"/><path d="m310.135 90.918c-37.314-7.729-77.407 1.266-108.272 27.012v303.15c37.314 7.729 77.407-1.266 108.272-27.012z" fill="#ffd400"/><path d="m310.135 394.069c-30.865 25.746-70.958 34.74-108.272 27.012v-110.946l108.272-108.272z" fill="#fdbf00"/></g></svg>